<svg id="Layer_5" enable-background="new 0 0 64 64" height="512" viewBox="0 0 64 64" width="512" xmlns="http://www.w3.org/2000/svg"><g><g><g><path d="m13 54v-5c0-1.38-.56-2.63-1.46-3.54-.91-.9-2.16-1.46-3.54-1.46h6l2.47 1.24c3.39 1.69 5.53 5.15 5.53 8.94v7.82h-11v-8z" fill="#5cd6b3"/></g><g><path d="m13 49v5h-2-6-2v-5c0-2.76 2.24-5 5-5 1.38 0 2.63.56 3.54 1.46.9.91 1.46 2.16 1.46 3.54z" fill="#5cd6b3"/></g><g><path d="m15.36 22c.71-.62 1.63-1 2.64-1 2.21 0 4 1.79 4 4s-1.79 4-4 4h-1-1-2.56c-.86 0-1.62.55-1.9 1.37l-.54 1.63h-.53c-1.36 0-2.47 1.11-2.47 2.47 0 .94.53 1.79 1.37 2.21l.63.32-2 4-.53-.27c-1.67-.83-3.04-2.11-3.99-3.64-.95-1.54-1.48-3.33-1.48-5.2 0-5.46 4.43-9.89 9.89-9.89z" fill="#b27946"/></g><g><path d="m5 54h6v8h-6z" fill="#f0d0b4"/></g><g><path d="m14 44h-6v-3l2-4-.63-.32c-.84-.42-1.37-1.27-1.37-2.21 0-1.36 1.11-2.47 2.47-2.47h.53l.54-1.63c.28-.82 1.04-1.37 1.9-1.37h2.56 1s5 4 5 7l-3 1v1.38c0 .99-.56 1.9-1.45 2.34-.36.19-.76.28-1.17.28h-2.38z" fill="#f0d0b4"/></g><g><path d="m54 56h-22c-2.209 0-4-1.791-4-4v-38c0-2.209 1.791-4 4-4h22c2.209 0 4 1.791 4 4v38c0 2.209-1.791 4-4 4z" fill="#969faa"/></g><g><path d="m54 19v28c0 .55-.45 1-1 1h-20c-.55 0-1-.45-1-1v-28c0-.55.45-1 1-1h8v.7c0 .72.58 1.3 1.3 1.3.44 0 .85-.22 1.09-.58l.94-1.42h.01 8.66c.55 0 1 .45 1 1z" fill="#69d6f4"/></g><g><path d="m40 2h20c1.1 0 2 .9 2 2v8c0 1.1-.9 2-2 2h-2-11l-2.66 4h-.01l-.94 1.42c-.24.36-.65.58-1.09.58-.72 0-1.3-.58-1.3-1.3v-.7-4h-1c-1.1 0-2-.9-2-2v-2-6c0-1.1.9-2 2-2z" fill="#e6e9ed"/></g><g><path d="m50 30v1c0 3.87-3.13 7-7 7-1.94 0-3.68-.78-4.95-2.05s-2.05-3.01-2.05-4.95v-1h4v1c0 1.66 1.34 3 3 3s3-1.34 3-3v-1z" fill="#fcd770"/></g><g><path d="m46 30v1c0 1.66-1.34 3-3 3s-3-1.34-3-3v-1-3c0-1.66 1.34-3 3-3 .83 0 1.58.34 2.12.88s.88 1.29.88 2.12z" fill="#ffeaa7"/></g></g><g><path d="m23 25c0-2.757-2.243-5-5-5-1.116 0-2.136.38-2.969 1h-3.142c-6.004 0-10.889 4.885-10.889 10.889 0 4.143 2.298 7.867 6 9.728v1.474c-2.833.478-5 2.942-5 5.909v6h2v8h19v-8.819c0-4.194-2.33-7.965-6.081-9.839l-1.919-.96v-1.382h1.382c.558 0 1.118-.132 1.618-.382 1.233-.617 2-1.857 2-3.236v-.661l3-1v-.721c0-2.208-2.052-4.654-3.632-6.214 2.089-.6 3.632-2.507 3.632-4.786zm-19 24c0-2.206 1.794-4 4-4s4 1.794 4 4v4h-8zm2 6h4v6h-4zm14.89-19.684-2.89.963v2.103c0 .617-.343 1.172-.895 1.447-.223.112-.473.171-.723.171h-5.382v2h2v2.618l3.024 1.513c3.07 1.533 4.976 4.618 4.976 8.05v6.819h-9v-6h2v-6c0-2.967-2.167-5.431-5-5.91v-1.854l2.342-4.685-1.528-.763c-.502-.25-.814-.755-.814-1.316 0-.812.66-1.472 1.472-1.472h1.249l.771-2.316c.137-.41.519-.684.949-.684h2.559.643c1.569 1.314 3.738 3.599 4.247 5.316zm-2.89-7.316h-.649-1.351-2.559c-1.293 0-2.437.824-2.847 2.051l-.317.955c-1.824.1-3.277 1.617-3.277 3.466 0 1.226.63 2.337 1.664 2.965l-1.099 2.197c-2.818-1.571-4.565-4.494-4.565-7.745 0-4.902 3.987-8.889 8.889-8.889h1.535c-.27.614-.424 1.288-.424 2h2c0-1.654 1.346-3 3-3s3 1.346 3 3-1.346 3-3 3z"/><path d="m40 51h6v2h-6z"/><path d="m49 7h2v2h-2z"/><path d="m53 5h2v6h-2z"/><path d="m45 5h2v6h-2z"/><path d="m41 7h2v2h-2z"/><path d="m57 7h2v2h-2z"/><path d="m60 1h-20c-1.654 0-3 1.346-3 3v5h-5c-2.757 0-5 2.243-5 5v38c0 2.757 2.243 5 5 5h22c2.757 0 5-2.243 5-5v-37h1c1.654 0 3-1.346 3-3v-8c0-1.654-1.346-3-3-3zm-3 51c0 1.654-1.346 3-3 3h-22c-1.654 0-3-1.346-3-3v-38c0-1.654 1.346-3 3-3h5v1c0 1.654 1.346 3 3 3v2h-7c-1.103 0-2 .897-2 2v28c0 1.103.897 2 2 2h20c1.103 0 2-.897 2-2v-28c0-1.103-.897-2-2-2h-6.798l1.333-2h9.465zm-12.132-33h8.132v28h-20v-28h7.031c.15 1.125 1.106 2 2.272 2 .772 0 1.488-.384 1.916-1.025zm16.132-7c0 .552-.448 1-1 1h-13.535l-3.91 5.866c-.15.223-.555.1-.555-.169v-5.697h-2c-.552 0-1-.448-1-1v-8c0-.552.448-1 1-1h20c.552 0 1 .448 1 1z"/><path d="m39 27v2h-4v2c0 4.072 3.06 7.436 7 7.931v4.069h-4v2h10v-2h-4v-4.069c3.94-.495 7-3.859 7-7.931v-2h-4v-2c0-2.206-1.794-4-4-4s-4 1.794-4 4zm8 4h2c0 3.309-2.691 6-6 6s-6-2.691-6-6h2c0 2.206 1.794 4 4 4s4-1.794 4-4zm-2-4v4c0 1.103-.897 2-2 2s-2-.897-2-2v-4c0-1.103.897-2 2-2s2 .897 2 2z"/></g></g></svg>