<svg height="512" viewBox="0 0 60 60" width="512" xmlns="http://www.w3.org/2000/svg"><g id="Page-1" fill="none" fill-rule="evenodd"><g id="008---AR-Visor" fill-rule="nonzero"><path id="Shape" d="m44.15 16.66c-4.3807634-2.270274-9.2178576-3.5214235-14.15-3.66-4.9321424.1385765-9.7692366 1.389726-14.15 3.66.01-.38.03-.77.05-1.17.51-10.94 13.09-11.49 13.09-11.49h2.02s12.58.55 13.09 11.49c.02.4.04.79.05 1.17z" fill="#ffe0b2"/><path id="Shape" d="m41.078 15.226c1.0549434.4086995 2.0812521.8877772 3.072 1.434-.01-.38-.03-.77-.05-1.17-.51-10.94-13.09-11.49-13.09-11.49h-2.02s-.18.008-.49.04c2.294.233 11.959 1.778 12.578 11.186z" fill="#dfc49c"/><path id="Shape" d="m43 32.82v.18c-.1283809 4.0443296-1.6510539 7.9199033-4.31 10.97-1.8844452 2.2528435-4.3152293 3.9846911-7.06 5.03-.2.08-.41.15-.61.22-.6588235.24-1.3811765.24-2.04 0-.2-.07-.41-.14-.61-.22-2.7447707-1.0453089-5.1755548-2.7771565-7.06-5.03-2.6589461-3.0500967-4.1816191-6.9256704-4.31-10.97v-.18c0-.33.01-.66.04-.99 3.3781643.7005866 6.8593463-.5932009 8.96-3.33.7980713-1.4439148 2.3528285-2.3029182 4-2.21 1.6471715-.0929182 3.2019287.7660852 4 2.21 2.1006537 2.7367991 5.5818357 4.0305866 8.96 3.33.03.33.04.66.04.99z" fill="#ffe0b2"/><path id="Shape" d="m42.96 31.83c-.9890585.1860409-2.000748.2197639-3 .1.524 6.6-4.024 14.332-11.464 17.12.7828922.3929764 1.6907494.4553015 2.52.173 2.9920515-1.0088812 5.6466398-2.8259071 7.67-5.25 2.948314-3.3385861 4.4812132-7.6937556 4.274-12.143z" fill="#dfc49c"/><path id="Shape" d="m16 59h-15v-.42c.00100149-1.9958565 1.4731003-3.6855699 3.45-3.96 2.55666751-.3495776 5.09091901-.8470789 7.59-1.49.6472731 2.3348997 2.0373722 4.3954759 3.96 5.87z" fill="#9d27b0"/><path id="Shape" d="m47.96 53.13c-.6472731 2.3348997-2.0373722 4.3954759-3.96 5.87h-28c-1.9226278-1.4745241-3.3127269-3.5351003-3.96-5.87 3.0368378-.7577076 5.9989079-1.7885749 8.85-3.08.454766-1.9925766.5964636-4.0438187.42-6.08 1.8844452 2.2528435 4.3152293 3.9846911 7.06 5.03.2.08.41.15.61.22.6588235.24 1.3811765.24 2.04 0 .2-.07.41-.14.61-.22 2.7447707-1.0453089 5.1755548-2.7771565 7.06-5.03-.1764636 2.0361813-.034766 4.0874234.42 6.08 2.8510921 1.2914251 5.8131622 2.3222924 8.85 3.08z" fill="#ffe0b2"/><path id="Shape" d="m39.11 50.05c-.454766-1.9925766-.5964636-4.0438187-.42-6.08-.9034477 1.0573097-1.9236001 2.0090271-3.041 2.837.0201647 1.095809.1749931 2.1849811.461 3.243 2.8510921 1.2914251 5.8131622 2.3222924 8.85 3.08-.6472731 2.3348997-2.0373722 4.3954759-3.96 5.87h3c1.9226278-1.4745241 3.3127269-3.5351003 3.96-5.87-3.0368378-.7577076-5.9989079-1.7885749-8.85-3.08z" fill="#dfc49c"/><path id="Shape" d="m59 58.58v.42h-15c1.9226278-1.4745241 3.3127269-3.5351003 3.96-5.87 2.499081.6429211 5.0333325 1.1404224 7.59 1.49 1.9768997.2744301 3.4489985 1.9641435 3.45 3.96z" fill="#9d27b0"/><path id="Shape" d="m55.55 54.62c-2.5566675-.3495776-5.090919-.8470789-7.59-1.49-.036.13-.1.356-.208.649 1.493.315 3.089.6 4.8.841 1.9761056.2753367 3.4471376 1.9648051 3.448 3.96v.42h3v-.42c-.0010015-1.9958565-1.4731003-3.6855699-3.45-3.96z" fill="#6a1b9a"/><path id="Shape" d="m43.05 31.81c-.02 0-.03.01-.05.01-.014096-.0014964-.0282665.0020463-.04.01-3.3781643.7005866-6.8593463-.5932009-8.96-3.33-.7980713-1.4439148-2.3528285-2.3029182-4-2.21-1.6471715-.0929182-3.2019287.7660852-4 2.21-2.1006537 2.7367991-5.5818357 4.0305866-8.96 3.33-.0117335-.0079537-.025904-.0114964-.04-.01-.02 0-.03-.01-.05-.01-4.31-.84-4.45-7.46-4.19-11.03.0645399-1.3869529.7799418-2.6620734 1.93-3.44 4.6473815-2.7340806 9.9191819-4.2285034 15.31-4.34 5.3908115.1115412 10.6626007 1.6059609 15.31 4.34 1.1500582.7779266 1.8654601 2.0530471 1.93 3.44.26 3.57.12 10.19-4.19 11.03z" fill="#02a9f4"/><path id="Shape" d="m47.24 20.78c-.0645399-1.3869529-.7799418-2.6620734-1.93-3.44-5.0782268-3.0047709-10.9134927-4.4856301-16.81-4.266 4.8758557.3102277 9.6086576 1.7722214 13.81 4.266 1.1500582.7779266 1.8654601 2.0530471 1.93 3.44.26 3.57.12 10.19-4.19 11.03-.02 0-.03.01-.05.01-.014096-.0014964-.0282665.0020463-.04.01-.113.02-.217.026-.327.042 1.1327052.1951725 2.2921207.1741354 3.417-.062 4.31-.84 4.45-7.46 4.19-11.03z" fill="#0377bc"/><path id="Shape" d="m17 24c-.5522847 0-1-.4477153-1-1v-1.5c.000077-.2527086.0958284-.4960173.268-.681.8632477-.9176994 1.988888-1.5463536 3.223-1.8.3535233-.081836.7236375.0342601.9670833.3033512.2434457.2690912.3220162.6489457.2052994.9925342s-.4104032.5969876-.7673827.6621146c-.7043235.1432905-1.3591634.4676085-1.9.941v1.082c.0000044.5507264-.445278.9977971-.996 1z" fill="#f5f5f5"/><path id="Shape" d="m1 11c-.55228475 0-1-.4477153-1-1v-7c0-1.65685425 1.34314575-3 3-3h7c.5522847 0 1 .44771525 1 1s-.4477153 1-1 1h-7c-.55228475 0-1 .44771525-1 1v7c0 .5522847-.44771525 1-1 1z" fill="#02a9f4"/><path id="Shape" d="m59 11c-.5522847 0-1-.4477153-1-1v-7c0-.55228475-.4477153-1-1-1h-7c-.5522847 0-1-.44771525-1-1s.4477153-1 1-1h7c1.6568542 0 3 1.34314575 3 3v7c0 .5522847-.4477153 1-1 1z" fill="#02a9f4"/><path id="Shape" d="m10 48h-7c-1.65685425 0-3-1.3431458-3-3v-7c0-.5522847.44771525-1 1-1s1 .4477153 1 1v7c0 .5522847.44771525 1 1 1h7c.5522847 0 1 .4477153 1 1s-.4477153 1-1 1z" fill="#02a9f4"/><path id="Shape" d="m57 48h-7c-.5522847 0-1-.4477153-1-1s.4477153-1 1-1h7c.5522847 0 1-.4477153 1-1v-7c0-.5522847.4477153-1 1-1s1 .4477153 1 1v7c0 1.6568542-1.3431458 3-3 3z" fill="#02a9f4"/><g fill="#3f51b5"><path id="Shape" d="m6 6h-1c-.55228475 0-1-.44771525-1-1s.44771525-1 1-1h1c.55228475 0 1 .44771525 1 1s-.44771525 1-1 1z"/><path id="Shape" d="m14 6h-4c-.55228475 0-1-.44771525-1-1s.44771525-1 1-1h4c.5522847 0 1 .44771525 1 1s-.4477153 1-1 1z"/><path id="Shape" d="m11 10h-6c-.55228475 0-1-.44771525-1-1s.44771525-1 1-1h6c.5522847 0 1 .44771525 1 1s-.4477153 1-1 1z"/><path id="Shape" d="m55 6h-1c-.5522847 0-1-.44771525-1-1s.4477153-1 1-1h1c.5522847 0 1 .44771525 1 1s-.4477153 1-1 1z"/><path id="Shape" d="m50 6h-4c-.5522847 0-1-.44771525-1-1s.4477153-1 1-1h4c.5522847 0 1 .44771525 1 1s-.4477153 1-1 1z"/><path id="Shape" d="m55 10h-6c-.5522847 0-1-.44771525-1-1s.4477153-1 1-1h6c.5522847 0 1 .44771525 1 1s-.4477153 1-1 1z"/><path id="Shape" d="m6 44h-1c-.55228475 0-1-.4477153-1-1s.44771525-1 1-1h1c.55228475 0 1 .4477153 1 1s-.44771525 1-1 1z"/><path id="Shape" d="m14 44h-4c-.55228475 0-1-.4477153-1-1s.44771525-1 1-1h4c.5522847 0 1 .4477153 1 1s-.4477153 1-1 1z"/><path id="Shape" d="m11 40h-6c-.55228475 0-1-.4477153-1-1s.44771525-1 1-1h6c.5522847 0 1 .4477153 1 1s-.4477153 1-1 1z"/><path id="Shape" d="m55 44h-1c-.5522847 0-1-.4477153-1-1s.4477153-1 1-1h1c.5522847 0 1 .4477153 1 1s-.4477153 1-1 1z"/><path id="Shape" d="m50 44h-4c-.5522847 0-1-.4477153-1-1s.4477153-1 1-1h4c.5522847 0 1 .4477153 1 1s-.4477153 1-1 1z"/><path id="Shape" d="m55 40h-6c-.5522847 0-1-.4477153-1-1s.4477153-1 1-1h6c.5522847 0 1 .4477153 1 1s-.4477153 1-1 1z"/></g><path id="Shape" d="m55.682 53.629c-5.4123933-.7026575-10.7027509-2.1447788-15.723-4.286-.3120283-1.6330244-.4068494-3.300127-.282-4.958 2.6836172-3.1989293 4.207076-7.2110916 4.323-11.385 0-.144.013-.285.018-.428 3.189-1.152 4.686-5.307 4.222-11.858-.0880903-1.7023114-.9728935-3.2636854-2.388-4.214-.24-.153-.484-.288-.726-.43-.009-.207-.017-.412-.027-.623-.546-11.721-13.911-12.44-14.089-12.447h-2.064c-.134.006-13.5.725-14.045 12.438-.01.215-.018.419-.027.628-.242.142-.487.277-.726.429-1.415569.9512679-2.3003692 2.5137481-2.388 4.217-.464 6.552 1.033 10.707 4.222 11.859.005.147.018.289.018.44.1170683 4.1706672 1.640525 8.1793002 4.323 11.375.1253078 1.6572453.0301439 3.3237913-.283 4.956-5.0189311 2.1442101-10.30933099 3.5867711-15.722 4.287-2.47000965.3466403-4.30987729 2.4557985-4.318 4.95v.421c0 .5522847.44771525 1 1 1h58c.5522847 0 1-.4477153 1-1v-.421c-.0081227-2.4942015-1.8479903-4.6033597-4.318-4.95zm-26.692-48.629h1.975c.467.022 11.228.635 12.089 9.972-4.1132502-1.8403769-8.5494446-2.8503638-13.054-2.972-4.5043837.1212936-8.9405168 1.1305869-13.054 2.97.854-9.336 11.621-9.949 12.044-9.97zm-15.236 15.854c.0435545-1.0714791.5874454-2.0604053 1.469-2.671 6.477-4.124 14.695-4.183 14.777-4.183s8.285.048 14.777 4.184c.8819126.6102717 1.42591 1.5993916 1.469 2.671.2 2.775.255 9.3-3.428 9.984-2.9813804.6517619-6.0730335-.4575046-7.96-2.856-1.9-3.6-7.816-3.6-9.716 0-1.885558 2.4004891-4.9782938 3.5105326-7.96 2.857-3.682-.681-3.624-7.21-3.428-9.986zm4.246 12.11c3.4215255.3255636 6.7661389-1.1516722 8.83-3.9.028896-.0446476.0549477-.0910731.078-.139.6363683-1.0885751 1.8338884-1.7233536 3.092-1.639 1.2542106-.0853194 2.4493593.5437877 3.089 1.626.023322.0522837.0510906.102468.083.15 1.8671716 2.4882813 4.8000888 3.9482519 7.911 3.938.3 0 .605-.016.918-.042 0 6.175-4.552 12.85-10.712 15.1-.7983652.4604605-1.7816348.4604605-2.58 0-6.2297757-2.4844904-10.4219467-8.3932241-10.709-15.094zm-.853 21.554c.2858629.4724041.9005063.6237147 1.373.338 3.231-1.954 3.794-5.489 3.838-8.359 1.6532779 1.4957887 3.575701 2.6638346 5.665 3.442.6217913.2835938 1.2939026.4403178 1.977.461.6830741-.0200196 1.3552503-.1764187 1.977-.46 2.0898519-.7773389 4.0129608-1.9447104 5.667-3.44.044 2.87.607 6.405 3.838 8.359.4727557.2860835 1.0879165.1347557 1.374-.338s.1347557-1.0879165-.338-1.374c-.4840586-.2928496-.9156881-.6646527-1.277-1.1 1.353.522 3.189 1.156 5.428 1.775-.6021623 1.6378724-1.6372309 3.0817844-2.995 4.178h-27.348c-1.3603381-1.0969451-2.3972383-2.5427297-3-4.183 2.239-.619 4.075-1.253 5.428-1.775-.3613119.4353473-.7929414.8071504-1.277 1.1-.226682.1382773-.3890624.3610317-.4513417.619153s-.0193434.5304143.1193417.756847zm-12.557 1.093c2.28451783-.3121385 4.55150215-.7413703 6.792-1.286.4881263 1.328854 1.188184 2.5699114 2.073 3.675h-11.398c.251621-1.2532792 1.26715396-2.2110795 2.533-2.389zm41.955 2.389c.884816-1.1050886 1.5848737-2.346146 2.073-3.675 2.2404978.5446297 4.5074822.9738615 6.792 1.286 1.265846.1779205 2.281379 1.1357208 2.533 2.389z" fill="#000"/></g></g></svg>