<svg id="Capa_1" enable-background="new 0 0 512 512" height="512" viewBox="0 0 512 512" width="512" xmlns="http://www.w3.org/2000/svg"><g><g><path clip-rule="evenodd" d="m107.62 171.74 46.46 37.871c2.466 2.069 2.183 1.729 2.863-1.701l6.973-35.49c.482-2.438.255-2.466 3.26-2.58 43.115-1.843 77.755-37.673 77.755-81.128 0-44.674-36.567-81.213-81.213-81.213h-75.005c-44.618.001-81.1 36.426-81.213 80.987v.227.198c.113 44.561 36.595 80.986 81.213 80.986h14.003c3.147 0 2.466-.141 4.904 1.843z" fill="#fdb440" fill-rule="evenodd"/></g><g><path clip-rule="evenodd" d="m143.819 159.608-6.973 35.462c-.028.142-.057.283-.085.425l17.32 14.117c2.466 2.069 2.183 1.729 2.863-1.701l6.973-35.49c.482-2.438.255-2.466 3.26-2.58 43.115-1.843 77.755-37.673 77.755-81.128 0-32.967-19.899-61.484-48.274-74.183 17.235 14.91 28.148 36.907 28.148 61.342 0 43.455-34.611 79.285-77.726 81.128-3.035.141-2.78.141-3.261 2.608z" fill="#fe9900" fill-rule="evenodd"/></g><g><path clip-rule="evenodd" d="m332.465 391.993c-1.474 4.989-.255 4.054-4.734 6.803l-32.684 20.013c-3.175 1.956-2.948 2.381-.085 4.11l34.356 21.061c5.216 3.175 4.365 1.899 6.69 7.37 4.28 9.95 10.488 19.304 18.624 27.439 34.271 34.271 89.859 34.271 124.158 0 34.271-34.299 34.271-89.887 0-124.158-34.299-34.299-89.887-34.299-124.158 0-10.8 10.772-18.17 23.67-22.167 37.362z" fill="#f8f2f0" fill-rule="evenodd"/></g><g><path clip-rule="evenodd" d="m453.476 350.833c34.271 34.271 34.271 89.859 0 124.158-17.235 17.206-39.799 25.767-62.362 25.71 30.019 9.099 63.95 1.814 87.676-21.912 34.271-34.299 34.271-89.887 0-124.158-17.093-17.065-39.43-25.654-61.795-25.71 13.35 4.054 25.908 11.339 36.481 21.912z" fill="#eee1dc" fill-rule="evenodd"/></g><g><path clip-rule="evenodd" d="m284.162 287.932 50.939-12.246c7.739-1.871 5.783-2.268 12.954.624 13.096 5.216 27.354 8.107 42.321 8.107 63.014 0 114.123-51.109 114.123-114.123 0-63.043-51.109-114.152-114.123-114.152-63.043 0-114.123 51.109-114.123 114.152 0 19.814 5.046 38.466 13.947 54.709 3.26 5.924 3.515 3.94 1.928 10.602l-11.65 48.444c-1.135 4.734-.539 4.875 3.684 3.883z" fill="#22a6fe" fill-rule="evenodd"/></g><g><path clip-rule="evenodd" d="m136.477 504.5c71.065 0 129.005-57.94 129.005-129.005 0-71.036-57.94-128.977-129.005-128.977-71.037 0-128.977 57.94-128.977 128.977 0 71.065 57.94 129.005 128.977 129.005z" fill="#80d261" fill-rule="evenodd"/></g><g><path clip-rule="evenodd" d="m59.884 470.144v9.156c21.43 15.817 47.906 25.2 76.592 25.2s55.191-9.383 76.592-25.2v-9.156c0-25.484-17.32-32.627-35.065-37.616l-34.073 19.984c-5.783 3.742-9.099 3.742-14.882 0l-34.073-19.984c-17.743 4.989-35.091 12.132-35.091 37.616z" fill="#22a6fe" fill-rule="evenodd"/></g><g><path clip-rule="evenodd" d="m94.977 432.528 34.073 19.984c5.783 3.742 9.099 3.742 14.882 0l34.073-19.984c-3.175-.907-6.35-1.729-9.439-2.551-7.2-1.984-9.128-11.254-10.602-14.258-2.494 1.389-5.102 2.58-7.739 3.572-9.95 3.685-17.547 3.685-27.468 0-2.665-.992-5.244-2.183-7.767-3.572-1.474 3.005-3.373 12.274-10.573 14.258-3.118.822-6.293 1.644-9.44 2.551z" fill="#fed1a3" fill-rule="evenodd"/></g><g><path clip-rule="evenodd" d="m81.626 366.537c0 17.348 14.428 38.636 33.364 49.181 2.523 1.389 5.102 2.58 7.767 3.572 9.921 3.685 17.518 3.685 27.468 0 2.636-.992 5.244-2.183 7.739-3.572 18.964-10.545 33.364-31.833 33.364-49.181v-16.781c-22.195-1.559-18.879-18.51-34.214-14.57-11.849 3.061-16.214 4.592-20.636 4.592-4.394 0-8.787-1.531-20.636-4.592-15.307-3.94-12.019 13.011-34.214 14.57v16.781z" fill="#ffe5c1" fill-rule="evenodd"/></g><g><path clip-rule="evenodd" d="m136.477 287.904c-27.411.454-54.851 21.118-54.851 61.852 22.195-1.559 18.907-18.51 34.214-14.57 11.849 3.061 16.243 4.592 20.636 4.592 4.422 0 8.787-1.531 20.636-4.592 15.335-3.94 12.019 13.011 34.214 14.57.001-40.734-27.41-61.398-54.849-61.852z" fill="#6d80aa" fill-rule="evenodd"/></g><g><path clip-rule="evenodd" d="m450.585 155.724v38.693 15.987c0 5.216-4.224 9.439-9.439 9.439h-7.087c-16.923 30.444-47.367 52.299-83.225 57.515 12.331 4.564 25.625 7.058 39.543 7.058 63.014 0 114.123-51.109 114.123-114.123 0-63.043-51.109-114.152-114.123-114.152-5.641 0-11.169.425-16.554 1.191 38.75 14.343 67.607 49.096 73.474 91.248 2.012 1.73 3.288 4.281 3.288 7.144z" fill="#0182fc" fill-rule="evenodd"/></g><g><path clip-rule="evenodd" d="m350.408 150.48v57.515h19.928c8.079 0 9.468-.142 13.238 4.932 3.09 4.11 11.395 6.917 16.866 6.917h40.706c5.216 0 9.439-4.224 9.439-9.439v-54.68c0-5.187-4.224-9.439-9.439-9.439h-21.798c-2.013 0-2.835-.595-1.899-2.976 9.836-25.37-5.471-33.902-14.598-36.992-4.139-1.417-5.698-2.891-6.718 3.713-1.786 11.707-13.691 40.45-25.597 40.45h-20.128z" fill="#ffe5c1" fill-rule="evenodd"/></g><g><path clip-rule="evenodd" d="m400.44 219.844h40.706c5.216 0 9.439-4.224 9.439-9.439v-15.987c0-5.187-4.252 9.439-9.439 9.439h-35.065c-5.499 0-13.776-2.806-16.866-6.945-3.798-5.046-5.159-4.904-13.238-4.904h-15.562v15.987h9.921c8.079 0 9.468-.142 13.238 4.932 3.089 4.111 11.395 6.917 16.866 6.917z" fill="#fed1a3" fill-rule="evenodd"/></g><g><path clip-rule="evenodd" d="m325.633 150.48c0-4.309 3.543-7.824 7.852-7.824h19.077c4.309 0 7.852 3.515 7.852 7.824v57.515c0 4.309-3.543 7.852-7.852 7.852h-19.077c-4.309 0-7.852-3.543-7.852-7.852z" fill="#fdb440" fill-rule="evenodd"/></g><g><path clip-rule="evenodd" d="m325.633 207.995c0 4.309 3.543 7.852 7.852 7.852h19.077c4.309 0 7.852-3.543 7.852-7.852v-15.987c0 4.309-3.543 7.852-7.852 7.852h-19.077c-4.309 0-7.852-3.543-7.852-7.852z" fill="#fe9900" fill-rule="evenodd"/></g><g><path clip-rule="evenodd" d="m162.13 364.78c0 19.701-18.482 44.391-41.103 52.781-.454.17-.907.312-1.361.482 1.02.454 2.041.85 3.09 1.247 9.921 3.685 17.518 3.685 27.468 0 2.636-.992 5.244-2.183 7.739-3.572 18.964-10.545 33.364-31.833 33.364-49.181v-16.781c-20.041-1.417-19.276-15.392-30.246-15.165.68 4.195 1.049 8.674 1.049 13.408z" fill="#fed1a3" fill-rule="evenodd"/></g><g><path clip-rule="evenodd" d="m124.883 289.321c17.405 6.151 32.173 21.26 36.199 45.269 10.97-.227 10.205 13.748 30.246 15.165 0-40.734-27.411-61.399-54.851-61.852-3.884.086-7.796.54-11.594 1.418z" fill="#49679b" fill-rule="evenodd"/></g><g><path clip-rule="evenodd" d="m190.845 483.949v8.561c7.88-3.657 15.307-8.107 22.224-13.21v-9.156c0-25.484-17.32-32.627-35.065-37.616l-16.951 9.95c12.898 3.401 29.792 6.69 29.792 41.471z" fill="#0182fc" fill-rule="evenodd"/></g><g><path clip-rule="evenodd" d="m114.99 415.719c-1.106 2.239-2.466 8.022-6.095 11.622 1.757.879 3.543 1.644 5.357 2.324 9.95 3.685 21.77 7.087 31.72 3.402 2.013-.454 2.835-1.559 4.11.907 2.494 4.791 6.123 7.285 10.885 8.532l17.036-9.978c-3.175-.907-6.35-1.729-9.439-2.551-7.2-1.984-9.128-11.254-10.602-14.258-2.494 1.389-5.102 2.58-7.739 3.572-9.95 3.685-17.547 3.685-27.468 0-1.049-.397-2.069-.794-3.09-1.247-1.585-.71-3.144-1.475-4.675-2.325z" fill="#ffbc85" fill-rule="evenodd"/></g><g><path clip-rule="evenodd" d="m112.099 248.814c61.484 9.836 108.454 63.099 108.454 127.361 0 24.576-6.888 47.537-18.794 67.096 6.803 5.613 11.31 13.833 11.31 26.873v9.156c31.805-23.499 52.413-61.229 52.413-103.805 0-71.235-57.77-128.977-129.005-128.977-8.334 0-16.47.794-24.378 2.296z" fill="#4fc122" fill-rule="evenodd"/></g><g><path clip-rule="evenodd" d="m380.257 388.704c-9.978 10.318-9.978 27.213 0 37.559l36.227 34.98 36.255-34.98c9.978-10.346 9.978-27.241 0-37.559-8.702-9.014-23.102-7.795-32.202.709-4.167 3.883-3.912 3.883-8.079 0-9.099-8.504-23.499-9.723-32.201-.709z" fill="#ffa5c7" fill-rule="evenodd"/></g><g><path clip-rule="evenodd" d="m436.752 387.174c9.95 10.318 6.151 23.528-3.827 33.846l-29.027 28.035 12.586 12.189 36.255-34.98c9.978-10.346 9.978-27.241 0-37.559-5.669-5.868-13.72-7.398-21.175-5.414 1.871.963 3.629 2.267 5.188 3.883z" fill="#fe76a8" fill-rule="evenodd"/></g><g><path d="m184.383 104.485h-116.335c-4.143 0-7.5 3.358-7.5 7.5s3.357 7.5 7.5 7.5h116.335c4.143 0 7.5-3.358 7.5-7.5s-3.358-7.5-7.5-7.5z"/><path d="m184.383 58.989h-116.335c-4.143 0-7.5 3.358-7.5 7.5s3.357 7.5 7.5 7.5h116.335c4.143 0 7.5-3.358 7.5-7.5s-3.358-7.5-7.5-7.5z"/><path d="m88.713 177.397h13.979c.062.051.125.103.19.156l46.42 37.838c1.366 1.146 3.633 3.023 6.656 3.023.831 0 1.72-.142 2.661-.479 4.374-1.568 5.139-5.673 5.506-7.645.051-.274.107-.581.178-.934l6.328-32.211c21.641-1.689 41.777-11.228 56.998-27.066 15.994-16.643 24.802-38.436 24.802-61.365 0-48.918-39.797-88.714-88.713-88.714h-20.892c-4.143 0-7.5 3.358-7.5 7.5s3.357 7.5 7.5 7.5h20.892c40.646 0 73.713 33.067 73.713 73.713 0 39.599-31 71.943-70.537 73.633-2.842.107-8.756.33-10.25 8.179l-5.333 27.152-38.955-31.754c-.302-.246-.55-.455-.76-.632-2.895-2.439-4.682-2.896-8.179-2.896-.046 0-.092 0-.139 0l-14.565.001c-40.646.001-73.713-33.053-73.713-73.683 0-40.646 33.067-73.713 73.713-73.713h19.247c4.143 0 7.5-3.358 7.5-7.5s-3.357-7.5-7.5-7.5h-19.247c-48.916 0-88.713 39.796-88.713 88.713 0 48.901 39.797 88.684 88.713 88.684z"/><path d="m336.862 282.977c1.304-.315 2.346-.59 3.207-.817.518-.137 1.084-.287 1.472-.378.523.188 1.392.542 2.238.888l1.501.609c14.395 5.733 29.566 8.64 45.097 8.64 67.063 0 121.623-54.56 121.623-121.623 0-67.079-54.56-121.652-121.623-121.652-24.739 0-48.549 7.387-68.854 21.363-3.412 2.349-4.274 7.019-1.926 10.431s7.018 4.274 10.43 1.926c17.792-12.246 38.661-18.719 60.35-18.719 58.792-.002 106.623 47.841 106.623 106.649 0 58.792-47.831 106.623-106.623 106.623-13.62 0-26.926-2.549-39.518-7.563l-1.419-.576c-5.738-2.338-7.37-2.662-13.204-1.121-.778.206-1.72.455-2.889.738l-43.932 10.561 10.008-41.613.2-.839c1.352-5.634 1.542-7.857-1.393-12.629-.41-.668-.876-1.425-1.454-2.477-8.521-15.547-13.023-33.218-13.023-51.104 0-24.423 8.012-47.391 23.169-66.42 2.581-3.24 2.047-7.958-1.193-10.54-3.239-2.58-7.959-2.045-10.539 1.194-17.048 21.403-26.437 48.31-26.437 75.766 0 20.398 5.142 40.563 14.875 58.324.714 1.297 1.301 2.261 1.743 2.979-.098.424-.217.92-.334 1.408l-11.854 49.296c-.628 2.623-1.797 7.503 1.793 11.109 1.931 1.939 4.182 2.498 6.282 2.498 1.746 0 3.389-.386 4.656-.684z"/><path d="m333.485 223.347h19.077c5.741 0 10.748-3.173 13.382-7.852h5.035c2.039-.006 4.326-.002 5.126.159.182.169.615.625 1.473 1.78 5.139 6.835 16.462 9.91 22.861 9.91h40.706c9.341 0 16.939-7.599 16.939-16.939v-54.681c0-9.34-7.599-16.939-16.939-16.939h-14.383c2.186-8.735 1.743-16.46-1.33-23.035-3.526-7.543-10.503-13.262-20.153-16.529-.409-.14-.788-.281-1.142-.412-2.275-.843-6.082-2.251-9.995.049-4.262 2.505-5.047 7.585-5.426 10.042-.737 4.835-3.752 13.943-8.087 21.994-5.344 9.925-9.324 12.059-10.096 12.087h-4.599c-2.635-4.663-7.638-7.824-13.373-7.824h-19.077c-8.466 0-15.353 6.874-15.353 15.324v57.515c.002 8.464 6.889 15.351 15.354 15.351zm69.418-108.987c4.427 1.91 7.429 4.506 8.94 7.741 2.098 4.487 1.63 10.709-1.376 18.465-1.736 4.42-.635 7.5.596 9.305 1.217 1.786 3.642 3.914 8.283 3.914h21.799c1.052 0 1.939.888 1.939 1.939v54.681c0 1.069-.87 1.939-1.939 1.939h-40.706c-4.22 0-9.76-2.445-10.846-3.889-5.635-7.583-9.991-7.959-18.473-7.959-.049 0-.1 0-.148 0h-3.059v-42.516h2.62c17.701 0 29.322-30.715 32.37-43.62zm-69.77 36.12c0-.146.163-.324.353-.324h19.077c.189 0 .352.178.352.324v57.515c0 .168-.184.352-.352.352h-19.077c-.168 0-.353-.184-.353-.352z"/><path d="m136.477 239.018c-75.254 0-136.477 61.223-136.477 136.477 0 44.623 21.519 84.312 54.72 109.235.475.452 1.004.846 1.584 1.162 22.525 16.409 50.236 26.108 80.173 26.108 29.978 0 57.723-9.721 80.267-26.166.509-.287.978-.633 1.404-1.027 33.267-24.918 54.834-64.644 54.834-109.313-.001-75.253-61.236-136.476-136.505-136.476zm-69.092 236.356v-5.23c0-18.406 9.917-24.46 26.605-29.501l31.132 18.259c4.084 2.619 7.728 3.929 11.37 3.929 3.643 0 7.285-1.31 11.369-3.928l31.131-18.259c16.67 5.036 26.578 11.081 26.578 29.5v5.24c-19.631 13.62-43.444 21.616-69.093 21.616-25.65 0-49.464-8-69.092-21.626zm21.741-119.183c9.411-2.244 14.312-7.233 17.764-10.754 3.409-3.479 3.764-3.843 7.075-2.99 2.729.705 5.059 1.328 7.082 1.87 7.139 1.909 11.071 2.961 15.43 2.961 4.373 0 8.286-1.047 15.389-2.949 2.032-.544 4.375-1.171 7.114-1.879 3.334-.855 3.688-.492 7.096 2.988 3.448 3.52 8.344 8.509 17.752 10.753v10.346c0 16.9-17.26 38.692-36.207 45.72-8.229 3.048-14.052 3.048-22.255.001-18.967-7.035-36.239-28.827-36.239-45.721v-10.346zm.597-16.039c3.881-30.138 26.016-44.349 46.754-44.748 20.738.399 42.873 14.606 46.754 44.745-2.665-1.354-4.478-3.205-6.438-5.207-4.146-4.234-9.824-10.034-21.555-7.019-2.799.723-5.183 1.361-7.251 1.916-6.065 1.624-9.109 2.438-11.51 2.438-2.387 0-5.45-.819-11.554-2.452-2.059-.551-4.43-1.185-7.213-1.904-11.704-3.013-17.385 2.783-21.532 7.015-1.966 2.007-3.783 3.861-6.455 5.216zm29.202 85.686c.407.161.812.331 1.22.483 5.798 2.153 11.063 3.23 16.334 3.23 5.269 0 10.542-1.076 16.354-3.229.406-.15.807-.319 1.21-.479 1.412 2.84 3.43 5.932 6.422 8.277l-20.328 11.922c-.095.056-.188.113-.281.173-3.303 2.138-3.428 2.137-6.732 0-.092-.06-.186-.117-.28-.172l-20.325-11.921c2.988-2.346 5-5.442 6.406-8.284zm101.261 37.647c-3.299-28.379-27.843-34.931-46.113-39.796-1.188-.316-2.37-.631-3.515-.942-1.323-.365-2.431-2.134-3.305-4.027 18.122-12.491 31.574-33.678 31.574-52.183v-16.781c0-20.897-6.682-38.646-19.324-51.327-11.318-11.353-26.555-17.754-42.902-18.025-.082-.001-.166-.001-.248 0-16.338.271-31.569 6.671-42.891 18.024-12.649 12.685-19.336 30.433-19.336 51.328v16.781c0 18.498 13.459 39.684 31.589 52.177-.866 1.894-1.962 3.666-3.263 4.024-1.153.313-2.317.623-3.488.935-18.299 4.87-42.881 11.427-46.193 39.797-23.255-22.148-37.771-53.398-37.771-87.975 0-66.982 54.494-121.477 121.477-121.477 66.998 0 121.505 54.494 121.505 121.477-.001 34.585-14.526 65.841-37.796 87.99z"/><path d="m416.7 321.407c-25.455 0-49.382 9.917-67.364 27.915-11.284 11.254-19.608 25.283-24.063 40.546-.229.776-.402 1.427-.54 1.969-.118.072-.237.146-.354.217l-33.266 20.369c-1.913 1.179-5.895 3.631-5.873 8.541.021 4.857 3.954 7.232 5.802 8.349l34.377 21.074c.886.54 1.607.958 2.205 1.305.169.098.347.201.511.297.146.338.322.756.485 1.145l.498 1.18c4.794 11.144 11.594 21.163 20.21 29.779 18.57 18.57 42.968 27.855 67.37 27.855s48.811-9.286 67.397-27.857c37.138-37.169 37.137-97.623-.002-134.762-18.005-18.006-41.94-27.922-67.393-27.922zm56.789 152.077c-31.322 31.295-82.26 31.295-113.555.002-7.266-7.266-12.998-15.711-17.023-25.069l-.462-1.094c-1.938-4.611-2.907-6.059-7.297-8.606-.524-.304-1.157-.671-1.914-1.131l-27.231-16.694 26.202-16.044c3.999-2.448 5.743-3.917 6.9-8.663.127-.521.288-1.187.555-2.091 3.757-12.867 10.764-24.677 20.273-34.161 15.158-15.171 35.316-23.526 56.763-23.526s41.614 8.356 56.786 23.528c31.293 31.294 31.292 82.233.003 113.549z"/><path d="m416.498 382.965c-12.507-10.719-30.9-10.589-41.633.526-12.775 13.212-12.778 34.735-.007 47.979.062.064.125.127.188.189l36.228 34.979c1.454 1.403 3.331 2.104 5.21 2.104 1.877 0 3.755-.701 5.208-2.103l36.255-34.979c.064-.063.128-.126.19-.191 12.771-13.244 12.769-34.767-.003-47.975-10.737-11.122-29.138-11.251-41.636-.529zm30.928 38.003-30.939 29.851-30.916-29.851c-7.142-7.502-7.116-19.61.082-27.055 6.045-6.261 15.964-4.369 21.693.986l.356.332c6.576 6.141 11.016 6.141 17.592 0l.364-.339c5.721-5.347 15.638-7.242 21.689-.975 7.195 7.441 7.22 19.549.079 27.051z"/></g></g></svg>