<svg height="512" viewBox="0 0 256 256" width="512" xmlns="http://www.w3.org/2000/svg"><path d="m119.833 64.355-20.593-39.99h-84.94a10.3 10.3 0 0 0 -10.3 10.296v186.678a10.3 10.3 0 0 0 10.3 10.3h206.811a10.3 10.3 0 0 0 10.3-10.3v-146.687a10.3 10.3 0 0 0 -10.3-10.3z" fill="#fcc24c"/><path d="m14 221.339v-186.678a10.3 10.3 0 0 1 10.3-10.3h-10a10.3 10.3 0 0 0 -10.3 10.3v186.678a10.3 10.3 0 0 0 10.3 10.3h10a10.3 10.3 0 0 1 -10.3-10.3z" fill="#fce06a"/><path d="m221.111 64.355h-10a10.3 10.3 0 0 1 10.3 10.3v146.684a10.3 10.3 0 0 1 -10.3 10.3h10a10.3 10.3 0 0 0 10.3-10.3v-146.687a10.3 10.3 0 0 0 -10.3-10.297z" fill="#dea42e"/><path d="m221.111 233.635h-206.811a12.31 12.31 0 0 1 -12.3-12.296v-186.678a12.31 12.31 0 0 1 12.3-12.3h84.94a2 2 0 0 1 1.779 1.084l20.034 38.906h100.058a12.311 12.311 0 0 1 12.3 12.3v146.688a12.31 12.31 0 0 1 -12.3 12.296zm-206.811-207.27a8.305 8.305 0 0 0 -8.3 8.3v186.674a8.305 8.305 0 0 0 8.3 8.3h206.811a8.3 8.3 0 0 0 8.3-8.3v-146.687a8.306 8.306 0 0 0 -8.3-8.3h-101.278a2 2 0 0 1 -1.778-1.084l-20.034-38.903z" fill="#690589"/><rect fill="#576fa5" height="146.121" rx="10.296" width="227.408" x="24.592" y="85.514"/><path d="m241.7 85.514h-10a10.3 10.3 0 0 1 10.3 10.296v125.529a10.3 10.3 0 0 1 -10.3 10.3h10a10.3 10.3 0 0 0 10.3-10.3v-125.529a10.3 10.3 0 0 0 -10.3-10.296z" fill="#395288"/><path d="m34.889 231.635h10a10.3 10.3 0 0 1 -10.3-10.3v-125.525a10.3 10.3 0 0 1 10.3-10.3h-10a10.3 10.3 0 0 0 -10.3 10.3v125.529a10.3 10.3 0 0 0 10.3 10.296z" fill="#708dc8"/><path d="m241.7 233.635h-206.811a12.31 12.31 0 0 1 -12.3-12.3v-125.524a12.31 12.31 0 0 1 12.3-12.3h206.811a12.31 12.31 0 0 1 12.3 12.3v125.528a12.31 12.31 0 0 1 -12.3 12.296zm-206.811-146.121a8.306 8.306 0 0 0 -8.3 8.3v125.525a8.306 8.306 0 0 0 8.3 8.3h206.811a8.305 8.305 0 0 0 8.3-8.3v-125.528a8.306 8.306 0 0 0 -8.3-8.3z" fill="#690589"/><rect fill="#f4efed" height="10.917" rx="5.459" width="57.46" x="182.283" y="182.56"/><path d="m187.742 203.613h46.542a5.459 5.459 0 0 1 5.459 5.459 5.459 5.459 0 0 1 -5.459 5.458h-46.542a5.459 5.459 0 0 1 -5.459-5.458 5.459 5.459 0 0 1 5.459-5.459z" fill="#f4efed"/><g fill="#690589"><path d="m234.284 195.477h-46.542a7.459 7.459 0 1 1 0-14.917h46.542a7.459 7.459 0 1 1 0 14.917zm-46.542-10.917a3.459 3.459 0 1 0 0 6.917h46.542a3.459 3.459 0 1 0 0-6.917z"/><path d="m234.284 216.53h-46.542a7.459 7.459 0 1 1 0-14.917h46.542a7.459 7.459 0 1 1 0 14.917zm-46.542-10.917a3.459 3.459 0 1 0 0 6.917h46.542a3.459 3.459 0 1 0 0-6.917z"/><path d="m34.741 128.324a2 2 0 0 1 -2-2v-12a2 2 0 0 1 4 0v12a2 2 0 0 1 -2 2z"/></g></svg>