<svg xmlns="http://www.w3.org/2000/svg" width="32" height="32" viewBox="0 0 32 32"><g transform="translate(563 -1610.362)"><path fill="#fff" style="isolation:auto;mix-blend-mode:normal" d="m -540.5,1619.3622 0,19.5001 -19,0 0,-23.9887 14.5,0 z" color="#000" overflow="visible"/><path fill="#00a5ff" d="m -541.98334,1617.8832 0,18.5548 c 0,0.554 -0.446,0.9967 -1,1 l -16.51758,0 0,1.4238 19,0 0,-19.5001 z" color="#000" overflow="visible" style="isolation:auto;mix-blend-mode:normal"/><path fill="none" stroke="#000" stroke-dashoffset="1.5" stroke-linecap="round" stroke-linejoin="round" d="m -540.5,1630.9382 0,7.924 -19,0 0,-17.7415 0,-6.2472 14,0 5,4.9886 0,5.5221 m 0,2.509 0,0.969" color="#000" overflow="visible" style="isolation:auto;mix-blend-mode:normal"/><path fill="#00a5ff" fill-rule="evenodd" d="m -545.5,1614.8621 0,5.0001 5.01147,0 z"/><path fill="#fff" fill-rule="evenodd" d="m -545.5,1614.8622 0,1.4961 3.51172,3.5039 1.5,0 -5.01172,-5 z"/><path fill="none" stroke="#000" stroke-linecap="round" stroke-linejoin="round" d="m -545.5,1614.8621 0,5.0001 5.01147,0 z"/><rect width="3" height="3" x="-551.5" y="1618.862" fill="#02daa9" stroke="#000" stroke-dashoffset=".4" stroke-linecap="round" stroke-linejoin="round" stroke-miterlimit="0" color="#000" overflow="visible" style="isolation:auto;mix-blend-mode:normal"/><rect width="3" height="3" x="-554.5" y="1625.862" fill="#fd5b6a" stroke="#000" stroke-dashoffset=".4" stroke-linecap="round" stroke-linejoin="round" stroke-miterlimit="0" style="isolation:auto;mix-blend-mode:normal" color="#000" overflow="visible"/><rect width="3" height="3" x="-548.5" y="1625.862" fill="#fd5b6a" stroke="#000" stroke-dashoffset=".4" stroke-linecap="round" stroke-linejoin="round" stroke-miterlimit="0" color="#000" overflow="visible" style="isolation:auto;mix-blend-mode:normal"/><rect width="3" height="3" x="-557.5" y="1632.862" fill="#f6ec54" stroke="#000" stroke-dashoffset=".4" stroke-linecap="round" stroke-linejoin="round" stroke-miterlimit="0" color="#000" overflow="visible" style="isolation:auto;mix-blend-mode:normal"/><rect width="3" height="3" x="-551.5" y="1632.862" fill="#f6ec54" stroke="#000" stroke-dashoffset=".4" stroke-linecap="round" stroke-linejoin="round" stroke-miterlimit="0" style="isolation:auto;mix-blend-mode:normal" color="#000" overflow="visible"/><rect width="3" height="3" x="-545.5" y="1632.862" fill="#f6ec54" stroke="#000" stroke-dashoffset=".4" stroke-linecap="round" stroke-linejoin="round" stroke-miterlimit="0" color="#000" overflow="visible" style="isolation:auto;mix-blend-mode:normal"/><path fill="none" stroke="#000" d="M-555.99997 1630.8622l12 0M-555.99997 1630.3622l0 2M-543.99997 1630.3622l0 2M-549.99997 1630.3622l0 2M-552.99997 1629.3622l0 2M-546.99997 1629.3622l0 2M-549.99997 1621.3622l0 2M-552.99997 1623.8622l6 0M-552.99997 1623.3622l0 2M-546.99997 1623.3622l0 2"/><path fill="#fd5b6a" style="isolation:auto;mix-blend-mode:normal" d="m -537.7039,1623.1503 4.2039,0 0,11.3985 -4.2039,0 z" color="#000" overflow="visible"/><path fill="none" stroke="#000" stroke-dashoffset="1.5" stroke-linecap="round" stroke-linejoin="round" style="isolation:auto;mix-blend-mode:normal" d="m -537.7039,1634.5488 4.2039,0 -2.102,4.3135 z" color="#000" overflow="visible"/><path fill="#fe2b70" d="m -537.70468,1623.1505 8.3e-4,11.3975 4.20426,3e-4 4.7e-4,-1.6887 -2.8545,-2e-4 -10e-5,-9.7079 z" color="#000" overflow="visible" style="isolation:auto;mix-blend-mode:normal"/><path fill="#fff" d="m -537.70468,1623.1505 8.3e-4,11.3975 4.20426,3e-4 -6.3e-4,-1.1096 -3.2792,-10e-5 -4.1e-4,-10.2878 z" color="#000" overflow="visible" style="isolation:auto;mix-blend-mode:normal"/><path fill="none" stroke="#000" stroke-dashoffset="1.5" stroke-linecap="round" stroke-linejoin="round" d="m -537.7039,1623.0622 4.2039,0 0,11.4866 -4.2039,0 z" color="#000" overflow="visible" style="isolation:auto;mix-blend-mode:normal"/><path fill="#f6ec54" d="m -537.7039,1623.0972 -2e-5,-1.6177 c 4e-5,-0.896 0.70315,-1.6175 1.57643,-1.6175 l 1.05099,0 c 0.87328,0 1.57647,0.1314 1.57648,1.6175 l 10e-6,1.6177 z" color="#000" overflow="visible" style="isolation:auto;mix-blend-mode:normal"/><path fill="#f8d459" d="m -537.43545,1620.5735 c -0.16964,0.2581 -0.26786,0.5703 -0.26786,0.9064 l -0.002,1.617 4.20426,3e-4 7e-4,-1.3188 -3.4629,-3e-4 0.002,-1.617 c 2e-5,-0.018 0.005,-0.035 0.005,-0.053 -0.18957,0.1205 -0.355,0.2759 -0.47947,0.4652 z" color="#000" overflow="visible" style="isolation:auto;mix-blend-mode:normal"/><path fill="#fff" d="m -537.43545,1620.5735 c -0.16964,0.2581 -0.26786,0.5703 -0.26786,0.9064 l -0.002,1.617 4.20426,3e-4 -4.1e-4,-0.7398 -3.78771,0 0.002,-1.6171 c 10e-6,-0.1457 0.0237,-0.2837 0.0587,-0.4178 -0.0767,0.077 -0.1468,0.1596 -0.20698,0.251 z" color="#000" overflow="visible" style="isolation:auto;mix-blend-mode:normal"/><path fill="none" stroke="#000" stroke-dashoffset="1.5" stroke-linecap="round" stroke-linejoin="round" style="isolation:auto;mix-blend-mode:normal" d="m -537.7039,1623.0972 -2e-5,-1.6177 c 4e-5,-0.896 0.70315,-1.6175 1.57643,-1.6175 l 1.05099,0 c 0.87328,0 1.57648,0.7371 1.57648,1.6175 l 10e-6,1.6177 z" color="#000" overflow="visible"/><path fill="none" stroke="#000" d="m -535.58362,1634.2927 -0.0732,-11.3738"/></g></svg>