<svg xmlns="http://www.w3.org/2000/svg" width="180" height="151" fill-rule="evenodd" clip-rule="evenodd" image-rendering="optimizeQuality" shape-rendering="geometricPrecision" text-rendering="geometricPrecision" viewBox="0 0 34635 29144"><path fill="#e5e9ec" d="M34635 26493c0,1085 -880,1965 -1966,1965l-30704 0c-1085,0 -1965,-880 -1965,-1965l0 -5734c0,-1085 880,-1965 1965,-1965l30704 0c1086,0 1966,880 1966,1965l0 5734z"/><path fill="#384a66" d="M28746 23055l-22858 0c-581,0 -1054,471 -1054,1054l0 4349 24967 0 0 -4350c0,-582 -473,-1053 -1055,-1053z"/><path fill="#83cf8f" d="M16484 26221c0,229 -121,415 -270,415l-1313 -1c-149,0 -270,-185 -270,-414l0 0c0,-230 121,-416 270,-416l1313 0c149,0 270,186 270,416l0 0zm-7867 0c0,229 -187,415 -416,415l-2016 -1c-229,0 -415,-185 -415,-414l0 0c0,-230 186,-416 415,-416l2016 0c230,0 416,186 416,416l0 0zm2466 0c0,229 -121,415 -270,415l-1313 -1c-149,0 -270,-185 -270,-414l0 0c0,-230 121,-416 270,-416l1313 0c149,0 270,186 270,416l0 0zm2701 0c0,229 -121,415 -271,415l-1312 -1c-150,0 -271,-185 -271,-414l0 0c0,-230 121,-416 271,-416l1312 0c150,0 271,186 271,416l0 0z"/><path fill="#ff7069" d="M28347 26221c0,229 -121,415 -270,415l-1313 -1c-149,0 -270,-185 -270,-414l0 0c0,-230 121,-416 270,-416l1313 0c149,0 270,186 270,416l0 0zm-5401 0c0,229 -121,415 -271,415l-1312 -1c-149,0 -270,-185 -270,-414l0 0c0,-230 121,-416 270,-416l1312 0c150,0 271,186 271,416l0 0zm2700 0c0,229 -120,415 -270,415l-1312 -1c-150,0 -271,-185 -271,-414l0 0c0,-230 121,-416 271,-416l1312 0c150,0 270,186 270,416l0 0z"/><path fill="#b9c1c9" d="M33237 21604c0 565-458 1023-1022 1023-565-1-1023-458-1023-1023 0-565 458-1022 1023-1022 564 0 1022 458 1022 1022zM2713 28458l3636 0 0 686-3636 0 0-686zm25572 0l3637 0 0 686-3637 0 0-686z"/><path fill="#ccd2d9" d="M9078 10400l0 8394 -1890 0 0 -8394 530 -8394 0 -1560c0,-592 755,-597 755,0l0 1560 605 8394z"/><path fill="#b9c1c9" d="M9078 10400l0 8394 -310 0 0 -8568 -421 -8367 0 -1479c-34,-404 -462,-303 -476,-299 220,-180 602,-59 602,365l0 1560 605 8394z"/><path fill="#fefefe" fill-rule="nonzero" d="M7836 323c0,-29 23,-52 52,-52 29,0 52,23 52,52l0 1501c0,29 -23,53 -52,53 -29,0 -52,-24 -52,-53l0 -1501z"/><polygon fill="#f2f2f2" fill-rule="nonzero" points="7917 2150 7626 10294 7626 18638 7359 18638 7362 10308 7813 2144"/><path fill="#83cf8f" fill-rule="nonzero" d="M21008 12484c-132,193 -396,243 -590,111 -194,-132 -244,-396 -112,-590 310,-453 728,-828 1216,-1086 472,-249 1008,-390 1576,-390 567,0 1104,141 1575,390 489,258 906,633 1216,1086 132,194 82,458 -112,590 -193,132 -457,82 -590,-111 -232,-340 -544,-620 -909,-813 -351,-186 -753,-291 -1180,-291 -428,0 -829,105 -1180,291 -365,193 -678,473 -910,813zm-7857 -5357c-132,193 -397,243 -590,111 -194,-132 -244,-397 -112,-590 1182,-1730 2774,-3158 4637,-4142 1796,-949 3842,-1486 6012,-1486 2169,0 4215,537 6011,1486 1863,984 3456,2412 4637,4142 132,193 83,458 -111,590 -194,132 -458,82 -590,-111 -1104,-1617 -2592,-2950 -4331,-3869 -1676,-886 -3587,-1387 -5616,-1387 -2030,0 -3941,501 -5616,1387 -1740,919 -3227,2252 -4331,3869zm2610 1779c-132,194 -396,244 -590,112 -194,-132 -243,-397 -111,-590 892,-1306 2094,-2383 3500,-3127 1356,-716 2900,-1122 4538,-1122 1637,0 3182,406 4537,1122 1407,744 2609,1821 3501,3127 132,193 82,458 -112,590 -194,132 -458,82 -590,-112 -814,-1192 -1911,-2175 -3194,-2853 -1235,-653 -2645,-1023 -4142,-1023 -1498,0 -2907,370 -4142,1023 -1283,678 -2380,1661 -3195,2853zm2271 1548c-133,194 -397,244 -591,112 -193,-133 -243,-397 -111,-590 640,-937 1503,-1710 2512,-2244 973,-514 2081,-805 3256,-805 1174,0 2282,291 3256,805 1009,534 1871,1307 2511,2244 133,193 83,457 -111,590 -194,132 -458,82 -590,-112 -563,-823 -1320,-1502 -2206,-1970 -853,-451 -1826,-706 -2860,-706 -1034,0 -2008,255 -2861,706 -885,468 -1643,1147 -2205,1970z"/><path fill="#f7635b" d="M23184 13502c900,0 1629,729 1629,1629 0,899 -729,1628 -1629,1628 -899,0 -1628,-729 -1628,-1628 0,-900 729,-1629 1628,-1629z"/><path fill="#ff7069" d="M23184 13502c520,0 982,243 1280,622 81,193 126,405 126,627 0,900 -729,1629 -1629,1629 -519,0 -982,-243 -1280,-622 -81,-193 -125,-405 -125,-627 0,-900 729,-1629 1628,-1629z"/><path fill="#ff9b96" d="M22587 14283c139,0 251,112 251,251 0,138 -112,251 -251,251 -138,0 -251,-113 -251,-251 0,-139 113,-251 251,-251z"/></svg>