<svg height="512" viewBox="0 0 58 58" width="512" xmlns="http://www.w3.org/2000/svg"><g id="013---Social-Interaction-Thoughts" fill="none" transform="translate(0 -1)"><g fill="#f9c795"><path id="Shape" d="m16.06 34c-1.9169952-.935742-3.3328877-2.6581679-3.88-4.72 0 0-.69-4.65.7-5.17.7675988-.2137199 1.5912139-.0256799 2.19.5l3.93 3.95z"/><path id="Shape" d="m42.93 24.61c.5987861-.5256799 1.4224012-.7137199 2.19-.5 1.39.52.7 5.17.7 5.17-.5471123 2.0618321-1.9630048 3.784258-3.88 4.72l-2.94-5z"/><path id="Shape" d="m58 59c0-1.88-1.86-2.3-3.57-3.21-5.19-2.75-6.71-3.9-9.37-4.37-2.2563406-.5904511-4.3357901-1.7193932-6.06-3.29v-3.9h-20v3.9c-.9465776.8129562-1.9716163 1.5298133-3.06 2.14-3.22 1.78-3.38.5-8.09 3.2-1.40666667.7933333-2.83333333 1.5666667-4.28 2.32-1.7.91-3.52 1.33-3.57 3.21z"/></g><path id="Shape" d="m43 21c0 8.14-1.09 9-1.09 12.36 0 3.83 1 7.11-3 10.94s-3.91 7.7-7.91 7.7h-4c-4 0-4-3.83-7.94-7.66s-3-7.11-3-10.94c.03-3.47-1.06-4.2-1.06-12.4z" fill="#fdd7ad"/><ellipse id="Oval" cx="29" cy="21" fill="#802d40" rx="14" ry="4"/><path id="Shape" d="m9.58 12.88c-.01543561.0299495-.04630683.0487689-.08.0487689s-.06456439-.0188194-.08-.0487689c-.42930219-.7209387-1.29196567-1.0601283-2.09732274-.8246438s-1.34939607.9859907-1.32267726 1.8246438c0 1.25.55 1.74 3.19 4 .17562296.1601961.44437704.1601961.62 0 .52-.43 1.52-1.28 1.89-1.65.7684518-.5264256 1.2487824-1.3799361 1.3-2.31.0468883-.8465213-.4907127-1.6155016-1.3018562-1.8621651-.8111436-.2466635-1.6858302.0928492-2.1181438.8221651z" fill="#ff5364"/><path id="Shape" d="m52.58 1.88c-.0154356.02994948-.0463068.04876894-.08.04876894s-.0645644-.01881946-.08-.04876894c-.4293022-.7209387-1.2919657-1.0601283-2.0973227-.82464378-.8053571.23548452-1.3493961.98599065-1.3226773 1.82464378 0 1.25.55 1.74 3.19 4 .175623.16019612.444377.16019612.62 0 .52-.43 1.52-1.28 1.89-1.65.7755546-.51988904 1.2580558-1.37725661 1.3-2.31.0468883-.84652126-.4907127-1.61550157-1.3018562-1.86216511-.8111436-.24666353-1.6858302.09284921-2.1181438.82216511z" fill="#ff5364"/><path id="Shape" d="m52.58 14.88c-.0154356.0299495-.0463068.0487689-.08.0487689s-.0645644-.0188194-.08-.0487689c-.4293022-.7209387-1.2919657-1.0601283-2.0973227-.8246438-.8053571.2354845-1.3493961.9859907-1.3226773 1.8246438 0 1.25.55 1.74 3.19 4 .175623.1601961.444377.1601961.62 0 .52-.43 1.52-1.28 1.89-1.65.7684518-.5264256 1.2487824-1.3799361 1.3-2.31.0468883-.8465213-.4907127-1.6155016-1.3018562-1.8621651-.8111436-.2466635-1.6858302.0928492-2.1181438.8221651z" fill="#ff5364"/><path id="Shape" d="m27 2c0-.55228475.4477153-1 1-1h16c.5522847 0 1 .44771525 1 1v12c0 .5522847-.4477153 1-1 1h-7l-3.59 3.59c-.4033548.4057868-1.0119371.5275967-1.5404012.308317-.5284642-.2192797-.8720256-.7361701-.8695988-1.308317v-2.59h-3c-.5522847 0-1-.4477153-1-1z" fill="#955ba5"/><path id="Shape" d="m33 7h-1c-.5522847 0-1-.44771525-1-1s.4477153-1 1-1h1c.5522847 0 1 .44771525 1 1s-.4477153 1-1 1z" fill="#3d324c"/><path id="Shape" d="m41 7h-4c-.5522847 0-1-.44771525-1-1s.4477153-1 1-1h4c.5522847 0 1 .44771525 1 1s-.4477153 1-1 1z" fill="#3d324c"/><path id="Shape" d="m36 11h-4c-.5522847 0-1-.4477153-1-1 0-.55228475.4477153-1 1-1h4c.5522847 0 1 .44771525 1 1 0 .5522847-.4477153 1-1 1z" fill="#3d324c"/><path id="Shape" d="m58 59h-15.78c.7694486-2.7059818.9770399-5.540794.61-8.33 2.77 1.29 2.92.28 7.32 2.8 1.4133333.7933333 2.84 1.5666667 4.28 2.32 1.69.9 3.57 1.32 3.57 3.21z" fill="#955ba5"/><path id="Shape" d="m15.78 59h-15.78c.05-1.88 1.84-2.28 3.57-3.21 1.44-.76 2.86666667-1.5333333 4.28-2.32 4.37-2.5 4.63-1.55 7.32-2.8-.3670399 2.789206-.1594486 5.6240182.61 8.33z" fill="#955ba5"/><path id="Shape" d="m21.17 2.76c-.0364679.05884339-.1007725.09464346-.17.09464346s-.1335321-.03580007-.17-.09464346c-.6950353-1.09579339-1.9023725-1.75982882-3.2-1.76-2.07 0-3.63 1.28-3.63 3.84s1.56 3.59 2.59 4.62c.76.74 2.75 2.44 3.78 3.31.3671855.2978732.8928145.2978732 1.26 0 1-.87 3-2.57 3.78-3.31 1-1 2.59-2.05 2.59-4.62s-1.56-3.84-3.63-3.84c-1.2976275.00017118-2.5049647.66420661-3.2 1.76z" fill="#ff5364"/></g></svg>