<?xml version="1.0" encoding="iso-8859-1"?>
<!-- Generator: Adobe Illustrator 19.0.0, SVG Export Plug-In . SVG Version: 6.00 Build 0)  -->
<svg version="1.1" id="Capa_1" xmlns="http://www.w3.org/2000/svg" xmlns:xlink="http://www.w3.org/1999/xlink" x="0px" y="0px"
	 viewBox="0 0 512 512" style="enable-background:new 0 0 512 512;" xml:space="preserve">
<path style="fill:#4DA7FF;" d="M35.31,353.103H476.69V35.31H35.31V353.103z"/>
<g>
	<polygon style="fill:#FFCF40;" points="79.448,105.931 79.448,141.241 185.379,141.241 185.379,123.586 185.379,105.931 	"/>
	<polygon style="fill:#FFCF40;" points="79.448,176.552 79.448,211.862 185.379,211.862 185.379,194.207 185.379,176.552 	"/>
	<polygon style="fill:#FFCF40;" points="185.379,282.483 185.379,256 79.448,256 79.448,291.31 185.379,291.31 	"/>
	<polygon style="fill:#FFCF40;" points="423.724,158.897 423.724,123.586 388.414,123.586 388.414,141.241 388.414,158.897 	"/>
	<polygon style="fill:#FFCF40;" points="423.724,229.517 423.724,194.207 388.414,194.207 388.414,211.862 388.414,229.517 	"/>
</g>
<polygon style="fill:#666666;" points="132.414,476.69 379.586,476.69 335.448,423.724 176.552,423.724 "/>
<g>
	<path style="fill:#A5A5A5;" d="M512,388.414V35.31C512,15.89,496.11,0,476.69,0H35.31C15.89,0,0,15.89,0,35.31v353.103
		c0,19.421,15.89,35.31,35.31,35.31H476.69C496.11,423.724,512,407.835,512,388.414z M35.31,353.103V35.31H476.69v317.793H35.31z"/>
	<polygon style="fill:#A5A5A5;" points="44.138,476.69 0,512 512,512 467.862,476.69 379.586,476.69 132.414,476.69 	"/>
</g>
<g>
	<rect x="211.862" y="379.586" style="fill:#666666;" width="88.276" height="17.655"/>
	<path style="fill:#666666;" d="M388.414,150.069v-17.655h-70.621c-1.766,0-4.414,0.883-6.179,1.766l-14.124,12.359l-16.772-27.366
		c-0.883-2.648-3.531-4.414-7.062-4.414h-88.276v17.655h82.979l15.89,25.6l-31.779,27.366h-67.09v17.655H256
		c1.766,0,4.414-0.883,6.179-1.766l31.779-27.366l22.069,37.076l-46.786,53.848h-83.862v17.655h88.276
		c2.648,0,5.297-0.883,7.062-2.648l50.317-59.145h57.379v-17.655h-56.497L307.2,162.428l14.124-12.359H388.414z"/>
</g>
<g>
</g>
<g>
</g>
<g>
</g>
<g>
</g>
<g>
</g>
<g>
</g>
<g>
</g>
<g>
</g>
<g>
</g>
<g>
</g>
<g>
</g>
<g>
</g>
<g>
</g>
<g>
</g>
<g>
</g>
</svg>
