<svg height="480pt" viewBox="0 0 480 480" width="480pt" xmlns="http://www.w3.org/2000/svg"><path d="m80 480h176c0-26.511719-21.488281-48-48-48h-80c-26.511719 0-48 21.488281-48 48zm0 0" fill="#656665"/><path d="m144 400h48v32h-48zm0 0" fill="#999"/><path d="m320 400h-304c-8.839844 0-16-7.160156-16-16v-176c0-8.839844 7.160156-16 16-16h304c8.839844 0 16 7.160156 16 16v176c0 8.839844-7.160156 16-16 16zm0 0" fill="#656665"/><path d="m32 224h272v144h-272zm0 0" fill="#efedee"/><path d="m176 336h-32c-17.671875 0-32-14.328125-32-32v-128h96v128c0 17.671875-14.328125 32-32 32zm0 0" fill="#eebc5a"/><path d="m184 304v-128h-72v128c0 17.671875 14.328125 32 32 32h8c17.671875 0 32-14.328125 32-32zm0 0" fill="#f8cf6a"/><path d="m128 144h64v32h-64zm0 0" fill="#656665"/><path d="m128 144h32v32h-32zm0 0" fill="#999"/><path d="m160 0h-32v48l16 16v80h16" fill="#bab8b9"/><path d="m160 144h16v-80l16-16v-48h-32" fill="#999"/><path d="m480 144v-48h-18.894531c-2.707031-11.414062-7.3125-22.070312-13.425781-31.679688l16.320312-16.320312-32-32-16.320312 16.320312c-9.609376-6.113281-20.265626-10.71875-31.679688-13.425781v-18.894531h-48v18.894531c-11.414062 2.707031-22.097656 7.265625-31.710938 13.394531l-16.289062-16.289062-32 32 16.289062 16.289062c-6.128906 9.613282-10.6875 20.296876-13.394531 31.710938h-18.894531v48h18.894531c2.707031 11.414062 7.3125 22.070312 13.425781 31.679688l-16.320312 16.320312 32 32 16.320312-16.320312c9.609376 6.113281 20.265626 10.71875 31.679688 13.425781v18.894531h48v-18.894531c11.414062-2.707031 22.097656-7.265625 31.710938-13.394531l16.289062 16.289062 32-32-16.289062-16.289062c6.128906-9.613282 10.6875-20.296876 13.394531-31.710938zm0 0" fill="#dc6068"/><path d="m432 120c0 39.765625-32.234375 72-72 72s-72-32.234375-72-72 32.234375-72 72-72 72 32.234375 72 72zm0 0" fill="#fff"/></svg>