<svg height="512" viewBox="0 0 256 256" width="512" xmlns="http://www.w3.org/2000/svg"><rect fill="#cecece" height="151.106" rx="13.665" width="219.26" x="18.37" y="57.706"/><path d="m28.37 195.147v-123.776a13.681 13.681 0 0 1 13.665-13.665h-10a13.681 13.681 0 0 0 -13.665 13.665v123.776a13.681 13.681 0 0 0 13.665 13.665h10a13.681 13.681 0 0 1 -13.665-13.665z" fill="#afafaf"/><path d="m227.63 195.147v-123.776a13.681 13.681 0 0 0 -13.665-13.665h10a13.681 13.681 0 0 1 13.665 13.665v123.776a13.681 13.681 0 0 1 -13.665 13.665h-10a13.681 13.681 0 0 0 13.665-13.665z" fill="#e2e2e2"/><rect fill="#63bce7" height="122.288" rx="5.256" width="202.442" x="26.779" y="66.115"/><path d="m36.779 183.147v-111.777a5.271 5.271 0 0 1 5.256-5.256h-10a5.271 5.271 0 0 0 -5.256 5.256v111.777a5.271 5.271 0 0 0 5.256 5.256h10a5.271 5.271 0 0 1 -5.256-5.256z" fill="#6377e7"/><path d="m219.221 183.147v-111.777a5.271 5.271 0 0 0 -5.256-5.256h10a5.271 5.271 0 0 1 5.256 5.256v111.777a5.271 5.271 0 0 1 -5.256 5.256h-10a5.271 5.271 0 0 0 5.256-5.256z" fill="#63e2e7"/><path d="m89.809 230.97h76.383v9.197h-76.383z" fill="#9e9e9e"/><path d="m89.809 230.97h10v9.197h-10z" fill="#707070"/><path d="m100.67 208.812h54.659v22.158h-54.659z" fill="#cecece"/><path d="m100.67 208.812h10v22.158h-10z" fill="#afafaf"/><circle cx="128" cy="198.607" fill="#9e9e9e" r="4.5"/><rect fill="#9e9e9e" height="63.916" rx="22.917" width="45.833" x="158.699" y="99.04"/><circle cx="174.13" cy="109.604" fill="#3f3679" r="1.712"/><circle cx="189.101" cy="109.604" fill="#3f3679" r="1.712"/><circle cx="83.429" cy="69.919" fill="#f8af23" r="65.059"/><path d="m28.37 69.919a65.05 65.05 0 0 1 60.059-64.849c-1.652-.125-3.316-.21-5-.21a65.059 65.059 0 1 0 0 130.118c1.684 0 3.348-.084 5-.21a65.05 65.05 0 0 1 -60.059-64.849z" fill="#f87023"/><path d="m116.453 36.895-2.997-2.998-7.36 7.361-1.17 2.735-29.74 29.741 4.428 4.428 29.741-29.741 2.735-1.169 7.361-7.36z" fill="#cecece"/><rect fill="#9e9e9e" height="49.751" rx="7.966" transform="matrix(.707 .707 -.707 .707 80.548 -22.406)" width="15.932" x="59.355" y="61.152"/><path d="m107.973 84.819-39.444-39.444a12.273 12.273 0 0 0 -14.429-14.43l8.529 8.529a1.716 1.716 0 0 1 .413 1.76l-1.816 5.4a1.715 1.715 0 0 1 -1.08 1.08l-5.4 1.816a1.716 1.716 0 0 1 -1.76-.413l-8.529-8.529a12.273 12.273 0 0 0 14.43 14.43l39.442 39.445a12.273 12.273 0 1 0 9.644-9.644zm8.975 13.8-4.819 4.819-6.583-1.764-1.764-6.583 4.819-4.819 6.582 1.764z" fill="#cecece"/><g fill="#3f3679"><path d="m128 204.607a6 6 0 1 0 -6-6 6.007 6.007 0 0 0 6 6zm0-9a3 3 0 1 1 -3 3 3 3 0 0 1 3-3z"/><path d="m27.323 249.641h-18a1.5 1.5 0 1 0 0 3h18a1.5 1.5 0 0 0 0-3z"/><path d="m246.68 249.641h-18a1.5 1.5 0 0 0 0 3h18a1.5 1.5 0 1 0 0-3z"/><path d="m218.479 249.641h-180.958a1.5 1.5 0 0 0 0 3h180.958a1.5 1.5 0 0 0 0-3z"/><path d="m9.32 241.667h237.36a1.5 1.5 0 0 0 0-3h-78.989v-7.7a1.5 1.5 0 0 0 -1.5-1.5h-9.361v-19.155h67.136a15.182 15.182 0 0 0 15.165-15.164v-123.777a15.182 15.182 0 0 0 -15.165-15.165h-75.4a66.559 66.559 0 0 0 -131.696 13.713v125.228a15.182 15.182 0 0 0 15.165 15.164h67.135v19.159h-9.361a1.5 1.5 0 0 0 -1.5 1.5v7.7h-78.989a1.5 1.5 0 1 0 0 3zm18.959-134.522a66.542 66.542 0 0 0 121.709-37.226c0-.772-.032-1.538-.058-2.3h74.036a3.76 3.76 0 0 1 3.756 3.755v111.773a3.76 3.76 0 0 1 -3.756 3.755h-191.931a3.76 3.76 0 0 1 -3.756-3.755zm55.15-100.786a63.56 63.56 0 1 1 -63.56 63.56 63.631 63.631 0 0 1 63.56-63.56zm-63.559 188.788v-105.447a66.174 66.174 0 0 0 5.43 12.591 1.486 1.486 0 0 0 -.021.211v80.647a6.763 6.763 0 0 0 6.756 6.755h191.93a6.763 6.763 0 0 0 6.756-6.755v-111.779a6.763 6.763 0 0 0 -6.756-6.755h-74.207c-.145-1.824-.354-3.629-.643-5.409h74.851a12.179 12.179 0 0 1 12.164 12.165v123.776a12.178 12.178 0 0 1 -12.165 12.164h-191.93a12.178 12.178 0 0 1 -12.165-12.164zm82.3 15.164h51.66v19.159h-51.66zm-10.861 22.159h73.383v6.2h-73.383z"/><path d="m149.228 156.946-4.228 4.514a1.5 1.5 0 0 0 2.19 2.051l4.227-4.511a11.986 11.986 0 0 1 4.23-2.915l5.741-2.38a24.4 24.4 0 0 0 40.463-.013l5.737 2.4a11.974 11.974 0 0 1 4.225 2.908l4.226 4.514a1.5 1.5 0 0 0 2.19-2.051l-4.229-4.517a14.939 14.939 0 0 0 -5.267-3.634l-5.352-2.235a24.254 24.254 0 0 0 2.648-11.038v-7.539h10.991a1.5 1.5 0 0 0 0-3h-10.988v-7.541a24.548 24.548 0 0 0 -.159-2.747l2.853-1.168a14.961 14.961 0 0 0 5.274-3.644l4.226-4.514a1.5 1.5 0 0 0 -2.19-2.051l-4.225 4.514a11.985 11.985 0 0 1 -4.224 2.913l-2.252.922a24.505 24.505 0 0 0 -11.821-15.541c.964-2.507 3.284-8.468 4.927-12.677a1.5 1.5 0 1 0 -2.795-1.09l-2.711 6.959c-.677 1.741-1.353 3.482-1.858 4.79-.1.263-.187.486-.273.712a24.343 24.343 0 0 0 -18.353-.012c-.085-.223-.168-.441-.268-.7-.5-1.308-1.181-3.049-1.858-4.79l-2.711-6.959a1.5 1.5 0 1 0 -2.795 1.09c1.639 4.2 3.954 10.146 4.921 12.662a24.5 24.5 0 0 0 -11.849 15.556l-2.251-.922a11.974 11.974 0 0 1 -4.225-2.913l-4.226-4.514a1.5 1.5 0 0 0 -2.19 2.051l4.226 4.514a14.95 14.95 0 0 0 5.277 3.638l2.852 1.168a24.548 24.548 0 0 0 -.159 2.747v7.547h-10.984a1.5 1.5 0 0 0 0 3h10.989v7.542a24.257 24.257 0 0 0 2.655 11.051l-5.35 2.218a14.961 14.961 0 0 0 -5.277 3.635zm10.972-16.906v-18.083c0-.49.041-.971.074-1.453h19.843v40.876a21.428 21.428 0 0 1 -19.917-21.34zm22.917 21.34v-40.88h19.843c.033.482.074.963.074 1.453v18.087a21.428 21.428 0 0 1 -19.919 21.34zm-1.5-60.84a21.449 21.449 0 0 1 20.943 16.96h-41.889a21.449 21.449 0 0 1 20.944-16.96z"/><path d="m104.1 102.062a1.5 1.5 0 0 0 1.061 1.062l6.583 1.764a1.5 1.5 0 0 0 1.449-.389l4.819-4.818a1.5 1.5 0 0 0 .388-1.448l-1.764-6.583a1.5 1.5 0 0 0 -1.061-1.062l-6.583-1.764a1.505 1.505 0 0 0 -1.449.389l-4.819 4.818a1.5 1.5 0 0 0 -.388 1.448zm4.952-10.116 4.91 1.315 1.315 4.91-3.594 3.594-4.91-1.315-1.315-4.91z"/><path d="m58.371 56.625 12.482 12.483-22.183 22.183a9.466 9.466 0 0 0 13.387 13.387l22.183-22.183 12.483 12.483a13.773 13.773 0 1 0 11.765-11.765l-15.9-15.9 17.625-17.624 2.469-1.057a1.491 1.491 0 0 0 .471-.318l7.36-7.36a1.5 1.5 0 0 0 0-2.121l-5.995-5.994a1.544 1.544 0 0 0 -2.121 0l-7.36 7.36a1.486 1.486 0 0 0 -.318.471l-1.056 2.469-17.626 17.623-15.9-15.9a13.773 13.773 0 0 0 -16.329-15.389 1.5 1.5 0 0 0 -.77 2.527l8.529 8.529a.215.215 0 0 1 .052.222l-1.816 5.4a.215.215 0 0 1 -.136.135l-5.4 1.816a.215.215 0 0 1 -.223-.052l-8.529-8.529a1.5 1.5 0 0 0 -2.532.77 13.772 13.772 0 0 0 15.388 16.334zm1.565 45.932a6.466 6.466 0 0 1 -9.145-9.145l22.183-22.183 9.144 9.145zm46.051-57.5a1.486 1.486 0 0 0 .318-.471l1.056-2.469 6.095-6.1 3.873 3.873-6.095 6.095-2.469 1.057a1.491 1.491 0 0 0 -.471.318l-17.829 17.83-2.307-2.307zm-54.063 5.123a3.2 3.2 0 0 0 3.3.773l5.4-1.816a3.228 3.228 0 0 0 2.024-2.023l1.816-5.4a3.2 3.2 0 0 0 -.774-3.3l-6.155-6.154a10.773 10.773 0 0 1 9.522 12.824 1.5 1.5 0 0 0 .411 1.352l39.445 39.444a1.506 1.506 0 0 0 1.352.411 10.773 10.773 0 1 1 -8.465 8.463 1.5 1.5 0 0 0 -.41-1.354l-39.444-39.442a1.5 1.5 0 0 0 -1.061-.439 1.556 1.556 0 0 0 -.292.028 10.772 10.772 0 0 1 -12.823-9.522z"/></g></svg>