<svg viewBox="1 -65 511.999 511" xmlns="http://www.w3.org/2000/svg"><g fill-rule="evenodd"><path d="m501.96875 85.292969v-39.117188c0-19.605469-16.039062-35.644531-35.644531-35.644531h-420.648438c-19.605469 0-35.644531 16.039062-35.644531 35.644531v290.023438c0 19.605469 16.039062 35.648437 35.644531 35.648437h420.648438c19.605469 0 35.644531-16.042968 35.644531-35.648437zm0 0" fill="#68b3de"/><path d="m45.675781 371.847656h420.648438c19.605469 0 35.644531-16.042968 35.644531-35.648437v-250.90625h-491.9375v250.90625c0 19.605469 16.039062 35.648437 35.644531 35.648437zm0 0" fill="#c2edff"/><path d="m307.335938 327.480469c10.441406 0 18.980468-8.542969 18.980468-18.980469v-90.867188c0-10.4375-8.539062-18.976562-18.980468-18.976562h-94.425782c-10.4375 0-18.980468 8.539062-18.980468 18.976562v90.867188c0 10.441406 8.542968 18.980469 18.980468 18.980469zm0 0" fill="#6dc992"/><path d="m51.207031 57.941406c-5.539062 0-10.03125-4.488281-10.03125-10.027344 0-5.539062 4.492188-10.03125 10.03125-10.03125h22.933594c5.539063 0 10.027344 4.492188 10.027344 10.03125 0 5.539063-4.488281 10.027344-10.027344 10.027344zm249.035157 323.933594v.003906h166.082031c12.570312 0 23.992187-5.136718 32.265625-13.414062 8.273437-8.269532 13.410156-19.691406 13.410156-32.265625v-290.023438c0-12.570312-5.136719-23.992187-13.410156-32.265625-8.273438-8.273437-19.695313-13.410156-32.265625-13.410156h-420.648438c-12.570312 0-23.992187 5.136719-32.265625 13.410156-8.273437 8.273438-13.410156 19.695313-13.410156 32.265625v290.023438c0 12.570312 5.136719 23.992187 13.410156 32.265625 8.273438 8.277344 19.695313 13.414062 32.265625 13.414062h174.332031v-.003906c5.539063 0 10.027344-4.488281 10.027344-10.027344 0-5.539062-4.488281-10.027344-10.027344-10.027344h-174.332031c-7.03125 0-13.4375-2.886718-18.085937-7.535156-4.644532-4.648437-7.53125-11.050781-7.53125-18.085937v-240.875h471.882812v240.875c0 7.035156-2.886718 13.4375-7.53125 18.085937-4.648437 4.648438-11.050781 7.53125-18.085937 7.53125h-166.082031c-5.539063 0-10.03125 4.492188-10.03125 10.03125 0 5.539063 4.492187 10.027344 10.03125 10.027344zm-40.117188-20.058594c5.539062 0 10.027344 4.492188 10.027344 10.03125 0 5.539063-4.488282 10.027344-10.027344 10.027344s-10.03125-4.488281-10.03125-10.027344c0-5.539062 4.492188-10.03125 10.03125-10.03125zm10.027344-78.9375c0 5.539063-4.488282 10.027344-10.027344 10.027344s-10.03125-4.488281-10.03125-10.027344v-39.621094c0-5.539062 4.492188-10.03125 10.03125-10.03125s10.027344 4.492188 10.027344 10.03125zm-47.210938-94.253906v-38.835938c0-3.953124 1.625-7.554687 4.242188-10.171874 2.617187-2.617188 6.21875-4.242188 10.175781-4.242188h45.53125c3.953125 0 7.558594 1.625 10.175781 4.242188 2.617188 2.617187 4.242188 6.21875 4.242188 10.171874v38.835938zm94.425782 1.792969c3.964843 1.46875 7.527343 3.78125 10.464843 6.71875 5.253907 5.253906 8.515625 12.511719 8.515625 20.496093v90.867188c0 7.988281-3.261718 15.242188-8.515625 20.496094-5.253906 5.253906-12.507812 8.511718-20.496093 8.511718h-94.425782c-7.984375 0-15.242187-3.257812-20.496094-8.511718-5.25-5.253906-8.511718-12.507813-8.511718-20.496094v-90.867188c0-7.984374 3.261718-15.242187 8.511718-20.496093 2.9375-2.9375 6.5-5.25 10.46875-6.71875v-40.628907c0-9.488281 3.875-18.113281 10.117188-24.355468 6.246094-6.242188 14.867188-10.117188 24.355469-10.117188h45.535156c9.488281 0 18.113281 3.875 24.355469 10.117188 6.242187 6.246094 10.117187 14.867187 10.117187 24.359375v40.625zm-10.03125 18.265625c2.453124 0 4.6875 1.011718 6.3125 2.636718 1.628906 1.625 2.636718 3.859376 2.636718 6.3125v90.867188c0 2.449219-1.007812 4.6875-2.636718 6.3125-1.625 1.628906-3.859376 2.636719-6.3125 2.636719h-94.425782c-2.449218 0-4.6875-1.007813-6.3125-2.636719-1.628906-1.625-2.636718-3.859375-2.636718-6.3125v-90.867188c0-2.453124 1.007812-4.6875 2.636718-6.3125 1.625-1.625 3.863282-2.636718 6.3125-2.636718zm158.988281-188.125h-420.648438c-7.03125 0-13.4375 2.886718-18.085937 7.535156-4.644532 4.648438-7.53125 11.050781-7.53125 18.085938v29.085937h471.882812v-29.085937c0-7.035157-2.886718-13.4375-7.53125-18.085938-4.648437-4.648438-11.054687-7.535156-18.085937-7.535156zm-297.035157 37.382812c-5.535156 0-10.027343-4.488281-10.027343-10.027344 0-5.539062 4.492187-10.03125 10.027343-10.03125h22.9375c5.539063 0 10.027344 4.492188 10.027344 10.03125 0 5.539063-4.488281 10.027344-10.027344 10.027344zm-59.039062 0c-5.539062 0-10.03125-4.488281-10.03125-10.027344 0-5.539062 4.492188-10.03125 10.03125-10.03125h22.933594c5.539062 0 10.03125 4.492188 10.03125 10.03125 0 5.539063-4.492188 10.027344-10.03125 10.027344zm0 0"/></g></svg>