<svg xmlns="http://www.w3.org/2000/svg" data-name="Layer 1" viewBox="0 0 512 512"><path fill="#00acea" d="M436.25,182.3V455.38a30,30,0,0,1-30,30H105.75a30,30,0,0,1-30-30V182.3Zm-49.4,259.38V400.36H330.33v41.32Zm0-76.94V323.42H330.33v41.32Zm0-77.42V246H330.33v41.32ZM283.79,441.68V400.36H227.26v41.32Zm0-76.94V323.42H227.26v41.32Zm0-77.42V246H227.26v41.32ZM181.19,441.68V400.36H124.67v41.32Zm0-76.94V323.42H124.67v41.32Zm0-77.42V246H124.67v41.32Z"/><path fill="#fedb41" d="M436.25,56.62V182.3H75.75V56.62a30,30,0,0,1,30-30h300.5A30,30,0,0,1,436.25,56.62Z"/><rect width="262.66" height="66.52" x="124.67" y="70.32" fill="#00efd1"/><rect width="56.52" height="41.32" x="330.33" y="400.36" fill="#00efd1"/><rect width="56.52" height="41.32" x="330.33" y="323.42" fill="#00efd1"/><rect width="56.52" height="41.32" x="330.33" y="246" fill="#00efd1"/><rect width="56.53" height="41.32" x="227.26" y="400.36" fill="#00efd1"/><rect width="56.53" height="41.32" x="227.26" y="323.42" fill="#00efd1"/><rect width="56.53" height="41.32" x="227.26" y="246" fill="#00efd1"/><rect width="56.52" height="41.32" x="124.67" y="400.36" fill="#00efd1"/><rect width="56.52" height="41.32" x="124.67" y="323.42" fill="#00efd1"/><rect width="56.52" height="41.32" x="124.67" y="246" fill="#00efd1"/></svg>