<svg xmlns="http://www.w3.org/2000/svg" width="76.408" height="76.416" viewBox="0 0 76.408 76.416">
  <defs>
    <style>
      .cls-1 {
        fill: #a4c2f7;
      }

      .cls-2 {
        fill: #fff;
      }

      .cls-3 {
        fill: #e8edfc;
      }

      .cls-4 {
        fill: #7facfa;
      }

      .cls-5 {
        fill: #428dff;
      }
    </style>
  </defs>
  <g id="Page-1" transform="translate(0.002 0.001)">
    <g id="_001---Thinking" data-name="001---Thinking" transform="translate(-0.002 -0.001)">
      <path id="Shape" class="cls-1" d="M59.635,48.747a22.909,22.909,0,0,0-1.77,11.843,44.5,44.5,0,0,0,1.554,7.755,25.373,25.373,0,0,0,1.515,3.82,33.137,33.137,0,0,1,2.037,3.6l-31.963.089v-.013c-.1-.382-2.025-7.87-6.278-9.793-.79.28-1.63.56-2.483.853a86.2,86.2,0,0,1-8.621,2.5,3.278,3.278,0,0,1-2.369-.331,4,4,0,0,1-1.719-2.2,6.345,6.345,0,0,1-.357-2.84A7.9,7.9,0,0,0,9.475,61c-.331-1.286-1.554-1.6-2.534-2.292-.777-.56.637-2.356.637-2.356s-1.5-1.108-2.037-1.592c-.56-.458.229-1.248.93-2.738a3.476,3.476,0,0,0,.242-2.063c-.267-1.363-2.343-1.885-3.349-2.636-.484-.357-1.261-.891-1.35-1.541-.14-.9.93-2.178,1.452-2.814a50.088,50.088,0,0,0,5.679-9.232A2.626,2.626,0,0,0,9.5,32.6c-.025-1.821-2.661-2.572-2.9-4.342a3.14,3.14,0,0,1,.267-1.515,38.866,38.866,0,0,0,1.885-4.813,38.382,38.382,0,0,1,1.21-4.457,23.274,23.274,0,0,1,4.839-7.9c3.12-3.3,7.73-4.928,12.085-5.794A84.9,84.9,0,0,1,38.636,2.064c.127-.013.255-.013.382-.025,8.15-.407,14.593,2.356,20.909,7.3a19.838,19.838,0,0,1,7.169,10.3,37.033,37.033,0,0,1,1.286,10.442,18.308,18.308,0,0,1-2.929,9.805C63.557,42.877,61.061,45.475,59.635,48.747Z" transform="translate(-0.724 -0.725)"/>
      <path id="Shape-2" data-name="Shape" class="cls-2" d="M55.814,48.733a22.909,22.909,0,0,0-1.77,11.843A44.5,44.5,0,0,0,55.6,68.331a25.375,25.375,0,0,0,1.515,3.82,33.135,33.135,0,0,1,2.037,3.6l-24.488.064-3.655.013c-.089-.344-1.63-6.329-4.979-8.99a6.274,6.274,0,0,0-1.3-.8c-.038.013-.064.025-.1.038-.764.267-1.566.535-2.381.815-.013-.013-.038-.025-.051-.038a5.335,5.335,0,0,0-1.286-.815c-2.152.751-4.635,1.579-6.9,2.254-.968.293-1.9.548-2.751.764a4,4,0,0,1-1.719-2.2,6.345,6.345,0,0,1-.357-2.84,7.9,7.9,0,0,0,.293-3.031c-.331-1.286-1.554-1.6-2.534-2.292-.777-.56.637-2.356.637-2.356s-1.5-1.108-2.037-1.592c-.56-.458.229-1.248.93-2.738a3.476,3.476,0,0,0,.242-2.063c-.267-1.363-2.343-1.885-3.349-2.636-.484-.357-1.261-.891-1.35-1.541-.14-.9.93-2.178,1.452-2.814A50.089,50.089,0,0,0,9.144,33.72,2.626,2.626,0,0,0,9.5,32.586c-.025-1.821-2.661-2.572-2.9-4.342a3.14,3.14,0,0,1,.267-1.515,38.866,38.866,0,0,0,1.885-4.813,38.382,38.382,0,0,1,1.21-4.457,23.274,23.274,0,0,1,4.839-7.9c3.12-3.3,7.73-4.928,12.085-5.794A84.9,84.9,0,0,1,38.636,2.05c.573.038,1.133.089,1.681.166a31.4,31.4,0,0,1,15.79,7.106,19.838,19.838,0,0,1,7.169,10.3,37.033,37.033,0,0,1,1.286,10.442,18.308,18.308,0,0,1-2.929,9.805C59.736,42.863,57.241,45.461,55.814,48.733Z" transform="translate(-0.724 -0.711)"/>
      <path id="Shape-3" data-name="Shape" class="cls-3" d="M55.03,48.7A22.909,22.909,0,0,0,53.26,60.54,44.5,44.5,0,0,0,54.813,68.3a25.374,25.374,0,0,0,1.515,3.82,33.135,33.135,0,0,1,2.037,3.6l-24.488.064c-.127-.484-2.063-7.87-6.278-9.78-.751.267-1.541.535-2.356.8a.532.532,0,0,1-.127.051,5.264,5.264,0,0,0-1.273-.815c-.025-.013-.038-.025-.064-.038-.751.267-1.554.535-2.369.815-2.483.828-5.145,1.668-7.284,2.2a3.213,3.213,0,0,1-.9-.764,4.285,4.285,0,0,1-.815-1.439,6.345,6.345,0,0,1-.357-2.84,7.9,7.9,0,0,0,.293-3.031c-.331-1.286-1.554-1.6-2.534-2.292-.777-.56.637-2.356.637-2.356s-1.5-1.108-2.037-1.592c-.56-.458.229-1.248.93-2.738a3.476,3.476,0,0,0,.242-2.063c-.267-1.363-2.343-1.885-3.349-2.636-.484-.357-1.261-.891-1.35-1.541-.14-.9.93-2.178,1.452-2.814a50.088,50.088,0,0,0,5.679-9.232,2.626,2.626,0,0,0,.357-1.133c-.025-1.821-2.661-2.572-2.9-4.342a3.14,3.14,0,0,1,.267-1.515,38.866,38.866,0,0,0,1.885-4.813,38.382,38.382,0,0,1,1.21-4.457,23.274,23.274,0,0,1,4.839-7.9c3.12-3.3,7.73-4.928,12.085-5.794a89.834,89.834,0,0,1,9.78-1.554,31.4,31.4,0,0,1,15.79,7.106,19.838,19.838,0,0,1,7.169,10.3A37.033,37.033,0,0,1,63.778,30.03a18.308,18.308,0,0,1-2.929,9.805C58.952,42.827,56.456,45.425,55.03,48.7Z" transform="translate(0.061 -0.675)"/>
      <path id="Shape-4" data-name="Shape" class="cls-1" d="M66.562,16.084v2.394a1.019,1.019,0,0,1-.815,1.006L62.1,20.21A10.592,10.592,0,0,1,61,22.858l2.076,3.094a1.04,1.04,0,0,1-.14,1.286l-1.694,1.694a1.04,1.04,0,0,1-1.286.14L56.858,27c-.153.089-.318.178-.484.267a10.315,10.315,0,0,1-2.165.84l-.216,1.121-3.2.637a13.568,13.568,0,0,1-1.019,2.649.977.977,0,0,1-.7-.764L48.352,28.1A10.592,10.592,0,0,1,45.7,27l-3.094,2.076a1.04,1.04,0,0,1-1.286-.14l-1.694-1.694a1.04,1.04,0,0,1-.14-1.286l2.076-3.094a10.592,10.592,0,0,1-1.108-2.649l-3.642-.726A1.019,1.019,0,0,1,36,18.478V16.084a1.019,1.019,0,0,1,.815-1.006l3.642-.726a9.026,9.026,0,0,1,.6-1.643,7.454,7.454,0,0,1,.509-1.006L40.393,9.959l-.9-1.35a1.053,1.053,0,0,1,.089-1.235l.051-.051,1.694-1.694a1.04,1.04,0,0,1,1.286-.14L45.7,7.565a10.592,10.592,0,0,1,2.649-1.108l.726-3.642A1.019,1.019,0,0,1,50.084,2h2.394a1.019,1.019,0,0,1,1.006.815l.726,3.642a10.592,10.592,0,0,1,2.649,1.108l3.094-2.076a1.04,1.04,0,0,1,1.286.14l1.694,1.694a1.04,1.04,0,0,1,.14,1.286L61,11.7A10.592,10.592,0,0,1,62.1,14.352l3.642.726A1.019,1.019,0,0,1,66.562,16.084Z" transform="translate(8.572 -0.725)"/>
      <path id="Shape-5" data-name="Shape" class="cls-4" d="M62.015,15.369v2.394a1.019,1.019,0,0,1-.815,1.006l-3.642.726a10.592,10.592,0,0,1-1.108,2.649l2.076,3.094a1.04,1.04,0,0,1-.14,1.286l-1.694,1.694a1.04,1.04,0,0,1-1.286.14l-1.6-1.07.764-.764a1.04,1.04,0,0,0,.14-1.286L52.63,22.144A10.593,10.593,0,0,0,53.738,19.5l3.642-.726a1.019,1.019,0,0,0,.815-1.006V15.369a1.019,1.019,0,0,0-.815-1.006l-3.642-.726a10.593,10.593,0,0,0-1.108-2.649l2.076-3.094a1.04,1.04,0,0,0-.14-1.286L53.8,5.844l1.6-1.07a1.04,1.04,0,0,1,1.286.14l1.694,1.694a1.04,1.04,0,0,1,.14,1.286L56.45,10.989a10.592,10.592,0,0,1,1.108,2.649l3.642.726A1.019,1.019,0,0,1,62.015,15.369Z" transform="translate(13.119 -0.01)"/>
      <path id="Shape-6" data-name="Shape" class="cls-1" d="M55.734,15.367a6.367,6.367,0,0,1-6.367,6.367,6.794,6.794,0,0,1-1.91-.28,6.385,6.385,0,0,1,0-12.174A6.794,6.794,0,0,1,49.367,9,6.367,6.367,0,0,1,55.734,15.367Z" transform="translate(10.486 1.189)"/>
      <ellipse id="Oval" class="cls-2" cx="4.457" cy="6.087" rx="4.457" ry="6.087" transform="translate(53.486 10.469)"/>
      <path id="Shape-7" data-name="Shape" class="cls-1" d="M60.2,23.6V26.6a1.273,1.273,0,0,1-1.019,1.248l-1.363.28-3.2.637a13.568,13.568,0,0,1-1.019,2.649c-.115.229-.229.446-.357.662l2.585,3.858a1.273,1.273,0,0,1-.166,1.6l-2.127,2.127a1.273,1.273,0,0,1-1.6.166L48.079,37.25a13.771,13.771,0,0,1-3.311,1.375l-.917,4.559A1.273,1.273,0,0,1,42.6,44.2H39.6a1.273,1.273,0,0,1-1.248-1.019l-.917-4.559a13.771,13.771,0,0,1-3.311-1.375l-3.858,2.585a1.273,1.273,0,0,1-1.6-.166l-2.127-2.127a1.273,1.273,0,0,1-.166-1.6l2.585-3.858a13.771,13.771,0,0,1-1.375-3.311l-4.559-.917A1.273,1.273,0,0,1,22,26.6V23.6a1.273,1.273,0,0,1,1.019-1.248l4.559-.917a13.771,13.771,0,0,1,1.375-3.311l-2.585-3.858a1.273,1.273,0,0,1,.166-1.6l2.127-2.127a1.273,1.273,0,0,1,1.6-.166l3.858,2.585a13.771,13.771,0,0,1,3.311-1.375l.917-4.559A1.273,1.273,0,0,1,39.6,6H42.6a1.262,1.262,0,0,1,1.248,1.019l.369,1.846.548,2.712.115.038a13.361,13.361,0,0,1,3.2,1.337l3.858-2.585a1.273,1.273,0,0,1,1.6.166l2.127,2.127a1.273,1.273,0,0,1,.166,1.6L53.25,18.123a13.771,13.771,0,0,1,1.375,3.311l4.559.917A1.273,1.273,0,0,1,60.2,23.6Z" transform="translate(4.745 0.369)"/>
      <path id="Shape-8" data-name="Shape" class="cls-4" d="M54.313,22.706v3.005a1.273,1.273,0,0,1-1.019,1.248l-1.363.28-2.3.458-.891.178a13.568,13.568,0,0,1-1.019,2.649c-.115.229-.229.446-.357.662l2.585,3.858a1.273,1.273,0,0,1-.166,1.6l-2.127,2.127a1.273,1.273,0,0,1-1.6.166l-1.426-.955,1.337-1.337a1.273,1.273,0,0,0,.166-1.6L43.54,31.187c.127-.216.242-.433.357-.662a13.568,13.568,0,0,0,1.019-2.649l3.2-.637,1.363-.28a1.273,1.273,0,0,0,1.019-1.248V22.706a1.273,1.273,0,0,0-1.019-1.248l-4.559-.917A13.771,13.771,0,0,0,43.54,17.23l2.585-3.858a1.273,1.273,0,0,0-.166-1.6L44.622,10.43l1.426-.955a1.273,1.273,0,0,1,1.6.166l2.127,2.127a1.273,1.273,0,0,1,.166,1.6L47.36,17.23a13.771,13.771,0,0,1,1.375,3.311l4.559.917A1.273,1.273,0,0,1,54.313,22.706Z" transform="translate(10.634 1.262)"/>
      <circle id="Oval-2" data-name="Oval" class="cls-2" cx="7.799" cy="7.799" r="7.799" transform="translate(38.13 18.198)"/>
      <path id="Shape-9" data-name="Shape" class="cls-2" d="M4.885,24.849c.535-1.389,1.179-2.6,1.58-3.778.1-.292.186-.586.255-.866l.232-1.011c.158-.681.327-1.373.527-2.068a24.741,24.741,0,0,1,3.864-7.779,22.958,22.958,0,0,1,1.741-2.081l1.852,1.747a20.748,20.748,0,0,0-1.548,1.853,22.24,22.24,0,0,0-3.461,6.967c-.182.637-.34,1.28-.5,1.942L9.2,20.781q-.141.586-.327,1.119c-.5,1.435-1.158,2.674-1.608,3.858Z" transform="translate(0.065 0.715)"/>
      <path id="Shape-10" data-name="Shape" class="cls-5" d="M8.227,16.745a1.281,1.281,0,0,0-1.528.942,41.9,41.9,0,0,1-1.817,4.584l2.38.907a40.347,40.347,0,0,0,1.91-4.889,1.273,1.273,0,0,0-.945-1.545Z" transform="translate(0.064 3.298)"/>
      <path id="Shape-11" data-name="Shape" class="cls-5" d="M13.761,9.011,11.91,7.264a22.959,22.959,0,0,0-1.741,2.083q-.4.54-.772,1.1a1.249,1.249,0,0,0,.392,1.783,1.309,1.309,0,0,0,1.734-.382q.33-.509.689-.984A20.748,20.748,0,0,1,13.761,9.011Z" transform="translate(1.239 0.715)"/>
      <path id="Shape-12" data-name="Shape" class="cls-5" d="M7.446,13.677A1.356,1.356,0,0,0,7.468,14.7l.127.211a.951.951,0,0,0,.181.183.779.779,0,0,0,.195.143,1.8,1.8,0,0,0,.236.1,1.411,1.411,0,0,0,.972-.064,1.338,1.338,0,0,0,.382-.285A1.252,1.252,0,0,0,9.8,13.655a1.424,1.424,0,0,0-.28-.406,1.328,1.328,0,0,0-.4-.289,1.287,1.287,0,0,0-.978-.02A1.36,1.36,0,0,0,7.446,13.677Z" transform="translate(0.741 2.243)"/>
      <path id="Shape-13" data-name="Shape" class="cls-5" d="M13.116,65.731a4.771,4.771,0,0,1-4.5-3.469,7.485,7.485,0,0,1-.43-3.431c.047-.339.12-.669.195-1a3.516,3.516,0,0,0,.14-1.542c-.1-.4-.395-.595-1.146-1.019a9.828,9.828,0,0,1-.891-.554,1.838,1.838,0,0,1-.747-1.248,3.209,3.209,0,0,1,.415-1.838c-.434-.332-.909-.707-1.184-.955-1.177-.963-.4-2.342.07-3.164.171-.3.371-.653.56-1.061a2.2,2.2,0,0,0,.144-1.284c-.065-.331-.987-.8-1.538-1.084a9.343,9.343,0,0,1-1.322-.764,3.9,3.9,0,0,1-1.852-2.4c-.2-1.312.764-2.622,1.687-3.746a49.154,49.154,0,0,0,5.572-9.055,2.157,2.157,0,0,0,.216-.553c0-.351-.416-.754-1.04-1.326A4.9,4.9,0,0,1,5.6,23.406a4.449,4.449,0,0,1,.346-2.138,1.273,1.273,0,1,1,2.389.881,2.53,2.53,0,0,0-.211.918c.055.382.542.821,1.058,1.3a4.457,4.457,0,0,1,1.868,3.184,3.785,3.785,0,0,1-.5,1.724,51.377,51.377,0,0,1-5.827,9.464c-.969,1.184-1.177,1.655-1.177,1.845a5.425,5.425,0,0,0,.764.619,7.364,7.364,0,0,0,1.049.61c1.086.555,2.575,1.317,2.879,2.87A4.754,4.754,0,0,1,7.9,47.527c-.222.472-.451.88-.651,1.231-.062.11-.127.232-.192.343.528.425,1.249.965,1.554,1.189a1.273,1.273,0,0,1,.241,1.815,4.686,4.686,0,0,0-.492.79l.28.155a4.22,4.22,0,0,1,2.347,2.6,5.557,5.557,0,0,1-.127,2.742c-.059.255-.118.521-.155.782a5.094,5.094,0,0,0,.315,2.256,2.268,2.268,0,0,0,2.623,1.695,99.172,99.172,0,0,0,10.944-3.311,1.274,1.274,0,1,1,.837,2.407,100.162,100.162,0,0,1-11.266,3.394A5.18,5.18,0,0,1,13.116,65.731ZM6.621,48.745l.039.036Z" transform="translate(-0.998 4.309)"/>
      <path id="Shape-14" data-name="Shape" class="cls-5" d="M12.324,11.124A1.273,1.273,0,0,1,11.4,8.976c2.847-3.009,7.02-5.027,12.762-6.168A85,85,0,0,1,36.476,1.04a30.976,30.976,0,0,1,4.426.088,1.279,1.279,0,1,1-.237,2.547,27.874,27.874,0,0,0-4.056-.087A82.75,82.75,0,0,0,24.663,5.3c-5.139,1.019-8.978,2.845-11.415,5.421A1.273,1.273,0,0,1,12.324,11.124Z" transform="translate(1.751 -0.999)"/>
      <path id="Shape-15" data-name="Shape" class="cls-1" d="M11.44,21.788a1.273,1.273,0,0,1-.961-1.55,23.654,23.654,0,0,1,.751-2.613,19.3,19.3,0,0,1,4.034-6.6c2.068-2.18,5.459-3.759,10.08-4.679a1.274,1.274,0,0,1,.5,2.5c-4.093.814-7.028,2.137-8.725,3.93a16.8,16.8,0,0,0-3.5,5.73,21.6,21.6,0,0,0-.666,2.337A1.273,1.273,0,0,1,11.44,21.788Z" transform="translate(1.584 0.456)"/>
      <path id="Shape-16" data-name="Shape" class="cls-5" d="M26.4,70.512a1.273,1.273,0,0,1-1.236-.97c-.5-2.013-2.458-7.544-5.566-8.948a1.273,1.273,0,0,1,.115-2.366c1.324-.45,2.524-.87,3.47-1.2.891-.309,1.552-.542,1.9-.653,5.294-1.686,6.367-3.594,6.336-4.9a1.273,1.273,0,0,1,1.248-1.3,1.251,1.251,0,0,1,1.3,1.243c.075,3.161-2.653,5.644-8.105,7.386-.334.107-.979.332-1.835.637l-1.146.4a20.307,20.307,0,0,1,4.481,8.126l28.884-.08-.085-.127a13.922,13.922,0,0,1-.987-1.655,26.558,26.558,0,0,1-1.58-3.995,45.2,45.2,0,0,1-1.6-7.979,24.09,24.09,0,0,1,1.867-12.5,30.773,30.773,0,0,1,3.748-5.966c.739-1,1.5-2.025,2.165-3.07a17.191,17.191,0,0,0,2.292-5.412,1.273,1.273,0,0,1,2.481.576,19.7,19.7,0,0,1-2.623,6.2c-.712,1.122-1.5,2.19-2.269,3.222a28.465,28.465,0,0,0-3.459,5.467,21.558,21.558,0,0,0-1.673,11.182,42.915,42.915,0,0,0,1.506,7.534,24.246,24.246,0,0,0,1.438,3.625,11.819,11.819,0,0,0,.825,1.375,9.837,9.837,0,0,1,1.29,2.419,1.273,1.273,0,0,1-1.212,1.655l-31.963.089Z" transform="translate(3.883 5.894)"/>
      <path id="Shape-17" data-name="Shape" class="cls-5" d="M42.877,45.749H39.872a2.547,2.547,0,0,1-2.5-2.046l-.764-3.8a15.161,15.161,0,0,1-2.144-.891l-3.218,2.158a2.554,2.554,0,0,1-3.227-.335l-2.114-2.114a2.547,2.547,0,0,1-.332-3.2l2.165-3.233a15.161,15.161,0,0,1-.891-2.144l-3.81-.764A2.547,2.547,0,0,1,21,26.877V23.872a2.547,2.547,0,0,1,2.046-2.5l3.8-.764a15.162,15.162,0,0,1,.891-2.144l-2.158-3.218a2.547,2.547,0,0,1,.336-3.228l2.113-2.113a2.547,2.547,0,0,1,3.2-.332l3.233,2.165a15.161,15.161,0,0,1,2.144-.891l.764-3.81A2.547,2.547,0,0,1,39.872,5h3.005a2.547,2.547,0,0,1,2.5,2.046l.764,3.8a15.161,15.161,0,0,1,2.144.891L51.5,9.584a2.547,2.547,0,0,1,3.228.336l2.113,2.113a2.547,2.547,0,0,1,.332,3.2L55.01,18.465a15.162,15.162,0,0,1,.891,2.144l3.81.764a2.547,2.547,0,0,1,2.037,2.5v3.005a2.547,2.547,0,0,1-2.046,2.5l-3.8.764a15.161,15.161,0,0,1-.891,2.144L57.165,35.5a2.547,2.547,0,0,1-.336,3.228l-2.113,2.113a2.547,2.547,0,0,1-3.2.332L48.284,39.01a15.162,15.162,0,0,1-2.144.891l-.764,3.81A2.547,2.547,0,0,1,42.877,45.749ZM34.4,36.25a1.273,1.273,0,0,1,.637.172,12.544,12.544,0,0,0,3.007,1.248,1.273,1.273,0,0,1,.916.978l.917,4.555h3.005l.916-4.555a1.273,1.273,0,0,1,.916-.978,12.544,12.544,0,0,0,3.007-1.248,1.273,1.273,0,0,1,1.347.043l3.857,2.585,2.123-2.134-2.577-3.853a1.273,1.273,0,0,1-.043-1.347,12.545,12.545,0,0,0,1.248-3.007,1.273,1.273,0,0,1,.978-.916l4.555-.916V23.871l-4.555-.916a1.273,1.273,0,0,1-.978-.916,12.545,12.545,0,0,0-1.248-3.007,1.273,1.273,0,0,1,.043-1.347l2.585-3.857-2.134-2.122-3.853,2.577a1.273,1.273,0,0,1-1.347.043,12.544,12.544,0,0,0-3.007-1.248,1.273,1.273,0,0,1-.916-.978l-.916-4.555H39.872L38.955,12.1a1.273,1.273,0,0,1-.916.978,12.544,12.544,0,0,0-3.007,1.248,1.273,1.273,0,0,1-1.347-.043L29.829,11.7l-2.123,2.134,2.577,3.853a1.273,1.273,0,0,1,.043,1.347,12.544,12.544,0,0,0-1.248,3.007,1.273,1.273,0,0,1-.978.916l-4.554.916v3.005l4.555.916a1.273,1.273,0,0,1,.978.916,12.544,12.544,0,0,0,1.248,3.007,1.273,1.273,0,0,1-.043,1.347L27.7,36.919l2.134,2.123,3.853-2.577A1.281,1.281,0,0,1,34.4,36.25Z" transform="translate(4.471 0.096)"/>
      <path id="Shape-18" data-name="Shape" class="cls-5" d="M60.015,30.783a2.325,2.325,0,0,1-1.236-.358l-2.49-1.664a1.273,1.273,0,0,1-1.045-2.31l.536-.308a1.273,1.273,0,0,1,1.29.075l2.911,1.953,1.413-1.413-1.952-2.916a1.273,1.273,0,0,1-.037-1.36,9.315,9.315,0,0,0,.974-2.33,1.273,1.273,0,0,1,.981-.917L64.8,18.55V16.559l-3.432-.684a1.273,1.273,0,0,1-.981-.917,9.315,9.315,0,0,0-.974-2.33,1.273,1.273,0,0,1,.031-1.36L61.4,8.357,59.982,6.943,57.07,8.9a1.273,1.273,0,0,1-1.36.037,9.315,9.315,0,0,0-2.33-.974,1.273,1.273,0,0,1-.917-.981l-.684-3.431H49.787L49.1,6.985a1.273,1.273,0,0,1-.917.981,9.315,9.315,0,0,0-2.33.974A1.273,1.273,0,0,1,44.5,8.9L41.585,6.943,40.045,8.484a1.312,1.312,0,0,1-1.832.032,1.234,1.234,0,0,1-.036-1.769L39.921,5a2.3,2.3,0,0,1,2.863-.318l2.491,1.664a11.787,11.787,0,0,1,1.48-.618l.577-2.894A2.292,2.292,0,0,1,49.586,1H51.98a2.292,2.292,0,0,1,2.256,1.853l.576,2.882a11.97,11.97,0,0,1,1.48.616l2.454-1.645a2.311,2.311,0,0,1,2.9.3L63.335,6.7a2.3,2.3,0,0,1,.318,2.863l-1.664,2.487a11.788,11.788,0,0,1,.618,1.48L65.5,14.1a2.292,2.292,0,0,1,1.836,2.255v2.394a2.292,2.292,0,0,1-1.853,2.258l-2.882.574a11.971,11.971,0,0,1-.616,1.48l1.645,2.454a2.313,2.313,0,0,1-.3,2.9l-1.694,1.694A2.292,2.292,0,0,1,60.015,30.783Z" transform="translate(9.07 -0.998)"/>
      <path id="Shape-19" data-name="Shape" class="cls-4" d="M38.914,31.828a8.914,8.914,0,1,1,8.914-8.914A8.914,8.914,0,0,1,38.914,31.828Zm0-15.281a6.367,6.367,0,1,0,6.367,6.367A6.367,6.367,0,0,0,38.914,16.547Z" transform="translate(6.932 2.556)"/>
      <ellipse id="Oval-3" data-name="Oval" class="cls-4" cx="1.733" cy="1.3" rx="1.733" ry="1.3" transform="translate(44.197 24.265)"/>
      <path id="Shape-20" data-name="Shape" class="cls-5" d="M51.374,22.759a1.273,1.273,0,0,1-.5-2.444,5.094,5.094,0,0,0-2.018-9.768,4.824,4.824,0,0,0-1.7.3,1.273,1.273,0,0,1-.891-2.383A7.368,7.368,0,0,1,48.853,8a7.64,7.64,0,0,1,3.018,14.656A1.273,1.273,0,0,1,51.374,22.759Z" transform="translate(11.166 0.916)"/>
      <ellipse id="Oval-4" data-name="Oval" class="cls-1" cx="1.3" cy="1.733" rx="1.3" ry="1.733" transform="translate(10.399 25.131)"/>
    </g>
  </g>
</svg>
