<svg id="_3-Management" data-name="3-Management" xmlns="http://www.w3.org/2000/svg" width="76.776" height="76.777" viewBox="0 0 76.776 76.777">
  <defs>
    <style>
      .cls-1 {
        fill: #ef2648;
      }

      .cls-2 {
        fill: #ffd4b0;
      }

      .cls-3 {
        fill: #ffdc13;
      }

      .cls-4 {
        fill: #edc4a2;
      }

      .cls-5 {
        fill: #b20d24;
      }

      .cls-6 {
        fill: #ffa511;
      }

      .cls-7 {
        fill: #f08015;
      }

      .cls-8 {
        fill: #4db5ff;
      }

      .cls-9 {
        fill: #3596d8;
      }
    </style>
  </defs>
  <path id="Path_51213" data-name="Path 51213" class="cls-1" d="M185.379,128v-7.942a5.3,5.3,0,0,1,5.295-5.295h0a11.84,11.84,0,0,0,10.59,0h0a5.3,5.3,0,0,1,5.295,5.295V128a2.647,2.647,0,0,1-2.647,2.647H188.026A2.647,2.647,0,0,1,185.379,128Z" transform="translate(-157.581 -97.55)"/>
  <circle id="Ellipse_292" data-name="Ellipse 292" class="cls-2" cx="6.619" cy="6.619" r="6.619" transform="translate(31.77 0)"/>
  <g id="Group_15171" data-name="Group 15171" transform="translate(6.619 6.644)">
    <path id="Path_51214" data-name="Path 51214" class="cls-3" d="M45.462,90.94a1.324,1.324,0,0,1-1.324-1.324A31.739,31.739,0,0,1,63.475,60.371a1.324,1.324,0,0,1,1.038,2.436h0a29.1,29.1,0,0,0-17.727,26.81A1.324,1.324,0,0,1,45.462,90.94Z" transform="translate(-44.138 -57.872)"/>
    <path id="Path_51215" data-name="Path 51215" class="cls-3" d="M346.475,90.94a1.324,1.324,0,0,1-1.324-1.324,29.1,29.1,0,0,0-17.727-26.81,1.324,1.324,0,1,1,1.038-2.436A31.739,31.739,0,0,1,347.8,89.616,1.324,1.324,0,0,1,346.475,90.94Z" transform="translate(-284.26 -57.872)"/>
    <path id="Path_51216" data-name="Path 51216" class="cls-3" d="M180.961,439.144a31.6,31.6,0,0,1-12.433-2.524,1.324,1.324,0,1,1,1.038-2.436,29.361,29.361,0,0,0,22.789,0,1.324,1.324,0,1,1,1.038,2.436A31.6,31.6,0,0,1,180.961,439.144Z" transform="translate(-149.191 -375.63)"/>
    <path id="Path_51217" data-name="Path 51217" class="cls-3" d="M171.681,432.988a1.322,1.322,0,0,1-1.175-.711l-2.647-5.066a1.323,1.323,0,0,1,.56-1.786,1.418,1.418,0,0,1,.242-.1l5.295-1.553a1.324,1.324,0,0,1,.744,2.542l-3.747,1.1,1.9,3.636a1.324,1.324,0,0,1-1.173,1.937Z" transform="translate(-149.177 -366.826)"/>
    <path id="Path_51218" data-name="Path 51218" class="cls-3" d="M429.109,227.4a1.321,1.321,0,0,1-.936-.388l-3.971-3.971a1.324,1.324,0,0,1,1.872-1.872l3.035,3.035,3.035-3.035a1.324,1.324,0,0,1,1.872,1.872l-3.971,3.971A1.321,1.321,0,0,1,429.109,227.4Z" transform="translate(-366.894 -194.332)"/>
    <path id="Path_51219" data-name="Path 51219" class="cls-3" d="M136.656,54.871a1.3,1.3,0,0,1-.572-.132,1.324,1.324,0,0,1-.619-1.766l2.064-4.307-4.068-1.853a1.324,1.324,0,0,1,1.1-2.406l5.295,2.418a1.324,1.324,0,0,1,.649,1.757l-.008.016-2.647,5.524A1.325,1.325,0,0,1,136.656,54.871Z" transform="translate(-119.447 -44.307)"/>
  </g>
  <path id="Path_51220" data-name="Path 51220" class="cls-4" d="M230.03,8.934a6.591,6.591,0,0,1-9.234,9.234,6.6,6.6,0,1,0,9.234-9.234Z" transform="translate(-187.687 -7.594)"/>
  <circle id="Ellipse_293" data-name="Ellipse 293" class="cls-2" cx="6.619" cy="6.619" r="6.619" transform="translate(59.568 43.683)"/>
  <path id="Path_51221" data-name="Path 51221" class="cls-4" d="M415.409,300.244a6.591,6.591,0,0,1-9.234,9.234,6.6,6.6,0,1,0,9.234-9.234Z" transform="translate(-345.267 -255.221)"/>
  <circle id="Ellipse_294" data-name="Ellipse 294" class="cls-2" cx="6.619" cy="6.619" r="6.619" transform="translate(3.971 43.683)"/>
  <path id="Path_51222" data-name="Path 51222" class="cls-4" d="M44.651,300.244a6.591,6.591,0,0,1-9.234,9.234,6.6,6.6,0,1,0,9.234-9.234Z" transform="translate(-30.106 -255.221)"/>
  <path id="Path_51223" data-name="Path 51223" class="cls-5" d="M185.379,143.168a2.647,2.647,0,0,0,2.647,2.647h15.885a2.647,2.647,0,0,0,2.647-2.647v-7.942a5.232,5.232,0,0,0-.719-2.618A25.1,25.1,0,0,1,185.379,143.168Z" transform="translate(-157.581 -112.722)"/>
  <path id="Path_51224" data-name="Path 51224" class="cls-6" d="M0,419.306v-7.943a5.3,5.3,0,0,1,5.295-5.295h0a11.84,11.84,0,0,0,10.59,0h0a5.3,5.3,0,0,1,5.295,5.295v7.943a2.647,2.647,0,0,1-2.647,2.647H2.647A2.647,2.647,0,0,1,0,419.306Z" transform="translate(0 -345.177)"/>
  <path id="Path_51225" data-name="Path 51225" class="cls-7" d="M0,434.479a2.647,2.647,0,0,0,2.647,2.647H18.532a2.647,2.647,0,0,0,2.647-2.647v-7.943a5.233,5.233,0,0,0-.719-2.618A25.1,25.1,0,0,1,0,434.479Z" transform="translate(0 -360.35)"/>
  <path id="Path_51226" data-name="Path 51226" class="cls-8" d="M370.759,419.306v-7.943a5.3,5.3,0,0,1,5.295-5.295h0a11.84,11.84,0,0,0,10.59,0h0a5.3,5.3,0,0,1,5.295,5.295v7.943a2.647,2.647,0,0,1-2.647,2.647H373.406A2.647,2.647,0,0,1,370.759,419.306Z" transform="translate(-315.162 -345.177)"/>
  <path id="Path_51227" data-name="Path 51227" class="cls-9" d="M370.759,434.479a2.647,2.647,0,0,0,2.647,2.647h15.885a2.647,2.647,0,0,0,2.647-2.647v-7.943a5.233,5.233,0,0,0-.719-2.618A25.1,25.1,0,0,1,370.759,434.479Z" transform="translate(-315.162 -360.35)"/>
</svg>
