<svg xmlns="http://www.w3.org/2000/svg" width="76.192" height="76.192" viewBox="0 0 76.192 76.192">
  <defs>
    <style>
      .cls-1 {
        fill: #ff9811;
      }

      .cls-2 {
        fill: #ffd422;
      }

      .cls-3 {
        fill: #00ccb3;
      }

      .cls-4 {
        fill: #e6e7e8;
      }

      .cls-5 {
        fill: #ff5023;
      }

      .cls-6 {
        fill: #3d9ae2;
      }

      .cls-7 {
        fill: #ffb655;
      }

      .cls-8 {
        fill: #ffc477;
      }

      .cls-9 {
        fill: #ffa733;
      }

      .cls-10 {
        fill: #787680;
      }

      .cls-11 {
        fill: #bcbec0;
      }

      .cls-12 {
        fill: #ed1c24;
      }
    </style>
  </defs>
  <g id="Time_Management" data-name="Time Management" transform="translate(-3 -3)">
    <path id="Path_51192" data-name="Path 51192" class="cls-1" d="M63.6,51.7a11.513,11.513,0,0,1-1.524,3.652L66.016,59.3,62.3,63.016l-3.941-3.941A11.513,11.513,0,0,1,54.7,60.6v5.557H49.45V60.6A11.513,11.513,0,0,1,45.8,59.075l-3.941,3.941L38.14,59.3l3.941-3.941A11.513,11.513,0,0,1,40.557,51.7H35V46.45h5.557a11.321,11.321,0,0,1,.828-2.378,9.2,9.2,0,0,1,.7-1.274L38.14,38.857l3.718-3.718L45.8,39.081a11.513,11.513,0,0,1,3.652-1.524V32H54.7v5.557a9.324,9.324,0,0,1,1.038.289,11.085,11.085,0,0,1,2.614,1.235L62.3,35.14l3.718,3.718L62.075,42.8A11.513,11.513,0,0,1,63.6,46.45h5.557V51.7Z" transform="translate(10.037 9.096)"/>
    <path id="Path_51193" data-name="Path 51193" class="cls-2" d="M49.687,40.013A.364.364,0,0,0,49.568,40a6.569,6.569,0,0,0-6.437,5.256A6.19,6.19,0,0,0,43,46.568a6.568,6.568,0,1,0,6.687-6.555Z" transform="translate(12.546 11.605)"/>
    <path id="Path_51194" data-name="Path 51194" class="cls-3" d="M67.8,31.9a28.889,28.889,0,0,1-7.764,19.718,29.426,29.426,0,0,1-6.555,5.242,28.479,28.479,0,0,1-10.641,3.665A27.835,27.835,0,0,1,38.9,60.8a28.809,28.809,0,0,1-14.608-3.954,29.583,29.583,0,0,1-5.242-3.941,28.945,28.945,0,0,1-5.9-7.869,28.6,28.6,0,0,1-3.1-11.429C10.013,33.043,10,32.479,10,31.9a28.9,28.9,0,1,1,57.8,0Z" transform="translate(2.196 0)"/>
    <path id="Path_51195" data-name="Path 51195" class="cls-4" d="M61.292,30.656A23.654,23.654,0,0,1,37.646,54.3a23.383,23.383,0,0,1-10.654-2.548,22.637,22.637,0,0,1-5.15-3.521A23.622,23.622,0,0,1,14,30.656q0-1,.079-1.97a23.646,23.646,0,0,1,47.213,1.97Z" transform="translate(3.45 1.245)"/>
    <circle id="Ellipse_291" data-name="Ellipse 291" class="cls-5" cx="2.652" cy="2.652" r="2.652" transform="translate(38.364 29.523)"/>
    <path id="Path_51196" data-name="Path 51196" class="cls-4" d="M48.753,36.847a23.654,23.654,0,0,1-8.118,6.476,9.2,9.2,0,0,1,.7-1.274L37.39,38.108l3.718-3.718,3.941,3.941A11.513,11.513,0,0,1,48.7,36.807Z" transform="translate(10.787 9.846)"/>
    <path id="Path_51197" data-name="Path 51197" class="cls-6" d="M21.391,61.108l9.2-9.2V48.09l3.389.92a7.9,7.9,0,0,1,5.806,7.606v8.434H3V56.616A7.9,7.9,0,0,1,8.806,49.01l3.389-.92v3.823Z" transform="translate(0 14.143)"/>
    <path id="Path_51198" data-name="Path 51198" class="cls-4" d="M28.391,48.316v3.823l-9.2,9.2-9.2-9.2V48.316l3.468-.946L19.2,52.139l5.728-4.769Z" transform="translate(2.196 13.917)"/>
    <path id="Path_51199" data-name="Path 51199" class="cls-7" d="M24.1,48.3l-5.728,4.769L12.64,48.3l1.787-.486V44.42a10.574,10.574,0,0,0,7.882,0v3.389Z" transform="translate(3.024 12.992)"/>
    <path id="Path_51200" data-name="Path 51200" class="cls-8" d="M27.089,35.243a7.941,7.941,0,0,1-3.192-3.35L23.45,31,21.27,33.181a10.5,10.5,0,0,1-7.422,3.074H9v2.627a10.506,10.506,0,0,0,14.45,9.747,11.764,11.764,0,0,0,1.156-.565,10.509,10.509,0,0,0,5.412-9.182V36.255l.013-.053a8.085,8.085,0,0,1-2.943-.959Z" transform="translate(1.882 8.783)"/>
    <path id="Path_51201" data-name="Path 51201" class="cls-9" d="M21.882,44.42v1.314a10.574,10.574,0,0,1-7.882,0V44.42a10.574,10.574,0,0,0,7.882,0Z" transform="translate(3.45 12.992)"/>
    <path id="Path_51202" data-name="Path 51202" class="cls-10" d="M19.823,23a11.412,11.412,0,0,0-3.862.657,11.631,11.631,0,0,0-5.281,3.678A11.8,11.8,0,0,0,8,34.823v3.941h6.161a10.5,10.5,0,0,0,7.421-3.073l2.181-2.181.447.893a7.941,7.941,0,0,0,3.192,3.35,8.086,8.086,0,0,0,2.943.959,7.06,7.06,0,0,0,.92.053h.381V34.823A11.823,11.823,0,0,0,19.823,23Z" transform="translate(1.568 6.273)"/>
    <path id="Path_51203" data-name="Path 51203" class="cls-1" d="M18.255,43.255A5.255,5.255,0,0,1,13,38h2.627a2.627,2.627,0,0,0,5.255,0h2.627A5.255,5.255,0,0,1,18.255,43.255Z" transform="translate(3.137 10.978)"/>
    <g id="Group_15170" data-name="Group 15170" transform="translate(26.229 12.196)">
      <path id="Path_51204" data-name="Path 51204" class="cls-11" d="M31,10h2.627v2.627H31Z" transform="translate(-17.447 -10)"/>
      <path id="Path_51205" data-name="Path 51205" class="cls-11" d="M0,0H2.627V2.627H0Z" transform="translate(26.006 6.704) rotate(-45)"/>
      <path id="Path_51206" data-name="Path 51206" class="cls-11" d="M45,24h2.627v2.627H45Z" transform="translate(-13.055 -5.609)"/>
      <path id="Path_51207" data-name="Path 51207" class="cls-11" d="M0,0H2.627V2.627H0Z" transform="translate(26.004 32.71) rotate(-45)"/>
      <path id="Path_51208" data-name="Path 51208" class="cls-11" d="M31,38h2.627v2.627H31Z" transform="translate(-17.447 -1.217)"/>
      <path id="Path_51209" data-name="Path 51209" class="cls-11" d="M0,0H2.627V2.627H0Z" transform="translate(0 6.701) rotate(-45)"/>
    </g>
    <path id="Path_51210" data-name="Path 51210" class="cls-5" d="M31,15h2.627V25.509H31Z" transform="translate(8.783 3.764)"/>
    <path id="Path_51211" data-name="Path 51211" class="cls-5" d="M34,24h7.882v2.627H34Z" transform="translate(9.724 6.587)"/>
    <path id="Path_51212" data-name="Path 51212" class="cls-12" d="M32.941,29.882a3.941,3.941,0,1,1,3.941-3.941,3.941,3.941,0,0,1-3.941,3.941Zm0-5.255a1.314,1.314,0,1,0,1.314,1.314A1.314,1.314,0,0,0,32.941,24.627Z" transform="translate(8.155 5.96)"/>
  </g>
</svg>
