<svg xmlns="http://www.w3.org/2000/svg" width="76.368" height="76.368" viewBox="0 0 76.368 76.368">
  <defs>
    <style>
      .cls-1 {
        fill: #ff826e;
      }

      .cls-2 {
        fill: #969faa;
      }

      .cls-3 {
        fill: #fcd770;
      }

      .cls-4 {
        fill: #b4dd7f;
      }

      .cls-5 {
        fill: #f0d0b4;
      }
    </style>
  </defs>
  <g id="_5-Security" data-name="5-Security" transform="translate(-1 -1)">
    <g id="Group_15179" data-name="Group 15179" transform="translate(17.013 2.232)">
      <g id="Group_15172" data-name="Group 15172" transform="translate(49.722 2.635)">
        <ellipse id="Ellipse_295" data-name="Ellipse 295" class="cls-1" cx="4.5" cy="5" rx="4.5" ry="5" transform="translate(0.265 0.133)"/>
      </g>
      <g id="Group_15173" data-name="Group 15173" transform="translate(49.722 61.603)">
        <ellipse id="Ellipse_296" data-name="Ellipse 296" class="cls-1" cx="4.5" cy="5" rx="4.5" ry="5" transform="translate(0.265 0.165)"/>
      </g>
      <g id="Group_15174" data-name="Group 15174" transform="translate(51.655 33.569)">
        <circle id="Ellipse_297" data-name="Ellipse 297" class="cls-1" cx="3.5" cy="3.5" r="3.5" transform="translate(0.332 0.199)"/>
      </g>
      <g id="Group_15175" data-name="Group 15175" transform="translate(2.463 0)">
        <path id="Path_51233" data-name="Path 51233" class="cls-2" d="M45.562,16.781H40.635a9.854,9.854,0,1,0-19.708,0v6.9A15.014,15.014,0,0,0,16,28.31V16.781a14.781,14.781,0,1,1,29.562,0Z" transform="translate(-16 -2)"/>
      </g>
      <g id="Group_15176" data-name="Group 15176" transform="translate(0 19.708)">
        <path id="Path_51234" data-name="Path 51234" class="cls-3" d="M33.708,18H28.781a14.689,14.689,0,0,0-7.39,1.971A15.014,15.014,0,0,0,16.463,24.6,14.745,14.745,0,0,0,14,32.781v9.854a14.774,14.774,0,0,0,4.927,11.024h.012c-.012-.135-.012-.283-.012-.431V43.867a1.235,1.235,0,0,1,1.232-1.232,3.69,3.69,0,0,1,3.7,3.7v4.927a2.481,2.481,0,0,0,2.463,2.463,2.471,2.471,0,0,0,2.463-2.463V35.244a2.481,2.481,0,0,1,2.463-2.463,2.471,2.471,0,0,1,2.463,2.463v7.39a2.481,2.481,0,0,1,2.463-2.463,2.471,2.471,0,0,1,2.463,2.463V45.1A2.481,2.481,0,0,1,41.1,42.635,2.471,2.471,0,0,1,43.562,45.1v2.463A2.481,2.481,0,0,1,46.025,45.1a2.471,2.471,0,0,1,2.463,2.463V32.781A14.777,14.777,0,0,0,33.708,18Z" transform="translate(-14 -18)"/>
      </g>
      <g id="Group_15177" data-name="Group 15177" transform="translate(9.854 68.978)">
        <path id="Path_51235" data-name="Path 51235" class="cls-4" d="M22,58H42.94v4.927H22Z" transform="translate(-22 -58)"/>
      </g>
      <g id="Group_15178" data-name="Group 15178" transform="translate(4.927 34.489)">
        <path id="Path_51236" data-name="Path 51236" class="cls-5" d="M42.635,44.781A2.481,2.481,0,0,1,45.1,42.317a2.471,2.471,0,0,1,2.463,2.463v6.368a25.974,25.974,0,0,1-3.7,13.34H22.927a22.42,22.42,0,0,1-4.915-13.611C18,50.743,18,50.595,18,50.447V41.086a1.235,1.235,0,0,1,1.232-1.232,3.69,3.69,0,0,1,3.7,3.7v4.927A2.481,2.481,0,0,0,25.39,50.94a2.471,2.471,0,0,0,2.463-2.463V32.463A2.481,2.481,0,0,1,30.317,30a2.471,2.471,0,0,1,2.463,2.463v7.39a2.481,2.481,0,0,1,2.463-2.463,2.471,2.471,0,0,1,2.463,2.463v2.463a2.481,2.481,0,0,1,2.463-2.463,2.471,2.471,0,0,1,2.463,2.463Z" transform="translate(-18 -30)"/>
      </g>
    </g>
    <g id="Group_15180" data-name="Group 15180" transform="translate(1 1)">
      <path id="Path_51237" data-name="Path 51237" d="M33.94,20.708H29.013a15.928,15.928,0,0,0-6.159,1.235V17.013a8.622,8.622,0,1,1,17.244,0v1.232h7.39V17.013a16.013,16.013,0,1,0-32.025,0V28.226A15.893,15.893,0,0,0,13,36.721v9.854a16.041,16.041,0,0,0,4.948,11.575,23.821,23.821,0,0,0,4.906,13.485v5.734h23.4V71.546a27.166,27.166,0,0,0,3.7-13.677V36.721A16.031,16.031,0,0,0,33.94,20.708ZM31.476,3.463A13.567,13.567,0,0,1,44.97,15.781H42.493a11.086,11.086,0,0,0-22.1,1.232v6.236a16.077,16.077,0,0,0-2.463,1.944v-8.18A13.565,13.565,0,0,1,31.476,3.463ZM42.562,45.569a3.46,3.46,0,0,0-2.463,0V36.721a6.166,6.166,0,0,0-6.159-6.159H29.013a6.166,6.166,0,0,0-6.159,6.159v9.307a4.876,4.876,0,0,0-2.463-.685V36.721A8.632,8.632,0,0,1,29.013,28.1H33.94a8.632,8.632,0,0,1,8.622,8.622ZM31.476,35.489a3.7,3.7,0,0,0-3.7,3.7V50.043a3.69,3.69,0,0,1-2.463-3.469V36.721a3.7,3.7,0,0,1,3.7-3.7H33.94a3.7,3.7,0,0,1,3.7,3.7v6.385a3.461,3.461,0,0,0-2.463,0V39.184A3.7,3.7,0,0,0,31.476,35.489ZM25.317,51.469a6.1,6.1,0,0,0,2.463,1.138V55.2a1.232,1.232,0,1,1-2.463,0Zm0,23.435V72.441H43.794V74.9ZM47.489,57.868A24.7,24.7,0,0,1,44.3,69.978H24.709A21.322,21.322,0,0,1,20.39,57.164V47.806a2.466,2.466,0,0,1,2.463,2.463V55.2a3.7,3.7,0,1,0,7.39,0V39.184a1.232,1.232,0,1,1,2.463,0V56.429h2.463V46.575a1.232,1.232,0,0,1,2.463,0v9.854H40.1v-7.39a1.232,1.232,0,1,1,2.463,0v7.39h2.463V51.5a1.232,1.232,0,0,1,2.463,0Zm0-9.835a3.46,3.46,0,0,0-2.463,0V36.721A11.1,11.1,0,0,0,33.94,25.635H29.013A11.1,11.1,0,0,0,17.927,36.721V54.363a13.567,13.567,0,0,1-2.463-7.788V36.721A13.565,13.565,0,0,1,29.013,23.171H33.94A13.565,13.565,0,0,1,47.489,36.721Z" transform="translate(1.781 -1)"/>
      <path id="Path_51238" data-name="Path 51238" d="M12.713,27.127l-1.57-1.9a10.466,10.466,0,0,0,0,16.678l1.57-1.9a8.369,8.369,0,0,1-3.248-6.442,8.367,8.367,0,0,1,3.249-6.442Z" transform="translate(0.39 4.615)"/>
      <path id="Path_51239" data-name="Path 51239" d="M3.463,34.5A14.746,14.746,0,0,1,9.176,23.127l-1.57-1.9A17.162,17.162,0,0,0,1,34.5,17.164,17.164,0,0,0,7.6,47.762l1.57-1.9A14.748,14.748,0,0,1,3.463,34.5Z" transform="translate(-1 3.688)"/>
      <path id="Path_51240" data-name="Path 51240" d="M62.244,28a4.922,4.922,0,0,0-4.752,3.7H45v2.463H57.492A4.919,4.919,0,1,0,62.244,28Zm0,7.39a2.463,2.463,0,1,1,2.463-2.463A2.466,2.466,0,0,1,62.244,35.39Z" transform="translate(9.197 5.257)"/>
      <path id="Path_51241" data-name="Path 51241" d="M62.244,22.39V15H59.781v7.39a3.7,3.7,0,0,1-3.7,3.7H45v2.463H56.086A6.166,6.166,0,0,0,62.244,22.39Z" transform="translate(9.197 2.244)"/>
      <path id="Path_51242" data-name="Path 51242" d="M59.159,15.317A6.159,6.159,0,1,0,53,9.159,6.166,6.166,0,0,0,59.159,15.317Zm0-9.854a3.7,3.7,0,1,1-3.7,3.7A3.7,3.7,0,0,1,59.159,5.463Z" transform="translate(11.051 -0.537)"/>
      <path id="Path_51243" data-name="Path 51243" d="M59.781,44.159v7.39h2.463v-7.39A6.166,6.166,0,0,0,56.086,38H45v2.463H56.086A3.7,3.7,0,0,1,59.781,44.159Z" transform="translate(9.197 7.575)"/>
      <path id="Path_51244" data-name="Path 51244" d="M59.159,51a6.159,6.159,0,1,0,6.159,6.159A6.166,6.166,0,0,0,59.159,51Zm0,9.854a3.7,3.7,0,1,1,3.7-3.7A3.7,3.7,0,0,1,59.159,60.854Z" transform="translate(11.051 10.587)"/>
    </g>
  </g>
</svg>
