<svg height="512pt" viewBox="0 0 512 512.00075" width="512pt" xmlns="http://www.w3.org/2000/svg" xmlns:xlink="http://www.w3.org/1999/xlink"><linearGradient id="a" gradientUnits="userSpaceOnUse" x1=".000375" x2="512.000375" y1="256.00075" y2="256.00075"><stop offset="0" stop-color="#80d8ff"/><stop offset="1" stop-color="#ea80fc"/></linearGradient><path d="m92.570312 260.417969c-34-34-52.722656-79.199219-52.722656-127.28125 0-48.078125 18.722656-93.28125 52.722656-127.277344 7.808594-7.8125 20.472657-7.8125 28.28125 0 7.8125 7.808594 7.8125 20.472656 0 28.285156-26.441406 26.441407-41.003906 61.597657-41.003906 98.992188s14.5625 72.550781 41.003906 98.992187c7.8125 7.8125 7.8125 20.476563 0 28.285156-7.808593 7.8125-20.472656 7.8125-28.28125.003907zm339.582032-127.28125c0 37.398437-14.5625 72.554687-41.003906 98.996093-7.8125 7.808594-7.8125 20.472657-.003907 28.28125 7.808594 7.808594 20.472657 7.816407 28.285157.003907 34-34 52.722656-79.199219 52.722656-127.28125 0-48.078125-18.722656-93.28125-52.722656-127.277344-7.808594-7.8125-20.472657-7.8125-28.28125 0-7.8125 7.808594-7.8125 20.472656 0 28.285156 26.441406 26.441407 41.003906 61.597657 41.003906 98.992188zm-280.292969 84.851562c7.808594 7.8125 20.472656 7.8125 28.28125.003907 7.8125-7.8125 7.8125-20.476563 0-28.285157-15.109375-15.109375-23.429687-35.199219-23.429687-56.570312 0-21.367188 8.320312-41.457031 23.429687-56.566407 7.8125-7.8125 7.8125-20.472656 0-28.285156-7.808594-7.808594-20.472656-7.808594-28.28125 0-22.664063 22.664063-35.148437 52.800782-35.148437 84.855469 0 32.050781 12.484374 62.183594 35.148437 84.847656zm203.429687-84.851562c0 21.371093-8.320312 41.460937-23.433593 56.570312-7.808594 7.808594-7.808594 20.472657 0 28.285157 7.8125 7.808593 20.476562 7.808593 28.285156 0 22.667969-22.667969 35.148437-52.800782 35.148437-84.855469 0-32.054688-12.480468-62.1875-35.148437-84.851563-7.808594-7.8125-20.472656-7.8125-28.285156 0-7.808594 7.8125-7.808594 20.472656.003906 28.285156 15.109375 15.109376 23.429687 35.199219 23.429687 56.566407zm-43.289062 274.363281c-13.804688 0-25 11.195312-25 25 0 13.808594 11.195312 25 25 25 13.808594 0 25-11.191406 25-25 0-13.804688-11.191406-25-25-25zm-113 0c-13.804688 0-25 11.195312-25 25 0 13.808594 11.195312 25 25 25 13.808594 0 25-11.191406 25-25 0-13.804688-11.191406-25-25-25zm313 84.5c0 11.046875-8.953125 20-20 20h-472c-11.046875 0-20-8.953125-20-20 0-76.644531 62.355469-139 139-139h97v-163.304688c-23.277344-8.253906-40-30.484374-40-56.558593 0-33.082031 26.917969-60 60-60 33.085938 0 60 26.917969 60 60 0 26.074219-16.722656 48.304687-40 56.558593v163.304688h97c76.644531 0 139 62.355469 139 139zm-276-358.863281c0 11.027343 8.972656 20 20 20s20-8.972657 20-20c0-11.027344-8.972656-20-20-20s-20 8.972656-20 20zm233.96875 338.863281c-9.273438-45.03125-49.230469-79-96.96875-79h-234c-47.738281 0-87.695312 33.96875-96.96875 79zm0 0" fill="url(#a)"/></svg>