<svg xmlns="http://www.w3.org/2000/svg" width="18" height="13.5" viewBox="0 0 18 13.5">
  <defs>
    <style>
      .cls-1 {
        fill: #6ab4ba;
      }
    </style>
  </defs>
  <path id="email" class="cls-1" d="M16.312,59.882H1.688A1.689,1.689,0,0,0,0,61.57V71.695a1.689,1.689,0,0,0,1.688,1.688H16.312A1.689,1.689,0,0,0,18,71.695V61.57A1.689,1.689,0,0,0,16.312,59.882Zm0,1.125a.559.559,0,0,1,.216.044L9,67.575,1.472,61.051a.56.56,0,0,1,.216-.044Zm0,11.25H1.688a.563.563,0,0,1-.563-.563V62.239l7.506,6.506a.563.563,0,0,0,.737,0l7.506-6.506v9.455A.563.563,0,0,1,16.312,72.257Z" transform="translate(0 -59.882)"/>
</svg>
