<svg id="_x33_0" enable-background="new 0 0 64 64" height="512" viewBox="0 0 64 64" width="512" xmlns="http://www.w3.org/2000/svg" xmlns:xlink="http://www.w3.org/1999/xlink"><linearGradient id="SVGID_1_" gradientUnits="userSpaceOnUse" x1="32" x2="32" y1="63" y2="1"><stop offset="0" stop-color="#9f2fff"/><stop offset="1" stop-color="#0bb1d3"/></linearGradient><path d="m17 36h2v2h-2zm4 0v2h2v-2zm-8 2h2v-2h-2zm12-33h-14v2h14zm0 4h-14v2h14zm0 4h-14v2h14zm-10 4h-4v2h4zm2 2h8v-2h-8zm8 2h-14v2h14zm-20 32h-2v2h2zm4 0h-2v2h2zm4 0h-2v2h2zm23-40c-.552 0-1 .448-1 1s.448 1 1 1 1-.448 1-1-.448-1-1-1zm-15.556 37.556c-.256 0-.512.098-.707.293-.391.391-.391 1.024 0 1.414.195.195.451.293.707.293s.512-.098.707-.293c.391-.391.391-1.024 0-1.414-.195-.195-.451-.293-.707-.293zm15.556 6.444c-.552 0-1 .448-1 1s.448 1 1 1 1-.448 1-1-.448-1-1-1zm15.556-6.444c-.256 0-.512.098-.707.293-.391.391-.391 1.024 0 1.414.195.195.451.293.707.293s.512-.098.707-.293c.391-.391.391-1.024 0-1.414-.195-.195-.451-.293-.707-.293zm6.444-15.556c-.552 0-1 .448-1 1s.448 1 1 1 1-.448 1-1-.448-1-1-1zm-6.444-15.556c-.256 0-.512.098-.707.293-.391.391-.391 1.024 0 1.414.195.195.451.293.707.293s.512-.098.707-.293c.391-.391.391-1.024 0-1.414-.195-.196-.451-.293-.707-.293zm8.355 9.556h3.089v14h-3.089c-1.166 0-2.207.697-2.651 1.776-.469 1.128-.226 2.358.598 3.182l2.184 2.184-9.899 9.899-2.184-2.184c-.824-.824-2.055-1.067-3.132-.618-1.13.466-1.827 1.507-1.827 2.672v3.089h-14v-3.089c0-1.166-.697-2.207-1.776-2.651-1.128-.468-2.358-.225-3.182.598l-2.184 2.184-9.042-9.042h-9.816v-2h10.101l1.042-1.042c.279-.279.486-.607.627-.958h-11.77v-2h11.819c-.02-.058-.034-.118-.058-.175-.466-1.128-1.507-1.825-2.672-1.825h-9.089c-1.103 0-2-.897-2-2v-19.415c0-.721.391-1.389 1.02-1.743l2.98-1.677v-15.165c0-1.103.897-2 2-2h22c1.103 0 2 .897 2 2v6h12v3.089c0 1.166.697 2.207 1.776 2.651 1.13.469 2.358.226 3.182-.598l2.184-2.184 9.899 9.899-2.184 2.184c-.824.824-1.066 2.053-.618 3.133.466 1.129 1.507 1.826 2.672 1.826zm-38.269.099 11.358 10.6v-16.989zm10.318-8.099-.96-.54v1.08zm1.04 22h-7.948c2.369 3.688 6.505 6 10.948 6 7.168 0 13-5.832 13-13s-5.832-13-13-13c-.333 0-.667.015-1 .04v17.96c0 1.103-.897 2-2 2zm-12.493 0c2.728 6.035 8.782 10 15.493 10 9.374 0 17-7.626 17-17s-7.626-17-17-17c-1.021 0-2.03.099-3.023.277l1.003.564c.465.262.798.697.94 1.197.36-.025.721-.038 1.08-.038 8.271 0 15 6.729 15 15s-6.729 15-15 15c-5.546 0-10.676-3.123-13.259-8zm-13.507-40v19.665l8.932 5.024c1.211-.86 2.925-.86 4.136 0l8.932-5.024v-19.665zm-4 19.71v16.989l11.358-10.6zm2-2.25-.96.54.96.54zm26.464 20.54-12.415-11.587c-.571-.533-1.527-.533-2.097 0l-12.415 11.587zm29.536-10h-1.089c-1.979 0-3.745-1.183-4.5-3.013-.779-1.875-.366-3.961 1.032-5.359l.77-.77-7.071-7.071-.77.77c-1.398 1.397-3.485 1.811-5.314 1.051-1.875-.774-3.058-2.54-3.058-4.519v-1.089h-10v6.679c1.624-.442 3.298-.679 5-.679 10.477 0 19 8.523 19 19s-8.523 19-19 19c-7.799 0-14.795-4.797-17.653-12h-2.34c.227.311.429.645.581 1.013.779 1.875.366 3.96-1.032 5.359l-.77.77 7.071 7.071.77-.77c1.399-1.398 3.485-1.811 5.314-1.051 1.876.774 3.059 2.54 3.059 4.519v1.089h10v-1.089c0-1.979 1.183-3.745 3.013-4.5 1.876-.778 3.961-.366 5.359 1.032l.77.77 7.071-7.071-.77-.77c-1.398-1.398-1.811-3.484-1.051-5.314.774-1.875 2.54-3.058 4.519-3.058h1.089z" fill="url(#SVGID_1_)"/></svg>