<svg id="Layer_5" enable-background="new 0 0 64 64" height="512" viewBox="0 0 64 64" width="512" xmlns="http://www.w3.org/2000/svg" xmlns:xlink="http://www.w3.org/1999/xlink"><linearGradient id="SVGID_1_" gradientUnits="userSpaceOnUse" x1="32" x2="32" y1="63" y2="1"><stop offset="0" stop-color="#9f2fff"/><stop offset="1" stop-color="#0bb1d3"/></linearGradient><path d="m11 12v2c-.551 0-1 .448-1 1h-2c0-1.654 1.346-3 3-3zm18 18c.551 0 1 .448 1 1h2c0-1.654-1.346-3-3-3zm-5-1v2c.551 0 1 .448 1 1h2c0-1.654-1.346-3-3-3zm-10 10v2c1.654 0 3-1.346 3-3h-2c0 .552-.449 1-1 1zm1-6c-.551 0-1-.448-1-1h-2c0 1.654 1.346 3 3 3zm11-21h2c0-1.654-1.346-3-3-3v2c.551 0 1 .448 1 1zm-2 4h2c0-1.654-1.346-3-3-3v2c.551 0 1 .448 1 1zm-9 3c-.551 0-1-.448-1-1h-2c0 1.654 1.346 3 3 3zm9 18h-2c0 1.654 1.346 3 3 3v-2c-.551 0-1-.448-1-1zm-9-28v-2c-.551 0-1-.448-1-1h-2c0 1.654 1.346 3 3 3zm34 45c0-2.757 2.243-5 5-5s5 2.243 5 5-2.243 5-5 5-5-2.243-5-5zm2 0c0 1.654 1.346 3 3 3s3-1.346 3-3-1.346-3-3-3-3 1.346-3 3zm6-53h6v14h-16-2-1c-.551 0-1 .448-1 1v5c0 1.654-1.346 3-3 3h-1.073c-.295 2.041-1.483 3.854-3.236 4.944.2.65.309 1.341.309 2.056 0 2.357-1.171 4.521-3.104 5.813.069.393.104.791.104 1.187 0 1.958-.81 3.728-2.111 5h8.111c.551 0 1-.448 1-1v-6c0-1.654 1.346-3 3-3h5.375c-2.445-1.955-3.705-4.998-3.299-8.179.515-4.04 3.829-7.305 7.88-7.763 2.561-.287 5.13.521 7.039 2.228 1.909 1.706 3.005 4.153 3.005 6.714 0 3.073-1.547 5.903-4.138 7.569-.54.347-.862.96-.862 1.64v1.791c0 2.206-1.794 4-4 4s-4-1.794-4-4v-1.75c0-.086-.019-.166-.029-.25h-6.971c-.551 0-1 .448-1 1v6c0 1.654-1.346 3-3 3h-13c-1.959 0-3.728-.815-5-2.117v3.117c0 1.654-1.346 3-3 3h-14c-.551 0-1 .448-1 1s.449 1 1 1h18.171c.801 0 1.555.313 2.122.879l.828.828c.189.189.441.293.708.293h19.171v-1.701l1.321-.479-.595-1.273 3.82-3.82 1.273.596.48-1.323h5.401l.48 1.321 1.273-.596 3.82 3.82-.595 1.273 1.322.481v5.402l-1.321.479.595 1.273-3.82 3.82-1.273-.596-.48 1.323h-5.401l-.48-1.321-1.273.596-3.82-3.82.595-1.273-1.322-.481v-1.701h-19.171c-.801 0-1.555-.313-2.122-.879l-.828-.828c-.189-.189-.441-.293-.708-.293h-18.171c-1.654 0-3-1.346-3-3s1.346-3 3-3h14c.551 0 1-.448 1-1v-3.117c-1.272 1.302-3.041 2.117-5 2.117-3.86 0-7-3.141-7-7 0-.399.045-.793.111-1.184-1.874-1.257-3.111-3.395-3.111-5.816 0-.707.111-1.395.316-2.059-1.987-1.237-3.316-3.434-3.316-5.941 0-2.438 1.275-4.678 3.309-5.944-.2-.65-.309-1.341-.309-2.056 0-2.357 1.171-4.521 3.104-5.813-.069-.393-.104-.791-.104-1.187 0-3.859 3.14-7 7-7 2.543 0 4.774 1.363 6 3.397 1.226-2.034 3.457-3.397 6-3.397 3.86 0 7 3.141 7 7 0 .399-.045.794-.111 1.184 1.874 1.257 3.111 3.395 3.111 5.816 0 .707-.111 1.395-.316 2.059 1.717 1.069 2.935 2.856 3.236 4.941h1.08c.551 0 1-.448 1-1v-5c0-1.654 1.346-3 3-3h1v-6h4v-2h4v-2h4zm-10 54.299 1.246.453.447 1.077-.562 1.201 1.837 1.838 1.198-.56 1.031.425.204.443.3.824h2.599l.453-1.246 1.081-.445 1.198.56 1.837-1.838-.562-1.201.423-1.019.447-.212.823-.3v-2.598l-1.246-.453-.447-1.077.562-1.201-1.837-1.838-1.2.56-1.031-.426-.203-.442-.299-.824h-2.599l-.453 1.246-1.08.445-1.2-.56-1.837 1.838.562 1.201-.423 1.019-.447.212-.822.3zm9-18.299h-4c0 1.103.897 2 2 2s2-.897 2-2zm-2-10c.551 0 1-.448 1-1s-.449-1-1-1-1 .448-1 1 .449 1 1 1zm-3.764 4.897c1.037.663 1.675 1.812 1.749 3.103h1.015v-6.184c-1.161-.414-2-1.514-2-2.816 0-1.654 1.346-3 3-3s3 1.346 3 3c0 1.302-.839 2.402-2 2.816v6.184h1.013c.065-1.28.71-2.434 1.768-3.112 2.015-1.297 3.219-3.498 3.219-5.888 0-1.991-.853-3.895-2.339-5.223-1.3-1.161-2.927-1.778-4.652-1.778-.274 0-.551.016-.829.048-3.146.355-5.72 2.891-6.12 6.027-.349 2.735.868 5.349 3.176 6.823zm-31.236 6.103v-30c0-2.757-2.243-5-5-5s-5 2.243-5 5c0 .465.068.935.202 1.396l.229.788-.729.379c-1.666.865-2.702 2.565-2.702 4.437 0 2.757 2.243 5 5 5v2c-2.424 0-4.564-1.24-5.82-3.118-1.344.922-2.18 2.453-2.18 4.118 0 2.757 2.243 5 5 5s5-2.243 5-5h2c0 3.859-3.14 7-7 7-.636 0-1.25-.093-1.836-.252-.105.406-.164.824-.164 1.252 0 2.757 2.243 5 5 5v2c-.688 0-1.351-.104-1.98-.29-.005.097-.02.193-.02.29 0 2.757 2.243 5 5 5s5-2.243 5-5zm18-15c0-2.757-2.243-5-5-5s-5 2.243-5 5h-2c0-3.859 3.14-7 7-7 .636 0 1.25.093 1.836.252.105-.406.164-.824.164-1.252 0-2.757-2.243-5-5-5v-2c.688 0 1.351.104 1.98.29.005-.097.02-.193.02-.29 0-2.757-2.243-5-5-5s-5 2.243-5 5v30c0 2.757 2.243 5 5 5s5-2.243 5-5c0-.465-.068-.935-.202-1.396l-.229-.788.729-.379c1.666-.865 2.702-2.565 2.702-4.437 0-2.757-2.243-5-5-5v-2c2.424 0 4.564 1.24 5.821 3.118 1.343-.922 2.179-2.453 2.179-4.118zm14-16v6h2v-6zm-4 6h2v-4h-2zm10 0v-8h-2v8zm2 0h2v-10h-2z" fill="url(#SVGID_1_)"/></svg>