<svg id="Layer_2" height="512" viewBox="0 0 128 128" width="512" xmlns="http://www.w3.org/2000/svg" xmlns:xlink="http://www.w3.org/1999/xlink" data-name="Layer 2"><linearGradient id="linear-gradient" gradientUnits="userSpaceOnUse" x1="103.691" x2="24.319" y1="100.169" y2="20.797"><stop offset="0" stop-color="#06daf7"/><stop offset="1" stop-color="#ff6ca8"/></linearGradient><path d="m101.083 100.12a1.75 1.75 0 0 1 .128 2.472c-.588.651-1.211 1.286-1.853 1.887a1.75 1.75 0 0 1 -2.393-2.555c.57-.534 1.124-1.1 1.646-1.677a1.752 1.752 0 0 1 2.472-.127zm8.167-18.454a31.036 31.036 0 0 1 -2.457 12.165 1.75 1.75 0 1 1 -3.223-1.363 27.508 27.508 0 0 0 2.126-9.051h-8.196a27.786 27.786 0 0 0 -27.5 24.071l16.7-12.474a1.75 1.75 0 1 1 2.094 2.8l-15.529 11.6h4.735a27.507 27.507 0 0 0 11.66-2.561 1.75 1.75 0 1 1 1.473 3.175 30.981 30.981 0 0 1 -13.133 2.889h-8.25v13.333a1.75 1.75 0 0 1 -1.75 1.75h-8a1.75 1.75 0 0 1 -1.75-1.75v-13.333h-8.25a31.285 31.285 0 0 1 -31.25-31.25 1.75 1.75 0 0 1 1.75-1.75h10a31.275 31.275 0 0 1 27.75 16.907v-21.772h-7.323a1.751 1.751 0 0 1 -1.567-.971l-10.008-20.137a1.753 1.753 0 0 1 -.183-.779v-18.386h-3.482a1.75 1.75 0 0 1 -1.75-1.75v-8.452a1.75 1.75 0 0 1 1.75-1.75h7.23v-19.077a3.754 3.754 0 0 1 3.75-3.75h4a3.754 3.754 0 0 1 3.75 3.75v3.25a1.75 1.75 0 0 1 -3.5 0v-3.25a.25.25 0 0 0 -.25-.25h-4a.25.25 0 0 0 -.25.25v19.077h4.5v-7.91a1.75 1.75 0 0 1 3.5 0v7.91h19.166v-19.077a3.754 3.754 0 0 1 3.75-3.75h4a3.754 3.754 0 0 1 3.75 3.75v19.077h7.229a1.75 1.75 0 0 1 1.75 1.75v8.453a1.75 1.75 0 0 1 -1.75 1.75h-3.481v18.386a1.753 1.753 0 0 1 -.183.779l-10.007 20.136a1.751 1.751 0 0 1 -1.567.971h-7.324v21.772a31.275 31.275 0 0 1 27.75-16.907h10a1.75 1.75 0 0 1 1.75 1.75zm-32.167-58.839h4.5v-19.077a.25.25 0 0 0 -.25-.25h-4a.25.25 0 0 0 -.25.25zm-39.646 8.452h53.125v-4.952h-53.125zm14.574 40.273h23.978l9.342-18.8v-17.973h-4.248v10.721a1.75 1.75 0 0 1 -3.5 0v-10.721h-27.166v10.721a1.75 1.75 0 0 1 -3.5 0v-10.721h-4.248v17.975zm-2.011 37.865h4.732l-15.532-11.598a1.75 1.75 0 1 1 2.094-2.8l16.706 12.469a27.786 27.786 0 0 0 -27.5-24.071h-8.2a27.785 27.785 0 0 0 27.7 26zm16.25-34.365h-4.5v49.448h4.5zm3.675-21.052a1.75 1.75 0 0 0 -1.237-2.987h-4.338l5.575-5.575a1.75 1.75 0 0 0 -2.475-2.475l-8.562 8.563a1.75 1.75 0 0 0 1.237 2.987h4.338l-6.388 6.387a1.75 1.75 0 1 0 2.475 2.475z" fill="url(#linear-gradient)"/></svg>