<?xml version="1.0"?>
<svg xmlns="http://www.w3.org/2000/svg" xmlns:xlink="http://www.w3.org/1999/xlink" id="Layer_2" data-name="Layer 2" viewBox="0 0 128 128" width="512" height="512"><defs><linearGradient id="linear-gradient" x1="123.666" y1="131.309" x2="4.334" y2="11.976" gradientUnits="userSpaceOnUse"><stop offset="0" stop-color="#06daf7"/><stop offset="1" stop-color="#ff6ca8"/></linearGradient></defs><title>PLANT</title><path d="M48.885,31.93a1.75,1.75,0,0,1,1.75-1.75h2.142a1.75,1.75,0,0,1,0,3.5H50.635A1.75,1.75,0,0,1,48.885,31.93Zm-43-18.523a7.228,7.228,0,0,1,7.22-7.22h1.08V5.146a5.145,5.145,0,1,1,10.29,0V6.187h1.079a7.229,7.229,0,0,1,7.221,7.22,1.75,1.75,0,0,1-1.75,1.75h-6.55v6.724h2.249a1.75,1.75,0,0,1,1.75,1.75v4.911l15.359-10.9a1.749,1.749,0,0,1,1.013-.323h38.3a1.749,1.749,0,0,1,1.013.323l15.359,10.9V23.631a1.75,1.75,0,0,1,1.75-1.75h2.249V15.157h-6.55a1.75,1.75,0,0,1-1.75-1.75,7.229,7.229,0,0,1,7.221-7.22h1.079V5.146a5.145,5.145,0,1,1,10.29,0V6.187h1.08a7.228,7.228,0,0,1,7.22,7.22,1.75,1.75,0,0,1-1.75,1.75h-6.55v6.724h2.249a1.75,1.75,0,0,1,1.75,1.75V53.2a1.751,1.751,0,0,1-.377,1.085l-2.863,3.625a1.751,1.751,0,0,1-1.373.665h-9.062a1.751,1.751,0,0,1-1.373-.665L99.9,54.289a1.751,1.751,0,0,1-.377-1.085V50.279H85.575L77.039,61.438a1.75,1.75,0,0,1-1.39.687h-23.3a1.75,1.75,0,0,1-1.39-.687L42.425,50.279H28.478V53.2a1.751,1.751,0,0,1-.377,1.085l-2.863,3.625a1.751,1.751,0,0,1-1.373.665H14.8a1.751,1.751,0,0,1-1.373-.665l-2.863-3.625a1.751,1.751,0,0,1-.377-1.085V23.631a1.75,1.75,0,0,1,1.75-1.75h2.249V15.157H7.639A1.75,1.75,0,0,1,5.889,13.407ZM24.978,31.681H13.689V52.6l1.961,2.482h7.366L24.978,52.6Zm56.191,18.6H73.446v3.305a1.75,1.75,0,0,1-3.5,0V50.279h-4.2v3.305a1.75,1.75,0,0,1-3.5,0V50.279h-4.2v3.305a1.75,1.75,0,0,1-3.5,0V50.279H46.831l6.384,8.346h21.57ZM114.311,52.6V31.681H103.022V52.6l1.961,2.482h7.366ZM107.021,6.187h3.29V5.146a1.645,1.645,0,1,0-3.29,0Zm-7.862,5.47h19.015a3.724,3.724,0,0,0-3.282-1.97H102.442A3.726,3.726,0,0,0,99.159,11.657Zm7.862,10.224h3.29V15.157h-3.29Zm-4,3.5v2.8h11.288v-2.8H103.022Zm-70.807,4.8H42.623a1.75,1.75,0,0,1,0,3.5H28.478v13.1H99.522V33.68H60.788a1.75,1.75,0,0,1,0-3.5h35L82.593,20.816H45.407Zm-7.238-4.8H13.689v2.8H24.978Zm-4-10.224h-3.29v6.724h3.29Zm-3.29-8.97h3.29V5.146a1.645,1.645,0,1,0-3.29,0Zm-7.862,5.47H28.841a3.726,3.726,0,0,0-3.283-1.97H13.108A3.724,3.724,0,0,0,9.826,11.657ZM38.332,40.229a1.75,1.75,0,0,0,1.75,1.75H66.565a1.75,1.75,0,0,0,0-3.5H40.082A1.75,1.75,0,0,0,38.332,40.229Zm35.023,1.75h4.6a1.75,1.75,0,0,0,0-3.5h-4.6a1.75,1.75,0,0,0,0,3.5Zm9.96,0h4.6a1.75,1.75,0,0,0,0-3.5h-4.6a1.75,1.75,0,0,0,0,3.5ZM128,114.753v11.5a1.75,1.75,0,0,1-1.75,1.75H114.667a1.75,1.75,0,1,1,0-3.5H124.5v-8h-3.875a5.243,5.243,0,0,1-3.412-1.263l-6.465-5.545a7.374,7.374,0,0,0-4.8-1.775h-8.4a7.372,7.372,0,0,0-4.8,1.776l-6.465,5.544a5.376,5.376,0,0,1-6.824,0L73,109.7a7.374,7.374,0,0,0-4.8-1.775H59.8A7.372,7.372,0,0,0,55,109.7l-6.465,5.544a5.376,5.376,0,0,1-6.824,0L35.248,109.7a7.374,7.374,0,0,0-4.8-1.775h-8.4a7.372,7.372,0,0,0-4.8,1.776l-6.465,5.544A5.243,5.243,0,0,1,7.375,116.5H3.5v8h98.417a1.75,1.75,0,0,1,0,3.5H1.75A1.75,1.75,0,0,1,0,126.25v-11.5A1.75,1.75,0,0,1,1.75,113H7.375a1.74,1.74,0,0,0,1.133-.419l6.465-5.545a10.878,10.878,0,0,1,7.077-2.619h2.283v-3.836H21.75A10.846,10.846,0,0,1,10.916,89.75,1.75,1.75,0,0,1,12.666,88H17a10.779,10.779,0,0,1,7.333,2.882V86.121a1.75,1.75,0,0,1,3.5,0v4.761A10.779,10.779,0,0,1,35.166,88H39.5a1.75,1.75,0,0,1,1.75,1.75,10.846,10.846,0,0,1-10.834,10.833H27.833v3.836H30.45a10.878,10.878,0,0,1,7.077,2.619l6.465,5.545a1.787,1.787,0,0,0,2.266,0l6.465-5.545A10.878,10.878,0,0,1,59.8,104.42h2.45v-3.836H59.667A10.846,10.846,0,0,1,48.833,89.75,1.75,1.75,0,0,1,50.583,88h4.334a10.779,10.779,0,0,1,7.333,2.882V86.121a1.75,1.75,0,0,1,3.5,0v4.761A10.779,10.779,0,0,1,73.083,88h4.334a1.75,1.75,0,0,1,1.75,1.75,10.846,10.846,0,0,1-10.834,10.833H65.75v3.836H68.2a10.878,10.878,0,0,1,7.077,2.619l6.465,5.545a1.787,1.787,0,0,0,2.266,0l6.465-5.545a10.878,10.878,0,0,1,7.077-2.619h2.617v-3.836H97.584A10.846,10.846,0,0,1,86.75,89.75,1.75,1.75,0,0,1,88.5,88h4.334a10.779,10.779,0,0,1,7.333,2.882V86.121a1.75,1.75,0,0,1,3.5,0v4.761A10.779,10.779,0,0,1,111,88h4.334a1.75,1.75,0,0,1,1.75,1.75,10.846,10.846,0,0,1-10.834,10.833h-2.583v3.836h2.283a10.878,10.878,0,0,1,7.077,2.619l6.465,5.545a1.74,1.74,0,0,0,1.133.419h5.625A1.75,1.75,0,0,1,128,114.753ZM103.878,97.083h2.372a7.347,7.347,0,0,0,7.123-5.583H111A7.347,7.347,0,0,0,103.878,97.083Zm-3.922,0A7.347,7.347,0,0,0,92.834,91.5H90.461a7.347,7.347,0,0,0,7.123,5.583Zm-34,0h2.372A7.347,7.347,0,0,0,75.456,91.5H73.083A7.347,7.347,0,0,0,65.961,97.083Zm-3.922,0A7.347,7.347,0,0,0,54.917,91.5H52.544a7.347,7.347,0,0,0,7.123,5.583Zm-34,0h2.372A7.347,7.347,0,0,0,37.539,91.5H35.166A7.347,7.347,0,0,0,28.044,97.083Zm-3.922,0A7.347,7.347,0,0,0,17,91.5H14.627a7.347,7.347,0,0,0,7.123,5.583ZM44.58,66.6l-2.352,2.9a1.75,1.75,0,1,0,2.719,2.2L47.3,68.8a1.75,1.75,0,1,0-2.719-2.2Zm16.024,0-2.352,2.9a1.75,1.75,0,1,0,2.719,2.2l2.352-2.9A1.75,1.75,0,1,0,60.6,66.6Zm16.024,0-2.352,2.9A1.75,1.75,0,1,0,77,71.7l2.352-2.9a1.75,1.75,0,1,0-2.719-2.2ZM52.593,75.808l-2.352,2.9a1.75,1.75,0,1,0,2.719,2.2l2.352-2.9a1.75,1.75,0,1,0-2.719-2.2Zm16.023,0-2.352,2.9a1.75,1.75,0,1,0,2.719,2.2l2.352-2.9a1.75,1.75,0,1,0-2.719-2.2Zm16.024,0-2.352,2.9a1.75,1.75,0,1,0,2.719,2.2l2.352-2.9a1.75,1.75,0,1,0-2.719-2.2Z" style="fill:url(#linear-gradient)"/></svg>
