<svg id="Layer_2" height="512" viewBox="0 0 128 128" width="512" xmlns="http://www.w3.org/2000/svg" xmlns:xlink="http://www.w3.org/1999/xlink" data-name="Layer 2"><linearGradient id="linear-gradient" gradientUnits="userSpaceOnUse" x1="111.737" x2="16.263" y1="99.467" y2="3.992"><stop offset="0" stop-color="#06daf7"/><stop offset="1" stop-color="#ff6ca8"/></linearGradient><path d="m126.25 19.229h-17.308v-7.444a3.769 3.769 0 0 0 -3.765-3.765h-33.243a3.769 3.769 0 0 0 -3.765 3.765v7.444h-66.419a1.75 1.75 0 0 0 -1.75 1.75v61.5a1.75 1.75 0 0 0 1.75 1.75h48.25v21h-4.809a1.751 1.751 0 0 0 -1.308.587l-5 5.625a1.749 1.749 0 0 0 -.442 1.163v5.625a1.75 1.75 0 0 0 1.75 1.75h47.622a1.75 1.75 0 0 0 1.75-1.75v-5.629a1.749 1.749 0 0 0 -.442-1.163l-5-5.625a1.751 1.751 0 0 0 -1.308-.587h-4.813v-3.9a1.75 1.75 0 0 0 -3.5 0v3.9h-21v-21h3.813v9.188a6.687 6.687 0 1 0 13.375 0v-9.184h3.812v8.438a1.75 1.75 0 0 0 3.5 0v-8.438h48.25a1.75 1.75 0 0 0 1.75-1.75v-61.5a1.75 1.75 0 0 0 -1.75-1.75zm-50 89.5h5.773l4.04 4.541v3.209h-44.125v-3.209l4.04-4.541zm-4.316-38a.266.266 0 0 1 -.265-.265v-7.918h33.773v7.919a.265.265 0 0 1 -.265.265zm13.834-17.46a1.751 1.751 0 0 0 2.445-.385l4.458-6.125a1.78 1.78 0 0 0 0-2.061l-4.458-6.125a1.75 1.75 0 0 0 -2.83 2.061l2.435 3.345h-16.149v-21.25h33.773v36.317h-33.773v-11.567h16.149l-2.435 3.345a1.75 1.75 0 0 0 .385 2.445zm23.174 17.2v-37.74h5.558v38h-5.567c.006-.087.009-.175.009-.264zm-37.273-58.684a.266.266 0 0 1 .265-.265h33.244a.265.265 0 0 1 .265.265v7.444h-33.774zm-4.481 81.632a3.188 3.188 0 0 1 -6.375 0v-9.188h6.375zm57.312-12.688h-121v-58h64.669v6.5h-56.419a1.75 1.75 0 0 0 -1.75 1.75v41.5a1.75 1.75 0 0 0 1.75 1.75h15.125a1.75 1.75 0 0 0 0-3.5h-13.375v-38h54.669v11.25h-28.605l2.436-3.345a1.75 1.75 0 0 0 -2.83-2.061l-4.46 6.127a1.78 1.78 0 0 0 0 2.061l4.458 6.125a1.75 1.75 0 0 0 2.832-2.063l-2.435-3.345h28.604s0 23.163.009 23.251h-23.3a1.75 1.75 0 0 0 0 3.5h71.372a1.75 1.75 0 0 0 1.75-1.75v-41.5a1.75 1.75 0 0 0 -1.75-1.75h-7.308v-6.5h15.558zm-30.511-14.091a1.75 1.75 0 0 1 -1.75 1.75h-7.366a1.75 1.75 0 0 1 0-3.5h7.367a1.75 1.75 0 0 1 1.749 1.75zm10.235-51.025a1.75 1.75 0 0 1 -1.75 1.75h-2.074a1.75 1.75 0 1 1 0-3.5h2.078a1.75 1.75 0 0 1 1.746 1.749zm-65.474 56.866a1.75 1.75 0 0 1 -1.75 1.75h-2.25a1.75 1.75 0 0 1 0-3.5h2.25a1.75 1.75 0 0 1 1.75 1.75z" fill="url(#linear-gradient)"/></svg>