<svg id="Transportation-equipment" xmlns="http://www.w3.org/2000/svg" xmlns:xlink="http://www.w3.org/1999/xlink" width="68.356" height="36.705" viewBox="0 0 68.356 36.705">
  <defs>
    <style>
      .cls-1 {
        fill: url(#linear-gradient);
      }

      .cls-2 {
        fill: url(#linear-gradient-2);
      }

      .cls-3 {
        fill: url(#linear-gradient-3);
      }

      .cls-4 {
        fill: url(#linear-gradient-4);
      }

      .cls-5 {
        fill: url(#linear-gradient-5);
      }

      .cls-6 {
        fill: url(#linear-gradient-6);
      }

      .cls-7 {
        fill: url(#linear-gradient-7);
      }
    </style>
    <linearGradient id="linear-gradient" x1="-0.001" y1="0.498" x2="1" y2="0.498" gradientUnits="objectBoundingBox">
      <stop offset="0" stop-color="#556366"/>
      <stop offset="0.998" stop-color="#556366"/>
    </linearGradient>
    <linearGradient id="linear-gradient-2" x1="0" y1="0.498" y2="0.498" xlink:href="#linear-gradient"/>
    <linearGradient id="linear-gradient-3" x1="0" y1="0.498" x2="0.999" y2="0.498" xlink:href="#linear-gradient"/>
    <linearGradient id="linear-gradient-4" x1="0" y1="0.49" x2="1.001" y2="0.49" xlink:href="#linear-gradient"/>
    <linearGradient id="linear-gradient-5" x1="0.004" y1="0.499" x2="1.009" y2="0.499" xlink:href="#linear-gradient"/>
    <linearGradient id="linear-gradient-6" x1="0" y1="0.501" y2="0.501" xlink:href="#linear-gradient"/>
    <linearGradient id="linear-gradient-7" x1="0" y1="0.5" y2="0.5" xlink:href="#linear-gradient"/>
  </defs>
  <g id="Group_15068" data-name="Group 15068" transform="translate(25.958 10.839)">
    <rect id="Rectangle_357" data-name="Rectangle 357" class="cls-1" width="13.298" height="5.966" transform="translate(13.571)"/>
    <rect id="Rectangle_358" data-name="Rectangle 358" class="cls-2" width="12.751" height="5.966"/>
  </g>
  <g id="Group_15069" data-name="Group 15069" transform="translate(0 15.711)">
    <path id="Path_51174" data-name="Path 51174" class="cls-3" d="M62.041,68.2c-1.23,0-2.5,3.142-3.825,3.142H8.259v7.7s1.321.41,1.366.455c.455.455-2.732,0-1.822.911l4.1,3.188.911-.911s.638.774.911,1.047l.091.091a12.325,12.325,0,0,0,1.776,1.366,6.355,6.355,0,0,0,2.095.729,5.6,5.6,0,0,0,2.049.046,4.879,4.879,0,0,0,1.23-.273A6.231,6.231,0,0,0,23.1,84.5c.319-.273.638-.638.956-.956.137-.137.273-.319.41-.455a1.7,1.7,0,0,1,1.047-.455h.091A1.624,1.624,0,0,1,26.657,83c.182.137.364.319.546.455a9.618,9.618,0,0,0,1.639,1.23,6.712,6.712,0,0,0,3.279.774h.091a6.255,6.255,0,0,0,3.416-1.139h0a9.035,9.035,0,0,0,1.731-1.958,5.154,5.154,0,0,1,.455-.592l.364-.5a1.559,1.559,0,0,1,1.275-.592h0a1.624,1.624,0,0,1,1.275.592l.319.41,1.184,1.685a4.534,4.534,0,0,0,1.548,1.366,6.208,6.208,0,0,0,1.867.683h.046a4.7,4.7,0,0,0,1.184.137A6.476,6.476,0,0,0,49.29,85.1,7.932,7.932,0,0,0,51.7,83.5c.137-.137.319-.228.455-.364a1.552,1.552,0,0,1,1-.319h.091a1.483,1.483,0,0,1,1.047.455,2.747,2.747,0,0,0,.364.364A8.417,8.417,0,0,0,56.349,85.1a6.492,6.492,0,0,0,1.275.592c.046,0,.091.046.137.046A27.9,27.9,0,0,0,71.6,69.794a1.639,1.639,0,0,0,.911-1.594Zm-1.093,4.964a.729.729,0,1,1,.729-.729A.719.719,0,0,1,60.948,73.164Zm2.732,0a.729.729,0,1,1,.729-.729A.782.782,0,0,1,63.681,73.164Z" transform="translate(-4.16 -68.2)"/>
    <path id="Path_51175" data-name="Path 51175" class="cls-4" d="M2.277,104.138A6.292,6.292,0,0,1,0,103.227c0,.911,1.822,1.822,2.732,1.822a8.939,8.939,0,0,0,5.92-2.277,8.758,8.758,0,0,0,5.146,2.5,11.08,11.08,0,0,0,1.731.137,10.873,10.873,0,0,0,4.827-1.093,9.031,9.031,0,0,0,.911-.5,1.927,1.927,0,0,0,.319-.228.8.8,0,0,1,.228.182,10.893,10.893,0,0,0,.956.592,12.669,12.669,0,0,0,3.507,1.139,11.82,11.82,0,0,0,1.822.137,10.868,10.868,0,0,0,7.15-2.55,10.591,10.591,0,0,0,4.463,2.231,9.889,9.889,0,0,0,2.6.319,12.423,12.423,0,0,0,1.867-.137,11.351,11.351,0,0,0,3.324-1.047,7.248,7.248,0,0,0,1-.592c.091-.046.182-.137.273-.182l.046-.046a.141.141,0,0,1,.091.046c.046.046.137.091.182.137a7.368,7.368,0,0,0,.82.455,10.8,10.8,0,0,0,4.691,1.138,3.007,3.007,0,0,0,.638-.046,10.9,10.9,0,0,0,3.825-.865,9.475,9.475,0,0,0,1.731-1c.137-.091.5-.364.5-.364a1.816,1.816,0,0,1,.182.137c.046.046.137.046.182.091.273.137.592.319.865.455a10.193,10.193,0,0,0,2.095.638,11.08,11.08,0,0,0,1.731.137h.592v-.046a11.727,11.727,0,0,1-1.822-.364,7.553,7.553,0,0,1-1.412-.546,10.9,10.9,0,0,1-1.548-.956c-.319-.228-.911-.774-.911-.774s-.364.228-.5.319a7.909,7.909,0,0,1-2.049,1.047,10.076,10.076,0,0,1-2.6.5h-.546a8.666,8.666,0,0,1-4.326-1.184,11.186,11.186,0,0,1-2.323-2.049,11.789,11.789,0,0,1-3.279,2.186,9.539,9.539,0,0,1-3.051.546,6.113,6.113,0,0,1-1.594-.182,7.89,7.89,0,0,1-2.323-.865,6.362,6.362,0,0,1-1.913-1.731c-.5-.683-1-1.412-1.5-2.095-.137.182-.273.364-.364.5a13.037,13.037,0,0,1-2.414,2.869,7.513,7.513,0,0,1-4.372,1.457h-.091a8.229,8.229,0,0,1-4.053-1,16.23,16.23,0,0,1-2.414-1.867c-.5.5-.956,1.047-1.5,1.5a7.66,7.66,0,0,1-2.687,1.457,9.354,9.354,0,0,1-1.548.319,7.5,7.5,0,0,1-2.6-.091,8.246,8.246,0,0,1-2.641-.911,15.375,15.375,0,0,1-2.14-1.594C7.286,102.316,3.734,104.138,2.277,104.138Z" transform="translate(0 -84.647)"/>
  </g>
  <path id="Path_51176" data-name="Path 51176" class="cls-5" d="M9.182,78.616l.592,5.556S5.721,81.348,5.4,81.121a2.886,2.886,0,0,1-1-1.639V71.1a1.011,1.011,0,0,1,1-1h4.964a1.011,1.011,0,0,1,1,1v8.744C11.413,80.392,9.728,78.616,9.182,78.616Z" transform="translate(-2.396 -53.523)"/>
  <path id="Path_51177" data-name="Path 51177" class="cls-6" d="M18,51.7v6.512h.911a1.908,1.908,0,0,1,1.822,2.14H34.85V51.7H18Z" transform="translate(-9.803 -43.503)"/>
  <rect id="Rectangle_359" data-name="Rectangle 359" class="cls-7" width="15.484" height="9.973" transform="translate(31.65 0)"/>
</svg>
