<svg id="Group_29842" data-name="Group 29842" xmlns="http://www.w3.org/2000/svg" xmlns:xlink="http://www.w3.org/1999/xlink" width="49.798" height="61.439" viewBox="0 0 49.798 61.439">
  <defs>
    <linearGradient id="linear-gradient" x1="0.5" x2="0.5" y2="1" gradientUnits="objectBoundingBox">
      <stop offset="0" stop-color="#cdafdf"/>
      <stop offset="1" stop-color="#b086cc"/>
    </linearGradient>
  </defs>
  <g id="Group_29674" data-name="Group 29674" transform="translate(7.337 36.345)" opacity="0.2">
    <path id="Path_85752" data-name="Path 85752" d="M84.532,107.874c1.581.912,1.592,2.394.019,3.309l-13.476,7.832a6.3,6.3,0,0,1-5.715,0l-14.043-8.107c-1.583-.915-1.591-2.4-.018-3.312l13.477-7.832a6.3,6.3,0,0,1,5.715,0Z" transform="translate(-50.124 -99.081)"/>
  </g>
  <g id="Group_29682" data-name="Group 29682" transform="translate(10.165 32.755)">
    <path id="Path_85753" data-name="Path 85753" d="M84.979,108.134c0,.033-.006.067-.011.1s-.015.06-.023.09a.92.92,0,0,1-.028.1c-.01.027-.023.054-.034.082s-.032.071-.05.107-.03.049-.046.075-.05.079-.079.119c-.018.023-.037.046-.056.069a2,2,0,0,1-.143.154c-.019.019-.036.037-.056.056s-.069.057-.1.086-.062.051-.1.075-.08.054-.122.081-.083.056-.128.083L72.7,115.979c-.1.058-.209.111-.319.162l-.1.041c-.087.037-.175.07-.267.1-.032.011-.064.023-.1.033-.058.019-.117.035-.176.05-.044.011-.087.024-.132.035-.061.015-.124.027-.185.04-.044.009-.086.019-.132.027-.126.022-.254.04-.384.053l-.121.01c-.077.006-.153.012-.229.015-.049,0-.1,0-.144.005h-.188l-.155,0-.172-.009-.157-.013-.167-.018-.156-.023c-.058-.008-.116-.019-.174-.03l-.144-.029c-.071-.015-.139-.033-.208-.052l-.117-.031c-.124-.036-.246-.077-.363-.122l-.05-.022a3.587,3.587,0,0,1-.458-.219l-11.78-6.8a1.7,1.7,0,0,1-1-1.4l-.011,4.144a1.7,1.7,0,0,0,1,1.4l11.78,6.8a3.588,3.588,0,0,0,.458.219c.011,0,.02.011.032.015l.019.007c.117.046.238.085.363.122l.029.01c.029.008.058.014.088.021.069.019.138.036.208.052l.057.014c.028.006.058.01.086.014.06.011.12.022.18.032.023,0,.046.01.069.011l.078.009c.058.008.115.014.174.02.026,0,.053.007.079.008s.05,0,.075,0l.174.009c.028,0,.057,0,.085,0s.047,0,.069,0c.064,0,.125,0,.188,0,.031,0,.06,0,.091,0l.054,0c.076,0,.153-.01.229-.015l.092-.007.029,0c.129-.013.257-.031.385-.053l.018,0c.039-.006.075-.015.111-.023.062-.012.125-.025.186-.04l.132-.035c.059-.016.118-.032.176-.05l.037-.01c.021-.006.039-.016.059-.023.092-.031.18-.065.267-.1l.1-.04c.11-.05.217-.1.319-.162l11.308-6.571.04-.024c.032-.019.059-.04.088-.059s.083-.053.121-.081.064-.05.1-.075.071-.057.1-.086l.02-.017c.014-.012.022-.025.034-.036.052-.05.1-.1.145-.155.009-.012.023-.023.032-.035v-.006h0v.006c.01-.012.016-.025.026-.037.027-.037.052-.075.075-.112.011-.018.025-.035.036-.053s.007-.018.012-.027c.019-.035.033-.07.048-.105a.659.659,0,0,0,.029-.061c0-.007,0-.014.006-.02.012-.035.02-.069.03-.1s.014-.045.019-.067c0-.006,0-.012,0-.018a1.06,1.06,0,0,0,.012-.112c0-.022.007-.043.007-.065a.241.241,0,0,0,0-.029l.011-4.144C84.987,108.064,84.982,108.1,84.979,108.134Z" transform="translate(-55.111 -99.256)" fill="#dec9eb"/>
    <g id="Group_29676" data-name="Group 29676" transform="translate(0.011)">
      <g id="Group_29675" data-name="Group 29675">
        <path id="Path_85754" data-name="Path 85754" d="M84,100.125c1.329.767,1.334,2.01.016,2.776L72.7,109.472a5.28,5.28,0,0,1-4.792,0l-11.78-6.8c-1.328-.767-1.335-2.011-.018-2.777l11.307-6.571a5.288,5.288,0,0,1,4.8,0Z" transform="translate(-55.131 -92.749)" fill="#8a6ac3"/>
      </g>
    </g>
    <g id="Group_29679" data-name="Group 29679" transform="translate(4.18 2.836)">
      <g id="Group_29678" data-name="Group 29678">
        <g id="Group_29677" data-name="Group 29677">
          <path id="Path_85755" data-name="Path 85755" d="M83.277,103.065a1.056,1.056,0,0,1,.011,2L75.144,109.8a3.806,3.806,0,0,1-3.455,0L63.2,104.9a1.057,1.057,0,0,1-.011-2l8.146-4.734a3.8,3.8,0,0,1,3.454,0Z" transform="translate(-62.481 -97.751)" fill="#d59bed"/>
        </g>
      </g>
    </g>
    <g id="Group_29681" data-name="Group 29681" transform="translate(6.494 5.732)">
      <g id="Group_29680" data-name="Group 29680">
        <path id="Path_85756" data-name="Path 85756" d="M82.952,106.951c.753.425.759,1.115.009,1.541l-6.419,3.646a3.069,3.069,0,0,1-2.723,0l-6.689-3.775c-.754-.425-.758-1.116-.008-1.542l6.419-3.646a3.062,3.062,0,0,1,2.722,0Z" transform="translate(-66.562 -102.857)" fill="#dec9eb"/>
      </g>
    </g>
  </g>
  <path id="Path_85757" data-name="Path 85757" d="M84.992,74.213a.85.85,0,0,1-.012.1c-.005.029-.014.06-.022.09s-.017.066-.029.1-.022.054-.034.083-.031.07-.049.1-.031.052-.048.078a1.165,1.165,0,0,1-.077.115c-.018.024-.037.047-.057.071a2.059,2.059,0,0,1-.142.152c-.019.018-.036.038-.057.056s-.067.057-.1.084-.062.051-.1.075-.078.053-.118.08-.086.057-.133.084L72.71,82.057a3.176,3.176,0,0,1-.319.162c-.032.015-.065.027-.1.041-.087.036-.176.07-.268.1l-.1.033c-.058.018-.117.034-.176.049s-.088.026-.134.037-.12.026-.181.039c-.045.009-.088.019-.134.027-.126.022-.255.04-.384.053l-.124.011c-.074.006-.15.012-.224.015-.052,0-.1,0-.151,0s-.124,0-.185,0l-.154,0-.174-.009-.155-.013c-.056-.005-.112-.011-.168-.019l-.154-.022c-.061-.01-.121-.02-.18-.031l-.138-.028c-.071-.015-.143-.033-.214-.052-.037-.01-.076-.019-.114-.031-.125-.036-.245-.077-.362-.122l-.051-.022a3.646,3.646,0,0,1-.456-.219l-11.78-6.8a1.7,1.7,0,0,1-1-1.4q-.02,6.907-.039,13.813a1.7,1.7,0,0,0,1,1.4l11.779,6.8a3.72,3.72,0,0,0,.459.219l.029.014.019.006c.117.046.239.086.363.122l.029.01c.028.009.059.014.087.022.07.019.139.036.209.051l.057.014.085.015c.06.012.12.022.181.032l.07.012c.026,0,.053.006.079.008.056.008.113.015.171.02.026,0,.053.007.08.009l.076,0,.173.009.085,0H70.2c.063,0,.125,0,.188,0h.09l.054,0c.077,0,.153-.009.229-.015.032,0,.062,0,.093-.006l.029,0c.13-.014.259-.032.385-.054l.018,0c.037-.007.072-.016.109-.024.063-.012.126-.025.189-.041.046-.011.09-.023.135-.036s.115-.031.172-.049l.039-.011.062-.024c.089-.031.177-.063.263-.1l.1-.043a3.478,3.478,0,0,0,.318-.162L83.977,89.3l.04-.025c.032-.019.058-.039.087-.057s.084-.053.122-.082.066-.05.1-.076.069-.055.1-.083a.147.147,0,0,0,.023-.019c.014-.012.023-.026.036-.039a1.728,1.728,0,0,0,.143-.154c.01-.011.022-.022.031-.032s.014-.022.021-.033c.031-.04.058-.081.083-.122.01-.016.023-.032.032-.047s.006-.017.01-.025c.02-.036.035-.072.052-.108.008-.02.02-.04.027-.06a.147.147,0,0,0,.006-.021.983.983,0,0,0,.031-.106c0-.022.014-.042.018-.064a.1.1,0,0,0,0-.017,1,1,0,0,0,.012-.107c0-.023.007-.047.009-.071v-.029q.02-6.908.039-13.813C85,74.144,85,74.179,84.992,74.213Z" transform="translate(-44.939 -51.816)" fill="url(#linear-gradient)"/>
  <g id="Group_29683" data-name="Group 29683" transform="translate(10.197 13.519)">
    <path id="Path_85758" data-name="Path 85758" d="M84.03,66.2c1.326.766,1.336,2.009.016,2.776L72.741,75.549a5.282,5.282,0,0,1-4.794,0l-11.78-6.8c-1.328-.768-1.335-2.012-.015-2.779L67.457,59.4a5.28,5.28,0,0,1,4.795,0Z" transform="translate(-55.166 -58.827)" fill="#9071c6"/>
  </g>
  <g id="Group_29686" data-name="Group 29686" transform="translate(14.345 15.937)">
    <g id="Group_29685" data-name="Group 29685">
      <g id="Group_29684" data-name="Group 29684">
        <path id="Path_85759" data-name="Path 85759" d="M83.277,68.405a1.057,1.057,0,0,1,.011,2l-8.144,4.733a3.813,3.813,0,0,1-3.455,0L63.2,70.24a1.058,1.058,0,0,1-.011-2l8.146-4.733a3.805,3.805,0,0,1,3.454,0Z" transform="translate(-62.481 -63.091)" fill="#d59bed"/>
      </g>
    </g>
  </g>
  <g id="Group_29688" data-name="Group 29688" transform="translate(16.659 18.832)">
    <g id="Group_29687" data-name="Group 29687">
      <path id="Path_85760" data-name="Path 85760" d="M82.952,72.291c.753.425.759,1.115.009,1.541l-6.419,3.647a3.065,3.065,0,0,1-2.723,0L67.13,73.7c-.754-.426-.758-1.117-.008-1.542l6.419-3.646a3.057,3.057,0,0,1,2.722,0Z" transform="translate(-66.562 -68.197)" fill="#dec9eb"/>
    </g>
  </g>
  <g id="Group_29689" data-name="Group 29689" transform="translate(29.317 30.817)">
    <path id="Path_85761" data-name="Path 85761" d="M89.565,89.425c.376-.218.683-.043.683.39l.023,7.879a1.5,1.5,0,0,1-.679,1.177c-.376.218-.683.043-.684-.39L88.885,90.6A1.5,1.5,0,0,1,89.565,89.425Z" transform="translate(-88.885 -89.332)" fill="#66d4e2"/>
  </g>
  <g id="Group_29690" data-name="Group 29690" transform="translate(33.108 29.024)">
    <path id="Path_85762" data-name="Path 85762" d="M96.248,86.263c.377-.217.682-.043.684.39l.022,7.88a1.5,1.5,0,0,1-.679,1.177c-.377.217-.683.043-.684-.39l-.022-7.879A1.5,1.5,0,0,1,96.248,86.263Z" transform="translate(-95.569 -86.169)" fill="#66d4e2"/>
  </g>
  <g id="Group_29691" data-name="Group 29691" transform="translate(36.511 27.315)">
    <path id="Path_85763" data-name="Path 85763" d="M102.249,83.25c.377-.217.682-.043.684.39l.021,7.879a1.494,1.494,0,0,1-.679,1.177c-.376.217-.682.043-.683-.39l-.023-7.879A1.5,1.5,0,0,1,102.249,83.25Z" transform="translate(-101.57 -83.156)" fill="#66d4e2"/>
  </g>
  <g id="Group_29692" data-name="Group 29692" transform="translate(29.317 30.817)">
    <path id="Path_85764" data-name="Path 85764" d="M89.565,89.425c.376-.218.683-.043.683.39l.023,7.879a1.5,1.5,0,0,1-.679,1.177c-.376.218-.683.043-.684-.39L88.885,90.6A1.5,1.5,0,0,1,89.565,89.425Z" transform="translate(-88.885 -89.332)" fill="#66d4e2"/>
  </g>
  <path id="Path_85765" data-name="Path 85765" d="M96.248,86.263c.377-.217.682-.043.684.39l.022,7.88a1.5,1.5,0,0,1-.679,1.177c-.377.217-.683.043-.684-.39l-.022-7.879A1.5,1.5,0,0,1,96.248,86.263Z" transform="translate(-62.461 -57.145)" fill="#f8f0fd"/>
  <path id="Path_85766" data-name="Path 85766" d="M102.249,83.25c.377-.217.682-.043.684.39l.021,7.879a1.494,1.494,0,0,1-.679,1.177c-.376.217-.682.043-.683-.39l-.023-7.879A1.5,1.5,0,0,1,102.249,83.25Z" transform="translate(-65.059 -55.841)" fill="#f8f0fd"/>
  <path id="Path_85767" data-name="Path 85767" d="M89.565,89.425c.376-.218.683-.043.683.39l.023,7.879a1.5,1.5,0,0,1-.679,1.177c-.376.218-.683.043-.684-.39L88.885,90.6A1.5,1.5,0,0,1,89.565,89.425Z" transform="translate(-59.568 -58.515)" fill="#f8f0fd"/>
  <path id="Path_85768" data-name="Path 85768" d="M88.885,90.8l.023,7.879c0,.319.167.5.4.481a1.506,1.506,0,0,0,.46-1L89.75,90.28c0-.318-.168-.494-.4-.481A1.515,1.515,0,0,0,88.885,90.8Z" transform="translate(-59.568 -58.716)" fill="#dec9eb"/>
  <path id="Path_85769" data-name="Path 85769" d="M95.569,87.642l.022,7.879c0,.318.167.494.4.481a1.514,1.514,0,0,0,.46-1l-.022-7.879c0-.318-.167-.494-.4-.481A1.514,1.514,0,0,0,95.569,87.642Z" transform="translate(-62.461 -57.347)" fill="#dec9eb"/>
  <path id="Path_85770" data-name="Path 85770" d="M101.57,84.628l.023,7.879c0,.318.167.5.4.481a1.513,1.513,0,0,0,.46-1.005l-.022-7.878c0-.318-.168-.5-.4-.481A1.512,1.512,0,0,0,101.57,84.628Z" transform="translate(-65.059 -56.043)" fill="#dec9eb"/>
  <g id="Group_29699" data-name="Group 29699" transform="translate(13.135 27.272)">
    <path id="Path_85771" data-name="Path 85771" d="M73.737,89.351c-.376-.217-.682-.043-.683.39l-.023,7.879a1.5,1.5,0,0,0,.68,1.177c.375.217.682.043.684-.39l.022-7.879A1.5,1.5,0,0,0,73.737,89.351Z" transform="translate(-65.839 -85.755)" fill="#f5eafc"/>
    <path id="Path_85772" data-name="Path 85772" d="M67.055,86.188c-.375-.217-.682-.043-.684.39l-.021,7.879a1.5,1.5,0,0,0,.678,1.177c.377.217.683.043.684-.39l.022-7.879A1.5,1.5,0,0,0,67.055,86.188Z" transform="translate(-62.946 -84.386)" fill="#f5eafc"/>
    <path id="Path_85773" data-name="Path 85773" d="M61.053,83.175c-.376-.218-.683-.043-.683.39l-.022,7.879a1.5,1.5,0,0,0,.679,1.177c.377.217.682.043.684-.39l.022-7.879A1.5,1.5,0,0,0,61.053,83.175Z" transform="translate(-60.348 -83.081)" fill="#f5eafc"/>
  </g>
  <path id="Path_85774" data-name="Path 85774" d="M74.777,98.669l.022-7.879a1.48,1.48,0,0,0-.374-.913c-.282-.067-.488.111-.49.465l-.022,7.879a1.485,1.485,0,0,0,.374.914C74.568,99.2,74.775,99.023,74.777,98.669Z" transform="translate(-53.086 -58.744)" fill="#dec9eb"/>
  <path id="Path_85775" data-name="Path 85775" d="M68.094,95.506l.022-7.879a1.49,1.49,0,0,0-.374-.914c-.282-.066-.489.111-.49.466l-.022,7.88a1.489,1.489,0,0,0,.374.913C67.885,96.037,68.093,95.861,68.094,95.506Z" transform="translate(-50.192 -57.375)" fill="#dec9eb"/>
  <path id="Path_85776" data-name="Path 85776" d="M62.092,92.493l.022-7.879a1.484,1.484,0,0,0-.374-.915c-.281-.066-.488.111-.49.466l-.022,7.879a1.486,1.486,0,0,0,.374.914C61.884,93.024,62.09,92.847,62.092,92.493Z" transform="translate(-47.594 -56.07)" fill="#dec9eb"/>
  <g id="Group_29728" data-name="Group 29728" transform="translate(11.242)">
    <path id="Path_85777" data-name="Path 85777" d="M57.022,48.688c-.35-5.748,6.854-17.06,19.192-12.741,7.06,2.471,8.709,6.451,1.21,11.934,0,0,.08,3.064-5.806,2.58,0,0-3.79-.161-6.349,1.774C62.558,54.285,57.18,51.283,57.022,48.688Z" transform="translate(-57.009 -34.987)" fill="#dec9eb"/>
    <path id="Path_85778" data-name="Path 85778" d="M85.947,39.7a7.665,7.665,0,0,0-4.613-2.1,24.955,24.955,0,0,0-2.849.112,15.615,15.615,0,0,1-7.022-.661l.578-.262c2.069.869,4.273.6,6.408.441a25.554,25.554,0,0,1,2.906-.112,8.023,8.023,0,0,1,4.94,2.25Z" transform="translate(-63.267 -35.766)" fill="#d49aed"/>
    <path id="Path_85779" data-name="Path 85779" d="M80.194,36.771l-.415-.067a1.04,1.04,0,0,0-.026-.264c-.1-.167-.913-.756-3.03-1.092l.781-.156c1.817.289,2.466.536,2.707,1.078A.539.539,0,0,1,80.194,36.771Z" transform="translate(-65.544 -35.076)" fill="#d49aed"/>
    <path id="Path_85780" data-name="Path 85780" d="M71.234,41.555l-.48-.346a12.076,12.076,0,0,1,4.013-3.2c.247-.108.088-.032.342-.15l.614.255c-.257.119-.513.23-.763.339A11.453,11.453,0,0,0,71.234,41.555Z" transform="translate(-62.96 -36.231)" fill="#d49aed"/>
    <path id="Path_85781" data-name="Path 85781" d="M59.36,46.927l.265-.513a11.077,11.077,0,0,0,1.945-.563,2.751,2.751,0,0,0,1.166-.98,3.2,3.2,0,0,1,1.693-1.264,2.192,2.192,0,0,1,2.446.893l-.413.254a1.707,1.707,0,0,0-1.906-.68,2.735,2.735,0,0,0-1.445,1.1A3.156,3.156,0,0,1,61.736,46.3,13.309,13.309,0,0,1,59.36,46.927Z" transform="translate(-58.027 -38.681)" fill="#d49aed"/>
    <path id="Path_85782" data-name="Path 85782" d="M63.746,44.394c-1.232-2.374,2.268-4.285,2.417-4.365l.229.426c-.031.017-3.228,1.763-2.216,3.715Z" transform="translate(-59.812 -37.17)" fill="#d49aed"/>
    <path id="Path_85783" data-name="Path 85783" d="M59.57,57.339c-.1-.091-2.223-1.866-1.275-3.779a6.743,6.743,0,0,1,1.491-1.9c.515-.5.886-.859.873-1.363a2.366,2.366,0,0,1,1.479-1.923,1.673,1.673,0,0,1,1.886.139l-.324.359a1.275,1.275,0,0,0-1.36-.059,1.91,1.91,0,0,0-1.2,1.47c.019.716-.463,1.183-1.02,1.723a6.266,6.266,0,0,0-1.394,1.765c-.785,1.586,1.641,3.986,1.663,4.006Z" transform="translate(-57.461 -40.689)" fill="#d49aed"/>
    <path id="Path_85784" data-name="Path 85784" d="M57.627,53.151l.2-.681a3.005,3.005,0,0,1,2.889-.3l-.175.451C60.526,52.61,58.476,51.935,57.627,53.151Z" transform="translate(-57.277 -42.319)" fill="#d49aed"/>
    <path id="Path_85785" data-name="Path 85785" d="M61.891,59.731a5.465,5.465,0,0,1-1.98-3.879l.506-.1h0l-.054.275a7.308,7.308,0,0,0,1.765,3.122Z" transform="translate(-58.265 -43.976)" fill="#d49aed"/>
    <path id="Path_85786" data-name="Path 85786" d="M66.715,53.506c2.56-1.935,6.349-1.774,6.349-1.774,5.886.484,5.806-2.58,5.806-2.58,4.8-3.508,5.846-6.4,4.135-8.675a17.1,17.1,0,0,0-3.449-1.6c-12.338-4.318-19.543,6.993-19.192,12.741a2.9,2.9,0,0,0,.61,1.495C62.788,54.206,65.18,54.668,66.715,53.506Z" transform="translate(-58.457 -36.257)" fill="#d49aed" opacity="0.515"/>
    <path id="Path_85787" data-name="Path 85787" d="M63.419,53.292c-.351-5.748,5.4-16.532,19.192-12.741,2.891.8,8.709,6.452,1.21,11.934,0,0,.08,3.065-5.806,2.581,0,0-3.79-.161-6.349,1.774C68.955,58.889,63.578,55.887,63.419,53.292Z" transform="translate(-59.778 -37.054)" fill="#dec9eb"/>
    <path id="Path_85788" data-name="Path 85788" d="M84.737,52.991l-.428.324c.007-.013.5-1.439.034-2.184-.246-.392-.8-.573-1.627-.544l-.352.014c-1.961.075-3.254.125-3.9-.635-.422-.5-.494-1.275-.232-2.513.476-2.248.363-3.792-.335-4.589a2.613,2.613,0,0,0-2.277-.686c-2.12.161-2.9,1.566-3.21,5.782a3.3,3.3,0,0,1-1.985,2.378c-.893.45-2.827,1.563-5.9-.383l.164-.463c2.862,1.814,4.7.825,5.516.413a2.828,2.828,0,0,0,1.719-1.981c.285-3.881.953-6.024,3.656-6.229a3.067,3.067,0,0,1,2.679.849c.815.931.96,2.569.443,5.008-.225,1.063-.184,1.73.129,2.1.488.579,1.754.531,3.507.463L82.7,50.1a2.162,2.162,0,0,1,2.056.771A2.187,2.187,0,0,1,84.737,52.991Z" transform="translate(-60.266 -37.884)" fill="#d49aed"/>
    <path id="Path_85789" data-name="Path 85789" d="M86.062,59.8l-.481-.047c.322-3.354,4.7-3.136,4.74-3.131l-.028.483C90.133,57.1,86.339,56.909,86.062,59.8Z" transform="translate(-69.379 -44.351)" fill="#d49aed"/>
    <path id="Path_85790" data-name="Path 85790" d="M89.492,47.207l-.474-.095c.009-.041.861-4.067,4.715-3.886l-.024.484C90.256,43.537,89.523,47.057,89.492,47.207Z" transform="translate(-70.867 -38.552)" fill="#d49aed"/>
    <path id="Path_85791" data-name="Path 85791" d="M95.719,46.758c-.548-1.863-2.783-1.9-2.805-1.9l0-.484c.026,0,2.618.043,3.266,2.247Z" transform="translate(-72.554 -39.051)" fill="#d49aed"/>
    <path id="Path_85792" data-name="Path 85792" d="M72.268,58.8l-.176-.45a4.76,4.76,0,0,0,3.152-6.188L75.7,52A5.307,5.307,0,0,1,72.268,58.8Z" transform="translate(-63.539 -42.352)" fill="#d49aed"/>
    <path id="Path_85793" data-name="Path 85793" d="M76.766,63.361,76.438,63c1.361-1.252.317-3.343.306-3.364l.432-.221C77.226,59.519,78.394,61.862,76.766,63.361Z" transform="translate(-65.421 -45.565)" fill="#d49aed"/>
    <path id="Path_85794" data-name="Path 85794" d="M78.557,47.263l-.393-.28c.015-.023,1.637-2.263,3.768-1.415l-.178.45C79.971,45.31,78.571,47.244,78.557,47.263Z" transform="translate(-66.168 -39.485)" fill="#d49aed"/>
    <path id="Path_85795" data-name="Path 85795" d="M69.36,65.958c-2.2-.2-2.28-1.9-2.758-3.447a5.345,5.345,0,0,0-.548-1.478A2.706,2.706,0,0,0,63.6,59.741l.081-.48a2.928,2.928,0,0,1,2.8,1.542,9.263,9.263,0,0,1,.584,1.564c.48,1.554,1.381,3.35,3.26,3.522Z" transform="translate(-59.865 -45.493)" fill="#d49aed"/>
    <path id="Path_85796" data-name="Path 85796" d="M72.52,54.5l-.481-.042c.162-1.851-2.906-2.252-2.937-2.256l.06-.48C69.306,51.74,72.722,52.189,72.52,54.5Z" transform="translate(-62.244 -42.232)" fill="#d49aed"/>
    <path id="Path_85797" data-name="Path 85797" d="M72.548,50.72l-.412-.255c.882-1.432-.522-3.283-.536-3.3l.382-.295C72.049,46.956,73.6,49.006,72.548,50.72Z" transform="translate(-63.326 -40.132)" fill="#d49aed"/>
    <g id="Group_29720" data-name="Group 29720" transform="translate(23.018 7.528)">
      <path id="Path_85798" data-name="Path 85798" d="M98.038,53.345l-.437-.208a3.467,3.467,0,0,1,1.566-1.718c.171-.118.367-.255.6-.419,1.195-.855.37-2.5.361-2.516l.43-.221a2.455,2.455,0,0,1-.509,3.131c-.231.165-.429.3-.6.423A3.01,3.01,0,0,0,98.038,53.345Z" transform="translate(-97.601 -48.262)" fill="#d49aed"/>
    </g>
    <g id="Group_29721" data-name="Group 29721" transform="translate(25.183 9.568)">
      <path id="Path_85799" data-name="Path 85799" d="M102.724,53.376a2.556,2.556,0,0,1-1.306-.425l.276-.4a1.886,1.886,0,0,0,1.28.311c.306-.069.788-.663.983-1.006l-.045.759c-.266.466-.39.62-.834.72A1.622,1.622,0,0,1,102.724,53.376Z" transform="translate(-101.418 -51.859)" fill="#d49aed"/>
    </g>
    <g id="Group_29722" data-name="Group 29722" transform="translate(16.543 13.33)">
      <path id="Path_85800" data-name="Path 85800" d="M86.388,63.116c-.053,0-.088-.037-.136-.087-.167-.176.01-.347.085-.421l.009.01c.1-.092.387-.346,1.144-1.042a1.356,1.356,0,0,0,.528-1.106C87.949,59.6,86.9,58.9,86.893,58.9l.267-.4A3.085,3.085,0,0,1,88.5,60.431a1.814,1.814,0,0,1-.682,1.5c-.6.555-.945.869-1.153,1.033-.014.013-.039.037-.05.05l-.008-.007A.429.429,0,0,1,86.388,63.116Z" transform="translate(-86.183 -58.494)" fill="#d49aed"/>
    </g>
    <g id="Group_29723" data-name="Group 29723" transform="translate(18.472 15.107)">
      <path id="Path_85801" data-name="Path 85801" d="M91.835,62.877a1.51,1.51,0,0,0-.932-.737,1.537,1.537,0,0,0-1.053.2l-.265-.4A2.025,2.025,0,0,1,91,61.667a1.969,1.969,0,0,1,1.24.952Z" transform="translate(-89.584 -61.628)" fill="#d49aed"/>
    </g>
    <g id="Group_29724" data-name="Group 29724" transform="translate(14.268 8.928)">
      <path id="Path_85802" data-name="Path 85802" d="M85.8,52.43a3.928,3.928,0,0,0-2.248-1.216h-.011a1.336,1.336,0,0,0-1.015.481l-.358-.325a1.818,1.818,0,0,1,1.37-.639A4.455,4.455,0,0,1,86.156,52.1Z" transform="translate(-82.171 -50.731)" fill="#d49aed"/>
    </g>
    <g id="Group_29725" data-name="Group 29725" transform="translate(21.473 6.013)">
      <path id="Path_85803" data-name="Path 85803" d="M95.49,49.145c-1.327-1.265-.1-3.461-.043-3.554l.42.239c-.011.02-1.1,1.961-.044,2.965Z" transform="translate(-94.876 -45.591)" fill="#d49aed"/>
    </g>
    <g id="Group_29726" data-name="Group 29726" transform="translate(7.627 18.287)">
      <path id="Path_85804" data-name="Path 85804" d="M70.8,68.143l-.341-.344a2.2,2.2,0,0,1,2.524-.3l-.217.432A1.7,1.7,0,0,0,70.8,68.143Z" transform="translate(-70.459 -67.235)" fill="#d49aed"/>
    </g>
    <g id="Group_29727" data-name="Group 29727" transform="translate(11.914 15.172)">
      <path id="Path_85805" data-name="Path 85805" d="M79.826,62.91c-.43-.808-1.739-.677-1.752-.675l-.054-.48c.067-.007,1.65-.17,2.233.929Z" transform="translate(-78.02 -61.742)" fill="#d49aed"/>
    </g>
    <path id="Path_85806" data-name="Path 85806" d="M63.42,55.9c.158,2.595,5.536,5.6,8.246,3.548,2.559-1.935,6.349-1.774,6.349-1.774,5.886.484,5.806-2.581,5.806-2.581,4.722-3.452,4.163-6.972,2.381-9.3,1.2,3.745-2.735,6.976-3.96,8.318-1.342,1.47-2.975,1.151-5.033.916s-1.814.887-6.734,2.436a5.989,5.989,0,0,1-7.047-2.715A8.881,8.881,0,0,0,63.42,55.9Z" transform="translate(-59.778 -39.664)" fill="#9071c6" opacity="0.2"/>
  </g>
  <g id="Group_29756" data-name="Group 29756" transform="translate(0.65 48.236)">
    <g id="Group_29736" data-name="Group 29736" transform="translate(1.129 2.951)">
      <path id="Path_85814" data-name="Path 85814" d="M40.518,125.368a.289.289,0,0,0,0,.547,1.052,1.052,0,0,0,.894.027l.05-.027a.489.489,0,0,0,.134-.11c.116-.143.073-.319-.131-.437A1.043,1.043,0,0,0,40.518,125.368Z" transform="translate(-40.321 -125.255)" fill="#1e279a"/>
    </g>
    <g id="Group_29737" data-name="Group 29737" transform="translate(2.216 3.502)">
      <path id="Path_85815" data-name="Path 85815" d="M42.289,126.335l-.05.027,3.1,1.8.017-.172.112,0-3.046-1.77A.489.489,0,0,1,42.289,126.335Z" transform="translate(-42.239 -126.225)" fill="#1e279a"/>
    </g>
    <g id="Group_29738" data-name="Group 29738" transform="translate(0 0.695)">
      <path id="Path_85816" data-name="Path 85816" d="M38.528,121.389a.289.289,0,0,0,0,.547,1.057,1.057,0,0,0,.827.054.817.817,0,0,0,.117-.054.544.544,0,0,0,.094-.068c.163-.149.133-.349-.091-.479A1.04,1.04,0,0,0,38.528,121.389Z" transform="translate(-38.331 -121.276)" fill="#1e279a"/>
    </g>
    <g id="Group_29739" data-name="Group 29739" transform="translate(5.317 5.44)">
      <path id="Path_85817" data-name="Path 85817" d="M47.711,129.646l0,0h-.008Z" transform="translate(-47.708 -129.644)" fill="#1e279a"/>
    </g>
    <g id="Group_29754" data-name="Group 29754" transform="translate(1.022)" style="isolation: isolate">
      <g id="Group_29740" data-name="Group 29740" transform="translate(5.104)">
        <path id="Path_85818" data-name="Path 85818" d="M49.132,124.182l.176.1-.105.061,7.262-4.193-.176-.1Z" transform="translate(-49.132 -120.05)" fill="#1e279a"/>
      </g>
      <g id="Group_29741" data-name="Group 29741" transform="translate(0 1.288)">
        <path id="Path_85819" data-name="Path 85819" d="M40.132,122.443l5.069,2.945.105-.061.1-.061-.176-.1-4.893-2.844a.544.544,0,0,1-.094.068A.818.818,0,0,1,40.132,122.443Z" transform="translate(-40.132 -122.321)" fill="#1e279a"/>
      </g>
      <g id="Group_29742" data-name="Group 29742" transform="translate(4.296 5.268)">
        <path id="Path_85820" data-name="Path 85820" d="M47.725,129.34l-.017.172h.008l3.011.1h.01l.018-.172-.066,0-2.852-.093Z" transform="translate(-47.708 -129.34)" fill="#1e279a"/>
      </g>
      <g id="Group_29743" data-name="Group 29743" transform="translate(7.277 1.248)">
        <path id="Path_85821" data-name="Path 85821" d="M52.965,126.367l.066,0-.018.172,7.257-4.189-.175-.1Z" transform="translate(-52.965 -122.251)" fill="#1e279a"/>
      </g>
      <g id="Group_29744" data-name="Group 29744" transform="translate(10.916 7.629)">
        <path id="Path_85822" data-name="Path 85822" d="M59.388,133.5l0,0,.006,0Z" transform="translate(-59.383 -133.503)" fill="#1e279a"/>
      </g>
      <g id="Group_29745" data-name="Group 29745" transform="translate(10.921 7.619)">
        <path id="Path_85823" data-name="Path 85823" d="M59.392,133.5v.006l.159,1.744v0l.3-.009-.006-.065-.151-1.651,0-.039Z" transform="translate(-59.392 -133.486)" fill="#1e279a"/>
      </g>
      <g id="Group_29746" data-name="Group 29746" transform="translate(10.921 3.439)">
        <path id="Path_85824" data-name="Path 85824" d="M66.824,126.217l-.176-.1L59.392,130.3l.3-.009,0,.039Z" transform="translate(-59.392 -126.115)" fill="#1e279a"/>
      </g>
      <g id="Group_29747" data-name="Group 29747" transform="translate(5.069 2.258)">
        <path id="Path_85825" data-name="Path 85825" d="M49.071,130.426a.73.73,0,0,1,.1.047.5.5,0,0,1,.079.056l11.076-6.395-.176-.1Z" transform="translate(-49.071 -124.032)" fill="#1e279a"/>
      </g>
      <g id="Group_29748" data-name="Group 29748" transform="translate(13.169 4.687)">
        <path id="Path_85826" data-name="Path 85826" d="M63.354,132.447l.175.1,7.156-4.132-.174-.1Z" transform="translate(-63.354 -128.315)" fill="#1e279a"/>
      </g>
      <g id="Group_29749" data-name="Group 29749" transform="translate(4.024 8.586)">
        <path id="Path_85827" data-name="Path 85827" d="M47.425,135.3a.289.289,0,0,0,0,.547,1.037,1.037,0,0,0,.943,0c.232-.134.26-.34.083-.491a.5.5,0,0,0-.079-.056.734.734,0,0,0-.1-.047A1.058,1.058,0,0,0,47.425,135.3Z" transform="translate(-47.228 -135.191)" fill="#1e279a"/>
      </g>
      <g id="Group_29750" data-name="Group 29750" transform="translate(11.078 9.38)">
        <path id="Path_85828" data-name="Path 85828" d="M59.671,136.59l0,0,0,0Z" transform="translate(-59.668 -136.59)" fill="#1e279a"/>
      </g>
      <g id="Group_29751" data-name="Group 29751" transform="translate(11.082 9.31)">
        <path id="Path_85829" data-name="Path 85829" d="M59.967,136.467l.006.065-.3.009,3.1,1.8a.528.528,0,0,1,.094-.067.694.694,0,0,1,.117-.054Z" transform="translate(-59.675 -136.467)" fill="#1e279a"/>
      </g>
      <g id="Group_29752" data-name="Group 29752" transform="translate(14.076 11.003)">
        <path id="Path_85830" data-name="Path 85830" d="M65.152,139.567a.529.529,0,0,0-.094.067c-.163.149-.134.349.091.479a1.039,1.039,0,0,0,.944,0,.289.289,0,0,0,0-.546,1.05,1.05,0,0,0-.827-.054A.693.693,0,0,0,65.152,139.567Z" transform="translate(-64.955 -139.454)" fill="#1e279a"/>
      </g>
      <g id="Group_29753" data-name="Group 29753" transform="translate(12.958 8.819)">
        <path id="Path_85831" data-name="Path 85831" d="M62.983,135.723l5.068,2.945a.568.568,0,0,1,.094-.068.76.76,0,0,1,.117-.054L63.369,135.7l-.175-.1Z" transform="translate(-62.983 -135.601)" fill="#1e279a"/>
      </g>
    </g>
    <g id="Group_29755" data-name="Group 29755" transform="translate(18.944 11.704)">
      <path id="Path_85832" data-name="Path 85832" d="M71.935,140.8a.568.568,0,0,0-.094.068c-.163.149-.133.349.091.479a1.04,1.04,0,0,0,.944,0,.289.289,0,0,0,0-.547,1.052,1.052,0,0,0-.827-.054A.761.761,0,0,0,71.935,140.8Z" transform="translate(-71.738 -140.69)" fill="#1e279a"/>
    </g>
  </g>
  <g id="Group_29757" data-name="Group 29757" transform="translate(18.944 58.804)" style="mix-blend-mode: overlay;isolation: isolate">
    <path id="Path_85833" data-name="Path 85833" d="M73.228,140a1.318,1.318,0,1,1-1.318-1.318A1.318,1.318,0,0,1,73.228,140Z" transform="translate(-70.592 -138.685)" fill="#1e279a" opacity="0"/>
    <path id="Path_85834" data-name="Path 85834" d="M73.184,140.146a1.161,1.161,0,1,1-1.161-1.162A1.161,1.161,0,0,1,73.184,140.146Z" transform="translate(-70.708 -138.814)" fill="#1e279a" opacity="0.167"/>
    <path id="Path_85835" data-name="Path 85835" d="M73.139,140.289a1.005,1.005,0,1,1-1-1A1,1,0,0,1,73.139,140.289Z" transform="translate(-70.824 -138.944)" fill="#1e279a" opacity="0.333"/>
    <path id="Path_85836" data-name="Path 85836" d="M73.1,140.431a.849.849,0,1,1-.848-.848A.848.848,0,0,1,73.1,140.431Z" transform="translate(-70.941 -139.074)" fill="#1e279a" opacity="0.5"/>
    <path id="Path_85837" data-name="Path 85837" d="M73.051,140.573a.692.692,0,1,1-.69-.692A.691.691,0,0,1,73.051,140.573Z" transform="translate(-71.057 -139.203)" fill="#1e279a" opacity="0.667"/>
    <path id="Path_85838" data-name="Path 85838" d="M73.007,140.716a.536.536,0,1,1-.534-.535A.535.535,0,0,1,73.007,140.716Z" transform="translate(-71.174 -139.333)" fill="#1e279a" opacity="0.833"/>
    <path id="Path_85839" data-name="Path 85839" d="M72.963,140.859a.379.379,0,1,1-.377-.379A.378.378,0,0,1,72.963,140.859Z" transform="translate(-71.29 -139.462)" fill="#1e279a"/>
  </g>
  <g id="Group_29758" data-name="Group 29758" transform="translate(15.098 58.103)" style="mix-blend-mode: overlay;isolation: isolate">
    <path id="Path_85840" data-name="Path 85840" d="M66.445,138.767a1.318,1.318,0,1,1-1.318-1.317A1.318,1.318,0,0,1,66.445,138.767Z" transform="translate(-63.809 -137.45)" fill="#1e279a" opacity="0"/>
    <path id="Path_85841" data-name="Path 85841" d="M66.4,138.909a1.161,1.161,0,1,1-1.161-1.161A1.161,1.161,0,0,1,66.4,138.909Z" transform="translate(-63.925 -137.579)" fill="#1e279a" opacity="0.167"/>
    <path id="Path_85842" data-name="Path 85842" d="M66.357,139.052a1,1,0,1,1-1-1A1,1,0,0,1,66.357,139.052Z" transform="translate(-64.042 -137.708)" fill="#1e279a" opacity="0.333"/>
    <path id="Path_85843" data-name="Path 85843" d="M66.312,139.194a.849.849,0,1,1-.848-.848A.848.848,0,0,1,66.312,139.194Z" transform="translate(-64.158 -137.838)" fill="#1e279a" opacity="0.5"/>
    <path id="Path_85844" data-name="Path 85844" d="M66.268,139.337a.692.692,0,1,1-.691-.692A.691.691,0,0,1,66.268,139.337Z" transform="translate(-64.274 -137.967)" fill="#1e279a" opacity="0.667"/>
    <path id="Path_85845" data-name="Path 85845" d="M66.224,139.479a.536.536,0,1,1-.534-.535A.535.535,0,0,1,66.224,139.479Z" transform="translate(-64.391 -138.097)" fill="#1e279a" opacity="0.833"/>
    <path id="Path_85846" data-name="Path 85846" d="M66.18,139.622a.379.379,0,1,1-.377-.379A.378.378,0,0,1,66.18,139.622Z" transform="translate(-64.507 -138.226)" fill="#1e279a"/>
  </g>
  <g id="Group_29759" data-name="Group 29759" transform="translate(5.045 55.838)" style="mix-blend-mode: overlay;isolation: isolate">
    <path id="Path_85847" data-name="Path 85847" d="M48.717,134.774a1.318,1.318,0,1,1-1.318-1.318A1.318,1.318,0,0,1,48.717,134.774Z" transform="translate(-46.081 -133.456)" fill="#1e279a" opacity="0"/>
    <path id="Path_85848" data-name="Path 85848" d="M48.673,134.917a1.162,1.162,0,1,1-1.161-1.162A1.161,1.161,0,0,1,48.673,134.917Z" transform="translate(-46.197 -133.585)" fill="#1e279a" opacity="0.167"/>
    <path id="Path_85849" data-name="Path 85849" d="M48.629,135.059a1.005,1.005,0,1,1-1-1.005A1,1,0,0,1,48.629,135.059Z" transform="translate(-46.314 -133.715)" fill="#1e279a" opacity="0.333"/>
    <path id="Path_85850" data-name="Path 85850" d="M48.585,135.2a.849.849,0,1,1-.848-.849A.848.848,0,0,1,48.585,135.2Z" transform="translate(-46.43 -133.844)" fill="#1e279a" opacity="0.5"/>
    <path id="Path_85851" data-name="Path 85851" d="M48.541,135.344a.692.692,0,1,1-.691-.692A.692.692,0,0,1,48.541,135.344Z" transform="translate(-46.547 -133.974)" fill="#1e279a" opacity="0.667"/>
    <path id="Path_85852" data-name="Path 85852" d="M48.5,135.486a.536.536,0,1,1-.534-.535A.534.534,0,0,1,48.5,135.486Z" transform="translate(-46.663 -134.103)" fill="#1e279a" opacity="0.833"/>
    <path id="Path_85853" data-name="Path 85853" d="M48.453,135.629a.379.379,0,1,1-.378-.378A.378.378,0,0,1,48.453,135.629Z" transform="translate(-46.78 -134.233)" fill="#1e279a"/>
  </g>
  <g id="Group_29760" data-name="Group 29760" transform="translate(1.128 50.256)" style="mix-blend-mode: overlay;isolation: isolate">
    <path id="Path_85854" data-name="Path 85854" d="M41.81,124.93a1.318,1.318,0,1,1-1.318-1.318A1.318,1.318,0,0,1,41.81,124.93Z" transform="translate(-39.174 -123.612)" fill="#1e279a" opacity="0"/>
    <path id="Path_85855" data-name="Path 85855" d="M41.766,125.072a1.162,1.162,0,1,1-1.161-1.161A1.161,1.161,0,0,1,41.766,125.072Z" transform="translate(-39.29 -123.741)" fill="#1e279a" opacity="0.167"/>
    <path id="Path_85856" data-name="Path 85856" d="M41.722,125.215a1.005,1.005,0,1,1-1-1A1.005,1.005,0,0,1,41.722,125.215Z" transform="translate(-39.407 -123.871)" fill="#1e279a" opacity="0.333"/>
    <path id="Path_85857" data-name="Path 85857" d="M41.678,125.357a.849.849,0,1,1-.847-.848A.848.848,0,0,1,41.678,125.357Z" transform="translate(-39.523 -124)" fill="#1e279a" opacity="0.5"/>
    <path id="Path_85858" data-name="Path 85858" d="M41.635,125.5a.692.692,0,1,1-.691-.691A.692.692,0,0,1,41.635,125.5Z" transform="translate(-39.64 -124.13)" fill="#1e279a" opacity="0.667"/>
    <path id="Path_85859" data-name="Path 85859" d="M41.591,125.643a.535.535,0,1,1-.534-.536A.535.535,0,0,1,41.591,125.643Z" transform="translate(-39.757 -124.259)" fill="#1e279a" opacity="0.833"/>
    <path id="Path_85860" data-name="Path 85860" d="M41.547,125.786a.379.379,0,1,1-.378-.379A.378.378,0,0,1,41.547,125.786Z" transform="translate(-39.873 -124.389)" fill="#1e279a"/>
  </g>
  <g id="Group_29761" data-name="Group 29761" transform="translate(0 48)" style="mix-blend-mode: overlay;isolation: isolate">
    <path id="Path_85861" data-name="Path 85861" d="M39.821,120.952a1.318,1.318,0,1,1-1.318-1.318A1.318,1.318,0,0,1,39.821,120.952Z" transform="translate(-37.185 -119.634)" fill="#1e279a" opacity="0"/>
    <path id="Path_85862" data-name="Path 85862" d="M39.777,121.095a1.161,1.161,0,1,1-1.161-1.162A1.161,1.161,0,0,1,39.777,121.095Z" transform="translate(-37.301 -119.763)" fill="#1e279a" opacity="0.167"/>
    <path id="Path_85863" data-name="Path 85863" d="M39.733,121.237a1,1,0,1,1-1-1.005A1,1,0,0,1,39.733,121.237Z" transform="translate(-37.418 -119.893)" fill="#1e279a" opacity="0.333"/>
    <path id="Path_85864" data-name="Path 85864" d="M39.689,121.379a.848.848,0,1,1-.848-.848A.848.848,0,0,1,39.689,121.379Z" transform="translate(-37.534 -120.022)" fill="#1e279a" opacity="0.5"/>
    <path id="Path_85865" data-name="Path 85865" d="M39.645,121.522a.692.692,0,1,1-.691-.692A.691.691,0,0,1,39.645,121.522Z" transform="translate(-37.651 -120.152)" fill="#1e279a" opacity="0.667"/>
    <path id="Path_85866" data-name="Path 85866" d="M39.6,121.664a.535.535,0,1,1-.534-.535A.535.535,0,0,1,39.6,121.664Z" transform="translate(-37.767 -120.281)" fill="#1e279a" opacity="0.833"/>
    <path id="Path_85867" data-name="Path 85867" d="M39.557,121.807a.379.379,0,1,1-.377-.379A.378.378,0,0,1,39.557,121.807Z" transform="translate(-37.884 -120.411)" fill="#1e279a"/>
  </g>
  <g id="Group_29762" data-name="Group 29762" transform="translate(47.334 50.663)">
    <path id="Path_85868" data-name="Path 85868" d="M121.795,124.442a.289.289,0,0,1,0,.547,1.051,1.051,0,0,1-.893.027.541.541,0,0,1-.051-.027.468.468,0,0,1-.134-.11c-.116-.143-.073-.319.13-.437A1.043,1.043,0,0,1,121.795,124.442Z" transform="translate(-120.656 -124.329)" fill="#1e279a"/>
  </g>
  <g id="Group_29763" data-name="Group 29763" transform="translate(44.351 51.213)">
    <path id="Path_85869" data-name="Path 85869" d="M118.576,125.409a.545.545,0,0,0,.051.027l-3.1,1.8-.018-.172-.112,0,3.046-1.77A.468.468,0,0,0,118.576,125.409Z" transform="translate(-115.396 -125.299)" fill="#1e279a"/>
  </g>
  <g id="Group_29764" data-name="Group 29764" transform="translate(48.462 48.407)">
    <path id="Path_85870" data-name="Path 85870" d="M123.785,120.464a.289.289,0,0,1,0,.547,1.053,1.053,0,0,1-.827.054.756.756,0,0,1-.117-.054.542.542,0,0,1-.094-.067c-.164-.15-.134-.349.091-.48A1.043,1.043,0,0,1,123.785,120.464Z" transform="translate(-122.646 -120.351)" fill="#1e279a"/>
  </g>
  <g id="Group_29765" data-name="Group 29765" transform="translate(44.473 53.151)">
    <path id="Path_85871" data-name="Path 85871" d="M115.615,128.72l0,0h.007Z" transform="translate(-115.612 -128.717)" fill="#2afbfe"/>
  </g>
  <g id="Group_29766" data-name="Group 29766" transform="translate(36.341 47.711)">
    <path id="Path_85872" data-name="Path 85872" d="M108.6,123.256l-.176.1.106.061-7.262-4.192.176-.1Z" transform="translate(-101.271 -119.124)" fill="#1e279a"/>
  </g>
  <g id="Group_29767" data-name="Group 29767" transform="translate(43.497 49)">
    <path id="Path_85873" data-name="Path 85873" d="M119.17,121.517l-5.069,2.946L114,124.4l-.105-.061.176-.1,4.893-2.843a.542.542,0,0,0,.094.067A.756.756,0,0,0,119.17,121.517Z" transform="translate(-113.89 -121.396)" fill="#1e279a"/>
  </g>
  <g id="Group_29768" data-name="Group 29768" transform="translate(41.434 52.979)">
    <path id="Path_85874" data-name="Path 85874" d="M113.281,128.413l.017.172h-.007l-3.011.1h-.011l-.018-.172.066,0,2.851-.093Z" transform="translate(-110.252 -128.413)" fill="#1e279a"/>
  </g>
  <g id="Group_29769" data-name="Group 29769" transform="translate(34.195 48.959)">
    <path id="Path_85875" data-name="Path 85875" d="M104.791,125.441l-.066,0,.018.173-7.257-4.19.175-.1Z" transform="translate(-97.486 -121.324)" fill="#1e279a"/>
  </g>
  <g id="Group_29770" data-name="Group 29770" transform="translate(37.854 55.34)">
    <path id="Path_85876" data-name="Path 85876" d="M103.94,132.577l0,0-.006,0Z" transform="translate(-103.939 -132.577)" fill="#1e279a"/>
  </g>
  <g id="Group_29771" data-name="Group 29771" transform="translate(37.396 55.331)">
    <path id="Path_85877" data-name="Path 85877" d="M103.591,132.57v.007l-.159,1.744v0l-.3-.009.006-.065.151-1.65,0-.039Z" transform="translate(-103.132 -132.561)" fill="#1e279a"/>
  </g>
  <g id="Group_29772" data-name="Group 29772" transform="translate(30.423 51.151)">
    <path id="Path_85878" data-name="Path 85878" d="M90.834,125.292l.176-.1,7.257,4.189-.3-.009,0,.039Z" transform="translate(-90.834 -125.189)" fill="#1e279a"/>
  </g>
  <g id="Group_29773" data-name="Group 29773" transform="translate(32.455 49.969)">
    <path id="Path_85879" data-name="Path 85879" d="M105.671,129.5a.667.667,0,0,0-.1.046.535.535,0,0,0-.079.056l-11.076-6.4.176-.1Z" transform="translate(-94.419 -123.106)" fill="#1e279a"/>
  </g>
  <g id="Group_29774" data-name="Group 29774" transform="translate(28.277 52.398)">
    <path id="Path_85880" data-name="Path 85880" d="M94.381,131.521l-.175.1-7.156-4.132.174-.1Z" transform="translate(-87.05 -127.39)" fill="#1e279a"/>
  </g>
  <g id="Group_29775" data-name="Group 29775" transform="translate(43.418 56.297)">
    <path id="Path_85881" data-name="Path 85881" d="M114.888,134.379a.289.289,0,0,1,0,.547,1.041,1.041,0,0,1-.943,0c-.232-.134-.26-.341-.084-.491a.535.535,0,0,1,.079-.056.667.667,0,0,1,.1-.046A1.058,1.058,0,0,1,114.888,134.379Z" transform="translate(-113.75 -134.265)" fill="#111fbf"/>
  </g>
  <g id="Group_29776" data-name="Group 29776" transform="translate(37.694 57.091)">
    <path id="Path_85882" data-name="Path 85882" d="M103.658,135.665l0,0,0,0Z" transform="translate(-103.658 -135.665)" fill="#111fbf"/>
  </g>
  <g id="Group_29777" data-name="Group 29777" transform="translate(34.386 57.021)">
    <path id="Path_85883" data-name="Path 85883" d="M100.839,135.541l-.006.065.3.01-3.1,1.8a.482.482,0,0,0-.094-.067.611.611,0,0,0-.117-.054Z" transform="translate(-97.823 -135.541)" fill="#111fbf"/>
  </g>
  <g id="Group_29778" data-name="Group 29778" transform="translate(33.365 58.715)">
    <path id="Path_85884" data-name="Path 85884" d="M97.161,138.642a.481.481,0,0,1,.094.067c.163.149.134.349-.091.479a1.037,1.037,0,0,1-.943,0,.288.288,0,0,1,0-.546,1.05,1.05,0,0,1,.827-.054A.611.611,0,0,1,97.161,138.642Z" transform="translate(-96.023 -138.528)" fill="#111fbf"/>
  </g>
  <g id="Group_29779" data-name="Group 29779" transform="translate(30.54 56.53)">
    <path id="Path_85885" data-name="Path 85885" d="M96.319,134.8l-5.068,2.945a.617.617,0,0,0-.093-.068.79.79,0,0,0-.117-.054l4.893-2.843.175-.1Z" transform="translate(-91.041 -134.675)" fill="#111fbf"/>
  </g>
  <g id="Group_29780" data-name="Group 29780" transform="translate(29.518 59.416)">
    <path id="Path_85886" data-name="Path 85886" d="M90.378,139.878a.618.618,0,0,1,.093.068c.164.149.134.349-.091.479a1.041,1.041,0,0,1-.944,0,.289.289,0,0,1,0-.547,1.057,1.057,0,0,1,.827-.054A.791.791,0,0,1,90.378,139.878Z" transform="translate(-89.239 -139.765)" fill="#111fbf"/>
  </g>
  <g id="Group_29781" data-name="Group 29781" transform="translate(28.868 58.279)" style="mix-blend-mode: overlay;isolation: isolate">
    <path id="Path_85887" data-name="Path 85887" d="M88.093,139.078a1.318,1.318,0,1,0,1.318-1.318A1.318,1.318,0,0,0,88.093,139.078Z" transform="translate(-88.093 -137.76)" fill="#111fbf" opacity="0"/>
    <path id="Path_85888" data-name="Path 85888" d="M88.376,139.22a1.161,1.161,0,1,0,1.161-1.161A1.161,1.161,0,0,0,88.376,139.22Z" transform="translate(-88.216 -137.889)" fill="#111fbf" opacity="0.167"/>
    <path id="Path_85889" data-name="Path 85889" d="M88.659,139.363a1,1,0,1,0,1-1A1,1,0,0,0,88.659,139.363Z" transform="translate(-88.338 -138.019)" fill="#111fbf" opacity="0.333"/>
    <path id="Path_85890" data-name="Path 85890" d="M88.942,139.505a.848.848,0,1,0,.847-.848A.847.847,0,0,0,88.942,139.505Z" transform="translate(-88.461 -138.148)" fill="#111fbf" opacity="0.5"/>
    <path id="Path_85891" data-name="Path 85891" d="M89.225,139.648a.692.692,0,1,0,.691-.692A.691.691,0,0,0,89.225,139.648Z" transform="translate(-88.583 -138.278)" fill="#111fbf" opacity="0.667"/>
    <path id="Path_85892" data-name="Path 85892" d="M89.508,139.79a.535.535,0,1,0,.534-.535A.535.535,0,0,0,89.508,139.79Z" transform="translate(-88.706 -138.407)" fill="#111fbf" opacity="0.833"/>
    <path id="Path_85893" data-name="Path 85893" d="M89.791,139.933a.379.379,0,1,0,.377-.379A.378.378,0,0,0,89.791,139.933Z" transform="translate(-88.828 -138.537)" fill="#111fbf"/>
  </g>
  <g id="Group_29782" data-name="Group 29782" transform="translate(32.715 57.578)" style="mix-blend-mode: overlay;isolation: isolate">
    <path id="Path_85894" data-name="Path 85894" d="M94.876,137.841a1.318,1.318,0,1,0,1.318-1.318A1.318,1.318,0,0,0,94.876,137.841Z" transform="translate(-94.876 -136.523)" fill="#fff" opacity="0"/>
    <path id="Path_85895" data-name="Path 85895" d="M95.159,137.984a1.161,1.161,0,1,0,1.161-1.162A1.161,1.161,0,0,0,95.159,137.984Z" transform="translate(-94.999 -136.652)" fill="#dcfeff" opacity="0.167"/>
    <path id="Path_85896" data-name="Path 85896" d="M95.442,138.126a1,1,0,1,0,1-1.005A1,1,0,0,0,95.442,138.126Z" transform="translate(-95.121 -136.782)" fill="#b8feff" opacity="0.333"/>
    <path id="Path_85897" data-name="Path 85897" d="M95.725,138.269a.848.848,0,1,0,.847-.849A.848.848,0,0,0,95.725,138.269Z" transform="translate(-95.244 -136.911)" fill="#95fdff" opacity="0.5"/>
    <path id="Path_85898" data-name="Path 85898" d="M96.008,138.411a.692.692,0,1,0,.691-.692A.691.691,0,0,0,96.008,138.411Z" transform="translate(-95.366 -137.041)" fill="#1e279a" opacity="0.667"/>
  </g>
  <g id="Group_29792" data-name="Group 29792" transform="translate(9.934 22.053)" style="mix-blend-mode: overlay;isolation: isolate">
    <path id="Path_85922" data-name="Path 85922" d="M81.677,101.479c3.373,1.947,3.392,5.1.04,7.053a13.417,13.417,0,0,1-12.175,0c-3.373-1.948-3.391-5.105-.04-7.053A13.417,13.417,0,0,1,81.677,101.479Z" transform="translate(-60.027 -85.194)" fill="#b086cc" style="mix-blend-mode: overlay;isolation: isolate"/>
    <g id="Group_29786" data-name="Group 29786" transform="translate(5.811 12.354)" opacity="0.833">
      <path id="Path_85923" data-name="Path 85923" d="M81.777,97.336c3.867,2.233,3.888,5.853.046,8.086a15.382,15.382,0,0,1-13.958,0c-3.867-2.233-3.888-5.853-.045-8.086A15.381,15.381,0,0,1,81.777,97.336Z" transform="translate(-64.951 -95.661)" fill="#b086cc"/>
    </g>
    <g id="Group_29787" data-name="Group 29787" transform="translate(4.649 9.883)" opacity="0.667">
      <path id="Path_85924" data-name="Path 85924" d="M81.877,93.192c4.361,2.518,4.385,6.6.051,9.118s-11.38,2.518-15.741,0-4.385-6.6-.052-9.118S77.516,90.675,81.877,93.192Z" transform="translate(-62.901 -91.304)" fill="#b086cc"/>
    </g>
    <g id="Group_29788" data-name="Group 29788" transform="translate(3.487 7.412)" opacity="0.997">
      <path id="Path_85925" data-name="Path 85925" d="M81.977,89.05c4.856,2.8,4.882,7.347.058,10.151s-12.669,2.8-17.525,0-4.881-7.348-.057-10.151S77.122,86.246,81.977,89.05Z" transform="translate(-60.852 -86.947)" fill="#b086cc"/>
    </g>
    <g id="Group_29789" data-name="Group 29789" transform="translate(2.325 4.942)">
      <path id="Path_85926" data-name="Path 85926" d="M82.077,84.907c5.349,3.088,5.378,8.1.063,11.184s-13.958,3.088-19.307,0-5.378-8.1-.064-11.184S76.728,81.818,82.077,84.907Z" transform="translate(-58.802 -82.59)" fill="#b086cc"/>
    </g>
    <g id="Group_29790" data-name="Group 29790" transform="translate(1.162 2.471)">
      <path id="Path_85927" data-name="Path 85927" d="M82.177,80.763c5.844,3.374,5.875,8.843.069,12.217S67,96.354,61.155,92.98s-5.874-8.843-.069-12.217S76.334,77.39,82.177,80.763Z" transform="translate(-56.752 -78.233)" fill="#b086cc"/>
    </g>
    <g id="Group_29791" data-name="Group 29791" opacity="0">
      <path id="Path_85928" data-name="Path 85928" d="M82.277,76.62c6.338,3.659,6.372,9.591.075,13.25s-16.537,3.659-22.874,0-6.371-9.591-.075-13.25S75.94,72.961,82.277,76.62Z" transform="translate(-54.703 -73.876)" fill="#b086cc"/>
    </g>
  </g>
</svg>
