<svg xmlns="http://www.w3.org/2000/svg" width="27.287" height="26.15" viewBox="0 0 27.287 26.15">
  <defs>
    <style>
      .cls-1 {
        fill: #fff;
      }
    </style>
  </defs>
  <path id="github" class="cls-1" d="M13.643.5A13.525,13.525,0,0,0,0,13.907a13.429,13.429,0,0,0,9.329,12.72c.682.126.932-.289.932-.645,0-.318-.011-1.162-.017-2.28-3.8.808-4.6-1.8-4.6-1.8a3.574,3.574,0,0,0-1.518-1.961c-1.236-.831.1-.814.1-.814a2.854,2.854,0,0,1,2.09,1.381,2.938,2.938,0,0,0,3.974,1.115,2.839,2.839,0,0,1,.864-1.793c-3.03-.335-6.215-1.488-6.215-6.625a5.122,5.122,0,0,1,1.4-3.6,4.691,4.691,0,0,1,.119-3.548S7.605,5.7,10.214,7.437a13.081,13.081,0,0,1,6.822,0c2.592-1.734,3.735-1.375,3.735-1.375a4.82,4.82,0,0,1,.136,3.548,5.143,5.143,0,0,1,1.4,3.6c0,5.15-3.189,6.284-6.225,6.614A3.181,3.181,0,0,1,17,22.3c0,1.794-.017,3.236-.017,3.671,0,.351.239.771.938.637a13.389,13.389,0,0,0,9.364-12.7A13.527,13.527,0,0,0,13.643.5Z" transform="translate(0 -0.5)"/>
</svg>
