<svg id="Manufacturing-plants" xmlns="http://www.w3.org/2000/svg" xmlns:xlink="http://www.w3.org/1999/xlink" width="67.958" height="58.762" viewBox="0 0 67.958 58.762">
  <defs>
    <style>
      .cls-1 {
        fill: url(#linear-gradient);
      }

      .cls-2 {
        fill: url(#linear-gradient-2);
      }

      .cls-3 {
        fill: url(#linear-gradient-3);
      }

      .cls-4 {
        fill: #fff;
      }
    </style>
    <linearGradient id="linear-gradient" y1="0.5" x2="1" y2="0.5" gradientUnits="objectBoundingBox">
      <stop offset="0" stop-color="#556366"/>
      <stop offset="0.998" stop-color="#556366"/>
    </linearGradient>
    <linearGradient id="linear-gradient-2" x1="-0.002" y1="0.499" x2="1" y2="0.499" xlink:href="#linear-gradient"/>
    <linearGradient id="linear-gradient-3" y1="0.497" x2="1" y2="0.497" xlink:href="#linear-gradient"/>
  </defs>
  <g id="Group_15066" data-name="Group 15066" transform="translate(0 0)">
    <path id="Path_51167" data-name="Path 51167" class="cls-1" d="M48.341,45.442,46.348,22.2H39.416L37.151,45.442H32.982V35.021l-12.142,6.8v-6.8l-12.1,6.8v-6.8L0,39.914V75.479H51.512V45.442Z" transform="translate(0 -16.763)"/>
    <path id="Path_51168" data-name="Path 51168" class="cls-2" d="M130.028,84.989h-1.133a11.955,11.955,0,0,0-1.269-3.035l.816-.815a1.531,1.531,0,0,0,0-2.175L125.9,76.426a1.615,1.615,0,0,0-2.22,0l-.815.815a12.679,12.679,0,0,0-3.035-1.269V74.84a1.528,1.528,0,0,0-1.54-1.54H116.3v8.382h.181a6.705,6.705,0,0,1,0,13.41H116.3v8.382h1.993a1.528,1.528,0,0,0,1.54-1.54V100.8a11.956,11.956,0,0,0,3.035-1.269l.815.815a1.615,1.615,0,0,0,2.22,0l2.537-2.537a1.531,1.531,0,0,0,0-2.175l-.816-.815a12.679,12.679,0,0,0,1.269-3.035h1.133a1.528,1.528,0,0,0,1.54-1.54V86.665A1.564,1.564,0,0,0,130.028,84.989Z" transform="translate(-63.61 -44.711)"/>
    <path id="Path_51169" data-name="Path 51169" class="cls-3" d="M60.835,12.736c-2.265-2.265-8.563-.589-11.961,2.854S37,19.487,32.7,15.228c3.715,1.676,9.922,2.673,13.909-1.314C52,8.432,57.981,9.882,60.835,12.736Z" transform="translate(-17.885 -10.198)"/>
  </g>
  <rect id="Rectangle_353" data-name="Rectangle 353" class="cls-4" width="12.776" height="6.932" transform="translate(9.288 43.222)"/>
  <rect id="Rectangle_354" data-name="Rectangle 354" class="cls-4" width="12.776" height="6.932" transform="translate(9.288 33.799)"/>
  <rect id="Rectangle_355" data-name="Rectangle 355" class="cls-4" width="12.776" height="6.932" transform="translate(25.734 43.222)"/>
  <rect id="Rectangle_356" data-name="Rectangle 356" class="cls-4" width="12.776" height="6.932" transform="translate(25.734 33.799)"/>
</svg>
