<svg xmlns="http://www.w3.org/2000/svg" xmlns:xlink="http://www.w3.org/1999/xlink" width="68.356" height="46.297" viewBox="0 0 68.356 46.297">
  <defs>
    <style>
      .cls-1 {
        fill: url(#linear-gradient);
      }

      .cls-2 {
        fill: url(#linear-gradient-2);
      }

      .cls-3 {
        fill: url(#linear-gradient-3);
      }

      .cls-4 {
        fill: url(#linear-gradient-4);
      }

      .cls-5 {
        fill: url(#linear-gradient-5);
      }

      .cls-6 {
        fill: url(#linear-gradient-6);
      }

      .cls-7 {
        fill: url(#linear-gradient-7);
      }

      .cls-8 {
        fill: url(#linear-gradient-8);
      }

      .cls-9 {
        fill: url(#linear-gradient-9);
      }

      .cls-10 {
        fill: url(#linear-gradient-10);
      }

      .cls-11 {
        fill: url(#linear-gradient-11);
      }

      .cls-12 {
        fill: url(#linear-gradient-12);
      }
    </style>
    <linearGradient id="linear-gradient" y1="0.501" x2="0.996" y2="0.501" gradientUnits="objectBoundingBox">
      <stop offset="0" stop-color="#556366"/>
      <stop offset="0.998" stop-color="#556366"/>
    </linearGradient>
    <linearGradient id="linear-gradient-2" x1="-0.001" y1="0.5" x2="0.998" y2="0.5" xlink:href="#linear-gradient"/>
    <linearGradient id="linear-gradient-3" x1="-0.002" y1="0.502" x2="1" y2="0.502" xlink:href="#linear-gradient"/>
    <linearGradient id="linear-gradient-4" x1="0" y1="0.501" x2="0.999" y2="0.501" xlink:href="#linear-gradient"/>
    <linearGradient id="linear-gradient-5" x1="0.002" y1="0.504" x2="1" y2="0.504" xlink:href="#linear-gradient"/>
    <linearGradient id="linear-gradient-6" x1="0.003" y1="0.501" x2="1.001" y2="0.501" xlink:href="#linear-gradient"/>
    <linearGradient id="linear-gradient-7" x1="0.002" y1="0.499" x2="1.003" y2="0.499" xlink:href="#linear-gradient"/>
    <linearGradient id="linear-gradient-8" x1="0" y1="0.5" x2="0.997" y2="0.5" xlink:href="#linear-gradient"/>
    <linearGradient id="linear-gradient-9" x1="0.004" y1="0.5" x2="1.001" y2="0.5" xlink:href="#linear-gradient"/>
    <linearGradient id="linear-gradient-10" x1="0.002" y1="0.5" x2="0.999" y2="0.5" xlink:href="#linear-gradient"/>
    <linearGradient id="linear-gradient-11" x1="0" y1="0.503" x2="1" y2="0.503" xlink:href="#linear-gradient"/>
    <linearGradient id="linear-gradient-12" x1="0" y1="0.499" x2="1.001" y2="0.499" xlink:href="#linear-gradient"/>
  </defs>
  <g id="Industrial-and-commercial" transform="translate(0)">
    <g id="Group_15064" data-name="Group 15064" transform="translate(4.287 0)">
      <circle id="Ellipse_286" data-name="Ellipse 286" class="cls-1" cx="4.739" cy="4.739" r="4.739" transform="translate(3.463 11.119)"/>
      <path id="Path_51160" data-name="Path 51160" class="cls-2" d="M17.6,43a6.2,6.2,0,1,1-6.243,6.2A6.2,6.2,0,0,1,17.6,43m0-2a8.2,8.2,0,1,0,8.2,8.2A8.226,8.226,0,0,0,17.6,41Z" transform="translate(-9.4 -33.345)"/>
      <circle id="Ellipse_287" data-name="Ellipse 287" class="cls-3" cx="2.825" cy="2.825" r="2.825" transform="translate(28.708 2.096)"/>
      <path id="Path_51161" data-name="Path 51161" class="cls-4" d="M72.721,25.43a3.737,3.737,0,1,1-3.737,3.737,3.753,3.753,0,0,1,3.737-3.737m0-1.23a4.921,4.921,0,1,0,4.921,4.921A4.9,4.9,0,0,0,72.721,24.2Z" transform="translate(-41.188 -24.2)"/>
      <g id="Group_15063" data-name="Group 15063" transform="translate(14.992 4.785)">
        <g id="Group_15062" data-name="Group 15062">
          <path id="Path_51162" data-name="Path 51162" class="cls-5" d="M51.915,34.837V34.7L42.3,38.209a10.13,10.13,0,0,1,3.326,6.881l8.567-5.195A6.772,6.772,0,0,1,51.915,34.837Z" transform="translate(-42.3 -34.7)"/>
          <path id="Path_51163" data-name="Path 51163" class="cls-6" d="M90.078,40.2A6.739,6.739,0,0,1,87.8,43.3l4.967,2.734,2-2Z" transform="translate(-67.067 -37.694)"/>
        </g>
        <path id="Path_51164" data-name="Path 51164" class="cls-7" d="M103,44a8.682,8.682,0,0,0-2.461.365,6.877,6.877,0,0,0-2.962,2.278,6.657,6.657,0,0,0-1.64,3.418,6.492,6.492,0,0,0,.046,1.868,3.632,3.632,0,0,0,.137.684,8.459,8.459,0,0,0,8.476,6.152c.319-.046.684-.091,1-.137a.676.676,0,0,0,.547-.82,1.146,1.146,0,0,0-.319-.547s-9.752-2.552-5.24-8.157c4.466-5.514,9.068,3.418,9.068,3.418a.751.751,0,0,0,1.276-.5,7.762,7.762,0,0,0-.866-3.6,7.891,7.891,0,0,0-1.777-2.278,8.642,8.642,0,0,0-2.461-1.549A6.691,6.691,0,0,0,103,44Z" transform="translate(-71.471 -39.762)"/>
      </g>
    </g>
    <g id="Group_15065" data-name="Group 15065" transform="translate(27.618 32.991)">
      <circle id="Ellipse_288" data-name="Ellipse 288" class="cls-8" cx="3.737" cy="3.737" r="3.737"/>
      <circle id="Ellipse_289" data-name="Ellipse 289" class="cls-9" cx="3.737" cy="3.737" r="3.737" transform="translate(11.893)"/>
      <circle id="Ellipse_290" data-name="Ellipse 290" class="cls-10" cx="3.737" cy="3.737" r="3.737" transform="translate(23.832)"/>
    </g>
    <path id="Path_51165" data-name="Path 51165" class="cls-11" d="M82.716,84.6H43.3l2.278,3.964H82.716a5.195,5.195,0,0,1,0,10.39H51.274a6,6,0,0,1-.547,3.964H82.716a9.208,9.208,0,0,0,9.2-9.2A9.1,9.1,0,0,0,82.716,84.6Z" transform="translate(-23.566 -57.077)"/>
    <path id="Path_51166" data-name="Path 51166" class="cls-12" d="M24.42,97.583,15.717,82.5a11.219,11.219,0,0,1-3.281.5,11.527,11.527,0,0,1-3.326-.5L.406,97.583a3.111,3.111,0,0,0,2.689,4.648H21.777A3.092,3.092,0,0,0,24.42,97.583Z" transform="translate(0.008 -55.934)"/>
  </g>
</svg>
