<svg xmlns="http://www.w3.org/2000/svg" xmlns:xlink="http://www.w3.org/1999/xlink" width="64.649" height="54.632" viewBox="0 0 64.649 54.632">
  <defs>
    <linearGradient id="linear-gradient" x1="0.622" y1="0.5" x2="0.393" y2="0.5" gradientUnits="objectBoundingBox">
      <stop offset="0" stop-color="#ba83ff"/>
      <stop offset="1" stop-color="#d8abff"/>
    </linearGradient>
    <linearGradient id="linear-gradient-2" x1="2.451" y1="2.471" x2="0.024" y2="0.019" gradientUnits="objectBoundingBox">
      <stop offset="0" stop-color="#9c74ff"/>
      <stop offset="1" stop-color="#fff6ff"/>
    </linearGradient>
    <linearGradient id="linear-gradient-3" x1="0.635" y1="0.699" x2="0.601" y2="0.621" gradientUnits="objectBoundingBox">
      <stop offset="0" stop-color="#5f53c3"/>
      <stop offset="1" stop-color="#e2bfff"/>
    </linearGradient>
    <linearGradient id="linear-gradient-4" x1="0.467" y1="0.889" x2="0.523" y2="0.226" gradientUnits="objectBoundingBox">
      <stop offset="0" stop-color="#948cdc"/>
      <stop offset="1" stop-color="#5549be"/>
    </linearGradient>
    <linearGradient id="linear-gradient-5" x1="0.239" y1="0.126" x2="0.309" y2="0.254" gradientUnits="objectBoundingBox">
      <stop offset="0" stop-color="#ba77e8"/>
      <stop offset="1" stop-color="#d3c2ff"/>
    </linearGradient>
    <linearGradient id="linear-gradient-6" x1="1.864" y1="-0.161" x2="0.116" y2="0.686" gradientUnits="objectBoundingBox">
      <stop offset="0" stop-color="#5d51c2"/>
      <stop offset="1" stop-color="#8379d4"/>
    </linearGradient>
    <radialGradient id="radial-gradient" cx="0.162" cy="0.275" r="0.993" gradientTransform="translate(0)" gradientUnits="objectBoundingBox">
      <stop offset="0" stop-color="#9a92df"/>
      <stop offset="1" stop-color="#5549be"/>
    </radialGradient>
    <linearGradient id="linear-gradient-7" x1="1.068" y1="0.5" x2="-0.082" y2="0.5" gradientUnits="objectBoundingBox">
      <stop offset="0" stop-color="#473ab7"/>
      <stop offset="1" stop-color="#a8a1e6"/>
    </linearGradient>
    <linearGradient id="linear-gradient-8" x1="0.608" y1="0.642" x2="-0.073" y2="-0.252" gradientUnits="objectBoundingBox">
      <stop offset="0" stop-color="#3326aa"/>
      <stop offset="1" stop-color="#c3bdf2"/>
    </linearGradient>
    <linearGradient id="linear-gradient-9" x1="1.129" y1="1.118" x2="0.277" y2="0.365" gradientUnits="objectBoundingBox">
      <stop offset="0" stop-color="#584cbf"/>
      <stop offset="1" stop-color="#9a92df"/>
    </linearGradient>
    <linearGradient id="linear-gradient-10" x1="1.566" y1="1.6" x2="0.224" y2="0.215" gradientUnits="objectBoundingBox">
      <stop offset="0" stop-color="#5246bc"/>
      <stop offset="1" stop-color="#9b94e0"/>
    </linearGradient>
    <linearGradient id="linear-gradient-11" x1="0.795" y1="2.747" x2="0.473" y2="0.338" gradientUnits="objectBoundingBox">
      <stop offset="0" stop-color="#3124ff"/>
      <stop offset="1" stop-color="#00ffe2"/>
    </linearGradient>
    <linearGradient id="linear-gradient-12" x1="0.871" y1="3.162" x2="0.419" y2="-0.041" xlink:href="#linear-gradient-11"/>
    <linearGradient id="linear-gradient-13" x1="1.014" y1="3.705" x2="0.304" y2="-0.69" xlink:href="#linear-gradient-11"/>
    <linearGradient id="linear-gradient-14" x1="1.392" y1="4.064" x2="-0.069" y2="-1.775" xlink:href="#linear-gradient-11"/>
    <linearGradient id="linear-gradient-15" x1="3.295" y1="2.714" x2="0.204" y2="0.2" gradientUnits="objectBoundingBox">
      <stop offset="0" stop-color="#3124ff"/>
      <stop offset="1" stop-color="#dec9eb"/>
    </linearGradient>
    <linearGradient id="linear-gradient-16" x1="1.949" y1="2.397" x2="0.481" y2="0.376" gradientUnits="objectBoundingBox">
      <stop offset="0" stop-color="#b5a2ef"/>
      <stop offset="1" stop-color="#dec9eb"/>
    </linearGradient>
    <linearGradient id="linear-gradient-17" x1="1.553" y1="2.296" x2="0.442" y2="0.362" gradientUnits="objectBoundingBox">
      <stop offset="0" stop-color="#d5c0eb"/>
      <stop offset="1" stop-color="#dec9eb"/>
    </linearGradient>
    <linearGradient id="linear-gradient-18" x1="1.398" y1="2.311" x2="0.482" y2="0.446" gradientUnits="objectBoundingBox">
      <stop offset="0" stop-color="#d4bfec"/>
      <stop offset="1" stop-color="#dec9eb"/>
    </linearGradient>
    <linearGradient id="linear-gradient-19" x1="1.012" y1="1.05" x2="-0.358" y2="-0.564" gradientUnits="objectBoundingBox">
      <stop offset="0" stop-color="#6054c7"/>
      <stop offset="1" stop-color="#7065d0"/>
    </linearGradient>
    <linearGradient id="linear-gradient-20" x1="1.113" y1="1.123" x2="-0.812" y2="-1.023" gradientUnits="objectBoundingBox">
      <stop offset="0" stop-color="#6054c7"/>
      <stop offset="1" stop-color="#6e64cf"/>
    </linearGradient>
    <linearGradient id="linear-gradient-21" x1="1.271" y1="1.183" x2="-1.754" y2="-1.762" gradientUnits="objectBoundingBox">
      <stop offset="0" stop-color="#5749c1"/>
      <stop offset="1" stop-color="#7167d1"/>
    </linearGradient>
    <linearGradient id="linear-gradient-22" x1="1.608" y1="1.196" x2="-4.624" y2="-2.717" gradientUnits="objectBoundingBox">
      <stop offset="0" stop-color="#5549be"/>
      <stop offset="1" stop-color="#968edd"/>
    </linearGradient>
    <linearGradient id="linear-gradient-23" x1="2.171" y1="3.549" x2="1.445" y2="2.224" xlink:href="#linear-gradient-2"/>
    <linearGradient id="linear-gradient-24" x1="0.531" y1="0.494" x2="0.468" y2="0.372" gradientUnits="objectBoundingBox">
      <stop offset="0" stop-color="#8160ff"/>
      <stop offset="1" stop-color="#e2bfff"/>
    </linearGradient>
    <linearGradient id="linear-gradient-25" x1="0.598" y1="0.489" x2="0.399" y2="0.276" xlink:href="#linear-gradient-24"/>
    <linearGradient id="linear-gradient-26" y1="0.5" x2="1" y2="0.5" gradientUnits="objectBoundingBox">
      <stop offset="0" stop-color="#b3abef"/>
      <stop offset="1" stop-color="#3f3593"/>
    </linearGradient>
  </defs>
  <g id="Group_33158" data-name="Group 33158" transform="translate(0)">
    <g id="_10" data-name="10" transform="translate(11.08 0)">
      <g id="_7" data-name="7" transform="translate(0 20.297)">
        <g id="Group_28457" data-name="Group 28457" transform="translate(0 0)">
          <path id="Path_81589" data-name="Path 81589" d="M549.815,207.117l-.02-3.675-3.59-.018-18.865-10.935c-2.815-1.632-7.738-1.436-11,.437l-17.4,10.005c-.143.082-.278.167-.409.252l-2.289-.011v3.405h0a3.29,3.29,0,0,0,1.9,2.7l20.577,11.928c2.815,1.632,7.738,1.436,11-.436l17.4-10.006c1.81-1.041,2.724-2.381,2.7-3.646Z" transform="translate(-496.247 -187.977)" fill="url(#linear-gradient)"/>
          <path id="Path_81590" data-name="Path 81590" d="M518.722,209.285l-20.578-11.928c-2.815-1.632-2.457-4.473.8-6.346L516.345,181c3.257-1.873,8.18-2.069,11-.436L547.918,192.5c2.815,1.632,2.457,4.473-.8,6.347l-17.4,10.005C526.461,210.721,521.538,210.917,518.722,209.285Z" transform="translate(-496.247 -179.461)" fill="url(#linear-gradient-2)"/>
        </g>
      </g>
      <g id="_2" data-name="2" transform="translate(8.512 0)">
        <g id="_6" data-name="6" transform="translate(0 8.361)">
          <g id="Group_28461" data-name="Group 28461" transform="translate(1.114)">
            <g id="_9" data-name="9" transform="translate(0 7.912)">
              <path id="Path_81591" data-name="Path 81591" d="M566.813,175.252l-16.445-9.718a.852.852,0,0,0-.831-.085h0l-.011.006L531.45,175.871l18.164,17.764L567.6,183.273a1.121,1.121,0,0,0,.5-1.082l.021-4.429A3.142,3.142,0,0,0,566.813,175.252Z" transform="translate(-531.021 -165.376)" fill="url(#linear-gradient-3)"/>
              <path id="Path_81592" data-name="Path 81592" d="M547.7,219.506l-16.445-9.718a3.142,3.142,0,0,1-1.308-2.509l.021-4.429c0-.966.59-1.409,1.314-.989l16.445,9.718a3.141,3.141,0,0,1,1.308,2.509l-.021,4.429C549.013,219.482,548.425,219.925,547.7,219.506Z" transform="translate(-529.949 -191.325)" fill="#9188ed"/>
              <path id="Path_81593" data-name="Path 81593" d="M549.758,222.574l-14.839-8.787a2.011,2.011,0,0,1-.837-1.606V209.59c0-.618.377-.9.841-.633l14.839,8.787a2.011,2.011,0,0,1,.837,1.606v2.591C550.6,222.559,550.221,222.843,549.758,222.574Z" transform="translate(-532.901 -196.436)" fill="url(#linear-gradient-4)"/>
              <path id="Path_81594" data-name="Path 81594" d="M536.313,213.07a2.011,2.011,0,0,1-.837-1.606v-2.177l-.548-.318c-.463-.269-.84.015-.841.633v2.591a2.011,2.011,0,0,0,.837,1.606l14.839,8.787c.463.268.84-.015.841-.633v-.414Z" transform="translate(-532.905 -196.444)" fill="url(#linear-gradient-5)"/>
            </g>
            <g id="Group_28460" data-name="Group 28460" transform="translate(34.94)">
              <g id="Group_28458" data-name="Group 28458" transform="translate(0 21.567)">
                <path id="Path_81595" data-name="Path 81595" d="M652.29,214.653h0a.651.651,0,0,1,.478-.787l2.732-.668a.651.651,0,0,1,.786.478h0a.651.651,0,0,1-.478.787l-2.732.668A.651.651,0,0,1,652.29,214.653Z" transform="translate(-652.272 -213.18)" fill="url(#linear-gradient-6)"/>
              </g>
              <circle id="Ellipse_857" data-name="Ellipse 857" cx="1.358" cy="1.358" r="1.358" transform="translate(3.153 20.52)" fill="url(#radial-gradient)"/>
              <g id="Group_28459" data-name="Group 28459" transform="translate(3.38)">
                <path id="Path_81596" data-name="Path 81596" d="M666.134,143.3h-1.8l-.232,19.122c0,.393.506.712,1.131.712s1.131-.319,1.131-.712Z" transform="translate(-664.105 -141.695)" fill="url(#linear-gradient-7)"/>
                <ellipse id="Ellipse_858" data-name="Ellipse 858" cx="0.898" cy="0.542" rx="0.898" ry="0.542" transform="translate(0.232 1.065)" fill="url(#linear-gradient-8)"/>
                <path id="Path_81597" data-name="Path 81597" d="M666.715,138.74c0,.3-.4.542-.9.542s-.9-.243-.9-.542.4-1.065.9-1.065S666.715,138.441,666.715,138.74Z" transform="translate(-664.686 -137.675)" fill="url(#linear-gradient-9)"/>
              </g>
            </g>
          </g>
          <path id="Path_81598" data-name="Path 81598" d="M541.724,230.551l-14.839-8.787a2.011,2.011,0,0,1-.837-1.606v-2.591c0-.618.378-.9.841-.633l14.839,8.787a2.011,2.011,0,0,1,.837,1.606v2.591C542.564,230.536,542.187,230.82,541.724,230.551Z" transform="translate(-526.048 -194.222)" fill="url(#linear-gradient-10)" style="mix-blend-mode: lighten;isolation: isolate"/>
        </g>
        <g id="_2-2" data-name="2" transform="translate(6.135)">
          <g id="_3" data-name="3" transform="translate(3.309)" style="mix-blend-mode: overlay;isolation: isolate">
            <g id="Group_28462" data-name="Group 28462">
              <path id="Path_81599" data-name="Path 81599" d="M559.542,111.972c.44.67,1.065.97,1.467.7,1.31-.881,4.6-2.294,9.935.535l.165.088A28.012,28.012,0,0,1,581.5,123.837c.448.785,1.172,1.261,1.709,1.117h0c.672-.179.77-1.233.2-2.215-1.756-3.043-5.8-8.947-12.263-12.378l-.19-.1c-6.117-3.174-9.919-1.548-11.506-.465-.489.333-.448,1.356.089,2.175Z" transform="translate(-559.111 -108.404)" fill="url(#linear-gradient-11)"/>
            </g>
            <g id="Group_28463" data-name="Group 28463" transform="translate(3.112 6.35)">
              <path id="Path_81600" data-name="Path 81600" d="M570.432,133.722c.436.688,1.068,1.027,1.491.795,1.1-.6,3.46-1.387,6.736.369l.116.063c3.271,1.8,5.526,5.161,6.6,7.039.436.766,1.134,1.225,1.648,1.087h0c.651-.174.744-1.217.186-2.185-1.425-2.474-4.346-6.733-8.561-8.955-4.06-2.132-6.906-1.177-8.265-.4-.515.3-.491,1.325.046,2.173Z" transform="translate(-570.007 -130.635)" fill="url(#linear-gradient-12)"/>
            </g>
            <g id="Group_28464" data-name="Group 28464" transform="translate(6.353 12.249)">
              <path id="Path_81601" data-name="Path 81601" d="M591.945,160.358h.006c.665-.133.772-1.175.219-2.16-1.054-1.879-2.927-4.638-5.435-6.044a4.989,4.989,0,0,0-4.99-.371c-.557.3-.516,1.4.089,2.287l0,.007c.446.652,1.057.963,1.473.75a3.433,3.433,0,0,1,3.408.251,11.231,11.231,0,0,1,3.653,4.185C590.785,160,591.445,160.458,591.945,160.358Z" transform="translate(-581.353 -151.285)" fill="url(#linear-gradient-13)"/>
            </g>
            <path id="Path_81602" data-name="Path 81602" d="M590.813,174.4a5.964,5.964,0,0,0,2.669,4.6c1.5.908,2.745.29,2.755-1.391a5.944,5.944,0,0,0-2.723-4.643C592.023,172.107,590.82,172.751,590.813,174.4Z" transform="translate(-581.758 -154.254)" fill="url(#linear-gradient-14)"/>
          </g>
          <g id="_4" data-name="4" transform="translate(0 1.16)">
            <g id="_4-2" data-name="4" transform="translate(0.342)">
              <path id="Path_81603" data-name="Path 81603" d="M583.569,177.118l.009,0v0a2.269,2.269,0,0,1,1.595.345,5.95,5.95,0,0,1,2.761,4.669,1.988,1.988,0,0,1-.513,1.452h0l-.005,0a2.118,2.118,0,0,1-.757.416l-.943.518-3.784-6.531,1.038-.557A1.3,1.3,0,0,1,583.569,177.118Z" transform="translate(-572.447 -158.623)" fill="url(#linear-gradient-15)"/>
              <path id="Path_81604" data-name="Path 81604" d="M571.979,156.134a5.091,5.091,0,0,1,5.063.353c2.545,1.407,4.445,4.181,5.514,6.071.561.991.452,2.041-.224,2.178l-.35.193-.932.52-5.806-6.589a3.153,3.153,0,0,0-1.679.335c-.422.216-1.041-.094-1.494-.75l0-.007c-.164-.237-.285-.49.118-1.059l-1.61-.347Z" transform="translate(-564.333 -143.298)" fill="url(#linear-gradient-16)"/>
              <path id="Path_81605" data-name="Path 81605" d="M561.138,135.439c1.451-.774,4.252-1.509,8.169.517,4.277,2.221,7.24,6.52,8.686,9.008.566.974.471,2.035-.19,2.213-.049.013-.4.235-.454.238l-.987.55-4.575-6.228-6.327-3.84a6.04,6.04,0,0,0-2.975.725c-.429.236-1.07-.1-1.512-.795l-.007-.011c-.008-.012-.015-.025-.022-.038l-.4-.01-.816-1.342.8-.624Z" transform="translate(-556.581 -128.31)" fill="url(#linear-gradient-17)"/>
              <path id="Path_81606" data-name="Path 81606" d="M548.722,114.72l1.155-.831c1.611-1.1,5.469-2.755,11.675.416l.193.1c6.56,3.431,10.663,9.365,12.444,12.426.443.761.56,1.442.244,1.856l-.318.32-.182.1a2.479,2.479,0,0,1-.449.223l-1.069.566-1.888-2.6-7.778-8.943-4.356-2.343a8.187,8.187,0,0,0-6.938.768c-.408.274-1.042-.025-1.488-.7v0a2.658,2.658,0,0,1-.408-1.028Z" transform="translate(-548.722 -112.464)" fill="url(#linear-gradient-18)"/>
            </g>
            <g id="_3-2" data-name="3" transform="translate(0 0.864)">
              <g id="Group_28465" data-name="Group 28465">
                <path id="Path_81607" data-name="Path 81607" d="M547.956,119.058c.439.67,1.065.97,1.467.7,1.31-.881,4.6-2.294,9.935.534l.165.089a28.015,28.015,0,0,1,10.391,10.543c.448.785,1.172,1.261,1.709,1.117h0c.672-.179.769-1.233.2-2.215-1.756-3.043-5.8-8.947-12.263-12.378l-.19-.1c-6.117-3.174-9.919-1.548-11.506-.465-.489.333-.448,1.357.089,2.175Z" transform="translate(-547.525 -115.489)" fill="url(#linear-gradient-19)"/>
              </g>
              <g id="Group_28466" data-name="Group 28466" transform="translate(3.112 6.35)">
                <path id="Path_81608" data-name="Path 81608" d="M558.846,140.808c.436.688,1.068,1.027,1.491.795,1.1-.6,3.46-1.387,6.736.368l.116.063c3.271,1.8,5.526,5.161,6.6,7.039.436.766,1.133,1.225,1.648,1.088h0c.651-.174.744-1.217.186-2.186-1.425-2.474-4.347-6.733-8.561-8.955-4.06-2.132-6.906-1.177-8.265-.4-.515.3-.491,1.325.046,2.174Z" transform="translate(-558.421 -137.72)" fill="url(#linear-gradient-20)"/>
              </g>
              <g id="Group_28467" data-name="Group 28467" transform="translate(6.353 12.249)">
                <path id="Path_81609" data-name="Path 81609" d="M580.359,167.443h.006c.665-.133.772-1.174.219-2.16-1.054-1.879-2.927-4.638-5.435-6.045a4.989,4.989,0,0,0-4.99-.371c-.557.3-.516,1.4.089,2.287l0,.007c.446.653,1.057.963,1.473.75a3.432,3.432,0,0,1,3.408.251,11.233,11.233,0,0,1,3.653,4.185C579.2,167.086,579.859,167.543,580.359,167.443Z" transform="translate(-569.767 -158.371)" fill="url(#linear-gradient-21)"/>
              </g>
              <path id="Path_81610" data-name="Path 81610" d="M579.227,181.488a5.964,5.964,0,0,0,2.669,4.6c1.5.908,2.745.29,2.755-1.391a5.944,5.944,0,0,0-2.723-4.642C580.437,179.192,579.234,179.837,579.227,181.488Z" transform="translate(-570.172 -161.34)" fill="url(#linear-gradient-22)"/>
            </g>
          </g>
        </g>
        <path id="Path_81611" data-name="Path 81611" d="M542.261,216.912a1.238,1.238,0,0,0,.554.955c.312.188.57.06.572-.289a1.234,1.234,0,0,0-.565-.963C542.512,216.436,542.262,216.569,542.261,216.912Z" transform="translate(-537.63 -185.649)" fill="url(#linear-gradient-23)"/>
        <g id="Group_28468" data-name="Group 28468" transform="translate(25.656 31.343)">
          <path id="Path_81612" data-name="Path 81612" d="M624.2,218.7l-.976-.571h0l-7.354,4.21v1.514l1.33,2.329,7.32-4.218a.456.456,0,0,0,.2-.44l.008-1.8A1.277,1.277,0,0,0,624.2,218.7Z" transform="translate(-615.869 -218.134)" fill="url(#linear-gradient-24)"/>
          <path id="Path_81613" data-name="Path 81613" d="M616.868,233.456l-1-.584V236.1l.988.578c.295.171.534-.009.535-.4l.008-1.8A1.279,1.279,0,0,0,616.868,233.456Z" transform="translate(-615.869 -228.662)" fill="#a19ff4"/>
        </g>
        <g id="Group_28469" data-name="Group 28469" transform="translate(23.66 35.968)">
          <path id="Path_81614" data-name="Path 81614" d="M611.11,234.9l-.976-.57h0l-1.254.712v1.514l1.33,2.329,1.219-.72a.457.457,0,0,0,.2-.441l.009-1.8A1.28,1.28,0,0,0,611.11,234.9Z" transform="translate(-608.88 -234.325)" fill="url(#linear-gradient-25)"/>
          <path id="Path_81615" data-name="Path 81615" d="M609.879,237.4l-1-.584v3.233l.988.578c.295.171.534-.009.535-.4l.009-1.8A1.279,1.279,0,0,0,609.879,237.4Z" transform="translate(-608.88 -236.105)" fill="#a19ff4"/>
        </g>
      </g>
    </g>
    <g id="Group_32884" data-name="Group 32884" transform="translate(0 1.048)">
      <g id="Group_32883" data-name="Group 32883" transform="translate(0)" style="isolation: isolate">
        <g id="Group_32876" data-name="Group 32876" transform="translate(13.326 1.78)">
          <path id="Path_89673" data-name="Path 89673" d="M854.2,49.187l1.087.632a2.248,2.248,0,0,0-2.265.226l-1.087-.632A2.248,2.248,0,0,1,854.2,49.187Z" transform="translate(-851.939 -48.974)" fill="#fff"/>
        </g>
        <g id="Group_32877" data-name="Group 32877" transform="translate(10.181)">
          <path id="Path_89674" data-name="Path 89674" d="M846.215,44.688l1.087.632a2.208,2.208,0,0,0-2.228.213l-1.087-.632A2.207,2.207,0,0,1,846.215,44.688Z" transform="translate(-843.987 -44.475)" fill="#fff"/>
        </g>
        <g id="Group_32878" data-name="Group 32878" transform="translate(6.92 0.427)">
          <path id="Path_89675" data-name="Path 89675" d="M836.832,48.068l-1.087-.632L839,45.553l1.087.632Z" transform="translate(-835.745 -45.553)" fill="#fff"/>
        </g>
        <g id="Group_32879" data-name="Group 32879" transform="translate(3.122 7.722)">
          <path id="Path_89676" data-name="Path 89676" d="M827.23,65.017l-1.087-.632.673-.389,1.087.632Z" transform="translate(-826.142 -63.996)" fill="#fff"/>
        </g>
        <g id="Group_32880" data-name="Group 32880" transform="translate(3.795 2.309)">
          <path id="Path_89677" data-name="Path 89677" d="M828.931,56.357l-1.087-.632a6.9,6.9,0,0,1,3.125-5.413l1.087.632a6.9,6.9,0,0,0-3.125,5.413Z" transform="translate(-827.844 -50.312)" fill="#fff"/>
        </g>
        <g id="Group_32881" data-name="Group 32881" transform="translate(0 8.111)">
          <path id="Path_89678" data-name="Path 89678" d="M820.254,73.026l-1.087-.632a2.187,2.187,0,0,1-.916-2,6.9,6.9,0,0,1,3.122-5.411l1.087.632a6.9,6.9,0,0,0-3.122,5.411A2.188,2.188,0,0,0,820.254,73.026Z" transform="translate(-818.25 -64.979)" fill="#fff"/>
        </g>
        <g id="Group_32882" data-name="Group 32882" transform="translate(1.087 0.632)">
          <path id="Path_89679" data-name="Path 89679" d="M831.179,46.5c1.724-1,3.14-.188,3.146,1.793,1.756-1.014,3.173-.211,3.178,1.773a6.914,6.914,0,0,1-3.125,5.41l-10.237,5.91c-1.721.993-3.137.19-3.142-1.791a6.9,6.9,0,0,1,3.122-5.411l.673-.388a6.895,6.895,0,0,1,3.125-5.413Z" transform="translate(-820.999 -46.073)" fill="url(#linear-gradient-26)"/>
        </g>
      </g>
    </g>
  </g>
</svg>
