<svg id="_852" data-name="852" xmlns="http://www.w3.org/2000/svg" xmlns:xlink="http://www.w3.org/1999/xlink" width="58.995" height="63.313" viewBox="0 0 58.995 63.313">
  <defs>
    <linearGradient id="linear-gradient" x1="0.981" y1="0.5" x2="-0.019" y2="0.5" gradientUnits="objectBoundingBox">
      <stop offset="0" stop-color="#9188ed"/>
      <stop offset="0.178" stop-color="#9188ed"/>
      <stop offset="0.388" stop-color="#9188ed"/>
      <stop offset="0.613" stop-color="#5b3bff"/>
      <stop offset="0.849" stop-color="#5b3bff"/>
      <stop offset="1" stop-color="#8261ff"/>
    </linearGradient>
    <linearGradient id="linear-gradient-2" x1="0.092" y1="0.5" x2="1.092" y2="0.5" gradientUnits="objectBoundingBox">
      <stop offset="0" stop-color="#c0bff6"/>
      <stop offset="0.294" stop-color="#c4c3f6"/>
      <stop offset="0.64" stop-color="#d2d2f9"/>
      <stop offset="1" stop-color="#e9e9fd"/>
    </linearGradient>
    <linearGradient id="linear-gradient-3" x1="-1.025" y1="0.5" x2="-0.025" y2="0.5" xlink:href="#linear-gradient-2"/>
    <linearGradient id="linear-gradient-4" x1="-10.795" y1="0.5" x2="-9.795" y2="0.5" gradientUnits="objectBoundingBox">
      <stop offset="0" stop-color="#5761d7"/>
      <stop offset="0.178" stop-color="#5b65d8"/>
      <stop offset="0.388" stop-color="#6a72de"/>
      <stop offset="0.613" stop-color="#8188e8"/>
      <stop offset="0.849" stop-color="#a2a6f5"/>
      <stop offset="1" stop-color="#bcbeff"/>
    </linearGradient>
    <linearGradient id="linear-gradient-5" x1="-0.244" y1="0.5" x2="0.756" y2="0.5" xlink:href="#linear-gradient-4"/>
    <clipPath id="clip-path">
      <path id="Path_112391" data-name="Path 112391" d="M393.264,96.259,360.093,77.117l-4.168,24.78,33.15,19.13Z" transform="translate(-355.925 -77.117)" fill="none"/>
    </clipPath>
    <linearGradient id="linear-gradient-6" x1="-1.013" y1="0.5" x2="-0.013" y2="0.5" xlink:href="#linear-gradient-4"/>
    <linearGradient id="linear-gradient-7" x1="-0.677" y1="0.5" x2="0.323" y2="0.5" xlink:href="#linear-gradient-2"/>
    <linearGradient id="linear-gradient-8" x1="0.125" y1="0.5" x2="1.125" y2="0.5" gradientUnits="objectBoundingBox">
      <stop offset="0" stop-color="#bcbeff"/>
      <stop offset="0.144" stop-color="#b3b6fb"/>
      <stop offset="0.37" stop-color="#9da2f3"/>
      <stop offset="0.646" stop-color="#7981e4"/>
      <stop offset="0.873" stop-color="#5761d7"/>
    </linearGradient>
    <linearGradient id="linear-gradient-9" x1="-0.929" y1="0.5" x2="1.539" y2="0.5" gradientUnits="objectBoundingBox">
      <stop offset="0" stop-color="#e9e9fd"/>
      <stop offset="0.36" stop-color="#d2d2f9"/>
      <stop offset="0.706" stop-color="#c4c3f6"/>
      <stop offset="1" stop-color="#c0bff6"/>
    </linearGradient>
    <linearGradient id="linear-gradient-10" x1="-0.474" y1="0.366" x2="1.858" y2="0.659" xlink:href="#linear-gradient-8"/>
  </defs>
  <g id="Group_50046" data-name="Group 50046" transform="translate(0 30.688)">
    <path id="Path_112298" data-name="Path 112298" d="M334.819,207.123l-1.8-.259-31.177-18a1.342,1.342,0,0,0-1.208-.05l-18.568,10.72-1.143-.164v1.517h0a.5.5,0,0,0,.292.39L313.9,220.145a1.342,1.342,0,0,0,1.208.05l19.5-11.259a.353.353,0,0,0,.206-.309h0Z" transform="translate(-280.923 -187.692)" fill="url(#linear-gradient)"/>
    <path id="Path_112299" data-name="Path 112299" d="M281.218,197.15,313.9,216.019a1.342,1.342,0,0,0,1.208.05l19.5-11.259c.31-.179.271-.492-.087-.7l-32.681-18.868a1.343,1.343,0,0,0-1.208-.05l-19.5,11.259C280.822,196.631,280.861,196.944,281.218,197.15Z" transform="translate(-280.923 -185.072)" fill="url(#linear-gradient-2)"/>
    <path id="Path_112300" data-name="Path 112300" d="M291.532,201.841l29.21,16.865a1.2,1.2,0,0,0,1.08.045l17.431-10.064c.277-.16.242-.439-.077-.624L309.965,191.2a1.2,1.2,0,0,0-1.08-.045l-17.431,10.064C291.177,201.377,291.212,201.656,291.532,201.841Z" transform="translate(-288.406 -189.393)" fill="#24126a" opacity="0.3"/>
    <path id="Path_112301" data-name="Path 112301" d="M334.617,234.985l-19.5,11.259a1.342,1.342,0,0,1-1.208-.05l-32.681-18.868a.562.562,0,0,1-.28-.313c-.05.159.045.341.28.477l32.681,18.868a1.342,1.342,0,0,0,1.208.05l19.5-11.259a.331.331,0,0,0,.194-.385A.4.4,0,0,1,334.617,234.985Z" transform="translate(-280.93 -215.413)" fill="#fff"/>
  </g>
  <g id="Group_50062" data-name="Group 50062" transform="translate(0 0)">
    <g id="Group_50060" data-name="Group 50060" transform="translate(0)">
      <g id="Group_50058" data-name="Group 50058">
        <g id="Group_50050" data-name="Group 50050">
          <g id="Group_50048" data-name="Group 50048" transform="translate(20.336)">
            <path id="Path_112302" data-name="Path 112302" d="M356.322,99.1l4.131-24.51-.332-.14.5-.286v0A.359.359,0,0,1,361,74.2L394.02,93.258a.933.933,0,0,1,.429.839l-4.164,24.7a.31.31,0,0,1-.174.251h0l-.488.282-.084-.456.028.009L356.751,99.941A.932.932,0,0,1,356.322,99.1Z" transform="translate(-355.797 -74.125)" fill="url(#linear-gradient-3)"/>
            <path id="Path_112303" data-name="Path 112303" d="M476.457,145.09l.543-.24a.749.749,0,0,1,.07.409l-4.164,24.7a.31.31,0,0,1-.174.251h0l-.488.282-.084-.456.028.009-1.66-.959Z" transform="translate(-438.417 -125.287)" fill="url(#linear-gradient-4)"/>
            <path id="Path_112304" data-name="Path 112304" d="M354.878,101.012l33.016,19.062c.255.147.473.062.518-.2l4.164-24.7a.932.932,0,0,0-.429-.839L359.131,75.267c-.255-.147-.473-.062-.518.2l-4.164,24.7A.932.932,0,0,0,354.878,101.012Z" transform="translate(-354.442 -74.9)" fill="#24126a"/>
            <g id="Group_50047" data-name="Group 50047" transform="translate(0.41 0.827)" opacity="0.51">
              <path id="Path_112305" data-name="Path 112305" d="M360.093,77.117l33.171,19.143-4.189,24.767-33.15-19.13Z" transform="translate(-355.925 -77.117)" fill="#6a5ecc"/>
            </g>
          </g>
          <g id="Group_50049" data-name="Group 50049" transform="translate(0 26.027)">
            <path id="Path_112306" data-name="Path 112306" d="M280.985,185.687l1.8.941L300.854,176.2a1.312,1.312,0,0,1,1.179.049l31.161,17.991c.3-.167,1.658-.821,1.658-.821l-.659,1.072,0,0a.391.391,0,0,1-.184.2l-19.029,10.986a1.31,1.31,0,0,1-1.179-.049l-31.888-18.41a.572.572,0,0,1-.267-.284h0Z" transform="translate(-280.968 -173.905)" fill="url(#linear-gradient-5)"/>
            <path id="Path_112307" data-name="Path 112307" d="M281.218,180.3,313.9,199.166a1.344,1.344,0,0,0,1.208.05l19.5-11.259c.31-.179.271-.491-.087-.7l-32.681-18.868a1.342,1.342,0,0,0-1.208-.05l-19.5,11.259C280.822,179.779,280.861,180.091,281.218,180.3Z" transform="translate(-280.923 -168.22)" fill="#e2bfff"/>
            <path id="Path_112308" data-name="Path 112308" d="M281.224,210.511,313.9,229.379a1.343,1.343,0,0,0,1.208.05l19.5-11.259a.393.393,0,0,0,.2-.228.334.334,0,0,1-.2.375l-19.5,11.259a1.344,1.344,0,0,1-1.208-.05l-32.681-18.868c-.232-.134-.327-.312-.283-.469A.555.555,0,0,0,281.224,210.511Z" transform="translate(-280.928 -198.58)" fill="#fff"/>
          </g>
        </g>
        <g id="Group_50057" data-name="Group 50057" transform="translate(20.746 0.827)" opacity="0.15">
          <g id="Group_50056" data-name="Group 50056" clip-path="url(#clip-path)">
            <g id="Group_50053" data-name="Group 50053" transform="translate(-0.032 13.345)">
              <g id="Group_50051" data-name="Group 50051">
                <path id="Path_112309" data-name="Path 112309" d="M355.871,142.827l1.8.941,18.067-10.431a1.311,1.311,0,0,1,1.179.049l31.161,17.991c.3-.167,1.658-.821,1.658-.821l-.659,1.072,0,0a.394.394,0,0,1-.184.2l-19.028,10.986a1.311,1.311,0,0,1-1.179-.049L356.8,144.357a.569.569,0,0,1-.268-.284l0,0Z" transform="translate(-355.854 -131.045)" fill="url(#linear-gradient-6)"/>
                <path id="Path_112310" data-name="Path 112310" d="M356.1,137.439l32.681,18.868a1.343,1.343,0,0,0,1.209.05l19.5-11.259c.31-.179.271-.491-.087-.7l-32.681-18.868a1.344,1.344,0,0,0-1.209-.05l-19.5,11.259C355.707,136.92,355.746,137.232,356.1,137.439Z" transform="translate(-355.808 -125.361)" fill="url(#linear-gradient-7)"/>
                <path id="Path_112311" data-name="Path 112311" d="M462.006,144.4l-32.681-18.868a1.424,1.424,0,0,0-.808-.164,1.365,1.365,0,0,1,.567.164L461.766,144.4c.358.207.4.519.087.7l-19.5,11.259a.981.981,0,0,1-.4.114,1.144,1.144,0,0,0,.642-.114l19.5-11.259C462.4,144.922,462.364,144.609,462.006,144.4Z" transform="translate(-408.406 -125.364)" fill="#fff"/>
              </g>
              <g id="Group_50052" data-name="Group 50052" transform="translate(8.079 8.191)" opacity="0.5">
                <path id="Path_112312" data-name="Path 112312" d="M411.959,155.612l-1.048-.6a.351.351,0,0,0-.318.009l-1.165.68c-.091.053-.1.136-.013.185l1.048.6a.35.35,0,0,0,.318-.009l1.164-.68C412.037,155.743,412.043,155.661,411.959,155.612Z" transform="translate(-402.624 -154.973)" fill="#24126a"/>
                <path id="Path_112313" data-name="Path 112313" d="M417.808,158.989l-1.048-.6a.35.35,0,0,0-.318.009l-1.164.68c-.092.053-.1.136-.013.185l1.047.6a.35.35,0,0,0,.318-.009l1.165-.68C417.886,159.12,417.892,159.037,417.808,158.989Z" transform="translate(-406.855 -157.416)" fill="#24126a"/>
                <path id="Path_112314" data-name="Path 112314" d="M423.656,162.365l-1.048-.6a.35.35,0,0,0-.318.009l-1.164.68c-.091.053-.1.136-.013.184l1.047.6a.351.351,0,0,0,.318-.009l1.164-.68C423.734,162.5,423.74,162.414,423.656,162.365Z" transform="translate(-411.085 -159.859)" fill="#24126a"/>
                <path id="Path_112315" data-name="Path 112315" d="M419.692,166.86l-1.048-.6a.35.35,0,0,0-.318.009l-.977.571c-.092.053-.1.136-.013.185l1.048.6a.35.35,0,0,0,.318-.009l.977-.571C419.771,166.991,419.776,166.908,419.692,166.86Z" transform="translate(-408.353 -163.11)" fill="#24126a"/>
                <path id="Path_112316" data-name="Path 112316" d="M425.541,170.236l-1.047-.6a.35.35,0,0,0-.318.009l-.978.571c-.091.053-.1.136-.013.184l1.048.6a.351.351,0,0,0,.318-.009l.977-.571C425.619,170.368,425.625,170.285,425.541,170.236Z" transform="translate(-412.584 -165.553)" fill="#24126a"/>
                <path id="Path_112317" data-name="Path 112317" d="M431.39,173.613l-1.048-.6a.351.351,0,0,0-.318.009l-.977.571c-.092.054-.1.136-.013.185l1.048.6a.35.35,0,0,0,.318-.009l.978-.571C431.468,173.744,431.474,173.662,431.39,173.613Z" transform="translate(-416.815 -167.995)" fill="#24126a"/>
                <path id="Path_112318" data-name="Path 112318" d="M437.238,176.99l-1.047-.6a.35.35,0,0,0-.318.009l-.977.571c-.091.053-.1.136-.013.185l1.048.6a.35.35,0,0,0,.318-.009l.977-.571C437.316,177.121,437.322,177.038,437.238,176.99Z" transform="translate(-421.046 -170.438)" fill="#24126a"/>
                <path id="Path_112319" data-name="Path 112319" d="M443.087,180.366l-1.047-.6a.35.35,0,0,0-.318.009l-.977.571c-.092.053-.1.136-.013.185l1.047.6a.351.351,0,0,0,.318-.009l.978-.571C443.165,180.5,443.171,180.415,443.087,180.366Z" transform="translate(-425.277 -172.881)" fill="#24126a"/>
                <path id="Path_112320" data-name="Path 112320" d="M448.935,183.743l-1.047-.6a.351.351,0,0,0-.318.009l-.977.571c-.092.054-.1.136-.013.185l1.047.6a.351.351,0,0,0,.318-.009l.977-.571C449.014,183.874,449.02,183.792,448.935,183.743Z" transform="translate(-429.508 -175.323)" fill="#24126a"/>
                <path id="Path_112321" data-name="Path 112321" d="M454.784,187.12l-1.047-.6a.35.35,0,0,0-.318.009l-.978.571c-.091.053-.1.136-.013.185l1.047.6a.35.35,0,0,0,.318-.009l.977-.571C454.862,187.251,454.868,187.168,454.784,187.12Z" transform="translate(-433.738 -177.766)" fill="#24126a"/>
                <path id="Path_112322" data-name="Path 112322" d="M460.633,190.5l-1.048-.6a.35.35,0,0,0-.318.009l-.977.571c-.092.053-.1.136-.013.184l1.048.6a.35.35,0,0,0,.318-.009l.978-.571C460.711,190.628,460.717,190.545,460.633,190.5Z" transform="translate(-437.969 -180.209)" fill="#24126a"/>
                <path id="Path_112323" data-name="Path 112323" d="M466.481,193.873l-1.047-.6a.351.351,0,0,0-.318.009l-.977.571c-.092.054-.1.136-.014.185l1.048.6a.351.351,0,0,0,.318-.009l.977-.571C466.559,194,466.565,193.922,466.481,193.873Z" transform="translate(-442.2 -182.651)" fill="#24126a"/>
                <path id="Path_112324" data-name="Path 112324" d="M472.33,197.25l-1.048-.6a.35.35,0,0,0-.318.009l-.978.571c-.091.053-.1.136-.013.185l1.047.6a.35.35,0,0,0,.318-.009l.977-.571C472.408,197.381,472.414,197.3,472.33,197.25Z" transform="translate(-446.431 -185.094)" fill="#24126a"/>
                <path id="Path_112325" data-name="Path 112325" d="M417.256,171.68l-1.047-.6a.351.351,0,0,0-.318.009l-.978.571c-.091.053-.1.136-.013.185l1.047.6a.35.35,0,0,0,.318-.009l.977-.571C417.334,171.811,417.34,171.729,417.256,171.68Z" transform="translate(-406.591 -166.597)" fill="#24126a"/>
                <path id="Path_112326" data-name="Path 112326" d="M411.32,168.253l-1.047-.6a.35.35,0,0,0-.318.009l-.978.571c-.091.053-.1.136-.013.185l1.047.6a.35.35,0,0,0,.318-.009l.977-.571C411.4,168.384,411.4,168.3,411.32,168.253Z" transform="translate(-402.297 -164.118)" fill="#24126a"/>
                <path id="Path_112327" data-name="Path 112327" d="M402.213,163l-2.256-1.3a.35.35,0,0,0-.318.009l-.978.571c-.091.053-.1.136-.013.185l2.256,1.3a.351.351,0,0,0,.318-.009l.977-.571C402.292,163.126,402.3,163.044,402.213,163Z" transform="translate(-394.835 -159.809)" fill="#24126a"/>
                <path id="Path_112328" data-name="Path 112328" d="M396.427,165.882l-1.831-1.057a.351.351,0,0,0-.318.009l-.978.571c-.091.053-.1.136-.013.184l1.831,1.057a.35.35,0,0,0,.318-.009l.977-.571C396.506,166.013,396.511,165.93,396.427,165.882Z" transform="translate(-390.957 -162.075)" fill="#24126a"/>
                <path id="Path_112329" data-name="Path 112329" d="M423.1,175.056l-1.048-.6a.349.349,0,0,0-.318.009l-.977.571c-.091.053-.1.136-.013.184l1.047.6a.35.35,0,0,0,.318-.009l.978-.571C423.183,175.188,423.189,175.105,423.1,175.056Z" transform="translate(-410.822 -169.039)" fill="#24126a"/>
                <path id="Path_112330" data-name="Path 112330" d="M428.953,178.433l-1.047-.6a.351.351,0,0,0-.318.009l-.978.571c-.091.053-.1.136-.013.184l1.048.6a.351.351,0,0,0,.318-.009l.977-.571C429.031,178.564,429.037,178.482,428.953,178.433Z" transform="translate(-415.052 -171.482)" fill="#24126a"/>
                <path id="Path_112331" data-name="Path 112331" d="M434.8,181.81l-1.047-.6a.351.351,0,0,0-.318.009l-.977.571c-.092.053-.1.136-.013.185l1.048.6a.35.35,0,0,0,.318-.009l.977-.571C434.88,181.941,434.886,181.859,434.8,181.81Z" transform="translate(-419.283 -173.925)" fill="#24126a"/>
                <path id="Path_112332" data-name="Path 112332" d="M440.65,185.186l-1.047-.6a.349.349,0,0,0-.318.009l-.977.571c-.092.053-.1.136-.013.185l1.047.6a.35.35,0,0,0,.318-.009l.977-.571C440.729,185.318,440.735,185.235,440.65,185.186Z" transform="translate(-423.514 -176.367)" fill="#24126a"/>
                <path id="Path_112333" data-name="Path 112333" d="M446.5,188.563l-1.047-.6a.351.351,0,0,0-.318.009l-.978.571c-.091.053-.1.136-.013.185l1.048.6a.351.351,0,0,0,.318-.009l.977-.571C446.577,188.695,446.583,188.612,446.5,188.563Z" transform="translate(-427.745 -178.81)" fill="#24126a"/>
                <path id="Path_112334" data-name="Path 112334" d="M452.348,191.94l-1.048-.6a.351.351,0,0,0-.318.009l-.977.571c-.092.053-.1.136-.013.185l1.047.6a.351.351,0,0,0,.318-.009l.978-.571C452.426,192.071,452.432,191.989,452.348,191.94Z" transform="translate(-431.976 -181.253)" fill="#24126a"/>
                <path id="Path_112335" data-name="Path 112335" d="M458.2,195.317l-1.047-.6a.35.35,0,0,0-.318.009l-.978.571c-.091.053-.1.136-.013.185l1.048.6a.349.349,0,0,0,.318-.009l.977-.571C458.274,195.448,458.28,195.365,458.2,195.317Z" transform="translate(-436.207 -183.696)" fill="#24126a"/>
                <path id="Path_112336" data-name="Path 112336" d="M464.045,198.693l-1.047-.6a.35.35,0,0,0-.318.009l-.977.571c-.091.053-.1.136-.013.185l1.047.6a.351.351,0,0,0,.318-.009l.978-.571C464.123,198.825,464.129,198.742,464.045,198.693Z" transform="translate(-440.438 -186.138)" fill="#24126a"/>
                <path id="Path_112337" data-name="Path 112337" d="M469.893,202.07l-1.048-.6a.351.351,0,0,0-.318.009l-.977.571c-.092.054-.1.136-.013.185l1.048.6a.351.351,0,0,0,.318-.009l.977-.571C469.972,202.2,469.978,202.119,469.893,202.07Z" transform="translate(-444.669 -188.581)" fill="#24126a"/>
                <path id="Path_112338" data-name="Path 112338" d="M477.053,206.2l-2.286-1.32a.351.351,0,0,0-.318.009l-.977.571c-.092.053-.1.136-.013.185l2.286,1.32a.351.351,0,0,0,.318-.009l.977-.571C477.131,206.335,477.137,206.252,477.053,206.2Z" transform="translate(-448.952 -191.054)" fill="#24126a"/>
                <path id="Path_112339" data-name="Path 112339" d="M467.264,213.006l-1.929-1.114a.35.35,0,0,0-.318.009l-.978.571c-.091.053-.1.136-.013.185l1.929,1.114a.35.35,0,0,0,.318-.009l.977-.571C467.342,213.137,467.348,213.054,467.264,213.006Z" transform="translate(-442.128 -196.124)" fill="#24126a"/>
                <path id="Path_112340" data-name="Path 112340" d="M422.293,180.815l-1.047-.6a.35.35,0,0,0-.318.009l-.977.571c-.092.053-.1.136-.013.185l1.047.6a.349.349,0,0,0,.318-.009l.978-.571C422.371,180.946,422.377,180.863,422.293,180.815Z" transform="translate(-410.234 -173.205)" fill="#24126a"/>
                <path id="Path_112341" data-name="Path 112341" d="M416.3,177.354l-1.048-.6a.351.351,0,0,0-.318.009l-.977.571c-.092.054-.1.136-.013.185l1.048.6a.351.351,0,0,0,.318-.009l.978-.571C416.377,177.485,416.383,177.4,416.3,177.354Z" transform="translate(-405.898 -170.702)" fill="#24126a"/>
                <path id="Path_112342" data-name="Path 112342" d="M410.3,173.893l-1.048-.6a.35.35,0,0,0-.318.009l-.977.571c-.092.053-.1.136-.013.184l1.048.6a.351.351,0,0,0,.318-.009l.978-.571C410.383,174.025,410.389,173.942,410.3,173.893Z" transform="translate(-401.562 -168.198)" fill="#24126a"/>
                <path id="Path_112343" data-name="Path 112343" d="M404.31,170.433l-1.047-.6a.35.35,0,0,0-.318.009l-.977.571c-.092.053-.1.136-.013.185l1.047.6a.349.349,0,0,0,.318-.009l.977-.571C404.389,170.564,404.395,170.481,404.31,170.433Z" transform="translate(-397.226 -165.695)" fill="#24126a"/>
                <path id="Path_112344" data-name="Path 112344" d="M428.141,184.191l-1.047-.6a.35.35,0,0,0-.318.009l-.977.571c-.092.053-.1.136-.013.185l1.048.6a.35.35,0,0,0,.318-.009l.977-.571C428.219,184.323,428.225,184.24,428.141,184.191Z" transform="translate(-414.465 -175.647)" fill="#24126a"/>
                <path id="Path_112345" data-name="Path 112345" d="M433.99,187.568l-1.047-.6a.351.351,0,0,0-.318.009l-.978.571c-.091.054-.1.136-.013.185l1.047.6a.351.351,0,0,0,.318-.009l.977-.571C434.068,187.7,434.074,187.617,433.99,187.568Z" transform="translate(-418.696 -178.09)" fill="#24126a"/>
                <path id="Path_112346" data-name="Path 112346" d="M439.839,190.945l-1.048-.6a.35.35,0,0,0-.318.009l-.977.571c-.092.053-.1.136-.013.185l1.047.6a.349.349,0,0,0,.318-.009l.978-.571C439.917,191.076,439.923,190.993,439.839,190.945Z" transform="translate(-422.927 -180.533)" fill="#24126a"/>
                <path id="Path_112347" data-name="Path 112347" d="M445.687,194.321l-1.047-.6a.349.349,0,0,0-.318.009l-.978.571c-.091.053-.1.136-.013.185l1.048.6a.35.35,0,0,0,.318-.009l.977-.571C445.765,194.453,445.771,194.37,445.687,194.321Z" transform="translate(-427.158 -182.976)" fill="#24126a"/>
                <path id="Path_112348" data-name="Path 112348" d="M451.536,197.7l-1.048-.6a.351.351,0,0,0-.318.009l-.977.571c-.092.053-.1.136-.013.184l1.047.6a.351.351,0,0,0,.318-.009l.978-.571C451.614,197.829,451.62,197.747,451.536,197.7Z" transform="translate(-431.389 -185.418)" fill="#24126a"/>
                <path id="Path_112349" data-name="Path 112349" d="M457.384,201.075l-1.048-.6a.351.351,0,0,0-.318.009l-.977.571c-.092.053-.1.136-.013.185l1.048.6a.35.35,0,0,0,.318-.009l.977-.571C457.463,201.206,457.469,201.124,457.384,201.075Z" transform="translate(-435.62 -187.861)" fill="#24126a"/>
                <path id="Path_112350" data-name="Path 112350" d="M463.233,204.452l-1.047-.6a.35.35,0,0,0-.318.009l-.978.571c-.091.053-.1.136-.013.185l1.048.6a.35.35,0,0,0,.318-.009l.977-.571C463.311,204.583,463.317,204.5,463.233,204.452Z" transform="translate(-439.85 -190.304)" fill="#24126a"/>
                <path id="Path_112351" data-name="Path 112351" d="M469.082,207.828l-1.048-.6a.35.35,0,0,0-.318.009l-.977.571c-.092.053-.1.136-.013.184l1.047.6a.351.351,0,0,0,.318-.009l.978-.571C469.16,207.96,469.166,207.877,469.082,207.828Z" transform="translate(-444.081 -192.746)" fill="#24126a"/>
                <path id="Path_112352" data-name="Path 112352" d="M474.93,211.205l-1.047-.6a.351.351,0,0,0-.318.009l-.978.571c-.091.054-.1.136-.013.185l1.048.6a.351.351,0,0,0,.318-.009l.977-.571C475.008,211.336,475.014,211.254,474.93,211.205Z" transform="translate(-448.312 -195.189)" fill="#24126a"/>
                <path id="Path_112353" data-name="Path 112353" d="M408.159,178.881l-1.048-.6a.349.349,0,0,0-.318.009l-.978.571c-.091.053-.1.136-.013.185l1.047.6a.35.35,0,0,0,.318-.009l.977-.571C408.237,179.013,408.243,178.93,408.159,178.881Z" transform="translate(-400.01 -171.806)" fill="#24126a"/>
                <path id="Path_112354" data-name="Path 112354" d="M402.34,175.522l-1.048-.6a.35.35,0,0,0-.318.009L400,175.5c-.092.053-.1.136-.013.185l1.047.6a.349.349,0,0,0,.318-.009l.978-.571C402.418,175.653,402.424,175.57,402.34,175.522Z" transform="translate(-395.8 -169.376)" fill="#24126a"/>
                <path id="Path_112355" data-name="Path 112355" d="M396.52,172.162l-1.047-.6a.351.351,0,0,0-.318.009l-.977.571c-.091.053-.1.136-.013.185l1.048.6a.35.35,0,0,0,.318-.009l.977-.571C396.6,172.293,396.6,172.211,396.52,172.162Z" transform="translate(-391.59 -166.946)" fill="#24126a"/>
                <path id="Path_112356" data-name="Path 112356" d="M390.7,168.8l-1.048-.6a.351.351,0,0,0-.318.009l-.977.571c-.092.053-.1.136-.013.185l1.047.6a.351.351,0,0,0,.318-.009l.977-.571C390.779,168.933,390.785,168.851,390.7,168.8Z" transform="translate(-387.381 -164.515)" fill="#24126a"/>
                <path id="Path_112357" data-name="Path 112357" d="M386.777,172.094l-1.047-.6a.351.351,0,0,0-.318.009l-.323.189c-.091.054-.1.136-.013.185l1.048.6a.351.351,0,0,0,.318-.009l.323-.189C386.855,172.225,386.861,172.143,386.777,172.094Z" transform="translate(-385.016 -166.896)" fill="#24126a"/>
                <path id="Path_112358" data-name="Path 112358" d="M394.371,176.478l-1.047-.6a.349.349,0,0,0-.318.009l-.323.189c-.092.053-.1.136-.013.185l1.048.6a.35.35,0,0,0,.318-.009l.323-.189C394.45,176.61,394.455,176.527,394.371,176.478Z" transform="translate(-390.509 -170.068)" fill="#24126a"/>
                <path id="Path_112359" data-name="Path 112359" d="M400.167,179.824l-1.048-.6a.35.35,0,0,0-.318.009l-.323.189c-.092.053-.1.136-.013.185l1.047.6a.35.35,0,0,0,.318-.009l.323-.189C400.245,179.956,400.251,179.873,400.167,179.824Z" transform="translate(-394.702 -172.488)" fill="#24126a"/>
                <path id="Path_112360" data-name="Path 112360" d="M405.962,183.17l-1.047-.6a.35.35,0,0,0-.318.009l-.323.189c-.091.053-.1.136-.013.184l1.048.6a.35.35,0,0,0,.318-.009l.323-.189C406.04,183.3,406.046,183.219,405.962,183.17Z" transform="translate(-398.894 -174.909)" fill="#24126a"/>
                <path id="Path_112361" data-name="Path 112361" d="M411.757,186.516l-1.047-.6a.351.351,0,0,0-.318.009l-.323.189c-.092.053-.1.136-.013.184l1.048.6a.351.351,0,0,0,.318-.009l.323-.189C411.835,186.647,411.841,186.565,411.757,186.516Z" transform="translate(-403.086 -177.329)" fill="#24126a"/>
                <path id="Path_112362" data-name="Path 112362" d="M444.111,205.2l-1.048-.6a.351.351,0,0,0-.318.009l-.323.189c-.092.054-.1.136-.013.185l1.048.6a.351.351,0,0,0,.318-.009l.323-.189C444.19,205.327,444.2,205.245,444.111,205.2Z" transform="translate(-426.491 -190.842)" fill="#24126a"/>
                <path id="Path_112363" data-name="Path 112363" d="M449.906,208.542l-1.047-.6a.35.35,0,0,0-.318.009l-.323.189c-.092.053-.1.136-.013.185l1.047.6a.35.35,0,0,0,.318-.009l.323-.189C449.985,208.673,449.991,208.59,449.906,208.542Z" transform="translate(-430.683 -193.263)" fill="#24126a"/>
                <path id="Path_112364" data-name="Path 112364" d="M455.7,211.888l-1.048-.6a.35.35,0,0,0-.318.009l-.323.189c-.091.053-.1.136-.013.185l1.047.6a.35.35,0,0,0,.318-.009l.323-.189C455.78,212.019,455.786,211.936,455.7,211.888Z" transform="translate(-434.876 -195.683)" fill="#24126a"/>
                <path id="Path_112365" data-name="Path 112365" d="M461.5,215.233l-1.047-.6a.349.349,0,0,0-.318.009l-.323.189c-.091.053-.1.136-.013.185l1.048.6a.349.349,0,0,0,.318-.009l.323-.189C461.575,215.365,461.581,215.282,461.5,215.233Z" transform="translate(-439.068 -198.103)" fill="#24126a"/>
                <path id="Path_112366" data-name="Path 112366" d="M414.008,182.258l-1.048-.6a.351.351,0,0,0-.318.009l-.977.571c-.092.053-.1.136-.013.184l1.048.6a.351.351,0,0,0,.318-.009l.978-.571C414.086,182.39,414.092,182.307,414.008,182.258Z" transform="translate(-404.241 -174.249)" fill="#24126a"/>
                <path id="Path_112367" data-name="Path 112367" d="M419.856,185.635l-1.047-.6a.351.351,0,0,0-.318.009l-.977.571c-.092.053-.1.136-.014.185l1.048.6a.351.351,0,0,0,.318-.009l.977-.571C419.934,185.766,419.94,185.684,419.856,185.635Z" transform="translate(-408.472 -176.692)" fill="#24126a"/>
                <path id="Path_112368" data-name="Path 112368" d="M425.7,189.012l-1.047-.6a.351.351,0,0,0-.318.009l-.977.571c-.091.053-.1.136-.013.185l1.048.6a.349.349,0,0,0,.318-.009l.977-.571C425.783,189.143,425.789,189.06,425.7,189.012Z" transform="translate(-412.703 -179.135)" fill="#24126a"/>
                <path id="Path_112369" data-name="Path 112369" d="M431.554,192.388l-1.048-.6a.35.35,0,0,0-.318.009l-.977.571c-.092.053-.1.136-.013.184l1.048.6a.351.351,0,0,0,.318-.009l.977-.571C431.632,192.52,431.638,192.437,431.554,192.388Z" transform="translate(-416.934 -181.577)" fill="#24126a"/>
                <path id="Path_112370" data-name="Path 112370" d="M437.4,195.765l-1.048-.6a.351.351,0,0,0-.318.009l-.978.571c-.091.054-.1.136-.013.185l1.048.6a.351.351,0,0,0,.318-.009l.977-.571C437.48,195.9,437.486,195.814,437.4,195.765Z" transform="translate(-421.164 -184.02)" fill="#24126a"/>
                <path id="Path_112371" data-name="Path 112371" d="M443.251,199.142l-1.047-.6a.35.35,0,0,0-.318.009l-.977.571c-.092.053-.1.136-.013.185l1.048.6a.349.349,0,0,0,.318-.009l.978-.571C443.329,199.273,443.335,199.19,443.251,199.142Z" transform="translate(-425.395 -186.463)" fill="#24126a"/>
                <path id="Path_112372" data-name="Path 112372" d="M449.1,202.518l-1.047-.6a.349.349,0,0,0-.318.009l-.977.571c-.092.053-.1.136-.013.184l1.048.6a.35.35,0,0,0,.318-.009l.977-.571C449.177,202.65,449.183,202.567,449.1,202.518Z" transform="translate(-429.626 -188.905)" fill="#24126a"/>
                <path id="Path_112373" data-name="Path 112373" d="M454.948,205.9l-1.048-.6a.351.351,0,0,0-.318.009l-.978.571c-.091.053-.1.136-.013.184l1.047.6a.351.351,0,0,0,.318-.009l.977-.571C455.026,206.026,455.032,205.944,454.948,205.9Z" transform="translate(-433.857 -191.348)" fill="#24126a"/>
                <path id="Path_112374" data-name="Path 112374" d="M460.8,209.272l-1.048-.6a.351.351,0,0,0-.318.009l-.977.571c-.092.053-.1.136-.013.185l1.047.6a.35.35,0,0,0,.318-.009l.978-.571C460.875,209.4,460.881,209.321,460.8,209.272Z" transform="translate(-438.088 -193.791)" fill="#24126a"/>
                <path id="Path_112375" data-name="Path 112375" d="M408.4,160.342l-3.085-1.781a.35.35,0,0,0-.318.009l-.977.571c-.092.053-.1.136-.013.184l3.085,1.781a.35.35,0,0,0,.318-.009l.977-.571C408.481,160.473,408.487,160.39,408.4,160.342Z" transform="translate(-398.713 -157.544)" fill="#24126a"/>
                <path id="Path_112376" data-name="Path 112376" d="M480.255,201.826l-3.085-1.781a.351.351,0,0,0-.318.009l-.977.571c-.092.053-.1.136-.013.185l3.085,1.781a.351.351,0,0,0,.318-.009l.978-.571C480.333,201.957,480.339,201.874,480.255,201.826Z" transform="translate(-450.69 -187.553)" fill="#24126a"/>
                <path id="Path_112377" data-name="Path 112377" d="M474.247,191.574l-1.047-.6a.351.351,0,0,0-.318.009l-1.164.68c-.092.053-.1.136-.013.185l1.047.6a.35.35,0,0,0,.318-.009l1.164-.68C474.325,191.705,474.331,191.623,474.247,191.574Z" transform="translate(-447.683 -180.988)" fill="#24126a"/>
                <path id="Path_112378" data-name="Path 112378" d="M430.133,166.1l-1.675-.967a.351.351,0,0,0-.318.009l-1.164.68c-.091.053-.1.136-.013.185l1.675.967a.351.351,0,0,0,.318-.009l1.164-.68C430.211,166.236,430.217,166.153,430.133,166.1Z" transform="translate(-415.316 -162.301)" fill="#24126a"/>
                <path id="Path_112379" data-name="Path 112379" d="M466.97,187.373l-1.675-.967a.351.351,0,0,0-.318.009l-1.164.68c-.092.054-.1.136-.013.185l1.675.967a.351.351,0,0,0,.318-.009l1.164-.68C467.048,187.5,467.054,187.421,466.97,187.373Z" transform="translate(-441.965 -177.687)" fill="#24126a"/>
                <path id="Path_112380" data-name="Path 112380" d="M438.571,170.977l-1.675-.967a.351.351,0,0,0-.318.009l-1.164.68c-.091.053-.1.136-.013.185l1.675.967a.351.351,0,0,0,.318-.009l1.165-.68C438.649,171.108,438.655,171.025,438.571,170.977Z" transform="translate(-421.42 -165.826)" fill="#24126a"/>
                <path id="Path_112381" data-name="Path 112381" d="M435.6,171l7.284,4.205a.349.349,0,0,0,.318,0l1.187-.694c.085-.05.081-.132-.01-.184l-7.284-4.205Z" transform="translate(-421.606 -165.932)" fill="#24126a"/>
                <path id="Path_112382" data-name="Path 112382" d="M491.7,201.389l1.167.674a.287.287,0,0,0,.261-.007l.476-.278c.075-.044.08-.111.011-.151l-1.167-.674a.286.286,0,0,0-.261.007l-.476.278C491.633,201.281,491.629,201.349,491.7,201.389Z" transform="translate(-462.154 -188.214)" fill="#24126a"/>
                <path id="Path_112383" data-name="Path 112383" d="M485.8,197.984l1.167.674a.287.287,0,0,0,.261-.007l.476-.278c.075-.044.08-.112.011-.151l-1.167-.674a.287.287,0,0,0-.261.007l-.476.278C485.736,197.876,485.732,197.944,485.8,197.984Z" transform="translate(-457.888 -185.751)" fill="#24126a"/>
                <path id="Path_112384" data-name="Path 112384" d="M479.952,194.607l1.167.674a.287.287,0,0,0,.261-.007l.476-.278c.075-.044.08-.111.011-.151l-1.167-.674a.287.287,0,0,0-.26.007l-.476.278C479.888,194.5,479.883,194.567,479.952,194.607Z" transform="translate(-453.657 -183.308)" fill="#24126a"/>
                <path id="Path_112385" data-name="Path 112385" d="M482.76,199.761l1.167.674a.287.287,0,0,0,.261-.007l.476-.278c.075-.044.08-.111.011-.151l-1.167-.674a.286.286,0,0,0-.261.007l-.476.278C482.7,199.653,482.691,199.721,482.76,199.761Z" transform="translate(-455.688 -187.036)" fill="#24126a"/>
              </g>
            </g>
            <g id="Group_50055" data-name="Group 50055" transform="translate(17.397 6.307)">
              <path id="Path_112386" data-name="Path 112386" d="M418.821,127.411v10.214h0a.71.71,0,0,0,.411.591l8.487,4.9a2.649,2.649,0,0,0,2.383-.1h0a.964.964,0,0,0,.583-.8h0V132Z" transform="translate(-418.821 -119.806)" fill="url(#linear-gradient-8)"/>
              <path id="Path_112387" data-name="Path 112387" d="M453.295,153.011a2.818,2.818,0,0,0,1.747-.3.964.964,0,0,0,.583-.8h0V141.692l-2.288-.885h-.042Z" transform="translate(-443.759 -129.497)" fill="#24126a" opacity="0.3"/>
              <path id="Path_112388" data-name="Path 112388" d="M427.719,129.967l-8.487-4.9c-.611-.353-.534-.969.171-1.376h0a2.649,2.649,0,0,1,2.383-.1l8.487,4.9c.611.353.534.969-.171,1.376h0A2.649,2.649,0,0,1,427.719,129.967Z" transform="translate(-418.819 -116.872)" fill="url(#linear-gradient-9)"/>
              <path id="Path_112389" data-name="Path 112389" d="M427.719,181.439l-8.487-4.9c-.611-.353-.534-.969.171-1.376h0a2.649,2.649,0,0,1,2.383-.1l8.487,4.9c.611.353.534.969-.171,1.376h0A2.649,2.649,0,0,1,427.719,181.439Z" transform="translate(-418.819 -154.106)" fill="#24126a" opacity="0.5"/>
              <g id="Group_50054" data-name="Group 50054" transform="translate(1.386)">
                <path id="Path_112390" data-name="Path 112390" d="M432.192,112.356a.733.733,0,0,1-.734-.734v-4.538a5.558,5.558,0,0,0-2.473-4.283l-1.948-1.124a1.028,1.028,0,0,0-1.74,1v4.539a.733.733,0,0,1-1.467,0v-4.539a2.448,2.448,0,0,1,3.94-2.275l1.948,1.124a6.992,6.992,0,0,1,3.206,5.554v4.538A.733.733,0,0,1,432.192,112.356Z" transform="translate(-423.831 -99.918)" fill="url(#linear-gradient-10)"/>
              </g>
            </g>
          </g>
        </g>
      </g>
      <g id="Group_50059" data-name="Group 50059" transform="translate(14.235 30.383)" opacity="0.8">
        <path id="Path_112392" data-name="Path 112392" d="M333.48,200.3l-1.038-.6c-.083-.048-.073-.132.023-.188l1.225-.707a.361.361,0,0,1,.325-.013l1.038.6c.083.048.073.132-.023.188l-1.225.707A.361.361,0,0,1,333.48,200.3Z" transform="translate(-332.386 -194.673)" fill="#24126a"/>
        <path id="Path_112393" data-name="Path 112393" d="M339.272,203.649l-1.038-.6c-.083-.048-.073-.132.023-.188l1.225-.707a.362.362,0,0,1,.325-.013l1.037.6c.083.048.073.132-.023.188l-1.225.707A.361.361,0,0,1,339.272,203.649Z" transform="translate(-336.576 -197.092)" fill="#24126a"/>
        <path id="Path_112394" data-name="Path 112394" d="M345.064,206.993l-1.038-.6c-.083-.048-.073-.132.023-.188l1.225-.707a.361.361,0,0,1,.325-.014l1.038.6c.083.048.073.132-.024.188l-1.225.707A.362.362,0,0,1,345.064,206.993Z" transform="translate(-340.766 -199.511)" fill="#24126a"/>
        <path id="Path_112395" data-name="Path 112395" d="M353.075,204.528l-1.038-.6c-.083-.048-.073-.132.023-.188l1.028-.594a.362.362,0,0,1,.325-.014l1.038.6c.083.048.073.132-.023.188l-1.028.594A.362.362,0,0,1,353.075,204.528Z" transform="translate(-346.561 -197.81)" fill="#24126a"/>
        <path id="Path_112396" data-name="Path 112396" d="M358.867,207.873l-1.037-.6c-.084-.048-.073-.132.023-.188l1.028-.594a.362.362,0,0,1,.325-.013l1.038.6c.083.048.073.132-.023.188l-1.028.594A.361.361,0,0,1,358.867,207.873Z" transform="translate(-350.751 -200.229)" fill="#24126a"/>
        <path id="Path_112397" data-name="Path 112397" d="M364.659,211.217l-1.038-.6c-.083-.048-.073-.132.023-.188l1.028-.594a.361.361,0,0,1,.325-.013l1.038.6c.083.048.073.132-.023.188l-1.028.593A.361.361,0,0,1,364.659,211.217Z" transform="translate(-354.941 -202.648)" fill="#24126a"/>
        <path id="Path_112398" data-name="Path 112398" d="M370.452,214.561l-1.038-.6c-.083-.048-.073-.132.023-.188l1.028-.593a.361.361,0,0,1,.325-.014l1.037.6c.084.048.073.132-.023.188l-1.028.593A.361.361,0,0,1,370.452,214.561Z" transform="translate(-359.131 -205.067)" fill="#24126a"/>
        <path id="Path_112399" data-name="Path 112399" d="M376.244,217.9l-1.038-.6c-.083-.048-.073-.132.023-.188l1.028-.593a.361.361,0,0,1,.325-.014l1.038.6c.083.048.073.132-.023.188l-1.028.594A.362.362,0,0,1,376.244,217.9Z" transform="translate(-363.321 -207.486)" fill="#24126a"/>
        <path id="Path_112400" data-name="Path 112400" d="M382.036,221.249l-1.037-.6c-.084-.048-.073-.132.023-.188l1.028-.594a.361.361,0,0,1,.325-.014l1.038.6c.083.048.073.132-.023.188l-1.028.594A.362.362,0,0,1,382.036,221.249Z" transform="translate(-367.511 -209.906)" fill="#24126a"/>
        <path id="Path_112401" data-name="Path 112401" d="M387.828,224.593l-1.038-.6c-.083-.048-.073-.132.023-.188l1.028-.594a.36.36,0,0,1,.325-.014l1.038.6c.083.048.073.132-.023.188l-1.028.594A.361.361,0,0,1,387.828,224.593Z" transform="translate(-371.701 -212.325)" fill="#24126a"/>
        <path id="Path_112402" data-name="Path 112402" d="M393.621,227.937l-1.038-.6c-.083-.048-.073-.132.023-.188l1.028-.594a.361.361,0,0,1,.325-.013l1.037.6c.084.048.073.132-.023.188l-1.028.594A.361.361,0,0,1,393.621,227.937Z" transform="translate(-375.892 -214.744)" fill="#24126a"/>
        <path id="Path_112403" data-name="Path 112403" d="M399.413,231.282l-1.038-.6c-.083-.048-.073-.132.023-.188l1.028-.594a.362.362,0,0,1,.325-.013l1.038.6c.083.048.073.132-.023.188l-1.028.594A.361.361,0,0,1,399.413,231.282Z" transform="translate(-380.082 -217.163)" fill="#24126a"/>
        <path id="Path_112404" data-name="Path 112404" d="M405.2,234.626l-1.037-.6c-.084-.048-.073-.132.023-.188l1.028-.593a.361.361,0,0,1,.325-.014l1.038.6c.083.048.073.132-.023.188l-1.028.593A.361.361,0,0,1,405.2,234.626Z" transform="translate(-384.272 -219.582)" fill="#24126a"/>
        <path id="Path_112405" data-name="Path 112405" d="M361.61,202.945l-1.038-.6c-.083-.048-.073-.132.023-.188l1.028-.594a.361.361,0,0,1,.325-.014l1.037.6c.083.048.073.132-.023.188l-1.028.594A.362.362,0,0,1,361.61,202.945Z" transform="translate(-352.735 -196.664)" fill="#24126a"/>
        <path id="Path_112406" data-name="Path 112406" d="M355.731,199.551l-1.038-.6c-.083-.048-.073-.132.023-.188l1.028-.593a.361.361,0,0,1,.325-.014l1.038.6c.083.048.073.132-.023.188l-1.028.594A.362.362,0,0,1,355.731,199.551Z" transform="translate(-348.482 -194.209)" fill="#24126a"/>
        <path id="Path_112407" data-name="Path 112407" d="M346.712,194.344l-2.234-1.29c-.084-.048-.073-.132.023-.188l1.028-.593a.361.361,0,0,1,.325-.014l2.234,1.29c.083.048.073.132-.023.188l-1.028.594A.361.361,0,0,1,346.712,194.344Z" transform="translate(-341.092 -189.943)" fill="#24126a"/>
        <path id="Path_112408" data-name="Path 112408" d="M351.929,190.845l-1.813-1.047c-.083-.048-.073-.132.023-.188l1.028-.593a.361.361,0,0,1,.325-.014l1.813,1.047c.083.048.073.132-.023.188l-1.028.594A.361.361,0,0,1,351.929,190.845Z" transform="translate(-345.171 -187.588)" fill="#24126a"/>
        <path id="Path_112409" data-name="Path 112409" d="M367.4,206.289l-1.038-.6c-.083-.048-.073-.132.023-.188l1.028-.594a.361.361,0,0,1,.325-.014l1.037.6c.084.048.073.132-.023.188l-1.028.594A.362.362,0,0,1,367.4,206.289Z" transform="translate(-356.925 -199.083)" fill="#24126a"/>
        <path id="Path_112410" data-name="Path 112410" d="M373.194,209.633l-1.038-.6c-.083-.048-.073-.132.023-.188l1.028-.594a.361.361,0,0,1,.325-.013l1.038.6c.083.048.073.132-.023.188l-1.028.594A.361.361,0,0,1,373.194,209.633Z" transform="translate(-361.115 -201.503)" fill="#24126a"/>
        <path id="Path_112411" data-name="Path 112411" d="M378.986,212.978l-1.037-.6c-.084-.048-.073-.132.023-.188L379,211.6a.362.362,0,0,1,.325-.013l1.038.6c.083.048.073.132-.023.188l-1.028.594A.361.361,0,0,1,378.986,212.978Z" transform="translate(-365.305 -203.922)" fill="#24126a"/>
        <path id="Path_112412" data-name="Path 112412" d="M384.778,216.322l-1.038-.6c-.083-.048-.073-.132.023-.188l1.028-.593a.36.36,0,0,1,.325-.014l1.038.6c.083.048.073.132-.023.188l-1.028.593A.36.36,0,0,1,384.778,216.322Z" transform="translate(-369.495 -206.341)" fill="#24126a"/>
        <path id="Path_112413" data-name="Path 112413" d="M390.571,219.666l-1.038-.6c-.083-.048-.073-.132.023-.188l1.028-.593a.361.361,0,0,1,.325-.014l1.037.6c.084.048.073.132-.023.188l-1.028.593A.361.361,0,0,1,390.571,219.666Z" transform="translate(-373.685 -208.76)" fill="#24126a"/>
        <path id="Path_112414" data-name="Path 112414" d="M396.363,223.01l-1.038-.6c-.083-.048-.073-.132.024-.188l1.028-.593a.361.361,0,0,1,.325-.014l1.038.6c.083.048.073.132-.023.188l-1.028.594A.362.362,0,0,1,396.363,223.01Z" transform="translate(-377.875 -211.179)" fill="#24126a"/>
        <path id="Path_112415" data-name="Path 112415" d="M402.155,226.354l-1.037-.6c-.084-.048-.073-.132.023-.188l1.028-.594a.361.361,0,0,1,.325-.014l1.038.6c.083.048.073.132-.023.188l-1.028.594A.362.362,0,0,1,402.155,226.354Z" transform="translate(-382.065 -213.598)" fill="#24126a"/>
        <path id="Path_112416" data-name="Path 112416" d="M407.947,229.7l-1.038-.6c-.083-.048-.073-.132.023-.188l1.028-.594a.362.362,0,0,1,.325-.014l1.038.6c.083.048.073.132-.023.188l-1.028.594A.361.361,0,0,1,407.947,229.7Z" transform="translate(-386.255 -216.018)" fill="#24126a"/>
        <path id="Path_112417" data-name="Path 112417" d="M413.74,233.042l-1.038-.6c-.083-.048-.073-.132.023-.188l1.028-.594a.361.361,0,0,1,.325-.013l1.037.6c.084.048.073.132-.023.188l-1.028.594A.361.361,0,0,1,413.74,233.042Z" transform="translate(-390.446 -218.437)" fill="#24126a"/>
        <path id="Path_112418" data-name="Path 112418" d="M420.83,237.136l-2.264-1.307c-.083-.048-.073-.132.023-.188l1.028-.594a.361.361,0,0,1,.325-.014l2.264,1.307c.083.048.073.132-.023.188l-1.028.593A.361.361,0,0,1,420.83,237.136Z" transform="translate(-394.688 -220.886)" fill="#24126a"/>
        <path id="Path_112419" data-name="Path 112419" d="M433.03,231.159l-1.911-1.1c-.083-.048-.073-.132.024-.188l1.028-.594a.362.362,0,0,1,.325-.013l1.91,1.1c.084.048.073.132-.023.188l-1.028.594A.362.362,0,0,1,433.03,231.159Z" transform="translate(-403.768 -216.71)" fill="#24126a"/>
        <path id="Path_112420" data-name="Path 112420" d="M377.545,205.635l-1.037-.6c-.084-.048-.073-.132.023-.188l1.028-.593a.361.361,0,0,1,.325-.014l1.038.6c.083.048.073.132-.023.188l-1.028.593A.361.361,0,0,1,377.545,205.635Z" transform="translate(-364.262 -198.61)" fill="#24126a"/>
        <path id="Path_112421" data-name="Path 112421" d="M371.609,202.208l-1.038-.6c-.083-.048-.073-.132.023-.188l1.028-.594a.362.362,0,0,1,.325-.013l1.038.6c.083.048.073.132-.024.188l-1.028.593A.361.361,0,0,1,371.609,202.208Z" transform="translate(-359.968 -196.131)" fill="#24126a"/>
        <path id="Path_112422" data-name="Path 112422" d="M365.673,198.78l-1.038-.6c-.083-.048-.073-.132.023-.188l1.028-.594a.362.362,0,0,1,.325-.014l1.037.6c.083.048.073.132-.023.188l-1.028.594A.362.362,0,0,1,365.673,198.78Z" transform="translate(-355.674 -193.652)" fill="#24126a"/>
        <path id="Path_112423" data-name="Path 112423" d="M359.736,195.353l-1.037-.6c-.084-.048-.073-.132.023-.188l1.028-.593a.361.361,0,0,1,.325-.014l1.038.6c.083.048.073.132-.023.188l-1.028.593A.361.361,0,0,1,359.736,195.353Z" transform="translate(-351.38 -191.172)" fill="#24126a"/>
        <path id="Path_112424" data-name="Path 112424" d="M383.337,208.979l-1.038-.6c-.083-.048-.073-.132.023-.188l1.028-.594a.36.36,0,0,1,.325-.014l1.038.6c.083.048.073.132-.023.188l-1.028.594A.361.361,0,0,1,383.337,208.979Z" transform="translate(-368.453 -201.029)" fill="#24126a"/>
        <path id="Path_112425" data-name="Path 112425" d="M389.13,212.323l-1.038-.6c-.083-.048-.073-.132.023-.188l1.028-.594a.361.361,0,0,1,.325-.014l1.037.6c.084.048.073.132-.023.188l-1.028.594A.361.361,0,0,1,389.13,212.323Z" transform="translate(-372.643 -203.448)" fill="#24126a"/>
        <path id="Path_112426" data-name="Path 112426" d="M394.922,215.667l-1.038-.6c-.083-.048-.073-.132.024-.188l1.028-.594a.361.361,0,0,1,.325-.013l1.038.6c.083.048.073.132-.023.188l-1.028.594A.361.361,0,0,1,394.922,215.667Z" transform="translate(-376.833 -205.868)" fill="#24126a"/>
        <path id="Path_112427" data-name="Path 112427" d="M400.714,219.012l-1.037-.6c-.084-.048-.073-.132.023-.188l1.028-.594a.362.362,0,0,1,.325-.013l1.038.6c.083.048.073.132-.023.188l-1.028.594A.361.361,0,0,1,400.714,219.012Z" transform="translate(-381.023 -208.287)" fill="#24126a"/>
        <path id="Path_112428" data-name="Path 112428" d="M406.506,222.356l-1.037-.6c-.083-.048-.073-.132.023-.188l1.028-.593a.361.361,0,0,1,.325-.014l1.038.6c.083.048.073.132-.023.188l-1.028.593A.361.361,0,0,1,406.506,222.356Z" transform="translate(-385.213 -210.706)" fill="#24126a"/>
        <path id="Path_112429" data-name="Path 112429" d="M412.3,225.7l-1.038-.6c-.083-.048-.073-.132.023-.188l1.028-.593a.361.361,0,0,1,.325-.014l1.037.6c.083.048.073.132-.023.188l-1.028.593A.361.361,0,0,1,412.3,225.7Z" transform="translate(-389.403 -213.125)" fill="#24126a"/>
        <path id="Path_112430" data-name="Path 112430" d="M418.091,229.044l-1.038-.6c-.083-.048-.073-.132.023-.188l1.028-.593a.361.361,0,0,1,.325-.014l1.038.6c.083.048.073.132-.024.188l-1.028.594A.362.362,0,0,1,418.091,229.044Z" transform="translate(-393.593 -215.544)" fill="#24126a"/>
        <path id="Path_112431" data-name="Path 112431" d="M423.883,232.388l-1.038-.6c-.083-.048-.073-.132.023-.188l1.028-.594a.361.361,0,0,1,.325-.014l1.038.6c.083.048.073.132-.024.188l-1.028.594A.362.362,0,0,1,423.883,232.388Z" transform="translate(-397.783 -217.963)" fill="#24126a"/>
        <path id="Path_112432" data-name="Path 112432" d="M429.675,235.732l-1.037-.6c-.083-.048-.073-.132.023-.188l1.028-.594a.362.362,0,0,1,.325-.014l1.038.6c.083.048.073.132-.023.188l-1.028.594A.362.362,0,0,1,429.675,235.732Z" transform="translate(-401.973 -220.383)" fill="#24126a"/>
        <path id="Path_112433" data-name="Path 112433" d="M374.495,197.363l-1.037-.6c-.084-.048-.073-.132.023-.188l1.028-.594a.361.361,0,0,1,.325-.013l1.038.6c.083.048.073.132-.023.188l-1.028.594A.361.361,0,0,1,374.495,197.363Z" transform="translate(-362.056 -192.627)" fill="#24126a"/>
        <path id="Path_112434" data-name="Path 112434" d="M368.732,194.036l-1.038-.6c-.083-.048-.073-.132.024-.188l1.028-.593a.361.361,0,0,1,.325-.014l1.038.6c.083.048.073.132-.024.188l-1.028.593A.361.361,0,0,1,368.732,194.036Z" transform="translate(-357.887 -190.22)" fill="#24126a"/>
        <path id="Path_112435" data-name="Path 112435" d="M362.968,190.708l-1.037-.6c-.083-.048-.073-.132.023-.188l1.028-.594a.362.362,0,0,1,.325-.014l1.038.6c.083.048.073.132-.023.188l-1.028.594A.362.362,0,0,1,362.968,190.708Z" transform="translate(-353.718 -187.813)" fill="#24126a"/>
        <path id="Path_112436" data-name="Path 112436" d="M357.2,187.381l-1.038-.6c-.083-.048-.073-.132.023-.188l1.028-.593a.361.361,0,0,1,.325-.014l1.038.6c.083.048.073.132-.023.188l-1.028.593A.361.361,0,0,1,357.2,187.381Z" transform="translate(-349.548 -185.406)" fill="#24126a"/>
        <path id="Path_112437" data-name="Path 112437" d="M363.132,185l-1.038-.6c-.083-.048-.073-.132.023-.188l.34-.2a.362.362,0,0,1,.325-.013l1.037.6c.083.048.073.132-.023.188l-.34.2A.362.362,0,0,1,363.132,185Z" transform="translate(-353.836 -183.97)" fill="#24126a"/>
        <path id="Path_112438" data-name="Path 112438" d="M370.653,189.34l-1.038-.6c-.083-.048-.073-.132.023-.188l.34-.2a.361.361,0,0,1,.325-.014l1.038.6c.083.048.073.132-.023.188l-.34.2A.361.361,0,0,1,370.653,189.34Z" transform="translate(-359.277 -187.111)" fill="#24126a"/>
        <path id="Path_112439" data-name="Path 112439" d="M376.392,192.654l-1.037-.6c-.084-.048-.073-.132.023-.188l.34-.2a.362.362,0,0,1,.325-.013l1.038.6c.083.048.073.132-.023.188l-.34.2A.361.361,0,0,1,376.392,192.654Z" transform="translate(-363.428 -189.508)" fill="#24126a"/>
        <path id="Path_112440" data-name="Path 112440" d="M382.132,195.967l-1.038-.6c-.083-.048-.073-.132.023-.188l.34-.2a.361.361,0,0,1,.325-.014l1.037.6c.084.048.073.132-.023.188l-.34.2A.361.361,0,0,1,382.132,195.967Z" transform="translate(-367.581 -191.905)" fill="#24126a"/>
        <path id="Path_112441" data-name="Path 112441" d="M387.871,199.281l-1.038-.6c-.083-.048-.073-.132.023-.188l.34-.2a.361.361,0,0,1,.325-.014l1.038.6c.083.048.073.132-.023.188l-.34.2A.361.361,0,0,1,387.871,199.281Z" transform="translate(-371.732 -194.302)" fill="#24126a"/>
        <path id="Path_112442" data-name="Path 112442" d="M419.913,217.781l-1.037-.6c-.083-.048-.073-.132.023-.188l.34-.2a.361.361,0,0,1,.325-.013l1.038.6c.083.048.073.132-.023.188l-.34.2A.362.362,0,0,1,419.913,217.781Z" transform="translate(-394.911 -207.684)" fill="#24126a"/>
        <path id="Path_112443" data-name="Path 112443" d="M425.653,221.094l-1.038-.6c-.083-.048-.073-.132.023-.188l.34-.2a.361.361,0,0,1,.325-.014l1.038.6c.083.048.073.132-.024.188l-.34.2A.361.361,0,0,1,425.653,221.094Z" transform="translate(-399.063 -210.081)" fill="#24126a"/>
        <path id="Path_112444" data-name="Path 112444" d="M431.392,224.408l-1.038-.6c-.083-.048-.073-.132.023-.188l.34-.2a.361.361,0,0,1,.325-.014l1.038.6c.083.048.073.132-.023.188l-.34.2A.361.361,0,0,1,431.392,224.408Z" transform="translate(-403.215 -212.479)" fill="#24126a"/>
        <path id="Path_112445" data-name="Path 112445" d="M437.131,227.722l-1.038-.6c-.083-.048-.073-.132.023-.188l.34-.2a.362.362,0,0,1,.325-.014l1.037.6c.083.048.073.132-.023.188l-.34.2A.361.361,0,0,1,437.131,227.722Z" transform="translate(-407.367 -214.876)" fill="#24126a"/>
        <path id="Path_112446" data-name="Path 112446" d="M380.287,200.708l-1.038-.6c-.083-.048-.073-.132.023-.188l1.028-.594a.361.361,0,0,1,.325-.013l1.038.6c.083.048.073.132-.023.188l-1.028.594A.36.36,0,0,1,380.287,200.708Z" transform="translate(-366.246 -195.046)" fill="#24126a"/>
        <path id="Path_112447" data-name="Path 112447" d="M386.08,204.052l-1.038-.6c-.083-.048-.073-.132.023-.188l1.028-.593a.361.361,0,0,1,.325-.014l1.037.6c.084.048.073.132-.023.188l-1.028.593A.361.361,0,0,1,386.08,204.052Z" transform="translate(-370.436 -197.465)" fill="#24126a"/>
        <path id="Path_112448" data-name="Path 112448" d="M391.872,207.4l-1.038-.6c-.083-.048-.073-.132.023-.188l1.028-.593a.361.361,0,0,1,.325-.014l1.038.6c.083.048.073.132-.023.188l-1.028.593A.361.361,0,0,1,391.872,207.4Z" transform="translate(-374.626 -199.884)" fill="#24126a"/>
        <path id="Path_112449" data-name="Path 112449" d="M397.664,210.74l-1.037-.6c-.084-.048-.073-.132.023-.188l1.028-.593a.361.361,0,0,1,.325-.014l1.038.6c.083.048.073.132-.023.188l-1.028.594A.362.362,0,0,1,397.664,210.74Z" transform="translate(-378.816 -202.303)" fill="#24126a"/>
        <path id="Path_112450" data-name="Path 112450" d="M403.456,214.084l-1.038-.6c-.083-.048-.073-.132.023-.188l1.028-.594a.361.361,0,0,1,.325-.014l1.038.6c.083.048.073.132-.023.188l-1.028.594A.361.361,0,0,1,403.456,214.084Z" transform="translate(-383.007 -204.722)" fill="#24126a"/>
        <path id="Path_112451" data-name="Path 112451" d="M409.249,217.428l-1.038-.6c-.083-.048-.073-.132.023-.188l1.028-.594a.362.362,0,0,1,.325-.014l1.037.6c.084.048.073.132-.023.188l-1.028.594A.362.362,0,0,1,409.249,217.428Z" transform="translate(-387.197 -207.142)" fill="#24126a"/>
        <path id="Path_112452" data-name="Path 112452" d="M415.041,220.772l-1.038-.6c-.083-.048-.073-.132.023-.188l1.028-.594a.361.361,0,0,1,.325-.013l1.038.6c.083.048.073.132-.023.188l-1.028.594A.361.361,0,0,1,415.041,220.772Z" transform="translate(-391.387 -209.561)" fill="#24126a"/>
        <path id="Path_112453" data-name="Path 112453" d="M420.833,224.117l-1.037-.6c-.083-.048-.073-.132.023-.188l1.028-.594a.362.362,0,0,1,.325-.013l1.038.6c.083.048.073.132-.023.188l-1.028.593A.361.361,0,0,1,420.833,224.117Z" transform="translate(-395.577 -211.98)" fill="#24126a"/>
        <path id="Path_112454" data-name="Path 112454" d="M426.625,227.461l-1.037-.6c-.083-.048-.073-.132.023-.188l1.028-.593a.361.361,0,0,1,.325-.014l1.038.6c.083.048.073.132-.023.188l-1.028.593A.361.361,0,0,1,426.625,227.461Z" transform="translate(-399.767 -214.399)" fill="#24126a"/>
        <path id="Path_112455" data-name="Path 112455" d="M341.894,198.073l-3.055-1.764c-.083-.048-.073-.132.023-.188l1.028-.594a.362.362,0,0,1,.325-.014l3.055,1.764c.083.048.073.132-.023.188l-1.028.594A.361.361,0,0,1,341.894,198.073Z" transform="translate(-337.013 -192.298)" fill="#24126a"/>
        <path id="Path_112456" data-name="Path 112456" d="M413.053,239.157,410,237.393c-.083-.048-.073-.132.023-.188l1.028-.593a.361.361,0,0,1,.325-.014l3.055,1.764c.083.048.073.132-.023.188l-1.028.594A.362.362,0,0,1,413.053,239.157Z" transform="translate(-388.49 -222.017)" fill="#24126a"/>
        <path id="Path_112457" data-name="Path 112457" d="M395.167,235.92l-1.037-.6c-.083-.048-.073-.132.023-.188l1.225-.707a.361.361,0,0,1,.325-.014l1.038.6c.083.048.073.132-.023.188l-1.225.707A.362.362,0,0,1,395.167,235.92Z" transform="translate(-377.01 -220.437)" fill="#24126a"/>
        <path id="Path_112458" data-name="Path 112458" d="M351.478,210.7l-1.659-.958c-.083-.048-.073-.132.023-.188l1.225-.707a.361.361,0,0,1,.325-.014l1.659.958c.083.048.073.132-.023.188l-1.225.707A.362.362,0,0,1,351.478,210.7Z" transform="translate(-344.956 -201.93)" fill="#24126a"/>
        <path id="Path_112459" data-name="Path 112459" d="M387.96,231.759,386.3,230.8c-.083-.048-.073-.132.023-.188l1.225-.707a.361.361,0,0,1,.325-.014l1.659.958c.083.048.073.132-.023.188l-1.225.707A.361.361,0,0,1,387.96,231.759Z" transform="translate(-371.347 -217.167)" fill="#24126a"/>
        <path id="Path_112460" data-name="Path 112460" d="M359.835,215.521l-1.659-.958c-.084-.048-.073-.132.023-.188l1.225-.707a.361.361,0,0,1,.325-.014l1.659.958c.084.048.073.132-.023.188l-1.225.707A.361.361,0,0,1,359.835,215.521Z" transform="translate(-351.001 -205.42)" fill="#24126a"/>
        <path id="Path_112461" data-name="Path 112461" d="M359.936,213.763l7.214,4.165a.1.1,0,0,1,0,.187l-1.249.721a.358.358,0,0,1-.324,0l-7.214-4.165Z" transform="translate(-351.178 -205.522)" fill="#24126a"/>
        <path id="Path_112462" data-name="Path 112462" d="M412.039,245.94l1.156.667c.068.039.06.108-.019.154l-.5.289a.3.3,0,0,1-.266.011l-1.156-.667c-.068-.039-.06-.108.019-.154l.5-.289A.3.3,0,0,1,412.039,245.94Z" transform="translate(-389.404 -228.78)" fill="#24126a"/>
        <path id="Path_112463" data-name="Path 112463" d="M406.2,242.568l1.155.667c.068.04.06.108-.019.154l-.5.289a.3.3,0,0,1-.266.011l-1.156-.667c-.068-.039-.06-.108.019-.154l.5-.289A.3.3,0,0,1,406.2,242.568Z" transform="translate(-385.179 -226.34)" fill="#24126a"/>
        <path id="Path_112464" data-name="Path 112464" d="M400.406,239.224l1.156.667c.068.039.06.108-.019.154l-.5.289a.3.3,0,0,1-.266.011l-1.156-.667c-.068-.039-.06-.108.019-.154l.5-.289A.3.3,0,0,1,400.406,239.224Z" transform="translate(-380.989 -223.921)" fill="#24126a"/>
        <path id="Path_112465" data-name="Path 112465" d="M409.4,240.722l1.156.667c.068.04.06.108-.019.154l-.5.289a.3.3,0,0,1-.266.011l-1.156-.667c-.068-.04-.06-.108.019-.154l.5-.289A.3.3,0,0,1,409.4,240.722Z" transform="translate(-387.493 -225.005)" fill="#24126a"/>
      </g>
    </g>
    <g id="Group_50061" data-name="Group 50061" transform="translate(51.891 20.102)">
      <path id="Path_112466" data-name="Path 112466" d="M469.116,147.87a.489.489,0,0,1-.242-.069.708.708,0,0,1-.339-.715.358.358,0,0,1,.2-.258.43.43,0,0,1,.385.041.707.707,0,0,1,.339.715h0a.347.347,0,0,1-.346.287Zm-.234-.96a.236.236,0,0,0-.238.2.59.59,0,0,0,.286.593.321.321,0,0,0,.285.035.25.25,0,0,0,.139-.181h0a.591.591,0,0,0-.286-.594A.378.378,0,0,0,468.881,146.91Z" transform="translate(-468.523 -146.799)" fill="#42e8e0"/>
      <path id="Path_112467" data-name="Path 112467" d="M473.892,150.627a.485.485,0,0,1-.242-.07.707.707,0,0,1-.339-.715.357.357,0,0,1,.2-.258.429.429,0,0,1,.384.041.7.7,0,0,1,.339.715h0a.346.346,0,0,1-.346.287Zm-.235-.96a.236.236,0,0,0-.238.2.591.591,0,0,0,.286.594.322.322,0,0,0,.285.035.25.25,0,0,0,.139-.181.591.591,0,0,0-.286-.593A.375.375,0,0,0,473.657,149.667Z" transform="translate(-471.978 -148.794)" fill="#42e8e0"/>
      <path id="Path_112468" data-name="Path 112468" d="M479.1,153.23a.316.316,0,0,1-.506.182.648.648,0,0,1-.313-.654.316.316,0,0,1,.506-.182A.649.649,0,0,1,479.1,153.23Z" transform="translate(-475.577 -150.933)" fill="#42e8e0"/>
    </g>
    <path id="Path_112469" data-name="Path 112469" d="M387.852,100.484l-.707-.408.055-.327.707.408Z" transform="translate(-357.764 -92.662)" fill="#42e8e0"/>
    <path id="Path_112470" data-name="Path 112470" d="M391.565,102.628l-.707-.408.055-.327.707.408Z" transform="translate(-360.45 -94.213)" fill="#42e8e0"/>
    <path id="Path_112471" data-name="Path 112471" d="M381.973,97.09l-1.549-.895.055-.327,1.549.895Z" transform="translate(-352.901 -89.854)" fill="#42e8e0"/>
  </g>
  <path id="Path_112472" data-name="Path 112472" d="M412.227,152.826a1.071,1.071,0,0,1-.534-.152L401.857,147a1.716,1.716,0,0,1-.741-1.848,1.014,1.014,0,0,1,.578-.7.977.977,0,0,1,.872.086l9.835,5.678a1.716,1.716,0,0,1,.741,1.848,1.014,1.014,0,0,1-.578.7A.88.88,0,0,1,412.227,152.826Zm-10.2-8.334a.774.774,0,0,0-.295.058.908.908,0,0,0-.513.628,1.6,1.6,0,0,0,.69,1.722l9.835,5.678a.869.869,0,0,0,.774.08.907.907,0,0,0,.513-.628,1.6,1.6,0,0,0-.69-1.722l-9.835-5.678A.96.96,0,0,0,402.031,144.492Z" transform="translate(-367.833 -124.948)" fill="#42e8e0"/>
  <g id="Group_50064" data-name="Group 50064" transform="translate(23.695 14.902)">
    <path id="Path_112473" data-name="Path 112473" d="M366.587,155.495v10.214h0a.709.709,0,0,0,.411.591l8.487,4.9a2.649,2.649,0,0,0,2.383-.1h0a.964.964,0,0,0,.583-.8h0V160.086Z" transform="translate(-366.587 -147.89)" fill="url(#linear-gradient-8)"/>
    <path id="Path_112474" data-name="Path 112474" d="M401.061,181.1a2.818,2.818,0,0,0,1.747-.3.964.964,0,0,0,.583-.8h0V169.776l-2.288-.885h-.042Z" transform="translate(-391.525 -157.581)" fill="#24126a" opacity="0.3"/>
    <path id="Path_112475" data-name="Path 112475" d="M375.485,158.051l-8.487-4.9c-.611-.353-.534-.969.171-1.376h0a2.65,2.65,0,0,1,2.384-.1l8.487,4.9c.611.353.534.969-.171,1.376h0A2.649,2.649,0,0,1,375.485,158.051Z" transform="translate(-366.585 -144.956)" fill="url(#linear-gradient-9)"/>
    <path id="Path_112476" data-name="Path 112476" d="M375.485,209.523l-8.487-4.9c-.611-.353-.534-.969.171-1.376h0a2.65,2.65,0,0,1,2.384-.1l8.487,4.9c.611.353.534.969-.171,1.376h0A2.649,2.649,0,0,1,375.485,209.523Z" transform="translate(-366.585 -182.19)" fill="#24126a" opacity="0.5"/>
    <g id="Group_50063" data-name="Group 50063" transform="translate(1.386 0)">
      <path id="Path_112477" data-name="Path 112477" d="M379.958,140.44a.733.733,0,0,1-.734-.734v-4.538a5.558,5.558,0,0,0-2.473-4.283l-1.948-1.124a1.028,1.028,0,0,0-1.74,1V135.3a.733.733,0,0,1-1.467,0v-4.539a2.448,2.448,0,0,1,3.94-2.275l1.948,1.124a6.992,6.992,0,0,1,3.206,5.554v4.538A.733.733,0,0,1,379.958,140.44Z" transform="translate(-371.597 -128.002)" fill="url(#linear-gradient-10)"/>
    </g>
  </g>
</svg>
