<svg id="Field-equipment" xmlns="http://www.w3.org/2000/svg" xmlns:xlink="http://www.w3.org/1999/xlink" width="62.2" height="59.069" viewBox="0 0 62.2 59.069">
  <defs>
    <style>
      .cls-1 {
        fill: url(#linear-gradient);
      }

      .cls-2 {
        fill: url(#linear-gradient-2);
      }

      .cls-3 {
        fill: url(#linear-gradient-3);
      }

      .cls-4 {
        fill: url(#linear-gradient-4);
      }

      .cls-5 {
        fill: url(#linear-gradient-5);
      }

      .cls-6 {
        fill: url(#linear-gradient-6);
      }

      .cls-7 {
        fill: url(#linear-gradient-7);
      }
    </style>
    <linearGradient id="linear-gradient" y1="0.501" x2="1.002" y2="0.501" gradientUnits="objectBoundingBox">
      <stop offset="0" stop-color="#556366"/>
      <stop offset="0.998" stop-color="#556366"/>
    </linearGradient>
    <linearGradient id="linear-gradient-2" x1="0" y1="0.5" x2="1" y2="0.5" xlink:href="#linear-gradient"/>
    <linearGradient id="linear-gradient-3" x1="-0.002" y1="0.5" x2="1.001" y2="0.5" xlink:href="#linear-gradient"/>
    <linearGradient id="linear-gradient-4" x1="-0.001" y1="0.501" x2="1" y2="0.501" xlink:href="#linear-gradient"/>
    <linearGradient id="linear-gradient-5" x1="0" y1="0.501" x2="0.997" y2="0.501" xlink:href="#linear-gradient"/>
    <linearGradient id="linear-gradient-6" x1="0" y1="0.503" x2="1" y2="0.503" xlink:href="#linear-gradient"/>
    <linearGradient id="linear-gradient-7" x1="-0.006" y1="0.499" x2="0.992" y2="0.499" xlink:href="#linear-gradient"/>
  </defs>
  <g id="Group_15059" data-name="Group 15059" transform="translate(3.119 0)">
    <path id="Path_51156" data-name="Path 51156" class="cls-1" d="M19.828,3.771c.041,0,1,.373,1.037.373,1.451.539-.166,10.781-1.7,17.914-3.442,6.013-8.625,15.426-10.076,14.928-.041,0-1-.373-1.037-.373C6.6,36.074,8.424,26.7,9.959,18.782,13.442,11.982,18.377,3.274,19.828,3.771Z" transform="translate(-7.521 -3.751)"/>
    <path id="Path_51157" data-name="Path 51157" class="cls-2" d="M76.341,59.275,75.18,62.551,24.3,43.807l.663-1.907Z" transform="translate(-17.342 -26.081)"/>
  </g>
  <g id="Group_15061" data-name="Group 15061" transform="translate(0 24.652)">
    <g id="Group_15060" data-name="Group 15060" transform="translate(26.539)">
      <path id="Path_51158" data-name="Path 51158" class="cls-3" d="M113.754,93.484h-3.11V78.1h-.871V93.484h-3.234a.549.549,0,0,0-.539.539v9.662h8.293V94.023A.549.549,0,0,0,113.754,93.484Z" transform="translate(-88.584 -71.921)"/>
      <path id="Path_51159" data-name="Path 51159" class="cls-4" d="M78.1,112l-2.82-19.655L66.82,92.3,64,112h2.405l.746-5.183,6.51,5.017-.249.166ZM73.164,94.415l.581,4.022L69.93,95.576,71.3,94.415Zm-4.686,3.069,3.981,2.944L67.608,103.5Zm.663,7.879,5.1-3.276,1.161,8.086Z" transform="translate(-64 -80.233)"/>
      <rect id="Rectangle_350" data-name="Rectangle 350" class="cls-5" width="3.981" height="12.357" transform="translate(5.059)"/>
    </g>
    <rect id="Rectangle_351" data-name="Rectangle 351" class="cls-6" width="62.2" height="2.654" transform="translate(0 31.764)"/>
    <rect id="Rectangle_352" data-name="Rectangle 352" class="cls-7" width="1.742" height="26.041" transform="translate(3.981 5.764)"/>
  </g>
</svg>
