<svg id="Layer_2" height="512" viewBox="0 0 128 128" width="512" xmlns="http://www.w3.org/2000/svg" xmlns:xlink="http://www.w3.org/1999/xlink" data-name="Layer 2"><linearGradient id="linear-gradient" gradientUnits="userSpaceOnUse" x1="111.559" x2="9.389" y1="124.183" y2="22.013"><stop offset="0" stop-color="#06daf7"/><stop offset="1" stop-color="#ff6ca8"/></linearGradient><path d="m112.512 85.85h-21.665a1.75 1.75 0 1 0 0 3.5h21.665a11.988 11.988 0 1 1 0 23.975h-97.024a11.988 11.988 0 1 1 0-23.975h53.137a1.75 1.75 0 0 0 0-3.5h-17.434v-24.972a14.314 14.314 0 0 0 -7.558-12.607l-4.133-8.08h34.4a17.386 17.386 0 0 0 2.948 2.548v7.835h-5.423a1.75 1.75 0 0 0 -1.75 1.75v7.756a1.75 1.75 0 0 0 1.75 1.75h.62l-.814 1.277a1.75 1.75 0 0 0 -.274.941v11.043a1.751 1.751 0 0 0 .513 1.238l6.9 6.9a1.751 1.751 0 0 0 2.475 0l4.143-4.144a1.751 1.751 0 0 0 0-2.475l-4.671-4.669v-5.675l2.828-4.437h6.743l2.828 4.437v5.672l-4.671 4.669a1.751 1.751 0 0 0 0 2.475l4.143 4.144a1.751 1.751 0 0 0 2.475 0l6.9-6.9a1.751 1.751 0 0 0 .513-1.238v-11.041a1.75 1.75 0 0 0 -.274-.941l-.814-1.277h.62a1.75 1.75 0 0 0 1.75-1.75v-7.754a1.75 1.75 0 0 0 -1.75-1.75h-5.425v-7.836a17.258 17.258 0 0 0 1.317-27.62 1.75 1.75 0 1 0 -2.228 2.7 13.747 13.747 0 0 1 -1.807 22.481 13.766 13.766 0 0 1 -20.715-11.859 13.922 13.922 0 0 1 13.766-13.766 1.75 1.75 0 0 0 0-3.5 17.2 17.2 0 0 0 -12.616 5.516h-50.627a11.737 11.737 0 0 0 -13.688 16.639l13.138 25.663a14.294 14.294 0 0 0 -.139 1.885v24.972h-7.1a15.488 15.488 0 1 0 0 30.975h97.024a15.488 15.488 0 1 0 0-30.975zm-35.183-11.95 3.946 3.944-1.668 1.668-5.15-5.148v-9.806l1.743-2.728h2.8l-1.9 2.986a1.748 1.748 0 0 0 -.274.94v6.907a1.751 1.751 0 0 0 .503 1.237zm21.246-9.343v9.808l-5.15 5.148-1.668-1.669 3.943-3.944a1.751 1.751 0 0 0 .513-1.238v-6.906a1.748 1.748 0 0 0 -.274-.94l-1.9-2.986h2.8zm1.282-6.228h-26.682v-4.254h26.681zm-7.174-13.772v6.018h-12.334v-6.018a17.294 17.294 0 0 0 12.334 0zm-55.8 19.875a3.554 3.554 0 1 1 3.554-3.554 3.558 3.558 0 0 1 -3.55 3.555zm.818-27.741-3.327-6.5h34.96a17.3 17.3 0 0 0 2.015 6.5zm33.648-16.5a17.307 17.307 0 0 0 -2.015 6.5h-36.747c-1.118-2.183-2.1-4.645-3.735-6.5zm-47.129 34.047-11.52-22.503a8.25 8.25 0 1 1 14.688-7.519l7.689 15.022 3.829 7.479a14.425 14.425 0 0 0 -14.686 7.521zm1.863 6.64a10.8 10.8 0 0 1 21.608 0v24.972h-9.054v-18.15a7.054 7.054 0 1 0 -3.5 0v18.15h-9.054zm52.59 28.472a1.75 1.75 0 1 1 0-3.5h2.127a1.75 1.75 0 0 1 0 3.5zm-5.224 10.237h-18.9a6.86 6.86 0 0 0 -13.271 0h-19.155a6.87 6.87 0 1 0 0 3.5h19.157a6.86 6.86 0 0 0 13.271 0h18.9a6.86 6.86 0 0 0 13.271 0h19.157a6.87 6.87 0 1 0 0-3.5h-19.159a6.86 6.86 0 0 0 -13.271 0zm-57.961 5.12a3.37 3.37 0 1 1 3.37-3.37 3.374 3.374 0 0 1 -3.37 3.37zm32.428 0a3.37 3.37 0 1 1 3.37-3.37 3.374 3.374 0 0 1 -3.37 3.37zm64.6-6.74a3.37 3.37 0 1 1 -3.37 3.37 3.374 3.374 0 0 1 3.366-3.37zm-32.428 0a3.37 3.37 0 1 1 -3.37 3.37 3.374 3.374 0 0 1 3.366-3.37zm-59.83-74.74a5.214 5.214 0 1 0 5.214 5.214 5.22 5.22 0 0 0 -5.217-5.213zm0 6.928a1.714 1.714 0 1 1 1.714-1.714 1.716 1.716 0 0 1 -1.717 1.714zm58.794-1.714a7.467 7.467 0 1 0 7.467-7.467 7.475 7.475 0 0 0 -7.47 7.467zm11.434 0a3.967 3.967 0 1 1 -3.967-3.967 3.971 3.971 0 0 1 3.964 3.967z" fill="url(#linear-gradient)"/></svg>