<svg xmlns="http://www.w3.org/2000/svg" xmlns:xlink="http://www.w3.org/1999/xlink" width="344.18" height="88.401" viewBox="0 0 344.18 88.401">
  <defs>
    <linearGradient id="linear-gradient" x1="0.981" y1="0.452" x2="0.009" y2="0.5" gradientUnits="objectBoundingBox">
      <stop offset="0" stop-color="#fdcd00"/>
      <stop offset="1" stop-color="#be9000"/>
    </linearGradient>
    <filter id="Path_51263" x="274.18" y="26.114" width="64.5" height="41.521" filterUnits="userSpaceOnUse">
      <feOffset dy="3" input="SourceAlpha"/>
      <feGaussianBlur stdDeviation="3" result="blur"/>
      <feFlood flood-opacity="0.161"/>
      <feComposite operator="in" in2="blur"/>
      <feComposite in="SourceGraphic"/>
    </filter>
  </defs>
  <g id="Group_16137" data-name="Group 16137" transform="translate(-14.82 -238)">
    <rect id="Rectangle_437" data-name="Rectangle 437" width="317" height="81" transform="translate(42 238)" fill="url(#linear-gradient)"/>
    <text id="Vision" transform="translate(157 260)" fill="#fff" font-size="20" font-family="Montserrat-Regular, Montserrat"><tspan x="0" y="0">Vision</tspan></text>
    <path id="Path_51270" data-name="Path 51270" d="M-9.18,0H335V59.4L18.048,59.122Z" transform="translate(24 267)" fill="#fff3c7"/>
    <text id="To_realise_a_smart_secure_world_by_strategically_connecting_people_and_infrastructure_social_and_economic_value" data-name="To realise a smart secure world, by strategically 
       connecting people and infrastructure social 
                                                and economic value" transform="translate(43.5 285)" fill="#1e1e1e" font-size="11" font-family="Nunito-Regular, Nunito"><tspan x="0" y="0">To realise a smart secure world, by strategically </tspan><tspan x="0" y="15" xml:space="preserve">       connecting people and infrastructure social </tspan><tspan x="0" y="30" xml:space="preserve">                                                and economic value</tspan></text>
    <g id="Group_16135" data-name="Group 16135" transform="translate(153 -95)">
      <g id="Rectangle_435" data-name="Rectangle 435" transform="translate(130 333)" fill="#fff" stroke="#cc9f00" stroke-width="8">
        <rect width="76" height="88.401" stroke="none"/>
        <rect x="4" y="4" width="68" height="80.401" fill="none"/>
      </g>
      <g id="eye_1_" data-name="eye (1)" transform="translate(145 365.114)">
        <g id="Group_16134" data-name="Group 16134" transform="translate(0)">
          <g id="Group_16133" data-name="Group 16133">
            <g transform="matrix(1, 0, 0, 1, -283.18, -32.11)" filter="url(#Path_51263)">
              <path id="Path_51263-2" data-name="Path 51263" d="M46.074,84.078c-.415-.437-10.318-10.694-22.824-10.694S.842,83.641.427,84.078a1.548,1.548,0,0,0,0,2.133c.415.437,10.318,10.694,22.824,10.694S45.659,86.648,46.074,86.211A1.547,1.547,0,0,0,46.074,84.078ZM3.791,85.143c2.367-2.135,8.242-6.841,15.39-8.255a9.2,9.2,0,0,0-.006,16.51C12.042,91.98,6.16,87.274,3.791,85.143Zm13.347,0a6.112,6.112,0,1,1,6.112,6.112A6.119,6.119,0,0,1,17.138,85.144ZM27.32,93.4a9.2,9.2,0,0,0,.006-16.51c7.132,1.418,13.015,6.123,15.384,8.255C40.343,87.28,34.468,91.987,27.32,93.4Z" transform="translate(283.18 -41.27)" fill="#696969"/>
            </g>
            <path id="Path_51264" data-name="Path 51264" d="M133.286,130.462a2.824,2.824,0,1,0,2.824,2.824A2.827,2.827,0,0,0,133.286,130.462Zm0,3.095a.271.271,0,1,1,.271-.271A.271.271,0,0,1,133.286,133.557Z" transform="translate(-110.036 -121.526)" fill="#696969"/>
          </g>
        </g>
      </g>
    </g>
  </g>
</svg>
