<svg xmlns="http://www.w3.org/2000/svg" xmlns:xlink="http://www.w3.org/1999/xlink" width="670.881" height="172.313" viewBox="0 0 670.881 172.313">
  <defs>
    <linearGradient id="linear-gradient" x1="0.981" y1="0.452" x2="0.009" y2="0.5" gradientUnits="objectBoundingBox">
      <stop offset="0" stop-color="#fdcd00"/>
      <stop offset="1" stop-color="#be9000"/>
    </linearGradient>
    <filter id="Path_51263" x="542.979" y="56.597" width="108.639" height="63.848" filterUnits="userSpaceOnUse">
      <feOffset dy="3" input="SourceAlpha"/>
      <feGaussianBlur stdDeviation="3" result="blur"/>
      <feFlood flood-opacity="0.161"/>
      <feComposite operator="in" in2="blur"/>
      <feComposite in="SourceGraphic"/>
    </filter>
  </defs>
  <g id="Group_16137" data-name="Group 16137" transform="translate(-14.82 -238)">
    <rect id="Rectangle_437" data-name="Rectangle 437" width="617.902" height="157.887" transform="translate(67.799 238)" fill="url(#linear-gradient)"/>
    <text id="Vision" transform="translate(291.959 279.848)" fill="#fff" font-size="37" font-family="Montserrat-Regular, Montserrat"><tspan x="0" y="0">Vision</tspan></text>
    <path id="Path_51270" data-name="Path 51270" d="M-9.18,0H661.7V115.785l-617.808-.544Z" transform="translate(24 294.527)" fill="#fff3c7"/>
    <text id="To_realise_a_smart_secure_world_by_strategically_connecting_people_and_infrastructure_social_and_economic_value" data-name="To realise a smart secure world, by strategically 
       connecting people and infrastructure social 
                                                and economic value" transform="translate(70.723 329.172)" fill="#1e1e1e" font-size="21" font-family="Nunito-Regular, Nunito"><tspan x="0" y="0">To realise a smart secure world, by strategically </tspan><tspan x="0" y="28" xml:space="preserve">       connecting people and infrastructure social </tspan><tspan x="0" y="56" xml:space="preserve">                                                and economic value</tspan></text>
    <g id="Group_16135" data-name="Group 16135" transform="translate(537.561 238)">
      <g id="Rectangle_435" data-name="Rectangle 435" transform="translate(0 0)" fill="#fff" stroke="#cc9f00" stroke-width="8">
        <rect width="148.14" height="172.312" stroke="none"/>
        <rect x="4" y="4" width="140.14" height="164.312" fill="none"/>
      </g>
      <g id="eye_1_" data-name="eye (1)" transform="translate(29.238 62.597)">
        <g id="Group_16134" data-name="Group 16134" transform="translate(0)">
          <g id="Group_16133" data-name="Group 16133">
            <g transform="matrix(1, 0, 0, 1, -551.98, -62.6)" filter="url(#Path_51263)">
              <path id="Path_51263-2" data-name="Path 51263" d="M89.808,94.229C89,93.378,69.7,73.384,45.32,73.384S1.641,93.377.831,94.229a3.017,3.017,0,0,0,0,4.158c.81.851,20.112,20.845,44.488,20.845S89,99.238,89.808,98.387A3.016,3.016,0,0,0,89.808,94.229ZM7.389,96.3c4.613-4.161,16.065-13.335,30-16.09a17.938,17.938,0,0,0-.011,32.181C23.473,109.632,12.006,100.459,7.389,96.3Zm26.017,0A11.914,11.914,0,1,1,45.32,108.222,11.928,11.928,0,0,1,33.405,96.308ZM53.252,112.4a17.938,17.938,0,0,0,.011-32.181c13.9,2.764,25.368,11.934,29.987,16.09C78.637,100.471,67.185,109.645,53.252,112.4Z" transform="translate(551.98 -10.79)" fill="#696969"/>
            </g>
            <path id="Path_51264" data-name="Path 51264" d="M135.967,130.462a5.5,5.5,0,1,0,5.5,5.5A5.511,5.511,0,0,0,135.967,130.462Zm0,6.032a.528.528,0,1,1,.528-.528A.529.529,0,0,1,135.967,136.494Z" transform="translate(-90.648 -113.043)" fill="#696969"/>
          </g>
        </g>
      </g>
    </g>
  </g>
</svg>
