<svg xmlns="http://www.w3.org/2000/svg" xmlns:xlink="http://www.w3.org/1999/xlink" width="353.92" height="94.863" viewBox="0 0 353.92 94.863">
  <defs>
    <linearGradient id="linear-gradient" x1="0.981" y1="0.452" x2="0.009" y2="0.5" gradientUnits="objectBoundingBox">
      <stop offset="0" stop-color="#497157"/>
      <stop offset="1" stop-color="#74aa86"/>
    </linearGradient>
    <filter id="Ellipse_304" x="0" y="0" width="94.461" height="94.461" filterUnits="userSpaceOnUse">
      <feOffset input="SourceAlpha"/>
      <feGaussianBlur stdDeviation="10" result="blur"/>
      <feFlood flood-opacity="0.161"/>
      <feComposite operator="in" in2="blur"/>
      <feComposite in="SourceGraphic"/>
    </filter>
  </defs>
  <g id="Group_16138" data-name="Group 16138" transform="translate(-32 -232.781)">
    <rect id="Rectangle_437" data-name="Rectangle 437" width="317" height="81" transform="translate(42 238)" fill="url(#linear-gradient)"/>
    <text id="Mission" transform="translate(176 260)" fill="#fff" font-size="20" font-family="Montserrat-Regular, Montserrat"><tspan x="0" y="0">Mission</tspan></text>
    <path id="Path_51270" data-name="Path 51270" d="M331.1,0H-9.18V59.4H304.538Z" transform="translate(54.82 268.243)" fill="#cee8d5"/>
    <text id="To_empower_customers_through_cost-effective_Durable_and_value_driven_solutions_using_loT_AI_And_data_security_technology" data-name="To empower customers through cost-effective,
Durable and value driven solutions using loT, AI
And data security technology" transform="translate(128.5 286)" fill="#1e1e1e" font-size="11" font-family="Nunito-Regular, Nunito"><tspan x="0" y="0">To empower customers through cost-effective,</tspan><tspan x="0" y="15">Durable and value driven solutions using loT, AI</tspan><tspan x="0" y="30">And data security technology</tspan></text>
    <g id="Group_16136" data-name="Group 16136" transform="translate(-87.63 -194)">
      <g id="Rectangle_436" data-name="Rectangle 436" transform="translate(129.63 432)" fill="#fff" stroke="#7caa8b" stroke-width="8">
        <rect width="76" height="89.643" stroke="none"/>
        <rect x="4" y="4" width="68" height="81.643" fill="none"/>
      </g>
      <g id="target_2_" data-name="target (2)" transform="translate(149.63 454.751)">
        <path id="Path_51268" data-name="Path 51268" d="M.314,0h4L3.549,10.5,0,11.793Z" transform="translate(8.706 31.54) rotate(20)" fill="#c5b9a7"/>
        <path id="Path_51269" data-name="Path 51269" d="M.314,11.793h4l-.765-10.5L0,0Z" transform="translate(28.76 42.622) rotate(160)" fill="#c5b9a7"/>
        <g transform="matrix(1, 0, 0, 1, -30, -27.97)" filter="url(#Ellipse_304)">
          <circle id="Ellipse_304-2" data-name="Ellipse 304" cx="17.231" cy="17.231" r="17.231" transform="translate(30 30)" fill="#332f2b"/>
        </g>
        <path id="Path_51265" data-name="Path 51265" d="M274.8,108.731c0-9.516-8.416-17.231-18.8-17.231v34.461C266.382,125.961,274.8,118.247,274.8,108.731Z" transform="translate(-239.979 -89.47)" fill="#1f1e1c"/>
        <circle id="Ellipse_305" data-name="Ellipse 305" cx="13.15" cy="13.15" r="13.15" transform="translate(4.081 6.111)" fill="#786e65"/>
        <circle id="Ellipse_306" data-name="Ellipse 306" cx="9.026" cy="9.026" r="9.026" transform="translate(8.204 10.234)" fill="#94897d"/>
        <circle id="Ellipse_307" data-name="Ellipse 307" cx="3.319" cy="3.319" r="3.319" transform="translate(13.912 15.942)" fill="#bcb09e"/>
        <path id="Path_51266" data-name="Path 51266" d="M68.881,41.791a.625.625,0,0,0-.885,0l-8.4,8.4a.626.626,0,1,0,.886.885l8.4-8.4a.625.625,0,0,0,0-.885Z" transform="translate(-42.808 -31.373)" fill="#f6e4cf"/>
        <path id="Path_51267" data-name="Path 51267" d="M85.147,25.532l-4.223-.954-.954-4.223L87.327,13l.953,4.223,4.223.953Z" transform="translate(-56.012 -13)" fill="#6d655b"/>
      </g>
    </g>
  </g>
</svg>
