<svg width="58" height="58" viewBox="0 0 58 58" fill="none" xmlns="http://www.w3.org/2000/svg">
<path d="M28.9496 0C13.0122 0 0 13.0122 0 29.0504C0 44.9878 13.0122 58 28.9496 58C44.887 58 58 44.9878 58 29.0504C58 13.0122 44.9878 0 28.9496 0Z" fill="#DCEAEF"/>
<path d="M30.5636 25.7217C16.7445 24.3095 12.2053 36.5148 12.2053 36.5148C15.1305 32.8835 17.7531 30.7652 20.3758 29.5548C19.9723 30.3617 19.6697 31.3704 19.7705 32.48C19.9723 35.2035 22.1914 37.4226 24.9149 37.6243C28.1427 37.8261 30.8662 35.3043 30.8662 32.0765C30.8662 31.0678 30.5636 30.16 30.1601 29.353C29.9584 29.8574 29.5549 30.16 28.9497 30.0591C28.4453 29.9582 27.941 29.5548 27.941 28.9495V28.8487C27.941 28.3443 28.4453 27.9408 29.0505 27.9408C31.0679 27.9408 33.0853 28.1426 35.3045 28.1426C44.0801 28.2435 45.8958 22.1913 45.8958 22.1913C45.8958 22.1913 43.9792 27.033 30.5636 25.7217ZM25.2175 34.1948C24.0071 34.1948 22.9984 33.1861 22.9984 31.9756C22.9984 30.7652 24.0071 29.7565 25.2175 29.7565C26.4279 29.7565 27.4366 30.7652 27.4366 31.9756C27.4366 33.2869 26.4279 34.1948 25.2175 34.1948Z" fill="#1B75BC"/>
<path d="M12.6089 32.0765C12.6089 32.0765 18.3585 16.0383 41.155 24.1078C41.155 24.1078 22.4941 17.1478 12.6089 32.0765Z" fill="#1B75BC"/>
</svg>
