<svg width="58" height="58" viewBox="0 0 58 58" fill="none" xmlns="http://www.w3.org/2000/svg">
<path d="M28.9496 0C13.0122 0 0 13.0122 0 29.0504C0 44.9878 13.0122 58 28.9496 58C44.887 58 58 44.9878 58 29.0504C58 13.0122 44.9878 0 28.9496 0Z" fill="url(#paint0_linear)"/>
<path d="M43.6969 21.4559C42.8281 20.5871 41.6698 20.1527 40.5114 20.1527C38.0499 20.1527 36.0227 22.1799 36.0227 24.6414C36.0227 27.103 38.0499 29.1301 40.5114 29.1301C42.9729 29.1301 45.0001 27.103 45.0001 24.6414C45.0001 23.483 44.5657 22.3247 43.6969 21.4559ZM38.629 22.9039C37.7603 23.7726 37.6155 24.931 38.1946 25.9446C37.6155 25.2206 37.0363 24.3518 36.7467 23.6278C36.8915 23.0487 37.1811 22.4695 37.7603 22.0351C38.0499 21.7455 38.3394 21.4559 38.7738 21.3111C38.7738 21.7455 38.9186 22.0351 39.0634 22.4695C38.9186 22.6143 38.7738 22.7591 38.629 22.9039Z" fill="white"/>
<path d="M26.1765 17.6912C27.1901 17.112 28.3484 16.8224 29.5068 16.8224C30.3756 16.8224 31.0995 16.9672 31.8235 17.2568C32.5475 16.5329 32.8371 15.5193 32.8371 14.5057C32.8371 13.3473 32.4027 12.3338 31.6787 11.6098C30.9548 10.8858 29.9412 10.4514 28.7828 10.4514C26.4661 10.4514 24.7285 12.3338 24.7285 14.5057C24.7285 15.8089 25.3077 16.9672 26.1765 17.6912ZM26.3213 12.0442C26.6109 11.7546 26.9005 11.6098 27.1901 11.465C27.1901 11.7546 27.3348 12.189 27.4796 12.6234C27.3348 12.7682 27.1901 12.7682 27.0453 12.913C26.3213 13.6369 26.1765 14.7953 26.6109 15.6641C26.0317 14.9401 25.5973 14.2161 25.3077 13.6369C25.5973 12.913 25.8869 12.4786 26.3213 12.0442Z" fill="white"/>
<path d="M25.8869 29.1301C27.6244 27.3926 30.086 26.2342 32.6923 26.2342C33.5611 26.2342 34.4298 26.379 35.2986 26.6686C35.733 25.7998 35.8778 24.9311 35.8778 23.9175C35.8778 22.1799 35.1538 20.5872 33.9955 19.4288C32.8371 18.2704 31.2443 17.5464 29.5068 17.5464C26.0317 17.5464 23.1357 20.4424 23.1357 23.9175C23.1357 26.0894 24.1493 27.9718 25.8869 29.1301ZM25.8869 20.2976C26.3213 19.8632 26.7556 19.5736 27.19 19.284C27.19 19.8632 27.3348 20.2976 27.6244 21.0216C27.3348 21.1664 27.19 21.3111 27.0452 21.4559C25.8869 22.6143 25.7421 24.2071 26.4661 25.5102C25.5973 24.4967 24.8733 23.3383 24.5837 22.3247C24.7285 21.7455 25.1629 20.8768 25.8869 20.2976Z" fill="white"/>
<path d="M32.6924 44.6233C37.4707 44.6233 41.525 40.7138 41.525 35.7908C41.525 33.474 40.6562 31.3021 38.9187 29.5645C37.3259 27.9718 35.0092 26.9582 32.6924 26.9582C27.9142 26.9582 23.8599 30.8677 23.8599 35.7908C23.8599 40.7138 27.7694 44.6233 32.6924 44.6233ZM27.6246 30.8677C28.2037 30.2885 28.7829 29.8541 29.5069 29.5645C29.5069 30.2885 29.7965 31.0125 30.0861 31.8813C29.7965 32.0261 29.5069 32.3156 29.2173 32.6052C27.7694 34.0532 27.4798 36.3699 28.3485 38.2523C27.1902 36.8043 26.1766 35.3564 25.7422 34.0532C26.1766 32.75 26.7558 31.7365 27.6246 30.8677Z" fill="white"/>
<path d="M25.3077 29.7093C23.5701 28.4062 22.4118 26.379 22.4118 23.9175C22.4118 23.7727 22.4118 23.7727 22.4118 23.6279C21.543 23.1935 20.5294 22.9039 19.5158 22.9039C15.8959 22.9039 13 25.7999 13 29.4198C13 33.0397 15.8959 35.9356 19.5158 35.9356C20.819 35.9356 22.1222 35.5012 23.1357 34.7772C23.4253 32.7501 24.1493 31.0125 25.3077 29.7093ZM17.0543 26.9582C15.8959 28.1166 15.7511 29.8541 16.4751 31.1573C15.6063 30.1437 14.8823 28.9854 14.5928 27.9718C14.8823 27.103 15.3167 26.379 15.8959 25.7999C16.3303 25.3655 16.7647 25.0759 17.1991 24.7863C17.1991 25.3655 17.3439 25.9447 17.6335 26.5238C17.3439 26.5238 17.1991 26.6686 17.0543 26.9582Z" fill="white"/>
<path d="M20.6743 35.9355C18.792 35.9355 17.1992 37.5283 17.1992 39.4107C17.1992 41.293 18.792 42.8858 20.6743 42.8858C22.5567 42.8858 24.1494 41.293 24.1494 39.4107C24.1494 38.3971 23.715 37.5283 23.1359 36.9491C22.4119 36.3699 21.5431 35.9355 20.6743 35.9355ZM19.2264 38.1075C18.6472 38.6867 18.5024 39.7002 18.9368 40.4242C18.3576 39.845 18.068 39.1211 17.7784 38.5419C17.9232 38.1075 18.2128 37.6731 18.5024 37.2387C18.792 36.9491 18.9368 36.8043 19.2264 36.6595C19.2264 36.9491 19.3712 37.2387 19.516 37.6731C19.3712 37.8179 19.3712 37.9627 19.2264 38.1075Z" fill="white"/>
<defs>
<linearGradient id="paint0_linear" x1="8.29763" y1="49.7023" x2="49.39" y2="8.60982" gradientUnits="userSpaceOnUse">
<stop stop-color="#00AEEF"/>
<stop offset="1" stop-color="#71C0E2"/>
</linearGradient>
</defs>
</svg>
