<svg width="58" height="58" viewBox="0 0 58 58" fill="none" xmlns="http://www.w3.org/2000/svg">
<path d="M28.9496 0C13.0122 0 0 13.0122 0 29.0504C0 44.9878 13.0122 58 28.9496 58C44.887 58 58 44.9878 58 29.0504C58 13.0122 44.9878 0 28.9496 0Z" fill="url(#paint0_linear)"/>
<path d="M39.1373 21.7878H18.9634L29.1512 16.1391L39.1373 21.7878ZM29.1512 39.0365L19.6695 22.8974H38.3304L29.1512 39.0365ZM18.2573 22.6957L28.6469 40.3478L18.2573 34.8V22.6957ZM29.7565 40.4487L39.7425 22.7965V34.9009L29.7565 40.4487Z" fill="white"/>
<defs>
<linearGradient id="paint0_linear" x1="0" y1="29.0027" x2="58.0054" y2="29.0027" gradientUnits="userSpaceOnUse">
<stop stop-color="#48AD48"/>
<stop offset="1" stop-color="#35B08E"/>
</linearGradient>
</defs>
</svg>
