<svg width="58" height="58" viewBox="0 0 58 58" fill="none" xmlns="http://www.w3.org/2000/svg">
<path d="M28.9496 0C13.0122 0 0 13.0122 0 29.0504C0 44.9878 13.0122 58 28.9496 58C44.887 58 58 44.9878 58 29.0504C58 13.0122 44.9878 0 28.9496 0Z" fill="url(#paint0_linear)"/>
<path fill-rule="evenodd" clip-rule="evenodd" d="M21.1203 18.0093C21.1203 15.2684 23.3863 13 26.1245 13C28.7771 13 30.9866 15.1288 31.1221 17.7538L32.8007 18.2041C33.544 16.6382 35.14 15.5519 36.9826 15.5519C39.5319 15.5519 41.6091 17.6312 41.6091 20.1831C41.6091 22.7351 39.5319 24.8144 36.9826 24.8144C34.4333 24.8144 32.3561 22.7351 32.3561 20.1831L32.3563 20.1396L30.8199 19.7276C30.1107 21.6371 28.2614 23.0186 26.1245 23.0186C25.4662 23.0186 24.8353 22.8875 24.2565 22.6503L22.9537 23.9545C24.369 24.9747 25.3114 26.6491 25.3692 28.5005C25.3692 30.4195 24.4399 32.088 22.9992 33.0879L24.2596 34.3496C24.8376 34.1131 25.4675 33.9825 26.1245 33.9825C28.261 33.9825 30.11 35.3634 30.8195 37.2723L32.3563 36.8601C32.3561 36.8461 32.3561 36.832 32.3561 36.8179C32.3561 34.266 34.4333 32.1866 36.9826 32.1866C39.5319 32.1866 41.6091 34.266 41.6091 36.8179C41.6091 39.3698 39.5319 41.4492 36.9826 41.4492C35.1395 41.4492 33.5432 40.3623 32.8002 38.7958L31.1222 39.2459C30.9874 41.8715 28.7776 44.0011 26.1245 44.0011C23.3864 44.0011 21.1204 41.7327 21.1204 38.9918C21.1204 37.6292 21.6804 36.3835 22.5799 35.4751L21.0474 33.941C20.6469 34.03 20.229 34.077 19.7985 34.077C16.6827 34.077 14.2278 31.525 14.2278 28.5005C14.2278 25.3815 16.7771 22.9241 19.7985 22.9241C20.223 22.9241 20.6364 22.9745 21.0336 23.0695L22.5777 21.5239C21.6794 20.6157 21.1203 19.3708 21.1203 18.0093ZM23.764 18.0093C23.764 19.3325 24.8026 20.3722 26.1245 20.3722C27.4463 20.3722 28.4849 19.3325 28.4849 18.0093C28.4849 16.6861 27.4463 15.6464 26.1245 15.6464C24.8026 15.6464 23.764 16.6861 23.764 18.0093ZM36.9826 22.4515C35.7551 22.4515 34.7165 21.4118 34.7165 20.1831C34.7165 18.9544 35.7551 17.9148 36.9826 17.9148C38.21 17.9148 39.2486 18.9544 39.2486 20.1831C39.2486 21.4118 38.21 22.4515 36.9826 22.4515ZM19.7985 31.147C18.2878 31.147 17.0603 30.0128 17.0603 28.5005C17.0603 26.9883 18.2878 25.8541 19.7041 25.8541C21.1203 25.8541 22.3478 27.0828 22.3478 28.5005C22.4422 30.0128 21.2147 31.147 19.7985 31.147ZM39.2486 36.8179C39.2486 38.0466 38.21 39.0863 36.9826 39.0863C35.7551 39.0863 34.7165 38.0466 34.7165 36.8179C34.7165 35.5892 35.7551 34.5495 36.9826 34.5495C38.21 34.5495 39.2486 35.5892 39.2486 36.8179ZM26.1245 41.3547C27.4464 41.3547 28.485 40.315 28.485 38.9918C28.485 37.6686 27.4464 36.6289 26.1245 36.6289C24.8027 36.6289 23.7641 37.6686 23.7641 38.9918C23.7641 40.315 24.8027 41.3547 26.1245 41.3547Z" fill="white"/>
<defs>
<linearGradient id="paint0_linear" x1="49.3927" y1="8.6071" x2="8.72471" y2="49.2751" gradientUnits="userSpaceOnUse">
<stop stop-color="#EE2A7B"/>
<stop offset="1" stop-color="#92278F"/>
</linearGradient>
</defs>
</svg>
