<svg width="58" height="58" viewBox="0 0 58 58" fill="none" xmlns="http://www.w3.org/2000/svg">
<path d="M28.9496 0C13.0122 0 0 13.0122 0 29.0504C0 44.9878 13.0122 58 28.9496 58C44.887 58 58 44.9878 58 29.0504C58 13.0122 44.9878 0 28.9496 0Z" fill="url(#paint0_linear)"/>
<path d="M15.8366 11.1965C16.6436 11.2974 17.4505 11.6 18.1566 12.0035C18.5601 12.2052 19.0644 12.5078 19.4679 12.7096C19.6696 12.8104 19.7705 13.0122 19.9722 13.113C20.174 13.2139 20.2749 13.4157 20.4766 13.5165C20.5775 13.6174 20.6783 13.6174 20.7792 13.6174C21.2836 13.6174 21.8888 13.7183 22.3931 13.7183C22.5949 13.7183 22.7966 13.8191 22.9983 13.8191C23.6035 13.92 24.3096 14.1217 24.9149 14.3235C25.2175 14.4243 25.4192 14.5252 25.7218 14.727C27.0331 15.5339 28.2436 16.3409 29.454 17.2487C31.2696 18.7617 32.8836 20.4765 34.1949 22.393C34.4975 22.7965 34.6992 23.2 35.0018 23.6035C35.4053 24.2087 35.607 24.8139 35.9096 25.52C36.6157 27.3357 37.4227 29.0504 38.3305 30.8661C38.5322 31.1687 38.6331 31.5722 38.8349 31.8748C38.9357 32.1774 39.1375 32.48 39.3392 32.7826C39.4401 32.9843 39.6418 33.0852 39.8435 33.0852C40.6505 33.3878 41.3566 33.7913 42.1635 34.0939C42.7688 34.2957 43.2731 34.6991 43.7775 35.1026C44.887 35.9096 45.9966 36.7165 47.0053 37.6243C47.207 37.8261 47.4088 38.0278 47.5096 38.2296C47.7114 38.5322 47.9131 38.8348 48.2157 39.0365C48.2157 39.0365 48.3166 39.2383 48.2157 39.3391C48.2157 39.3391 48.2157 39.3391 48.1149 39.3391C47.5096 39.5409 46.9044 39.7426 46.2992 39.8435C45.7949 39.9443 45.3914 39.9443 44.887 40.0452C44.5844 40.1461 44.1809 40.247 43.8783 40.3478C43.5757 40.4487 43.2731 40.5496 42.8696 40.5496H42.7688C42.8696 40.7513 42.9705 40.953 43.1722 41.1548C43.4749 41.4574 43.7775 41.6591 44.0801 41.8609C44.3827 42.0626 44.6853 42.1635 44.887 42.3652C45.7949 42.8696 46.6018 43.5757 47.3079 44.2817C47.6105 44.5844 47.8122 44.887 48.1149 45.1896C48.1149 45.2904 48.2157 45.2904 48.2157 45.3913C48.4175 45.4922 48.5183 45.6939 48.7201 45.7948C48.9218 45.9965 49.0227 46.0974 49.1236 46.4C49.2244 46.5009 49.2244 46.7026 49.3253 46.8035C49.3253 46.8035 49.3253 46.8035 49.3253 46.9043C49.2244 46.9043 49.2244 46.9044 49.1236 46.8035C49.0227 46.7026 48.9218 46.7026 48.9218 46.6017C48.7201 46.4 48.4175 46.1983 48.2157 45.9965C47.9131 45.7948 47.5096 45.4922 47.207 45.2904C46.8036 44.9878 46.2992 44.7861 45.7949 44.4835C45.2905 44.2817 44.7862 43.9791 44.2818 43.7774C43.6766 43.4748 43.1722 43.0713 42.567 42.6678C41.9618 42.2643 41.5583 41.76 41.1549 41.1548C41.054 40.953 40.9531 40.7513 40.8522 40.5496C40.8522 40.4487 40.7514 40.3478 40.6505 40.247V40.1461C40.6505 40.0452 40.7514 39.9443 40.8522 39.9443C40.9531 39.8435 41.054 39.8435 41.054 39.8435C41.4575 39.7426 41.7601 39.5409 42.1635 39.44C42.7688 39.2383 43.374 39.1374 43.9792 39.0365C44.7862 38.9357 45.4922 38.9357 46.2992 38.9357H46.4001C46.4001 38.8348 46.2992 38.7339 46.2992 38.7339C46.1983 38.633 46.0975 38.5322 45.8957 38.3304C45.7949 38.2296 45.694 38.2296 45.5931 38.1287C44.7862 37.6243 44.0801 37.0191 43.2731 36.5148C42.9705 36.313 42.6679 36.1113 42.3653 35.9096C42.0627 35.7078 41.8609 35.607 41.5583 35.5061C40.7514 35.2035 39.8436 34.9009 39.0366 34.5983C38.8349 34.4974 38.6331 34.3965 38.4314 34.2957C38.2296 34.1948 38.1288 34.0939 38.0279 33.8922C37.6244 33.287 37.2209 32.6817 36.9183 31.9757C36.2122 30.2609 35.4053 28.647 34.5983 26.9322C34.4975 26.7304 34.3966 26.5287 34.3966 26.327C34.1949 25.6209 33.7914 24.9148 33.3879 24.2087C32.0766 21.9896 30.4627 20.073 28.5462 18.4591C27.134 17.2487 25.5201 16.24 23.8053 15.433C23.5027 15.3322 23.2001 15.1304 22.7966 15.0296C22.3931 14.9287 21.9896 14.8278 21.5862 14.8278C21.1827 14.8278 20.6783 14.8278 20.2749 14.727C20.174 14.727 19.9722 14.727 19.8714 14.727C19.7705 14.727 19.6696 14.727 19.5688 14.6261C19.4679 14.5252 19.2662 14.4243 19.1653 14.3235C18.5601 13.7183 17.9549 13.4157 17.2488 13.0122C16.7444 12.8104 16.2401 12.6087 15.7357 12.407C15.534 12.3061 15.2314 12.3061 15.0296 12.3061C14.8279 12.3061 14.6262 12.407 14.5253 12.5078L14.4244 12.6087C14.3236 12.8104 14.2227 13.113 14.3236 13.3148C14.4244 13.6174 14.5253 13.92 14.727 14.1217C14.9288 14.4243 15.2314 14.727 15.4331 15.0296C15.8366 15.6348 16.3409 16.1391 16.6436 16.7443C17.047 17.3496 17.2488 17.9548 17.4505 18.56C17.7531 19.367 17.9549 20.073 18.2575 20.88C18.5601 21.687 18.8627 22.4939 19.367 23.2C19.4679 23.3009 19.5688 23.5026 19.6696 23.6035C19.7705 23.7043 19.8714 23.8052 19.9722 23.9061C20.174 24.1078 20.2749 24.3096 20.3757 24.5113C20.4766 24.713 20.3757 24.9148 20.3757 25.0157C20.2749 25.4191 20.174 25.8226 20.0731 26.2261C19.9722 26.6296 19.7705 27.033 19.6696 27.4365C19.4679 28.0417 19.4679 28.647 19.367 29.2522C19.367 29.8574 19.367 30.3617 19.367 30.967C19.4679 31.9757 19.6696 32.9844 20.0731 33.993C20.174 34.1948 20.2749 34.4974 20.3757 34.6991C20.4766 34.9009 20.5775 35.1026 20.7792 35.2035C20.8801 35.3043 20.9809 35.4052 21.1827 35.4052C21.2836 35.4052 21.3844 35.4052 21.3844 35.3043C21.3844 35.1026 21.4853 34.9009 21.4853 34.5983C21.5862 33.8922 21.5862 33.1861 21.7879 32.5809C21.9896 31.8748 22.1914 31.1687 22.6957 30.6643C22.8975 30.4626 22.9983 30.2609 23.2001 30.0591C23.3009 29.9583 23.3009 29.9583 23.3009 30.0591C23.4018 30.16 23.4018 30.16 23.4018 30.2609C23.9062 31.8748 24.7131 33.3878 25.5201 34.8C26.1253 35.9096 26.8314 36.9183 27.6383 37.927C27.9409 38.3304 28.3444 38.7339 28.647 39.0365C28.7479 39.1374 28.7479 39.1374 28.8488 39.2383C29.0505 39.3391 29.1514 39.44 29.3531 39.6417C29.3531 39.6417 29.3531 39.6417 29.2522 39.6417C29.0505 39.5409 28.8488 39.44 28.647 39.2383C28.4453 39.0365 28.2435 38.8348 28.0418 38.633C27.8401 38.4313 27.5375 38.2296 27.3357 38.0278C26.4279 37.3217 25.5201 36.5148 24.814 35.607C24.5114 35.2035 24.3096 34.9009 24.1079 34.4974C23.9062 33.993 23.6036 33.4887 23.3009 32.9844C23.3009 32.9844 23.3009 32.8835 23.2001 32.8835C23.0992 32.9843 23.0992 32.9843 23.0992 33.0852C22.9983 33.7913 22.8975 34.4974 22.7966 35.2035C22.7966 35.4052 22.6957 35.607 22.5949 35.9096C22.2922 36.7165 21.3844 36.9183 20.7792 36.7165C20.4766 36.6157 20.2749 36.4139 20.0731 36.2122C19.5688 35.7078 19.2662 35.2035 18.9635 34.5983C18.5601 33.7913 18.3583 32.8835 18.2575 32.0765C18.1566 31.3704 18.1566 30.6643 18.1566 29.9583C18.1566 29.0504 18.3583 28.0417 18.5601 27.2348C18.6609 26.8313 18.7618 26.4278 18.8627 25.9235C18.9636 25.7217 18.9636 25.4191 19.1653 25.2174C19.1653 25.1165 19.1653 25.1165 19.1653 25.0157C19.1653 24.9148 19.0644 24.713 18.9635 24.713C18.4592 24.3096 18.1566 23.7043 17.854 23.0991C17.4505 22.2922 17.047 21.3843 16.7444 20.5774C16.6436 20.1739 16.4418 19.7704 16.3409 19.367C16.2401 19.1652 16.1392 18.8626 16.1392 18.56C16.0383 18.2574 15.9375 17.8539 15.7357 17.5513C15.4331 17.1478 15.1305 16.6435 14.8279 16.24C14.5253 15.9374 14.3236 15.5339 14.0209 15.2313C13.7183 14.8278 13.5166 14.5252 13.3149 14.1217C13.214 13.8191 13.1131 13.6174 13.0122 13.3148C13.0122 13.3148 13.0122 13.2139 12.9114 13.2139C12.9114 13.113 12.9114 12.9113 12.9114 12.8104C12.9114 12.7096 12.9114 12.7096 13.0122 12.6087C13.1131 12.3061 13.214 12.0035 13.3149 11.8017C13.5166 11.3983 13.9201 11.1965 14.3236 11.0957C14.4244 11.0957 14.5253 10.9948 14.727 10.9948C14.8279 10.9948 14.8279 10.9948 14.9288 10.9948C15.0296 10.9948 15.1305 10.9948 15.3322 10.9948C15.7357 11.1965 15.7357 11.1965 15.8366 11.1965Z" fill="white"/>
<path d="M15.0295 11.196C14.9286 11.196 14.8278 11.196 14.626 11.2969C14.2226 11.3978 13.92 11.7004 13.6173 12.003C13.4156 12.3056 13.3147 12.5073 13.3147 12.8099C13.3147 12.9108 13.3147 12.9108 13.2139 13.0117C13.2139 12.4065 13.2139 11.8012 13.2139 11.0952C13.92 11.196 14.4243 11.196 15.0295 11.196Z" fill="white"/>
<path d="M20.5774 17.4505C20.6783 17.3496 20.88 17.3496 20.9809 17.3496C21.0817 17.3496 21.0817 17.3496 21.1826 17.3496C21.3843 17.3496 21.5861 17.3496 21.7878 17.4505C21.8887 17.5513 21.8887 17.5513 21.9896 17.5513C22.0904 17.6522 22.2922 17.7531 22.2922 17.9548C22.393 18.0557 22.393 18.1566 22.4939 18.2574V18.3583C22.4939 18.6609 22.4939 18.8627 22.2922 19.1653C22.1913 19.367 22.0904 19.4679 21.8887 19.5687L21.7878 19.4679C21.687 19.1653 21.4852 18.8627 21.3844 18.6609C21.2835 18.4592 21.1826 18.3583 21.0817 18.1566C20.9809 17.9548 20.7791 17.7531 20.5774 17.4505Z" fill="white"/>
<defs>
<linearGradient id="paint0_linear" x1="48.1305" y1="9.86928" x2="7.29428" y2="50.7055" gradientUnits="userSpaceOnUse">
<stop stop-color="#0CA6D3"/>
<stop offset="1" stop-color="#096B88"/>
</linearGradient>
</defs>
</svg>
