<svg width="58" height="58" viewBox="0 0 58 58" fill="none" xmlns="http://www.w3.org/2000/svg">
<path d="M28.9496 0C13.0122 0 0 13.0122 0 29.0504C0 44.9878 13.0122 58 28.9496 58C44.887 58 58 44.9878 58 29.0504C58 13.0122 44.9878 0 28.9496 0Z" fill="url(#paint0_linear)"/>
<path d="M43.3738 26.5287C43.979 25.1165 43.7773 23.6035 42.8695 22.3931L39.9442 18.4591C39.339 17.5513 38.2295 17.2487 37.1199 17.5513L33.6903 18.8626C33.0851 18.8626 31.2695 17.8539 28.9495 18.2574C26.7303 17.9548 24.8138 18.8626 24.2086 18.8626L20.779 17.5513C19.7703 17.2487 18.6608 17.5513 17.9547 18.4591L15.1303 22.3931C14.2225 23.6035 14.0208 25.2174 14.626 26.5287C15.7355 29.2522 17.4503 30.967 19.8712 32.8835C21.0816 33.7913 22.6955 33.6904 23.7042 32.5809C23.906 32.2783 24.1077 32.0765 24.4103 31.6731C24.5112 31.5722 24.5112 31.3704 24.4103 31.2696L24.3095 31.1687C23.7042 30.6644 23.4016 29.8574 23.4016 29.1513V28.4452L22.7964 26.7304C22.5947 26.2261 22.5947 25.7217 22.5947 25.2174L22.8973 23.0991L21.8886 21.3844C21.7877 21.1826 21.8886 20.9809 21.9895 20.88C22.1912 20.7791 22.3929 20.88 22.4938 20.9809L23.6034 22.7965C23.6034 22.8974 23.7042 22.9983 23.6034 22.9983L23.1999 25.2174C23.099 25.6209 23.1999 26.0244 23.3008 26.4278L24.0068 28.1426V28.2435V28.9496C24.0068 29.5548 24.3095 30.0591 24.7129 30.4626L25.0155 30.6644C25.2173 30.8661 25.1164 31.0678 25.0155 31.2696C24.9147 31.3704 24.8138 31.4713 24.8138 31.6731V32.7826C24.8138 33.3878 25.1164 33.993 25.5199 34.3965C26.1251 35.0017 26.5286 35.8087 26.5286 36.6157C26.8312 42.0626 32.6816 43.4748 34.0938 39.44C34.0938 39.3391 34.0938 39.1374 33.8921 39.1374C33.6903 39.0365 33.3877 38.9357 33.2868 38.7339C33.186 38.6331 32.9842 38.6331 32.8834 38.7339C31.6729 39.1374 31.3703 38.1287 31.4712 36.7165C31.5721 35.9096 31.8747 35.1026 32.4799 34.4974L32.6816 34.2957C33.0851 33.8922 33.3877 33.287 33.3877 32.6817V31.5722C33.3877 31.4713 33.2869 31.2696 33.186 31.1687C32.9842 31.0678 32.9842 30.7652 33.186 30.5635L33.4886 30.3617C33.8921 29.9583 34.1947 29.4539 34.1947 28.8487V28.1426V28.0417L34.9008 26.327C35.0016 25.9235 35.1025 25.52 35.0016 25.1165L34.5982 22.8974C34.5982 22.7965 34.5982 22.6957 34.5982 22.6957L35.7077 20.88C35.8086 20.6783 36.0103 20.6783 36.2121 20.7791C36.4138 20.88 36.4138 21.0817 36.3129 21.2835L35.3042 22.9983L35.6068 25.1165C35.7077 25.6209 35.6068 26.1252 35.4051 26.6296L34.7999 28.3444V29.0504C34.7999 29.8574 34.4973 30.5635 33.8921 31.0678C33.7912 31.0678 33.7912 31.1687 33.7912 31.1687C33.6903 31.2696 33.6903 31.4713 33.7912 31.5722C33.9929 31.8748 34.1947 32.1774 34.4973 32.48C35.506 33.5896 37.1199 33.7913 38.3303 32.7826C40.5495 30.967 42.2642 29.2522 43.3738 26.5287Z" fill="white"/>
<defs>
<linearGradient id="paint0_linear" x1="48.1305" y1="9.86928" x2="7.29428" y2="50.7055" gradientUnits="userSpaceOnUse">
<stop stop-color="#478FCC"/>
<stop offset="1" stop-color="#00579B"/>
</linearGradient>
</defs>
</svg>
