<svg width="58" height="58" viewBox="0 0 58 58" fill="none" xmlns="http://www.w3.org/2000/svg">
<path d="M28.9496 0C13.0122 0 0 13.0122 0 29.0504C0 44.9878 13.0122 58 28.9496 58C44.887 58 58 44.9878 58 29.0504C58 13.0122 44.9878 0 28.9496 0Z" fill="url(#paint0_linear)"/>
<path d="M37.1199 15.1304H20.9808C17.8538 15.1304 15.2312 17.753 15.2312 20.88V37.0191C15.2312 40.1461 17.8538 42.7687 20.9808 42.7687H37.1199C40.2469 42.7687 42.8695 40.1461 42.8695 37.0191V20.88C42.8695 17.753 40.2469 15.1304 37.1199 15.1304ZM21.9895 19.8713C24.0069 19.8713 25.6208 21.4852 25.6208 23.5026C25.6208 25.52 24.1077 27.2348 21.9895 27.2348C19.9721 27.2348 18.3582 25.6209 18.3582 23.6035C18.3582 21.5861 19.9721 19.8713 21.9895 19.8713ZM22.1912 40.247L17.4503 35.5061L22.1912 30.7652L26.9321 35.5061L22.1912 40.247ZM36.1112 38.1287H31.8747L36.0103 31.3704L40.2469 38.1287H36.1112ZM37.9268 24.6122L39.0364 28.1426L36.0103 25.9235L32.9842 28.1426L34.0938 24.6122L31.0677 22.393H34.7999L35.9095 18.8626L37.019 22.393H40.7512L37.9268 24.6122Z" fill="white"/>
<defs>
<linearGradient id="paint0_linear" x1="47.0503" y1="10.9496" x2="9.76195" y2="48.2378" gradientUnits="userSpaceOnUse">
<stop stop-color="#ED1C24"/>
<stop offset="1" stop-color="#BE1E2D"/>
</linearGradient>
</defs>
</svg>
